<?xml version="1.0" encoding="UTF-8" standalone="no"?>
<!DOCTYPE svg PUBLIC "-//W3C//DTD SVG 1.1//EN"
 "http://www.w3.org/Graphics/SVG/1.1/DTD/svg11.dtd">
<!-- Generated by graphviz version 2.43.0 (0)
 -->
<!-- Title: include/debug/assert.hxx Pages: 1 -->
<svg width="1215pt" height="137pt"
 viewBox="0.00 0.00 1215.00 137.00" xmlns="http://www.w3.org/2000/svg" xmlns:xlink="http://www.w3.org/1999/xlink">
<g id="graph0" class="graph" transform="scale(1 1) rotate(0) translate(4 133)">
<title>include/debug/assert.hxx</title>
<!-- Node1 -->
<g id="Node000001" class="node">
<title>Node1</title>
<g id="a_Node000001"><a xlink:title=" ">
<polygon fill="#999999" stroke="#666666" points="537,-129 398,-129 398,-110 537,-110 537,-129"/>
<text text-anchor="middle" x="467.5" y="-117" font-family="Helvetica,sans-Serif" font-size="10.00">include/debug/assert.hxx</text>
</a>
</g>
</g>
<!-- Node2 -->
<g id="Node000002" class="node">
<title>Node2</title>
<g id="a_Node000002"><a xlink:title=" ">
<polygon fill="#e0e0e0" stroke="#999999" points="49,-74 0,-74 0,-55 49,-55 49,-74"/>
<text text-anchor="middle" x="24.5" y="-62" font-family="Helvetica,sans-Serif" font-size="10.00">cstdlib</text>
</a>
</g>
</g>
<!-- Node1&#45;&gt;Node2 -->
<g id="edge1_Node000001_Node000002" class="edge">
<title>Node1&#45;&gt;Node2</title>
<g id="a_edge1_Node000001_Node000002"><a xlink:title=" ">
<path fill="none" stroke="#63b8ff" d="M397.98,-113.84C318.42,-107.86 184.12,-95.78 59.41,-73.91"/>
<polygon fill="#63b8ff" stroke="#63b8ff" points="59.76,-70.42 49.3,-72.12 58.53,-77.31 59.76,-70.42"/>
</a>
</g>
</g>
<!-- Node3 -->
<g id="Node000003" class="node">
<title>Node3</title>
<g id="a_Node000003"><a xlink:title=" ">
<polygon fill="#e0e0e0" stroke="#999999" points="160,-74 67,-74 67,-55 160,-55 160,-74"/>
<text text-anchor="middle" x="113.5" y="-62" font-family="Helvetica,sans-Serif" font-size="10.00">source_location</text>
</a>
</g>
</g>
<!-- Node1&#45;&gt;Node3 -->
<g id="edge2_Node000001_Node000003" class="edge">
<title>Node1&#45;&gt;Node3</title>
<g id="a_edge2_Node000001_Node000003"><a xlink:title=" ">
<path fill="none" stroke="#63b8ff" d="M410.09,-109.97C352.24,-101.36 260.12,-87.63 170.34,-74.12"/>
<polygon fill="#63b8ff" stroke="#63b8ff" points="170.66,-70.63 160.25,-72.6 169.62,-77.55 170.66,-70.63"/>
</a>
</g>
</g>
<!-- Node4 -->
<g id="Node000004" class="node">
<title>Node4</title>
<g id="a_Node000004"><a xlink:title=" ">
<polygon fill="#e0e0e0" stroke="#999999" points="246.5,-74 178.5,-74 178.5,-55 246.5,-55 246.5,-74"/>
<text text-anchor="middle" x="212.5" y="-62" font-family="Helvetica,sans-Serif" font-size="10.00">stacktrace</text>
</a>
</g>
</g>
<!-- Node1&#45;&gt;Node4 -->
<g id="edge3_Node000001_Node000004" class="edge">
<title>Node1&#45;&gt;Node4</title>
<g id="a_edge3_Node000001_Node000004"><a xlink:title=" ">
<path fill="none" stroke="#63b8ff" d="M426.53,-109.98C380.1,-100.33 304.68,-84.66 256.88,-74.72"/>
<polygon fill="#63b8ff" stroke="#63b8ff" points="257.33,-71.24 246.83,-72.63 255.91,-78.1 257.33,-71.24"/>
</a>
</g>
</g>
<!-- Node5 -->
<g id="Node000005" class="node">
<title>Node5</title>
<g id="a_Node000005"><a xlink:title=" ">
<polygon fill="#e0e0e0" stroke="#999999" points="308.5,-74 264.5,-74 264.5,-55 308.5,-55 308.5,-74"/>
<text text-anchor="middle" x="286.5" y="-62" font-family="Helvetica,sans-Serif" font-size="10.00">string</text>
</a>
</g>
</g>
<!-- Node1&#45;&gt;Node5 -->
<g id="edge4_Node000001_Node000005" class="edge">
<title>Node1&#45;&gt;Node5</title>
<g id="a_edge4_Node000001_Node000005"><a xlink:title=" ">
<path fill="none" stroke="#63b8ff" d="M438.42,-109.98C405.64,-100.39 352.49,-84.82 318.54,-74.88"/>
<polygon fill="#63b8ff" stroke="#63b8ff" points="319.24,-71.44 308.66,-71.99 317.28,-78.16 319.24,-71.44"/>
</a>
</g>
</g>
<!-- Node6 -->
<g id="Node000006" class="node">
<title>Node6</title>
<g id="a_Node000006"><a xlink:title=" ">
<polygon fill="#e0e0e0" stroke="#999999" points="372,-74 327,-74 327,-55 372,-55 372,-74"/>
<text text-anchor="middle" x="349.5" y="-62" font-family="Helvetica,sans-Serif" font-size="10.00">utility</text>
</a>
</g>
</g>
<!-- Node1&#45;&gt;Node6 -->
<g id="edge5_Node000001_Node000006" class="edge">
<title>Node1&#45;&gt;Node6</title>
<g id="a_edge5_Node000001_Node000006"><a xlink:title=" ">
<path fill="none" stroke="#63b8ff" d="M448.54,-109.98C429.47,-101.42 399.84,-88.11 377.95,-78.28"/>
<polygon fill="#63b8ff" stroke="#63b8ff" points="379.36,-75.07 368.8,-74.17 376.49,-81.46 379.36,-75.07"/>
</a>
</g>
</g>
<!-- Node7 -->
<g id="Node000007" class="node">
<title>Node7</title>
<g id="a_Node000007"><a xlink:title=" ">
<polygon fill="#e0e0e0" stroke="#999999" points="459,-74 390,-74 390,-55 459,-55 459,-74"/>
<text text-anchor="middle" x="424.5" y="-62" font-family="Helvetica,sans-Serif" font-size="10.00">fmt/base.h</text>
</a>
</g>
</g>
<!-- Node1&#45;&gt;Node7 -->
<g id="edge6_Node000001_Node000007" class="edge">
<title>Node1&#45;&gt;Node7</title>
<g id="a_edge6_Node000001_Node000007"><a xlink:title=" ">
<path fill="none" stroke="#63b8ff" d="M460.4,-109.75C454.33,-102.26 445.41,-91.28 437.99,-82.13"/>
<polygon fill="#63b8ff" stroke="#63b8ff" points="440.49,-79.65 431.47,-74.09 435.05,-84.06 440.49,-79.65"/>
</a>
</g>
</g>
<!-- Node8 -->
<g id="Node000008" class="node">
<title>Node8</title>
<g id="a_Node000008"><a xlink:title=" ">
<polygon fill="#e0e0e0" stroke="#999999" points="546,-74 477,-74 477,-55 546,-55 546,-74"/>
<text text-anchor="middle" x="511.5" y="-62" font-family="Helvetica,sans-Serif" font-size="10.00">fmt/color.h</text>
</a>
</g>
</g>
<!-- Node1&#45;&gt;Node8 -->
<g id="edge7_Node000001_Node000008" class="edge">
<title>Node1&#45;&gt;Node8</title>
<g id="a_edge7_Node000001_Node000008"><a xlink:title=" ">
<path fill="none" stroke="#63b8ff" d="M474.77,-109.75C481.04,-102.18 490.29,-91.05 497.93,-81.84"/>
<polygon fill="#63b8ff" stroke="#63b8ff" points="500.67,-84.02 504.37,-74.09 495.29,-79.55 500.67,-84.02"/>
</a>
</g>
</g>
<!-- Node9 -->
<g id="Node000009" class="node">
<title>Node9</title>
<g id="a_Node000009"><a xlink:title=" ">
<polygon fill="#e0e0e0" stroke="#999999" points="643,-74 564,-74 564,-55 643,-55 643,-74"/>
<text text-anchor="middle" x="603.5" y="-62" font-family="Helvetica,sans-Serif" font-size="10.00">fmt/format.h</text>
</a>
</g>
</g>
<!-- Node1&#45;&gt;Node9 -->
<g id="edge8_Node000001_Node000009" class="edge">
<title>Node1&#45;&gt;Node9</title>
<g id="a_edge8_Node000001_Node000009"><a xlink:title=" ">
<path fill="none" stroke="#63b8ff" d="M489.35,-109.98C511.62,-101.3 546.4,-87.75 571.72,-77.88"/>
<polygon fill="#63b8ff" stroke="#63b8ff" points="573.21,-81.06 581.25,-74.17 570.66,-74.54 573.21,-81.06"/>
</a>
</g>
</g>
<!-- Node10 -->
<g id="Node000010" class="node">
<title>Node10</title>
<g id="a_Node000010"><a xlink:href="breakpoint_8hxx.html" target="_top" xlink:title=" ">
<polygon fill="white" stroke="#666666" points="784,-74 661,-74 661,-55 784,-55 784,-74"/>
<text text-anchor="middle" x="722.5" y="-62" font-family="Helvetica,sans-Serif" font-size="10.00">debug/breakpoint.hxx</text>
</a>
</g>
</g>
<!-- Node1&#45;&gt;Node10 -->
<g id="edge9_Node000001_Node000010" class="edge">
<title>Node1&#45;&gt;Node10</title>
<g id="a_edge9_Node000001_Node000010"><a xlink:title=" ">
<path fill="none" stroke="#63b8ff" d="M508.47,-109.98C552.76,-100.78 623.44,-86.09 671.35,-76.13"/>
<polygon fill="#63b8ff" stroke="#63b8ff" points="672.13,-79.54 681.21,-74.08 670.71,-72.69 672.13,-79.54"/>
</a>
</g>
</g>
<!-- Node11 -->
<g id="Node000011" class="node">
<title>Node11</title>
<g id="a_Node000011"><a xlink:href="is__debugger__present_8hxx.html" target="_top" xlink:title=" ">
<polygon fill="white" stroke="#666666" points="974.5,-74 802.5,-74 802.5,-55 974.5,-55 974.5,-74"/>
<text text-anchor="middle" x="888.5" y="-62" font-family="Helvetica,sans-Serif" font-size="10.00">debug/is_debugger_present.hxx</text>
</a>
</g>
</g>
<!-- Node1&#45;&gt;Node11 -->
<g id="edge10_Node000001_Node000011" class="edge">
<title>Node1&#45;&gt;Node11</title>
<g id="a_edge10_Node000001_Node000011"><a xlink:title=" ">
<path fill="none" stroke="#63b8ff" d="M535.14,-109.98C610.22,-100.53 731.2,-85.3 810.29,-75.35"/>
<polygon fill="#63b8ff" stroke="#63b8ff" points="811.19,-78.76 820.68,-74.04 810.32,-71.81 811.19,-78.76"/>
</a>
</g>
</g>
<!-- Node12 -->
<g id="Node000012" class="node">
<title>Node12</title>
<g id="a_Node000012"><a xlink:href="macros_8hxx.html" target="_top" xlink:title="Profiling zone macros for scope&#45;based performance measurement.">
<polygon fill="white" stroke="#666666" points="1136,-74 993,-74 993,-55 1136,-55 1136,-74"/>
<text text-anchor="middle" x="1064.5" y="-62" font-family="Helvetica,sans-Serif" font-size="10.00">debug/tracing/macros.hxx</text>
</a>
</g>
</g>
<!-- Node1&#45;&gt;Node12 -->
<g id="edge11_Node000001_Node000012" class="edge">
<title>Node1&#45;&gt;Node12</title>
<g id="a_edge11_Node000001_Node000012"><a xlink:title=" ">
<path fill="none" stroke="#63b8ff" d="M537.23,-112.9C634.39,-105 816.3,-89.89 982.53,-74.07"/>
<polygon fill="#63b8ff" stroke="#63b8ff" points="983.33,-77.51 992.95,-73.08 982.67,-70.55 983.33,-77.51"/>
</a>
</g>
</g>
<!-- Node14 -->
<g id="Node000014" class="node">
<title>Node14</title>
<g id="a_Node000014"><a xlink:title=" ">
<polygon fill="#e0e0e0" stroke="#999999" points="1207,-74 1154,-74 1154,-55 1207,-55 1207,-74"/>
<text text-anchor="middle" x="1180.5" y="-62" font-family="Helvetica,sans-Serif" font-size="10.00">iterator</text>
</a>
</g>
</g>
<!-- Node1&#45;&gt;Node14 -->
<g id="edge13_Node000001_Node000014" class="edge">
<title>Node1&#45;&gt;Node14</title>
<g id="a_edge13_Node000001_Node000014"><a xlink:title=" ">
<path fill="none" stroke="#63b8ff" d="M537.23,-117.88C658.79,-115.94 917.4,-107.97 1143.77,-74.01"/>
<polygon fill="#63b8ff" stroke="#63b8ff" points="1144.48,-77.44 1153.84,-72.48 1143.43,-70.52 1144.48,-77.44"/>
</a>
</g>
</g>
<!-- Node13 -->
<g id="Node000013" class="node">
<title>Node13</title>
<g id="a_Node000013"><a xlink:title=" ">
<polygon fill="#e0e0e0" stroke="#999999" points="1109,-19 1020,-19 1020,0 1109,0 1109,-19"/>
<text text-anchor="middle" x="1064.5" y="-7" font-family="Helvetica,sans-Serif" font-size="10.00">tracy/Tracy.hpp</text>
</a>
</g>
</g>
<!-- Node12&#45;&gt;Node13 -->
<g id="edge12_Node000012_Node000013" class="edge">
<title>Node12&#45;&gt;Node13</title>
<g id="a_edge12_Node000012_Node000013"><a xlink:title=" ">
<path fill="none" stroke="#63b8ff" d="M1064.5,-54.75C1064.5,-47.8 1064.5,-37.85 1064.5,-29.13"/>
<polygon fill="#63b8ff" stroke="#63b8ff" points="1068,-29.09 1064.5,-19.09 1061,-29.09 1068,-29.09"/>
</a>
</g>
</g>
</g>
</svg>
