<?xml version="1.0" encoding="UTF-8" standalone="no"?>
<!DOCTYPE svg PUBLIC "-//W3C//DTD SVG 1.1//EN"
 "http://www.w3.org/Graphics/SVG/1.1/DTD/svg11.dtd">
<!-- Generated by graphviz version 2.43.0 (0)
 -->
<!-- Title: include/debug/breakpoint_if_debugging.hxx Pages: 1 -->
<svg width="308pt" height="93pt"
 viewBox="0.00 0.00 307.50 93.00" xmlns="http://www.w3.org/2000/svg" xmlns:xlink="http://www.w3.org/1999/xlink">
<g id="graph0" class="graph" transform="scale(1 1) rotate(0) translate(4 89)">
<title>include/debug/breakpoint_if_debugging.hxx</title>
<!-- Node1 -->
<g id="Node000001" class="node">
<title>Node1</title>
<g id="a_Node000001"><a xlink:title=" ">
<polygon fill="#999999" stroke="#666666" points="202,-85 62,-85 62,-55 202,-55 202,-85"/>
<text text-anchor="start" x="70" y="-73" font-family="Helvetica,sans-Serif" font-size="10.00">include/debug/breakpoint</text>
<text text-anchor="middle" x="132" y="-62" font-family="Helvetica,sans-Serif" font-size="10.00">_if_debugging.hxx</text>
</a>
</g>
</g>
<!-- Node2 -->
<g id="Node000002" class="node">
<title>Node2</title>
<g id="a_Node000002"><a xlink:href="debug_8hxx.html" target="_top" xlink:title="Convenience header for all debug module components.">
<polygon fill="white" stroke="#666666" points="106,-19 0,-19 0,0 106,0 106,-19"/>
<text text-anchor="middle" x="53" y="-7" font-family="Helvetica,sans-Serif" font-size="10.00">include/debug.hxx</text>
</a>
</g>
</g>
<!-- Node1&#45;&gt;Node2 -->
<g id="edge1_Node000001_Node000002" class="edge">
<title>Node1&#45;&gt;Node2</title>
<g id="a_edge1_Node000001_Node000002"><a xlink:title=" ">
<path fill="none" stroke="#63b8ff" d="M104.74,-48.82C91.13,-38.73 75.35,-27.05 64.84,-19.27"/>
<polygon fill="#63b8ff" stroke="#63b8ff" points="102.76,-51.7 112.88,-54.84 106.92,-46.07 102.76,-51.7"/>
</a>
</g>
</g>
<!-- Node3 -->
<g id="Node000003" class="node">
<title>Node3</title>
<g id="a_Node000003"><a xlink:href="breakpoint__if__debugging_8cxx.html" target="_top" xlink:title=" ">
<polygon fill="white" stroke="#666666" points="299.5,-19 124.5,-19 124.5,0 299.5,0 299.5,-19"/>
<text text-anchor="middle" x="212" y="-7" font-family="Helvetica,sans-Serif" font-size="10.00">src/breakpoint_if_debugging.cxx</text>
</a>
</g>
</g>
<!-- Node1&#45;&gt;Node3 -->
<g id="edge2_Node000001_Node000003" class="edge">
<title>Node1&#45;&gt;Node3</title>
<g id="a_edge2_Node000001_Node000003"><a xlink:title=" ">
<path fill="none" stroke="#63b8ff" d="M159.6,-48.82C173.39,-38.73 189.36,-27.05 200.01,-19.27"/>
<polygon fill="#63b8ff" stroke="#63b8ff" points="157.37,-46.11 151.37,-54.84 161.5,-51.76 157.37,-46.11"/>
</a>
</g>
</g>
</g>
</svg>
