<?xml version="1.0" encoding="UTF-8" standalone="no"?>
<!DOCTYPE svg PUBLIC "-//W3C//DTD SVG 1.1//EN"
 "http://www.w3.org/Graphics/SVG/1.1/DTD/svg11.dtd">
<!-- Generated by graphviz version 2.43.0 (0)
 -->
<!-- Title: include/debug/breakpoint.hxx Pages: 1 -->
<svg width="498pt" height="137pt"
 viewBox="0.00 0.00 497.50 137.00" xmlns="http://www.w3.org/2000/svg" xmlns:xlink="http://www.w3.org/1999/xlink">
<g id="graph0" class="graph" transform="scale(1 1) rotate(0) translate(4 133)">
<title>include/debug/breakpoint.hxx</title>
<!-- Node1 -->
<g id="Node000001" class="node">
<title>Node1</title>
<g id="a_Node000001"><a xlink:title=" ">
<polygon fill="#999999" stroke="#666666" points="252.5,-129 91.5,-129 91.5,-110 252.5,-110 252.5,-129"/>
<text text-anchor="middle" x="172" y="-117" font-family="Helvetica,sans-Serif" font-size="10.00">include/debug/breakpoint.hxx</text>
</a>
</g>
</g>
<!-- Node2 -->
<g id="Node000002" class="node">
<title>Node2</title>
<g id="a_Node000002"><a xlink:href="debug_8hxx.html" target="_top" xlink:title="Convenience header for all debug module components.">
<polygon fill="white" stroke="#666666" points="106,-19 0,-19 0,0 106,0 106,-19"/>
<text text-anchor="middle" x="53" y="-7" font-family="Helvetica,sans-Serif" font-size="10.00">include/debug.hxx</text>
</a>
</g>
</g>
<!-- Node1&#45;&gt;Node2 -->
<g id="edge1_Node000001_Node000002" class="edge">
<title>Node1&#45;&gt;Node2</title>
<g id="a_edge1_Node000001_Node000002"><a xlink:title=" ">
<path fill="none" stroke="#63b8ff" d="M81.66,-110.66C58.98,-104.14 37.11,-92.94 23,-74 9.89,-56.4 30.05,-32.16 43.17,-19.31"/>
<polygon fill="#63b8ff" stroke="#63b8ff" points="80.85,-114.07 91.41,-113.18 82.61,-107.29 80.85,-114.07"/>
</a>
</g>
</g>
<!-- Node3 -->
<g id="Node000003" class="node">
<title>Node3</title>
<g id="a_Node000003"><a xlink:href="assert_8hxx.html" target="_top" xlink:title=" ">
<polygon fill="white" stroke="#666666" points="171.5,-74 32.5,-74 32.5,-55 171.5,-55 171.5,-74"/>
<text text-anchor="middle" x="102" y="-62" font-family="Helvetica,sans-Serif" font-size="10.00">include/debug/assert.hxx</text>
</a>
</g>
</g>
<!-- Node1&#45;&gt;Node3 -->
<g id="edge2_Node000001_Node000003" class="edge">
<title>Node1&#45;&gt;Node3</title>
<g id="a_edge2_Node000001_Node000003"><a xlink:title=" ">
<path fill="none" stroke="#63b8ff" d="M152.69,-103.88C140.09,-94.34 124.07,-82.21 113.45,-74.17"/>
<polygon fill="#63b8ff" stroke="#63b8ff" points="150.67,-106.74 160.75,-109.98 154.89,-101.16 150.67,-106.74"/>
</a>
</g>
</g>
<!-- Node4 -->
<g id="Node000004" class="node">
<title>Node4</title>
<g id="a_Node000004"><a xlink:href="breakpoint_8cxx.html" target="_top" xlink:title=" ">
<polygon fill="white" stroke="#666666" points="296.5,-74 189.5,-74 189.5,-55 296.5,-55 296.5,-74"/>
<text text-anchor="middle" x="243" y="-62" font-family="Helvetica,sans-Serif" font-size="10.00">src/breakpoint.cxx</text>
</a>
</g>
</g>
<!-- Node1&#45;&gt;Node4 -->
<g id="edge4_Node000001_Node000004" class="edge">
<title>Node1&#45;&gt;Node4</title>
<g id="a_edge4_Node000001_Node000004"><a xlink:title=" ">
<path fill="none" stroke="#63b8ff" d="M191.59,-103.88C204.37,-94.34 220.61,-82.21 231.39,-74.17"/>
<polygon fill="#63b8ff" stroke="#63b8ff" points="189.33,-101.2 183.41,-109.98 193.51,-106.81 189.33,-101.2"/>
</a>
</g>
</g>
<!-- Node5 -->
<g id="Node000005" class="node">
<title>Node5</title>
<g id="a_Node000005"><a xlink:href="breakpoint__if__debugging_8cxx.html" target="_top" xlink:title=" ">
<polygon fill="white" stroke="#666666" points="489.5,-74 314.5,-74 314.5,-55 489.5,-55 489.5,-74"/>
<text text-anchor="middle" x="402" y="-62" font-family="Helvetica,sans-Serif" font-size="10.00">src/breakpoint_if_debugging.cxx</text>
</a>
</g>
</g>
<!-- Node1&#45;&gt;Node5 -->
<g id="edge5_Node000001_Node000005" class="edge">
<title>Node1&#45;&gt;Node5</title>
<g id="a_edge5_Node000001_Node000005"><a xlink:title=" ">
<path fill="none" stroke="#63b8ff" d="M218.91,-107.69C262,-97.76 325.03,-83.24 364.76,-74.08"/>
<polygon fill="#63b8ff" stroke="#63b8ff" points="217.91,-104.33 208.95,-109.98 219.48,-111.15 217.91,-104.33"/>
</a>
</g>
</g>
<!-- Node3&#45;&gt;Node2 -->
<g id="edge3_Node000003_Node000002" class="edge">
<title>Node3&#45;&gt;Node2</title>
<g id="a_edge3_Node000003_Node000002"><a xlink:title=" ">
<path fill="none" stroke="#63b8ff" d="M86.97,-47.24C78.38,-37.95 67.96,-26.68 60.94,-19.09"/>
<polygon fill="#63b8ff" stroke="#63b8ff" points="84.55,-49.78 93.91,-54.75 89.69,-45.03 84.55,-49.78"/>
</a>
</g>
</g>
</g>
</svg>
