<?xml version="1.0" encoding="UTF-8" standalone="no"?>
<!DOCTYPE svg PUBLIC "-//W3C//DTD SVG 1.1//EN"
 "http://www.w3.org/Graphics/SVG/1.1/DTD/svg11.dtd">
<!-- Generated by graphviz version 2.43.0 (0)
 -->
<!-- Title: include/debug.hxx Pages: 1 -->
<svg width="1215pt" height="203pt"
 viewBox="0.00 0.00 1214.50 203.00" xmlns="http://www.w3.org/2000/svg" xmlns:xlink="http://www.w3.org/1999/xlink">
<g id="graph0" class="graph" transform="scale(1 1) rotate(0) translate(4 199)">
<title>include/debug.hxx</title>
<!-- Node1 -->
<g id="Node000001" class="node">
<title>Node1</title>
<g id="a_Node000001"><a xlink:title="Convenience header for all debug module components.">
<polygon fill="#999999" stroke="#666666" points="1026.5,-195 920.5,-195 920.5,-176 1026.5,-176 1026.5,-195"/>
<text text-anchor="middle" x="973.5" y="-183" font-family="Helvetica,sans-Serif" font-size="10.00">include/debug.hxx</text>
</a>
</g>
</g>
<!-- Node2 -->
<g id="Node000002" class="node">
<title>Node2</title>
<g id="a_Node000002"><a xlink:href="assert_8hxx.html" target="_top" xlink:title=" ">
<polygon fill="white" stroke="#666666" points="679,-134.5 578,-134.5 578,-115.5 679,-115.5 679,-134.5"/>
<text text-anchor="middle" x="628.5" y="-122.5" font-family="Helvetica,sans-Serif" font-size="10.00">debug/assert.hxx</text>
</a>
</g>
</g>
<!-- Node1&#45;&gt;Node2 -->
<g id="edge1_Node000001_Node000002" class="edge">
<title>Node1&#45;&gt;Node2</title>
<g id="a_edge1_Node000001_Node000002"><a xlink:title=" ">
<path fill="none" stroke="#63b8ff" d="M923.33,-175.99C861.12,-165.44 755.16,-147.48 688.65,-136.2"/>
<polygon fill="#63b8ff" stroke="#63b8ff" points="689.17,-132.74 678.73,-134.52 688,-139.64 689.17,-132.74"/>
</a>
</g>
</g>
<!-- Node11 -->
<g id="Node000011" class="node">
<title>Node11</title>
<g id="a_Node000011"><a xlink:href="breakpoint_8hxx.html" target="_top" xlink:title=" ">
<polygon fill="white" stroke="#666666" points="1016,-74 893,-74 893,-55 1016,-55 1016,-74"/>
<text text-anchor="middle" x="954.5" y="-62" font-family="Helvetica,sans-Serif" font-size="10.00">debug/breakpoint.hxx</text>
</a>
</g>
</g>
<!-- Node1&#45;&gt;Node11 -->
<g id="edge15_Node000001_Node000011" class="edge">
<title>Node1&#45;&gt;Node11</title>
<g id="a_edge15_Node000001_Node000011"><a xlink:title=" ">
<path fill="none" stroke="#63b8ff" d="M972.13,-175.94C969.09,-156.91 961.72,-110.69 957.53,-84.47"/>
<polygon fill="#63b8ff" stroke="#63b8ff" points="960.94,-83.62 955.91,-74.3 954.03,-84.73 960.94,-83.62"/>
</a>
</g>
</g>
<!-- Node12 -->
<g id="Node000012" class="node">
<title>Node12</title>
<g id="a_Node000012"><a xlink:href="is__debugger__present_8hxx.html" target="_top" xlink:title=" ">
<polygon fill="white" stroke="#666666" points="1206.5,-74 1034.5,-74 1034.5,-55 1206.5,-55 1206.5,-74"/>
<text text-anchor="middle" x="1120.5" y="-62" font-family="Helvetica,sans-Serif" font-size="10.00">debug/is_debugger_present.hxx</text>
</a>
</g>
</g>
<!-- Node1&#45;&gt;Node12 -->
<g id="edge17_Node000001_Node000012" class="edge">
<title>Node1&#45;&gt;Node12</title>
<g id="a_edge17_Node000001_Node000012"><a xlink:title=" ">
<path fill="none" stroke="#63b8ff" d="M975.73,-175.92C980.1,-160.66 991.19,-128.67 1011.5,-110 1028.52,-94.36 1051.77,-83.85 1072.43,-76.99"/>
<polygon fill="#63b8ff" stroke="#63b8ff" points="1073.51,-80.32 1082.02,-74.01 1071.43,-73.64 1073.51,-80.32"/>
</a>
</g>
</g>
<!-- Node16 -->
<g id="Node000016" class="node">
<title>Node16</title>
<g id="a_Node000016"><a xlink:href="breakpoint__if__debugging_8hxx.html" target="_top" xlink:title=" ">
<polygon fill="white" stroke="#666666" points="1134.5,-140 1020.5,-140 1020.5,-110 1134.5,-110 1134.5,-140"/>
<text text-anchor="start" x="1028.5" y="-128" font-family="Helvetica,sans-Serif" font-size="10.00">debug/breakpoint_if</text>
<text text-anchor="middle" x="1077.5" y="-117" font-family="Helvetica,sans-Serif" font-size="10.00">_debugging.hxx</text>
</a>
</g>
</g>
<!-- Node1&#45;&gt;Node16 -->
<g id="edge16_Node000001_Node000016" class="edge">
<title>Node1&#45;&gt;Node16</title>
<g id="a_edge16_Node000001_Node000016"><a xlink:title=" ">
<path fill="none" stroke="#63b8ff" d="M988.85,-175.87C1003.22,-167.78 1025.19,-155.42 1043.67,-145.03"/>
<polygon fill="#63b8ff" stroke="#63b8ff" points="1045.41,-148.07 1052.41,-140.11 1041.98,-141.97 1045.41,-148.07"/>
</a>
</g>
</g>
<!-- Node3 -->
<g id="Node000003" class="node">
<title>Node3</title>
<g id="a_Node000003"><a xlink:title=" ">
<polygon fill="#e0e0e0" stroke="#999999" points="465,-74 416,-74 416,-55 465,-55 465,-74"/>
<text text-anchor="middle" x="440.5" y="-62" font-family="Helvetica,sans-Serif" font-size="10.00">cstdlib</text>
</a>
</g>
</g>
<!-- Node2&#45;&gt;Node3 -->
<g id="edge2_Node000002_Node000003" class="edge">
<title>Node2&#45;&gt;Node3</title>
<g id="a_edge2_Node000002_Node000003"><a xlink:title=" ">
<path fill="none" stroke="#63b8ff" d="M601.16,-115.49C567.75,-105.09 511.17,-87.49 474.84,-76.19"/>
<polygon fill="#63b8ff" stroke="#63b8ff" points="475.76,-72.81 465.17,-73.18 473.68,-79.49 475.76,-72.81"/>
</a>
</g>
</g>
<!-- Node4 -->
<g id="Node000004" class="node">
<title>Node4</title>
<g id="a_Node000004"><a xlink:title=" ">
<polygon fill="#e0e0e0" stroke="#999999" points="576,-74 483,-74 483,-55 576,-55 576,-74"/>
<text text-anchor="middle" x="529.5" y="-62" font-family="Helvetica,sans-Serif" font-size="10.00">source_location</text>
</a>
</g>
</g>
<!-- Node2&#45;&gt;Node4 -->
<g id="edge3_Node000002_Node000004" class="edge">
<title>Node2&#45;&gt;Node4</title>
<g id="a_edge3_Node000002_Node000004"><a xlink:title=" ">
<path fill="none" stroke="#63b8ff" d="M613.89,-115.37C597.81,-105.86 571.72,-90.45 552.8,-79.27"/>
<polygon fill="#63b8ff" stroke="#63b8ff" points="554.56,-76.24 544.17,-74.17 551,-82.27 554.56,-76.24"/>
</a>
</g>
</g>
<!-- Node5 -->
<g id="Node000005" class="node">
<title>Node5</title>
<g id="a_Node000005"><a xlink:title=" ">
<polygon fill="#e0e0e0" stroke="#999999" points="662.5,-74 594.5,-74 594.5,-55 662.5,-55 662.5,-74"/>
<text text-anchor="middle" x="628.5" y="-62" font-family="Helvetica,sans-Serif" font-size="10.00">stacktrace</text>
</a>
</g>
</g>
<!-- Node2&#45;&gt;Node5 -->
<g id="edge4_Node000002_Node000005" class="edge">
<title>Node2&#45;&gt;Node5</title>
<g id="a_edge4_Node000002_Node000005"><a xlink:title=" ">
<path fill="none" stroke="#63b8ff" d="M628.5,-115.37C628.5,-107.25 628.5,-94.81 628.5,-84.39"/>
<polygon fill="#63b8ff" stroke="#63b8ff" points="632,-84.17 628.5,-74.17 625,-84.17 632,-84.17"/>
</a>
</g>
</g>
<!-- Node6 -->
<g id="Node000006" class="node">
<title>Node6</title>
<g id="a_Node000006"><a xlink:title=" ">
<polygon fill="#e0e0e0" stroke="#999999" points="724.5,-74 680.5,-74 680.5,-55 724.5,-55 724.5,-74"/>
<text text-anchor="middle" x="702.5" y="-62" font-family="Helvetica,sans-Serif" font-size="10.00">string</text>
</a>
</g>
</g>
<!-- Node2&#45;&gt;Node6 -->
<g id="edge5_Node000002_Node000006" class="edge">
<title>Node2&#45;&gt;Node6</title>
<g id="a_edge5_Node000002_Node000006"><a xlink:title=" ">
<path fill="none" stroke="#63b8ff" d="M639.42,-115.37C651.01,-106.21 669.53,-91.56 683.52,-80.51"/>
<polygon fill="#63b8ff" stroke="#63b8ff" points="685.86,-83.11 691.54,-74.17 681.52,-77.62 685.86,-83.11"/>
</a>
</g>
</g>
<!-- Node7 -->
<g id="Node000007" class="node">
<title>Node7</title>
<g id="a_Node000007"><a xlink:title=" ">
<polygon fill="#e0e0e0" stroke="#999999" points="788,-74 743,-74 743,-55 788,-55 788,-74"/>
<text text-anchor="middle" x="765.5" y="-62" font-family="Helvetica,sans-Serif" font-size="10.00">utility</text>
</a>
</g>
</g>
<!-- Node2&#45;&gt;Node7 -->
<g id="edge6_Node000002_Node000007" class="edge">
<title>Node2&#45;&gt;Node7</title>
<g id="a_edge6_Node000002_Node000007"><a xlink:title=" ">
<path fill="none" stroke="#63b8ff" d="M648.42,-115.49C671.45,-105.66 709.58,-89.38 736.04,-78.08"/>
<polygon fill="#63b8ff" stroke="#63b8ff" points="737.73,-81.16 745.55,-74.02 734.98,-74.72 737.73,-81.16"/>
</a>
</g>
</g>
<!-- Node8 -->
<g id="Node000008" class="node">
<title>Node8</title>
<g id="a_Node000008"><a xlink:title=" ">
<polygon fill="#e0e0e0" stroke="#999999" points="875,-74 806,-74 806,-55 875,-55 875,-74"/>
<text text-anchor="middle" x="840.5" y="-62" font-family="Helvetica,sans-Serif" font-size="10.00">fmt/base.h</text>
</a>
</g>
</g>
<!-- Node2&#45;&gt;Node8 -->
<g id="edge7_Node000002_Node000008" class="edge">
<title>Node2&#45;&gt;Node8</title>
<g id="a_edge7_Node000002_Node000008"><a xlink:title=" ">
<path fill="none" stroke="#63b8ff" d="M659.33,-115.49C696.46,-105.25 758.95,-88 799.96,-76.69"/>
<polygon fill="#63b8ff" stroke="#63b8ff" points="800.93,-80.05 809.64,-74.02 799.07,-73.3 800.93,-80.05"/>
</a>
</g>
</g>
<!-- Node9 -->
<g id="Node000009" class="node">
<title>Node9</title>
<g id="a_Node000009"><a xlink:title=" ">
<polygon fill="#e0e0e0" stroke="#999999" points="69,-74 0,-74 0,-55 69,-55 69,-74"/>
<text text-anchor="middle" x="34.5" y="-62" font-family="Helvetica,sans-Serif" font-size="10.00">fmt/color.h</text>
</a>
</g>
</g>
<!-- Node2&#45;&gt;Node9 -->
<g id="edge8_Node000002_Node000009" class="edge">
<title>Node2&#45;&gt;Node9</title>
<g id="a_edge8_Node000002_Node000009"><a xlink:title=" ">
<path fill="none" stroke="#63b8ff" d="M577.78,-121.18C482.13,-115.47 268.44,-100.88 79.31,-74.13"/>
<polygon fill="#63b8ff" stroke="#63b8ff" points="79.58,-70.63 69.18,-72.68 78.58,-77.56 79.58,-70.63"/>
</a>
</g>
</g>
<!-- Node10 -->
<g id="Node000010" class="node">
<title>Node10</title>
<g id="a_Node000010"><a xlink:title=" ">
<polygon fill="#e0e0e0" stroke="#999999" points="166,-74 87,-74 87,-55 166,-55 166,-74"/>
<text text-anchor="middle" x="126.5" y="-62" font-family="Helvetica,sans-Serif" font-size="10.00">fmt/format.h</text>
</a>
</g>
</g>
<!-- Node2&#45;&gt;Node10 -->
<g id="edge9_Node000002_Node000010" class="edge">
<title>Node2&#45;&gt;Node10</title>
<g id="a_edge9_Node000002_Node000010"><a xlink:title=" ">
<path fill="none" stroke="#63b8ff" d="M577.76,-119.43C495.66,-111.81 328.4,-95.36 176.06,-73.99"/>
<polygon fill="#63b8ff" stroke="#63b8ff" points="176.44,-70.51 166.05,-72.58 175.46,-77.44 176.44,-70.51"/>
</a>
</g>
</g>
<!-- Node2&#45;&gt;Node11 -->
<g id="edge10_Node000002_Node000011" class="edge">
<title>Node2&#45;&gt;Node11</title>
<g id="a_edge10_Node000002_Node000011"><a xlink:title=" ">
<path fill="none" stroke="#63b8ff" d="M675.9,-115.49C734.45,-104.99 833.99,-87.12 896.89,-75.84"/>
<polygon fill="#63b8ff" stroke="#63b8ff" points="897.82,-79.23 907.04,-74.02 896.58,-72.34 897.82,-79.23"/>
</a>
</g>
</g>
<!-- Node2&#45;&gt;Node12 -->
<g id="edge11_Node000002_Node000012" class="edge">
<title>Node2&#45;&gt;Node12</title>
<g id="a_edge11_Node000002_Node000012"><a xlink:title=" ">
<path fill="none" stroke="#63b8ff" d="M679.3,-117.96C764.36,-107.85 936.33,-87.4 1038.64,-75.23"/>
<polygon fill="#63b8ff" stroke="#63b8ff" points="1039.1,-78.7 1048.62,-74.05 1038.28,-71.75 1039.1,-78.7"/>
</a>
</g>
</g>
<!-- Node13 -->
<g id="Node000013" class="node">
<title>Node13</title>
<g id="a_Node000013"><a xlink:href="macros_8hxx.html" target="_top" xlink:title="Profiling zone macros for scope&#45;based performance measurement.">
<polygon fill="white" stroke="#666666" points="327,-74 184,-74 184,-55 327,-55 327,-74"/>
<text text-anchor="middle" x="255.5" y="-62" font-family="Helvetica,sans-Serif" font-size="10.00">debug/tracing/macros.hxx</text>
</a>
</g>
</g>
<!-- Node2&#45;&gt;Node13 -->
<g id="edge12_Node000002_Node000013" class="edge">
<title>Node2&#45;&gt;Node13</title>
<g id="a_edge12_Node000002_Node000013"><a xlink:title=" ">
<path fill="none" stroke="#63b8ff" d="M577.81,-116.05C510.84,-105.55 392.86,-87.04 319.72,-75.57"/>
<polygon fill="#63b8ff" stroke="#63b8ff" points="320.13,-72.09 309.71,-74 319.05,-79.01 320.13,-72.09"/>
</a>
</g>
</g>
<!-- Node15 -->
<g id="Node000015" class="node">
<title>Node15</title>
<g id="a_Node000015"><a xlink:title=" ">
<polygon fill="#e0e0e0" stroke="#999999" points="398,-74 345,-74 345,-55 398,-55 398,-74"/>
<text text-anchor="middle" x="371.5" y="-62" font-family="Helvetica,sans-Serif" font-size="10.00">iterator</text>
</a>
</g>
</g>
<!-- Node2&#45;&gt;Node15 -->
<g id="edge14_Node000002_Node000015" class="edge">
<title>Node2&#45;&gt;Node15</title>
<g id="a_edge14_Node000002_Node000015"><a xlink:title=" ">
<path fill="none" stroke="#63b8ff" d="M590.15,-115.44C548.03,-106.01 478.14,-90.29 408.11,-74.12"/>
<polygon fill="#63b8ff" stroke="#63b8ff" points="408.76,-70.68 398.23,-71.84 407.18,-77.5 408.76,-70.68"/>
</a>
</g>
</g>
<!-- Node14 -->
<g id="Node000014" class="node">
<title>Node14</title>
<g id="a_Node000014"><a xlink:title=" ">
<polygon fill="#e0e0e0" stroke="#999999" points="300,-19 211,-19 211,0 300,0 300,-19"/>
<text text-anchor="middle" x="255.5" y="-7" font-family="Helvetica,sans-Serif" font-size="10.00">tracy/Tracy.hpp</text>
</a>
</g>
</g>
<!-- Node13&#45;&gt;Node14 -->
<g id="edge13_Node000013_Node000014" class="edge">
<title>Node13&#45;&gt;Node14</title>
<g id="a_edge13_Node000013_Node000014"><a xlink:title=" ">
<path fill="none" stroke="#63b8ff" d="M255.5,-54.75C255.5,-47.8 255.5,-37.85 255.5,-29.13"/>
<polygon fill="#63b8ff" stroke="#63b8ff" points="259,-29.09 255.5,-19.09 252,-29.09 259,-29.09"/>
</a>
</g>
</g>
</g>
</svg>
