<?xml version="1.0" encoding="UTF-8" standalone="no"?>
<!DOCTYPE svg PUBLIC "-//W3C//DTD SVG 1.1//EN"
 "http://www.w3.org/Graphics/SVG/1.1/DTD/svg11.dtd">
<!-- Generated by graphviz version 2.43.0 (0)
 -->
<!-- Title: include/debug.hxx Pages: 1 -->
<svg width="838pt" height="148pt"
 viewBox="0.00 0.00 837.50 148.00" xmlns="http://www.w3.org/2000/svg" xmlns:xlink="http://www.w3.org/1999/xlink">
<g id="graph0" class="graph" transform="scale(1 1) rotate(0) translate(4 144)">
<title>include/debug.hxx</title>
<!-- Node1 -->
<g id="Node000001" class="node">
<title>Node1</title>
<g id="a_Node000001"><a xlink:title="Convenience header for all debug module components.">
<polygon fill="#999999" stroke="#666666" points="649.5,-140 543.5,-140 543.5,-121 649.5,-121 649.5,-140"/>
<text text-anchor="middle" x="596.5" y="-128" font-family="Helvetica,sans-Serif" font-size="10.00">include/debug.hxx</text>
</a>
</g>
</g>
<!-- Node2 -->
<g id="Node000002" class="node">
<title>Node2</title>
<g id="a_Node000002"><a xlink:href="assert_8hxx.html" target="_top" xlink:title=" ">
<polygon fill="white" stroke="#666666" points="426,-79.5 325,-79.5 325,-60.5 426,-60.5 426,-79.5"/>
<text text-anchor="middle" x="375.5" y="-67.5" font-family="Helvetica,sans-Serif" font-size="10.00">debug/assert.hxx</text>
</a>
</g>
</g>
<!-- Node1&#45;&gt;Node2 -->
<g id="edge1_Node000001_Node000002" class="edge">
<title>Node1&#45;&gt;Node2</title>
<g id="a_edge1_Node000001_Node000002"><a xlink:title=" ">
<path fill="none" stroke="#63b8ff" d="M564.36,-120.99C525.57,-110.73 460.24,-93.43 417.49,-82.12"/>
<polygon fill="#63b8ff" stroke="#63b8ff" points="418.24,-78.69 407.67,-79.52 416.45,-85.46 418.24,-78.69"/>
</a>
</g>
</g>
<!-- Node8 -->
<g id="Node000008" class="node">
<title>Node8</title>
<g id="a_Node000008"><a xlink:href="breakpoint_8hxx.html" target="_top" xlink:title=" ">
<polygon fill="white" stroke="#666666" points="639,-19 516,-19 516,0 639,0 639,-19"/>
<text text-anchor="middle" x="577.5" y="-7" font-family="Helvetica,sans-Serif" font-size="10.00">debug/breakpoint.hxx</text>
</a>
</g>
</g>
<!-- Node1&#45;&gt;Node8 -->
<g id="edge11_Node000001_Node000008" class="edge">
<title>Node1&#45;&gt;Node8</title>
<g id="a_edge11_Node000001_Node000008"><a xlink:title=" ">
<path fill="none" stroke="#63b8ff" d="M595.13,-120.94C592.09,-101.91 584.72,-55.69 580.53,-29.47"/>
<polygon fill="#63b8ff" stroke="#63b8ff" points="583.94,-28.62 578.91,-19.3 577.03,-29.73 583.94,-28.62"/>
</a>
</g>
</g>
<!-- Node9 -->
<g id="Node000009" class="node">
<title>Node9</title>
<g id="a_Node000009"><a xlink:href="is__debugger__present_8hxx.html" target="_top" xlink:title=" ">
<polygon fill="white" stroke="#666666" points="829.5,-19 657.5,-19 657.5,0 829.5,0 829.5,-19"/>
<text text-anchor="middle" x="743.5" y="-7" font-family="Helvetica,sans-Serif" font-size="10.00">debug/is_debugger_present.hxx</text>
</a>
</g>
</g>
<!-- Node1&#45;&gt;Node9 -->
<g id="edge13_Node000001_Node000009" class="edge">
<title>Node1&#45;&gt;Node9</title>
<g id="a_edge13_Node000001_Node000009"><a xlink:title=" ">
<path fill="none" stroke="#63b8ff" d="M598.73,-120.92C603.1,-105.66 614.19,-73.67 634.5,-55 651.52,-39.36 674.77,-28.85 695.43,-21.99"/>
<polygon fill="#63b8ff" stroke="#63b8ff" points="696.51,-25.32 705.02,-19.01 694.43,-18.64 696.51,-25.32"/>
</a>
</g>
</g>
<!-- Node12 -->
<g id="Node000012" class="node">
<title>Node12</title>
<g id="a_Node000012"><a xlink:href="breakpoint__if__debugging_8hxx.html" target="_top" xlink:title=" ">
<polygon fill="white" stroke="#666666" points="757.5,-85 643.5,-85 643.5,-55 757.5,-55 757.5,-85"/>
<text text-anchor="start" x="651.5" y="-73" font-family="Helvetica,sans-Serif" font-size="10.00">debug/breakpoint_if</text>
<text text-anchor="middle" x="700.5" y="-62" font-family="Helvetica,sans-Serif" font-size="10.00">_debugging.hxx</text>
</a>
</g>
</g>
<!-- Node1&#45;&gt;Node12 -->
<g id="edge12_Node000001_Node000012" class="edge">
<title>Node1&#45;&gt;Node12</title>
<g id="a_edge12_Node000001_Node000012"><a xlink:title=" ">
<path fill="none" stroke="#63b8ff" d="M611.85,-120.87C626.22,-112.78 648.19,-100.42 666.67,-90.03"/>
<polygon fill="#63b8ff" stroke="#63b8ff" points="668.41,-93.07 675.41,-85.11 664.98,-86.97 668.41,-93.07"/>
</a>
</g>
</g>
<!-- Node3 -->
<g id="Node000003" class="node">
<title>Node3</title>
<g id="a_Node000003"><a xlink:title=" ">
<polygon fill="#e0e0e0" stroke="#999999" points="106,-19 57,-19 57,0 106,0 106,-19"/>
<text text-anchor="middle" x="81.5" y="-7" font-family="Helvetica,sans-Serif" font-size="10.00">cstdlib</text>
</a>
</g>
</g>
<!-- Node2&#45;&gt;Node3 -->
<g id="edge2_Node000002_Node000003" class="edge">
<title>Node2&#45;&gt;Node3</title>
<g id="a_edge2_Node000002_Node000003"><a xlink:title=" ">
<path fill="none" stroke="#63b8ff" d="M325.76,-60.43C275.26,-51.52 194.61,-36.69 116.35,-19.32"/>
<polygon fill="#63b8ff" stroke="#63b8ff" points="116.85,-15.84 106.33,-17.07 115.32,-22.67 116.85,-15.84"/>
</a>
</g>
</g>
<!-- Node4 -->
<g id="Node000004" class="node">
<title>Node4</title>
<g id="a_Node000004"><a xlink:title=" ">
<polygon fill="#e0e0e0" stroke="#999999" points="217,-19 124,-19 124,0 217,0 217,-19"/>
<text text-anchor="middle" x="170.5" y="-7" font-family="Helvetica,sans-Serif" font-size="10.00">source_location</text>
</a>
</g>
</g>
<!-- Node2&#45;&gt;Node4 -->
<g id="edge3_Node000002_Node000004" class="edge">
<title>Node2&#45;&gt;Node4</title>
<g id="a_edge3_Node000002_Node000004"><a xlink:title=" ">
<path fill="none" stroke="#63b8ff" d="M345.69,-60.49C309.94,-50.29 249.87,-33.15 210.21,-21.83"/>
<polygon fill="#63b8ff" stroke="#63b8ff" points="210.92,-18.4 200.34,-19.02 209,-25.13 210.92,-18.4"/>
</a>
</g>
</g>
<!-- Node5 -->
<g id="Node000005" class="node">
<title>Node5</title>
<g id="a_Node000005"><a xlink:title=" ">
<polygon fill="#e0e0e0" stroke="#999999" points="303.5,-19 235.5,-19 235.5,0 303.5,0 303.5,-19"/>
<text text-anchor="middle" x="269.5" y="-7" font-family="Helvetica,sans-Serif" font-size="10.00">stacktrace</text>
</a>
</g>
</g>
<!-- Node2&#45;&gt;Node5 -->
<g id="edge4_Node000002_Node000005" class="edge">
<title>Node2&#45;&gt;Node5</title>
<g id="a_edge4_Node000002_Node000005"><a xlink:title=" ">
<path fill="none" stroke="#63b8ff" d="M359.86,-60.37C342.56,-50.82 314.45,-35.31 294.17,-24.12"/>
<polygon fill="#63b8ff" stroke="#63b8ff" points="295.65,-20.93 285.2,-19.17 292.27,-27.06 295.65,-20.93"/>
</a>
</g>
</g>
<!-- Node6 -->
<g id="Node000006" class="node">
<title>Node6</title>
<g id="a_Node000006"><a xlink:title=" ">
<polygon fill="#e0e0e0" stroke="#999999" points="365.5,-19 321.5,-19 321.5,0 365.5,0 365.5,-19"/>
<text text-anchor="middle" x="343.5" y="-7" font-family="Helvetica,sans-Serif" font-size="10.00">string</text>
</a>
</g>
</g>
<!-- Node2&#45;&gt;Node6 -->
<g id="edge5_Node000002_Node000006" class="edge">
<title>Node2&#45;&gt;Node6</title>
<g id="a_edge5_Node000002_Node000006"><a xlink:title=" ">
<path fill="none" stroke="#63b8ff" d="M370.78,-60.37C366.15,-51.9 358.95,-38.74 353.11,-28.07"/>
<polygon fill="#63b8ff" stroke="#63b8ff" points="356.11,-26.26 348.24,-19.17 349.97,-29.62 356.11,-26.26"/>
</a>
</g>
</g>
<!-- Node7 -->
<g id="Node000007" class="node">
<title>Node7</title>
<g id="a_Node000007"><a xlink:title=" ">
<polygon fill="#e0e0e0" stroke="#999999" points="429,-19 384,-19 384,0 429,0 429,-19"/>
<text text-anchor="middle" x="406.5" y="-7" font-family="Helvetica,sans-Serif" font-size="10.00">utility</text>
</a>
</g>
</g>
<!-- Node2&#45;&gt;Node7 -->
<g id="edge6_Node000002_Node000007" class="edge">
<title>Node2&#45;&gt;Node7</title>
<g id="a_edge6_Node000002_Node000007"><a xlink:title=" ">
<path fill="none" stroke="#63b8ff" d="M380.07,-60.37C384.56,-51.9 391.53,-38.74 397.19,-28.07"/>
<polygon fill="#63b8ff" stroke="#63b8ff" points="400.32,-29.64 401.91,-19.17 394.13,-26.36 400.32,-29.64"/>
</a>
</g>
</g>
<!-- Node2&#45;&gt;Node8 -->
<g id="edge7_Node000002_Node000008" class="edge">
<title>Node2&#45;&gt;Node8</title>
<g id="a_edge7_Node000002_Node000008"><a xlink:title=" ">
<path fill="none" stroke="#63b8ff" d="M404.87,-60.49C440.1,-50.29 499.29,-33.15 538.37,-21.83"/>
<polygon fill="#63b8ff" stroke="#63b8ff" points="539.46,-25.16 548.09,-19.02 537.51,-18.44 539.46,-25.16"/>
</a>
</g>
</g>
<!-- Node2&#45;&gt;Node9 -->
<g id="edge8_Node000002_Node000009" class="edge">
<title>Node2&#45;&gt;Node9</title>
<g id="a_edge8_Node000002_Node000009"><a xlink:title=" ">
<path fill="none" stroke="#63b8ff" d="M426.28,-60.93C492.34,-50.43 607.77,-32.08 679.68,-20.65"/>
<polygon fill="#63b8ff" stroke="#63b8ff" points="680.63,-24.04 689.96,-19.01 679.53,-17.12 680.63,-24.04"/>
</a>
</g>
</g>
<!-- Node10 -->
<g id="Node000010" class="node">
<title>Node10</title>
<g id="a_Node000010"><a xlink:title=" ">
<polygon fill="#e0e0e0" stroke="#999999" points="497.5,-19 447.5,-19 447.5,0 497.5,0 497.5,-19"/>
<text text-anchor="middle" x="472.5" y="-7" font-family="Helvetica,sans-Serif" font-size="10.00">format</text>
</a>
</g>
</g>
<!-- Node2&#45;&gt;Node10 -->
<g id="edge9_Node000002_Node000010" class="edge">
<title>Node2&#45;&gt;Node10</title>
<g id="a_edge9_Node000002_Node000010"><a xlink:title=" ">
<path fill="none" stroke="#63b8ff" d="M389.81,-60.37C405.5,-50.91 430.9,-35.59 449.41,-24.42"/>
<polygon fill="#63b8ff" stroke="#63b8ff" points="451.37,-27.33 458.13,-19.17 447.76,-21.33 451.37,-27.33"/>
</a>
</g>
</g>
<!-- Node11 -->
<g id="Node000011" class="node">
<title>Node11</title>
<g id="a_Node000011"><a xlink:title=" ">
<polygon fill="#e0e0e0" stroke="#999999" points="39,-19 0,-19 0,0 39,0 39,-19"/>
<text text-anchor="middle" x="19.5" y="-7" font-family="Helvetica,sans-Serif" font-size="10.00">print</text>
</a>
</g>
</g>
<!-- Node2&#45;&gt;Node11 -->
<g id="edge10_Node000002_Node000011" class="edge">
<title>Node2&#45;&gt;Node11</title>
<g id="a_edge10_Node000002_Node000011"><a xlink:title=" ">
<path fill="none" stroke="#63b8ff" d="M324.79,-63.56C262,-56.31 151.71,-41.94 49.19,-19.13"/>
<polygon fill="#63b8ff" stroke="#63b8ff" points="49.82,-15.68 39.29,-16.89 48.27,-22.51 49.82,-15.68"/>
</a>
</g>
</g>
</g>
</svg>
