<?xml version="1.0" encoding="UTF-8" standalone="no"?>
<!DOCTYPE svg PUBLIC "-//W3C//DTD SVG 1.1//EN"
 "http://www.w3.org/Graphics/SVG/1.1/DTD/svg11.dtd">
<!-- Generated by graphviz version 2.43.0 (0)
 -->
<!-- Title: debug::BreakpointIfDebugging Pages: 1 -->
<svg width="354pt" height="64pt"
 viewBox="0.00 0.00 354.00 64.00" xmlns="http://www.w3.org/2000/svg" xmlns:xlink="http://www.w3.org/1999/xlink">
<g id="graph0" class="graph" transform="scale(1 1) rotate(0) translate(4 60)">
<title>debug::BreakpointIfDebugging</title>
<!-- Node1 -->
<g id="Node000001" class="node">
<title>Node1</title>
<g id="a_Node000001"><a xlink:title="Triggers a debugger breakpoint only if a debugger is currently attached.">
<polygon fill="#999999" stroke="#666666" points="165,-37 0,-37 0,-18 165,-18 165,-37"/>
<text text-anchor="middle" x="82.5" y="-25" font-family="Helvetica,sans-Serif" font-size="10.00">debug::BreakpointIfDebugging</text>
</a>
</g>
</g>
<!-- Node2 -->
<g id="Node000002" class="node">
<title>Node2</title>
<g id="a_Node000002"><a xlink:href="group__debug.html#ga68232c18b497bd8c492f3094d2957991" target="_top" xlink:title="Triggers a debugger breakpoint unconditionally (debug builds only).">
<polygon fill="white" stroke="#666666" points="326.5,-56 220.5,-56 220.5,-37 326.5,-37 326.5,-56"/>
<text text-anchor="middle" x="273.5" y="-44" font-family="Helvetica,sans-Serif" font-size="10.00">debug::Breakpoint</text>
</a>
</g>
</g>
<!-- Node1&#45;&gt;Node2 -->
<g id="edge1_Node000001_Node000002" class="edge">
<title>Node1&#45;&gt;Node2</title>
<g id="a_edge1_Node000001_Node000002"><a xlink:title=" ">
<path fill="none" stroke="#63b8ff" d="M165.02,-35.7C180.14,-37.21 195.7,-38.78 210.13,-40.23"/>
<polygon fill="#63b8ff" stroke="#63b8ff" points="210.12,-43.75 220.42,-41.26 210.82,-36.78 210.12,-43.75"/>
</a>
</g>
</g>
<!-- Node3 -->
<g id="Node000003" class="node">
<title>Node3</title>
<g id="a_Node000003"><a xlink:href="group__debug.html#gafe3e9201167c10ae6307648dc9f18d18" target="_top" xlink:title="Checks whether the process is currently running under a debugger.">
<polygon fill="white" stroke="#666666" points="346,-19 201,-19 201,0 346,0 346,-19"/>
<text text-anchor="middle" x="273.5" y="-7" font-family="Helvetica,sans-Serif" font-size="10.00">debug::IsDebuggerPresent</text>
</a>
</g>
</g>
<!-- Node1&#45;&gt;Node3 -->
<g id="edge2_Node000001_Node000003" class="edge">
<title>Node1&#45;&gt;Node3</title>
<g id="a_edge2_Node000001_Node000003"><a xlink:title=" ">
<path fill="none" stroke="#63b8ff" d="M165.02,-19.74C173.48,-18.93 182.07,-18.11 190.53,-17.31"/>
<polygon fill="#63b8ff" stroke="#63b8ff" points="191.13,-20.77 200.76,-16.33 190.47,-13.8 191.13,-20.77"/>
</a>
</g>
</g>
</g>
</svg>
