<?xml version="1.0" encoding="UTF-8" standalone="no"?>
<!DOCTYPE svg PUBLIC "-//W3C//DTD SVG 1.1//EN"
 "http://www.w3.org/Graphics/SVG/1.1/DTD/svg11.dtd">
<!-- Generated by graphviz version 2.43.0 (0)
 -->
<!-- Title: include/debug/is_debugger_present.hxx Pages: 1 -->
<svg width="546pt" height="148pt"
 viewBox="0.00 0.00 545.50 148.00" xmlns="http://www.w3.org/2000/svg" xmlns:xlink="http://www.w3.org/1999/xlink">
<g id="graph0" class="graph" transform="scale(1 1) rotate(0) translate(4 144)">
<title>include/debug/is_debugger_present.hxx</title>
<!-- Node1 -->
<g id="Node000001" class="node">
<title>Node1</title>
<g id="a_Node000001"><a xlink:title=" ">
<polygon fill="#999999" stroke="#666666" points="262.5,-140 115.5,-140 115.5,-110 262.5,-110 262.5,-140"/>
<text text-anchor="start" x="123.5" y="-128" font-family="Helvetica,sans-Serif" font-size="10.00">include/debug/is_debugger</text>
<text text-anchor="middle" x="189" y="-117" font-family="Helvetica,sans-Serif" font-size="10.00">_present.hxx</text>
</a>
</g>
</g>
<!-- Node2 -->
<g id="Node000002" class="node">
<title>Node2</title>
<g id="a_Node000002"><a xlink:href="debug_8hxx.html" target="_top" xlink:title="Convenience header for all debug module components.">
<polygon fill="white" stroke="#666666" points="106,-19 0,-19 0,0 106,0 106,-19"/>
<text text-anchor="middle" x="53" y="-7" font-family="Helvetica,sans-Serif" font-size="10.00">include/debug.hxx</text>
</a>
</g>
</g>
<!-- Node1&#45;&gt;Node2 -->
<g id="edge1_Node000001_Node000002" class="edge">
<title>Node1&#45;&gt;Node2</title>
<g id="a_edge1_Node000001_Node000002"><a xlink:title=" ">
<path fill="none" stroke="#63b8ff" d="M105.22,-119.16C74.32,-112.81 42.2,-99.83 23,-74 9.91,-56.38 30.06,-32.15 43.18,-19.31"/>
<polygon fill="#63b8ff" stroke="#63b8ff" points="104.72,-122.63 115.19,-121 105.99,-115.74 104.72,-122.63"/>
</a>
</g>
</g>
<!-- Node3 -->
<g id="Node000003" class="node">
<title>Node3</title>
<g id="a_Node000003"><a xlink:href="assert_8hxx.html" target="_top" xlink:title=" ">
<polygon fill="white" stroke="#666666" points="171.5,-74 32.5,-74 32.5,-55 171.5,-55 171.5,-74"/>
<text text-anchor="middle" x="102" y="-62" font-family="Helvetica,sans-Serif" font-size="10.00">include/debug/assert.hxx</text>
</a>
</g>
</g>
<!-- Node1&#45;&gt;Node3 -->
<g id="edge2_Node000001_Node000003" class="edge">
<title>Node1&#45;&gt;Node3</title>
<g id="a_edge2_Node000001_Node000003"><a xlink:title=" ">
<path fill="none" stroke="#63b8ff" d="M159.35,-104.06C144.16,-93.85 126.46,-81.95 114.78,-74.09"/>
<polygon fill="#63b8ff" stroke="#63b8ff" points="157.69,-107.16 167.94,-109.84 161.59,-101.35 157.69,-107.16"/>
</a>
</g>
</g>
<!-- Node4 -->
<g id="Node000004" class="node">
<title>Node4</title>
<g id="a_Node000004"><a xlink:href="breakpoint__if__debugging_8cxx.html" target="_top" xlink:title=" ">
<polygon fill="white" stroke="#666666" points="364.5,-74 189.5,-74 189.5,-55 364.5,-55 364.5,-74"/>
<text text-anchor="middle" x="277" y="-62" font-family="Helvetica,sans-Serif" font-size="10.00">src/breakpoint_if_debugging.cxx</text>
</a>
</g>
</g>
<!-- Node1&#45;&gt;Node4 -->
<g id="edge4_Node000001_Node000004" class="edge">
<title>Node1&#45;&gt;Node4</title>
<g id="a_edge4_Node000001_Node000004"><a xlink:title=" ">
<path fill="none" stroke="#63b8ff" d="M218.99,-104.06C234.35,-93.85 252.26,-81.95 264.07,-74.09"/>
<polygon fill="#63b8ff" stroke="#63b8ff" points="216.69,-101.39 210.3,-109.84 220.57,-107.22 216.69,-101.39"/>
</a>
</g>
</g>
<!-- Node5 -->
<g id="Node000005" class="node">
<title>Node5</title>
<g id="a_Node000005"><a xlink:href="is__debugger__present_8cxx.html" target="_top" xlink:title=" ">
<polygon fill="white" stroke="#666666" points="537.5,-74 382.5,-74 382.5,-55 537.5,-55 537.5,-74"/>
<text text-anchor="middle" x="460" y="-62" font-family="Helvetica,sans-Serif" font-size="10.00">src/is_debugger_present.cxx</text>
</a>
</g>
</g>
<!-- Node1&#45;&gt;Node5 -->
<g id="edge5_Node000001_Node000005" class="edge">
<title>Node1&#45;&gt;Node5</title>
<g id="a_edge5_Node000001_Node000005"><a xlink:title=" ">
<path fill="none" stroke="#63b8ff" d="M263.84,-107.84C314.5,-96.91 379.42,-82.89 420.38,-74.05"/>
<polygon fill="#63b8ff" stroke="#63b8ff" points="262.95,-104.46 253.91,-109.99 264.42,-111.3 262.95,-104.46"/>
</a>
</g>
</g>
<!-- Node3&#45;&gt;Node2 -->
<g id="edge3_Node000003_Node000002" class="edge">
<title>Node3&#45;&gt;Node2</title>
<g id="a_edge3_Node000003_Node000002"><a xlink:title=" ">
<path fill="none" stroke="#63b8ff" d="M86.97,-47.24C78.38,-37.95 67.96,-26.68 60.94,-19.09"/>
<polygon fill="#63b8ff" stroke="#63b8ff" points="84.55,-49.78 93.91,-54.75 89.69,-45.03 84.55,-49.78"/>
</a>
</g>
</g>
</g>
</svg>
