<?xml version="1.0" encoding="UTF-8" standalone="no"?>
<!DOCTYPE svg PUBLIC "-//W3C//DTD SVG 1.1//EN"
 "http://www.w3.org/Graphics/SVG/1.1/DTD/svg11.dtd">
<!-- Generated by graphviz version 2.43.0 (0)
 -->
<!-- Title: include/debug/tracing/macros.hxx Pages: 1 -->
<svg width="308pt" height="148pt"
 viewBox="0.00 0.00 308.00 148.00" xmlns="http://www.w3.org/2000/svg" xmlns:xlink="http://www.w3.org/1999/xlink">
<g id="graph0" class="graph" transform="scale(1 1) rotate(0) translate(4 144)">
<title>include/debug/tracing/macros.hxx</title>
<!-- Node1 -->
<g id="Node000001" class="node">
<title>Node1</title>
<g id="a_Node000001"><a xlink:title="Profiling zone macros for scope&#45;based performance measurement.">
<polygon fill="#999999" stroke="#666666" points="209.5,-140 87.5,-140 87.5,-110 209.5,-110 209.5,-140"/>
<text text-anchor="start" x="95.5" y="-128" font-family="Helvetica,sans-Serif" font-size="10.00">include/debug/tracing</text>
<text text-anchor="middle" x="148.5" y="-117" font-family="Helvetica,sans-Serif" font-size="10.00">/macros.hxx</text>
</a>
</g>
</g>
<!-- Node2 -->
<g id="Node000002" class="node">
<title>Node2</title>
<g id="a_Node000002"><a xlink:href="assert_8hxx.html" target="_top" xlink:title=" ">
<polygon fill="white" stroke="#666666" points="139,-74 0,-74 0,-55 139,-55 139,-74"/>
<text text-anchor="middle" x="69.5" y="-62" font-family="Helvetica,sans-Serif" font-size="10.00">include/debug/assert.hxx</text>
</a>
</g>
</g>
<!-- Node1&#45;&gt;Node2 -->
<g id="edge1_Node000001_Node000002" class="edge">
<title>Node1&#45;&gt;Node2</title>
<g id="a_edge1_Node000001_Node000002"><a xlink:title=" ">
<path fill="none" stroke="#63b8ff" d="M121.24,-103.82C107.63,-93.73 91.85,-82.05 81.34,-74.27"/>
<polygon fill="#63b8ff" stroke="#63b8ff" points="119.26,-106.7 129.38,-109.84 123.42,-101.07 119.26,-106.7"/>
</a>
</g>
</g>
<!-- Node4 -->
<g id="Node000004" class="node">
<title>Node4</title>
<g id="a_Node000004"><a xlink:href="tracing_8hxx.html" target="_top" xlink:title="Umbrella header for tracing utilities.">
<polygon fill="white" stroke="#666666" points="300,-74 157,-74 157,-55 300,-55 300,-74"/>
<text text-anchor="middle" x="228.5" y="-62" font-family="Helvetica,sans-Serif" font-size="10.00">include/debug/tracing.hxx</text>
</a>
</g>
</g>
<!-- Node1&#45;&gt;Node4 -->
<g id="edge3_Node000001_Node000004" class="edge">
<title>Node1&#45;&gt;Node4</title>
<g id="a_edge3_Node000001_Node000004"><a xlink:title=" ">
<path fill="none" stroke="#63b8ff" d="M176.1,-103.82C189.89,-93.73 205.86,-82.05 216.51,-74.27"/>
<polygon fill="#63b8ff" stroke="#63b8ff" points="173.87,-101.11 167.87,-109.84 178,-106.76 173.87,-101.11"/>
</a>
</g>
</g>
<!-- Node3 -->
<g id="Node000003" class="node">
<title>Node3</title>
<g id="a_Node000003"><a xlink:href="debug_8hxx.html" target="_top" xlink:title="Convenience header for all debug module components.">
<polygon fill="white" stroke="#666666" points="122.5,-19 16.5,-19 16.5,0 122.5,0 122.5,-19"/>
<text text-anchor="middle" x="69.5" y="-7" font-family="Helvetica,sans-Serif" font-size="10.00">include/debug.hxx</text>
</a>
</g>
</g>
<!-- Node2&#45;&gt;Node3 -->
<g id="edge2_Node000002_Node000003" class="edge">
<title>Node2&#45;&gt;Node3</title>
<g id="a_edge2_Node000002_Node000003"><a xlink:title=" ">
<path fill="none" stroke="#63b8ff" d="M69.5,-44.66C69.5,-35.93 69.5,-25.99 69.5,-19.09"/>
<polygon fill="#63b8ff" stroke="#63b8ff" points="66,-44.75 69.5,-54.75 73,-44.75 66,-44.75"/>
</a>
</g>
</g>
</g>
</svg>
