<?xml version="1.0" encoding="UTF-8" standalone="no"?>
<!DOCTYPE svg PUBLIC "-//W3C//DTD SVG 1.1//EN"
 "http://www.w3.org/Graphics/SVG/1.1/DTD/svg11.dtd">
<!-- Generated by graphviz version 2.43.0 (0)
 -->
<!-- Title: src/tracing/set_thread_name.cxx Pages: 1 -->
<svg width="434pt" height="159pt"
 viewBox="0.00 0.00 434.39 159.00" xmlns="http://www.w3.org/2000/svg" xmlns:xlink="http://www.w3.org/1999/xlink">
<g id="graph0" class="graph" transform="scale(1 1) rotate(0) translate(4 155)">
<title>src/tracing/set_thread_name.cxx</title>
<!-- Node1 -->
<g id="Node000001" class="node">
<title>Node1</title>
<g id="a_Node000001"><a xlink:title=" ">
<polygon fill="#999999" stroke="#666666" points="218.39,-151 96.39,-151 96.39,-121 218.39,-121 218.39,-151"/>
<text text-anchor="start" x="104.39" y="-139" font-family="Helvetica,sans-Serif" font-size="10.00">src/tracing/set_thread</text>
<text text-anchor="middle" x="157.39" y="-128" font-family="Helvetica,sans-Serif" font-size="10.00">_name.cxx</text>
</a>
</g>
</g>
<!-- Node2 -->
<g id="Node000002" class="node">
<title>Node2</title>
<g id="a_Node000002"><a xlink:title=" ">
<polygon fill="#e0e0e0" stroke="#999999" points="208.89,-19 135.89,-19 135.89,0 208.89,0 208.89,-19"/>
<text text-anchor="middle" x="172.39" y="-7" font-family="Helvetica,sans-Serif" font-size="10.00">string_view</text>
</a>
</g>
</g>
<!-- Node1&#45;&gt;Node2 -->
<g id="edge1_Node000001_Node000002" class="edge">
<title>Node1&#45;&gt;Node2</title>
<g id="a_edge1_Node000001_Node000002"><a xlink:title=" ">
<path fill="none" stroke="#63b8ff" d="M96.31,-125.19C43.22,-113.95 -21.06,-92.14 7.39,-55 21.75,-36.25 82.08,-23.61 125.64,-16.73"/>
<polygon fill="#63b8ff" stroke="#63b8ff" points="126.4,-20.15 135.76,-15.19 125.35,-13.23 126.4,-20.15"/>
</a>
</g>
</g>
<!-- Node3 -->
<g id="Node000003" class="node">
<title>Node3</title>
<g id="a_Node000003"><a xlink:title=" ">
<polygon fill="#e0e0e0" stroke="#999999" points="162.39,-79.5 16.39,-79.5 16.39,-60.5 162.39,-60.5 162.39,-79.5"/>
<text text-anchor="middle" x="89.39" y="-67.5" font-family="Helvetica,sans-Serif" font-size="10.00">common/TracySystem.hpp</text>
</a>
</g>
</g>
<!-- Node1&#45;&gt;Node3 -->
<g id="edge2_Node000001_Node000003" class="edge">
<title>Node1&#45;&gt;Node3</title>
<g id="a_edge2_Node000001_Node000003"><a xlink:title=" ">
<path fill="none" stroke="#63b8ff" d="M142.29,-120.8C131.59,-110.72 117.22,-97.19 106.15,-86.78"/>
<polygon fill="#63b8ff" stroke="#63b8ff" points="108.46,-84.15 98.78,-79.84 103.67,-89.25 108.46,-84.15"/>
</a>
</g>
</g>
<!-- Node4 -->
<g id="Node000004" class="node">
<title>Node4</title>
<g id="a_Node000004"><a xlink:title=" ">
<polygon fill="#e0e0e0" stroke="#999999" points="269.89,-79.5 180.89,-79.5 180.89,-60.5 269.89,-60.5 269.89,-79.5"/>
<text text-anchor="middle" x="225.39" y="-67.5" font-family="Helvetica,sans-Serif" font-size="10.00">tracy/Tracy.hpp</text>
</a>
</g>
</g>
<!-- Node1&#45;&gt;Node4 -->
<g id="edge3_Node000001_Node000004" class="edge">
<title>Node1&#45;&gt;Node4</title>
<g id="a_edge3_Node000001_Node000004"><a xlink:title=" ">
<path fill="none" stroke="#63b8ff" d="M172.48,-120.8C183.18,-110.72 197.55,-97.19 208.62,-86.78"/>
<polygon fill="#63b8ff" stroke="#63b8ff" points="211.11,-89.25 215.99,-79.84 206.31,-84.15 211.11,-89.25"/>
</a>
</g>
</g>
<!-- Node5 -->
<g id="Node000005" class="node">
<title>Node5</title>
<g id="a_Node000005"><a xlink:href="set__thread__name_8hxx.html" target="_top" xlink:title="Thread naming utilities for profiling and debugging.">
<polygon fill="white" stroke="#666666" points="426.39,-85 288.39,-85 288.39,-55 426.39,-55 426.39,-85"/>
<text text-anchor="start" x="296.39" y="-73" font-family="Helvetica,sans-Serif" font-size="10.00">debug/tracing/set_thread</text>
<text text-anchor="middle" x="357.39" y="-62" font-family="Helvetica,sans-Serif" font-size="10.00">_name.hxx</text>
</a>
</g>
</g>
<!-- Node1&#45;&gt;Node5 -->
<g id="edge4_Node000001_Node000005" class="edge">
<title>Node1&#45;&gt;Node5</title>
<g id="a_edge4_Node000001_Node000005"><a xlink:title=" ">
<path fill="none" stroke="#63b8ff" d="M201.28,-120.95C231.5,-111.28 271.82,-98.38 303.92,-88.11"/>
<polygon fill="#63b8ff" stroke="#63b8ff" points="305.14,-91.39 313.6,-85.01 303.01,-84.73 305.14,-91.39"/>
</a>
</g>
</g>
<!-- Node5&#45;&gt;Node2 -->
<g id="edge5_Node000005_Node000002" class="edge">
<title>Node5&#45;&gt;Node2</title>
<g id="a_edge5_Node000005_Node000002"><a xlink:title=" ">
<path fill="none" stroke="#63b8ff" d="M313.07,-54.99C281.28,-44.94 238.96,-31.55 209.06,-22.1"/>
<polygon fill="#63b8ff" stroke="#63b8ff" points="210.03,-18.73 199.44,-19.05 207.91,-25.41 210.03,-18.73"/>
</a>
</g>
</g>
</g>
</svg>
