<?xml version="1.0" encoding="UTF-8" standalone="no"?>
<!DOCTYPE svg PUBLIC "-//W3C//DTD SVG 1.1//EN"
 "http://www.w3.org/Graphics/SVG/1.1/DTD/svg11.dtd">
<!-- Generated by graphviz version 2.43.0 (0)
 -->
<!-- Title: include/debug/tracing.hxx Pages: 1 -->
<svg width="308pt" height="148pt"
 viewBox="0.00 0.00 307.50 148.00" xmlns="http://www.w3.org/2000/svg" xmlns:xlink="http://www.w3.org/1999/xlink">
<g id="graph0" class="graph" transform="scale(1 1) rotate(0) translate(4 144)">
<title>include/debug/tracing.hxx</title>
<!-- Node1 -->
<g id="Node000001" class="node">
<title>Node1</title>
<g id="a_Node000001"><a xlink:title="Umbrella header for tracing utilities.">
<polygon fill="#999999" stroke="#666666" points="222,-140 79,-140 79,-121 222,-121 222,-140"/>
<text text-anchor="middle" x="150.5" y="-128" font-family="Helvetica,sans-Serif" font-size="10.00">include/debug/tracing.hxx</text>
</a>
</g>
</g>
<!-- Node2 -->
<g id="Node000002" class="node">
<title>Node2</title>
<g id="a_Node000002"><a xlink:href="macros_8hxx.html" target="_top" xlink:title="Profiling zone macros for scope&#45;based performance measurement.">
<polygon fill="white" stroke="#666666" points="143,-79.5 0,-79.5 0,-60.5 143,-60.5 143,-79.5"/>
<text text-anchor="middle" x="71.5" y="-67.5" font-family="Helvetica,sans-Serif" font-size="10.00">debug/tracing/macros.hxx</text>
</a>
</g>
</g>
<!-- Node1&#45;&gt;Node2 -->
<g id="edge1_Node000001_Node000002" class="edge">
<title>Node1&#45;&gt;Node2</title>
<g id="a_edge1_Node000001_Node000002"><a xlink:title=" ">
<path fill="none" stroke="#63b8ff" d="M138.84,-120.87C126.36,-111.62 106.32,-96.78 91.34,-85.69"/>
<polygon fill="#63b8ff" stroke="#63b8ff" points="93.32,-82.81 83.2,-79.67 89.16,-88.43 93.32,-82.81"/>
</a>
</g>
</g>
<!-- Node4 -->
<g id="Node000004" class="node">
<title>Node4</title>
<g id="a_Node000004"><a xlink:href="set__thread__name_8hxx.html" target="_top" xlink:title="Thread naming utilities for profiling and debugging.">
<polygon fill="white" stroke="#666666" points="299.5,-85 161.5,-85 161.5,-55 299.5,-55 299.5,-85"/>
<text text-anchor="start" x="169.5" y="-73" font-family="Helvetica,sans-Serif" font-size="10.00">debug/tracing/set_thread</text>
<text text-anchor="middle" x="230.5" y="-62" font-family="Helvetica,sans-Serif" font-size="10.00">_name.hxx</text>
</a>
</g>
</g>
<!-- Node1&#45;&gt;Node4 -->
<g id="edge3_Node000001_Node000004" class="edge">
<title>Node1&#45;&gt;Node4</title>
<g id="a_edge3_Node000001_Node000004"><a xlink:title=" ">
<path fill="none" stroke="#63b8ff" d="M162.3,-120.87C172.96,-113.08 189.04,-101.32 202.91,-91.17"/>
<polygon fill="#63b8ff" stroke="#63b8ff" points="205.19,-93.84 211.2,-85.11 201.06,-88.19 205.19,-93.84"/>
</a>
</g>
</g>
<!-- Node3 -->
<g id="Node000003" class="node">
<title>Node3</title>
<g id="a_Node000003"><a xlink:title=" ">
<polygon fill="#e0e0e0" stroke="#999999" points="116,-19 27,-19 27,0 116,0 116,-19"/>
<text text-anchor="middle" x="71.5" y="-7" font-family="Helvetica,sans-Serif" font-size="10.00">tracy/Tracy.hpp</text>
</a>
</g>
</g>
<!-- Node2&#45;&gt;Node3 -->
<g id="edge2_Node000002_Node000003" class="edge">
<title>Node2&#45;&gt;Node3</title>
<g id="a_edge2_Node000002_Node000003"><a xlink:title=" ">
<path fill="none" stroke="#63b8ff" d="M71.5,-60.37C71.5,-52.25 71.5,-39.81 71.5,-29.39"/>
<polygon fill="#63b8ff" stroke="#63b8ff" points="75,-29.17 71.5,-19.17 68,-29.17 75,-29.17"/>
</a>
</g>
</g>
<!-- Node5 -->
<g id="Node000005" class="node">
<title>Node5</title>
<g id="a_Node000005"><a xlink:title=" ">
<polygon fill="#e0e0e0" stroke="#999999" points="267,-19 194,-19 194,0 267,0 267,-19"/>
<text text-anchor="middle" x="230.5" y="-7" font-family="Helvetica,sans-Serif" font-size="10.00">string_view</text>
</a>
</g>
</g>
<!-- Node4&#45;&gt;Node5 -->
<g id="edge4_Node000004_Node000005" class="edge">
<title>Node4&#45;&gt;Node5</title>
<g id="a_edge4_Node000004_Node000005"><a xlink:title=" ">
<path fill="none" stroke="#63b8ff" d="M230.5,-54.84C230.5,-47.21 230.5,-37.7 230.5,-29.45"/>
<polygon fill="#63b8ff" stroke="#63b8ff" points="234,-29.27 230.5,-19.27 227,-29.27 234,-29.27"/>
</a>
</g>
</g>
</g>
</svg>
