<?xml version="1.0" encoding="UTF-8" standalone="no"?>
<!DOCTYPE svg PUBLIC "-//W3C//DTD SVG 1.1//EN"
 "http://www.w3.org/Graphics/SVG/1.1/DTD/svg11.dtd">
<!-- Generated by graphviz version 2.43.0 (0)
 -->
<!-- Title: include/logging/level.hxx Pages: 1 -->
<svg width="284pt" height="159pt"
 viewBox="0.00 0.00 284.00 159.00" xmlns="http://www.w3.org/2000/svg" xmlns:xlink="http://www.w3.org/1999/xlink">
<g id="graph0" class="graph" transform="scale(1 1) rotate(0) translate(4 155)">
<title>include/logging/level.hxx</title>
<!-- Node1 -->
<g id="Node000001" class="node">
<title>Node1</title>
<g id="a_Node000001"><a xlink:title=" ">
<polygon fill="#999999" stroke="#666666" points="216,-151 77,-151 77,-132 216,-132 216,-151"/>
<text text-anchor="middle" x="146.5" y="-139" font-family="Helvetica,sans-Serif" font-size="10.00">include/logging/level.hxx</text>
</a>
</g>
</g>
<!-- Node2 -->
<g id="Node000002" class="node">
<title>Node2</title>
<g id="a_Node000002"><a xlink:href="to__color_8hxx.html" target="_top" xlink:title="Color conversion utilities for logging levels.">
<polygon fill="white" stroke="#666666" points="212,-96 81,-96 81,-66 212,-66 212,-96"/>
<text text-anchor="start" x="89" y="-84" font-family="Helvetica,sans-Serif" font-size="10.00">include/logging/internal</text>
<text text-anchor="middle" x="146.5" y="-73" font-family="Helvetica,sans-Serif" font-size="10.00">/utils/to_color.hxx</text>
</a>
</g>
</g>
<!-- Node1&#45;&gt;Node2 -->
<g id="edge1_Node000001_Node000002" class="edge">
<title>Node1&#45;&gt;Node2</title>
<g id="a_edge1_Node000001_Node000002"><a xlink:title=" ">
<path fill="none" stroke="#63b8ff" d="M146.5,-121.65C146.5,-113.36 146.5,-103.78 146.5,-96.11"/>
<polygon fill="#63b8ff" stroke="#63b8ff" points="143,-121.87 146.5,-131.87 150,-121.87 143,-121.87"/>
</a>
</g>
</g>
<!-- Node3 -->
<g id="Node000003" class="node">
<title>Node3</title>
<g id="a_Node000003"><a xlink:href="logging_8hxx.html" target="_top" xlink:title="Header&#45;only logging utility with compile&#45;time format string validation.">
<polygon fill="white" stroke="#666666" points="151,-24.5 0,-24.5 0,-5.5 151,-5.5 151,-24.5"/>
<text text-anchor="middle" x="75.5" y="-12.5" font-family="Helvetica,sans-Serif" font-size="10.00">include/logging/logging.hxx</text>
</a>
</g>
</g>
<!-- Node1&#45;&gt;Node3 -->
<g id="edge4_Node000001_Node000003" class="edge">
<title>Node1&#45;&gt;Node3</title>
<g id="a_edge4_Node000001_Node000003"><a xlink:title=" ">
<path fill="none" stroke="#63b8ff" d="M109.48,-127.85C94.95,-120.86 79.8,-110.57 71.5,-96 58.43,-73.04 66.96,-40.09 72.23,-24.63"/>
<polygon fill="#63b8ff" stroke="#63b8ff" points="108.29,-131.15 118.85,-131.98 111.11,-124.75 108.29,-131.15"/>
</a>
</g>
</g>
<!-- Node4 -->
<g id="Node000004" class="node">
<title>Node4</title>
<g id="a_Node000004"><a xlink:href="to__color_8cxx.html" target="_top" xlink:title="Implementation of color conversion utilities for logging levels.">
<polygon fill="white" stroke="#666666" points="276,-30 181,-30 181,0 276,0 276,-30"/>
<text text-anchor="start" x="189" y="-18" font-family="Helvetica,sans-Serif" font-size="10.00">src/internal/utils</text>
<text text-anchor="middle" x="228.5" y="-7" font-family="Helvetica,sans-Serif" font-size="10.00">/to_color.cxx</text>
</a>
</g>
</g>
<!-- Node1&#45;&gt;Node4 -->
<g id="edge5_Node000001_Node000004" class="edge">
<title>Node1&#45;&gt;Node4</title>
<g id="a_edge5_Node000001_Node000004"><a xlink:title=" ">
<path fill="none" stroke="#63b8ff" d="M182.28,-127.8C196.88,-120.74 212.44,-110.4 221.5,-96 234.12,-75.94 233.06,-47.24 230.93,-30.23"/>
<polygon fill="#63b8ff" stroke="#63b8ff" points="180.61,-124.71 172.89,-131.98 183.45,-131.11 180.61,-124.71"/>
</a>
</g>
</g>
<!-- Node2&#45;&gt;Node3 -->
<g id="edge2_Node000002_Node000003" class="edge">
<title>Node2&#45;&gt;Node3</title>
<g id="a_edge2_Node000002_Node000003"><a xlink:title=" ">
<path fill="none" stroke="#63b8ff" d="M123.13,-58.93C110.28,-47.35 95.03,-33.61 85.31,-24.84"/>
<polygon fill="#63b8ff" stroke="#63b8ff" points="120.97,-61.7 130.74,-65.8 125.66,-56.5 120.97,-61.7"/>
</a>
</g>
</g>
<!-- Node2&#45;&gt;Node4 -->
<g id="edge3_Node000002_Node000004" class="edge">
<title>Node2&#45;&gt;Node4</title>
<g id="a_edge3_Node000002_Node000004"><a xlink:title=" ">
<path fill="none" stroke="#63b8ff" d="M172.79,-59.48C185.05,-49.91 199.32,-38.77 210.35,-30.16"/>
<polygon fill="#63b8ff" stroke="#63b8ff" points="170.43,-56.88 164.7,-65.8 174.74,-62.4 170.43,-56.88"/>
</a>
</g>
</g>
</g>
</svg>
