<?xml version="1.0" encoding="UTF-8" standalone="no"?>
<!DOCTYPE svg PUBLIC "-//W3C//DTD SVG 1.1//EN"
 "http://www.w3.org/Graphics/SVG/1.1/DTD/svg11.dtd">
<!-- Generated by graphviz version 2.43.0 (0)
 -->
<!-- Title: include/logging/logging.hxx Pages: 1 -->
<svg width="722pt" height="203pt"
 viewBox="0.00 0.00 722.00 203.00" xmlns="http://www.w3.org/2000/svg" xmlns:xlink="http://www.w3.org/1999/xlink">
<g id="graph0" class="graph" transform="scale(1 1) rotate(0) translate(4 199)">
<title>include/logging/logging.hxx</title>
<!-- Node1 -->
<g id="Node000001" class="node">
<title>Node1</title>
<g id="a_Node000001"><a xlink:title="Header&#45;only logging utility with compile&#45;time format string validation.">
<polygon fill="#999999" stroke="#666666" points="273,-195 122,-195 122,-176 273,-176 273,-195"/>
<text text-anchor="middle" x="197.5" y="-183" font-family="Helvetica,sans-Serif" font-size="10.00">include/logging/logging.hxx</text>
</a>
</g>
</g>
<!-- Node2 -->
<g id="Node000002" class="node">
<title>Node2</title>
<g id="a_Node000002"><a xlink:title=" ">
<polygon fill="#e0e0e0" stroke="#999999" points="93,-134.5 0,-134.5 0,-115.5 93,-115.5 93,-134.5"/>
<text text-anchor="middle" x="46.5" y="-122.5" font-family="Helvetica,sans-Serif" font-size="10.00">source_location</text>
</a>
</g>
</g>
<!-- Node1&#45;&gt;Node2 -->
<g id="edge1_Node000001_Node000002" class="edge">
<title>Node1&#45;&gt;Node2</title>
<g id="a_edge1_Node000001_Node000002"><a xlink:title=" ">
<path fill="none" stroke="#63b8ff" d="M175.54,-175.99C149.82,-166.03 107.02,-149.45 77.82,-138.13"/>
<polygon fill="#63b8ff" stroke="#63b8ff" points="79.07,-134.87 68.48,-134.52 76.54,-141.39 79.07,-134.87"/>
</a>
</g>
</g>
<!-- Node3 -->
<g id="Node000003" class="node">
<title>Node3</title>
<g id="a_Node000003"><a xlink:title=" ">
<polygon fill="#e0e0e0" stroke="#999999" points="71,-19 2,-19 2,0 71,0 71,-19"/>
<text text-anchor="middle" x="36.5" y="-7" font-family="Helvetica,sans-Serif" font-size="10.00">fmt/base.h</text>
</a>
</g>
</g>
<!-- Node1&#45;&gt;Node3 -->
<g id="edge2_Node000001_Node000003" class="edge">
<title>Node1&#45;&gt;Node3</title>
<g id="a_edge2_Node000001_Node000003"><a xlink:title=" ">
<path fill="none" stroke="#63b8ff" d="M189.29,-175.63C163.67,-147.94 84.85,-62.75 51.57,-26.79"/>
<polygon fill="#63b8ff" stroke="#63b8ff" points="53.86,-24.11 44.5,-19.14 48.72,-28.86 53.86,-24.11"/>
</a>
</g>
</g>
<!-- Node4 -->
<g id="Node000004" class="node">
<title>Node4</title>
<g id="a_Node000004"><a xlink:title=" ">
<polygon fill="#e0e0e0" stroke="#999999" points="406,-74 337,-74 337,-55 406,-55 406,-74"/>
<text text-anchor="middle" x="371.5" y="-62" font-family="Helvetica,sans-Serif" font-size="10.00">fmt/color.h</text>
</a>
</g>
</g>
<!-- Node1&#45;&gt;Node4 -->
<g id="edge3_Node000001_Node000004" class="edge">
<title>Node1&#45;&gt;Node4</title>
<g id="a_edge3_Node000001_Node000004"><a xlink:title=" ">
<path fill="none" stroke="#63b8ff" d="M273.1,-178.59C301.42,-172.69 331.73,-161.4 352.5,-140 366.85,-125.21 370.8,-101.17 371.68,-84.41"/>
<polygon fill="#63b8ff" stroke="#63b8ff" points="375.18,-84.24 371.88,-74.17 368.18,-84.1 375.18,-84.24"/>
</a>
</g>
</g>
<!-- Node5 -->
<g id="Node000005" class="node">
<title>Node5</title>
<g id="a_Node000005"><a xlink:title=" ">
<polygon fill="#e0e0e0" stroke="#999999" points="168,-19 89,-19 89,0 168,0 168,-19"/>
<text text-anchor="middle" x="128.5" y="-7" font-family="Helvetica,sans-Serif" font-size="10.00">fmt/format.h</text>
</a>
</g>
</g>
<!-- Node1&#45;&gt;Node5 -->
<g id="edge4_Node000001_Node000005" class="edge">
<title>Node1&#45;&gt;Node5</title>
<g id="a_edge4_Node000001_Node000005"><a xlink:title=" ">
<path fill="none" stroke="#63b8ff" d="M193.98,-175.63C183.19,-148.4 150.35,-65.61 135.7,-28.65"/>
<polygon fill="#63b8ff" stroke="#63b8ff" points="138.87,-27.15 131.93,-19.14 132.36,-29.73 138.87,-27.15"/>
</a>
</g>
</g>
<!-- Node6 -->
<g id="Node000006" class="node">
<title>Node6</title>
<g id="a_Node000006"><a xlink:title=" ">
<polygon fill="#e0e0e0" stroke="#999999" points="714,-19 571,-19 571,0 714,0 714,-19"/>
<text text-anchor="middle" x="642.5" y="-7" font-family="Helvetica,sans-Serif" font-size="10.00">debug/tracing/macros.hxx</text>
</a>
</g>
</g>
<!-- Node1&#45;&gt;Node6 -->
<g id="edge5_Node000001_Node000006" class="edge">
<title>Node1&#45;&gt;Node6</title>
<g id="a_edge5_Node000001_Node000006"><a xlink:title=" ">
<path fill="none" stroke="#63b8ff" d="M241.27,-176C277.33,-168.38 329.51,-155.97 373.5,-140 467.43,-105.91 572.44,-49.72 618.58,-24.05"/>
<polygon fill="#63b8ff" stroke="#63b8ff" points="620.49,-27 627.5,-19.06 617.07,-20.89 620.49,-27"/>
</a>
</g>
</g>
<!-- Node7 -->
<g id="Node000007" class="node">
<title>Node7</title>
<g id="a_Node000007"><a xlink:href="to__color_8hxx.html" target="_top" xlink:title="Color conversion utilities for logging levels.">
<polygon fill="white" stroke="#666666" points="343,-140 226,-140 226,-110 343,-110 343,-140"/>
<text text-anchor="start" x="234" y="-128" font-family="Helvetica,sans-Serif" font-size="10.00">logging/internal/utils</text>
<text text-anchor="middle" x="284.5" y="-117" font-family="Helvetica,sans-Serif" font-size="10.00">/to_color.hxx</text>
</a>
</g>
</g>
<!-- Node1&#45;&gt;Node7 -->
<g id="edge6_Node000001_Node000007" class="edge">
<title>Node1&#45;&gt;Node7</title>
<g id="a_edge6_Node000001_Node000007"><a xlink:title=" ">
<path fill="none" stroke="#63b8ff" d="M210.34,-175.87C222.03,-168 239.75,-156.09 254.93,-145.89"/>
<polygon fill="#63b8ff" stroke="#63b8ff" points="257.16,-148.6 263.51,-140.11 253.26,-142.79 257.16,-148.6"/>
</a>
</g>
</g>
<!-- Node8 -->
<g id="Node000008" class="node">
<title>Node8</title>
<g id="a_Node000008"><a xlink:href="level_8hxx.html" target="_top" xlink:title=" ">
<polygon fill="white" stroke="#666666" points="319,-74 218,-74 218,-55 319,-55 319,-74"/>
<text text-anchor="middle" x="268.5" y="-62" font-family="Helvetica,sans-Serif" font-size="10.00">logging/level.hxx</text>
</a>
</g>
</g>
<!-- Node1&#45;&gt;Node8 -->
<g id="edge16_Node000001_Node000008" class="edge">
<title>Node1&#45;&gt;Node8</title>
<g id="a_edge16_Node000001_Node000008"><a xlink:title=" ">
<path fill="none" stroke="#63b8ff" d="M198.04,-175.56C199.3,-160.86 203.39,-131.08 216.5,-110 223.85,-98.18 235.37,-87.85 245.7,-80.13"/>
<polygon fill="#63b8ff" stroke="#63b8ff" points="247.83,-82.91 253.98,-74.29 243.79,-77.2 247.83,-82.91"/>
</a>
</g>
</g>
<!-- Node7&#45;&gt;Node4 -->
<g id="edge7_Node000007_Node000004" class="edge">
<title>Node7&#45;&gt;Node4</title>
<g id="a_edge7_Node000007_Node000004"><a xlink:title=" ">
<path fill="none" stroke="#63b8ff" d="M305.56,-109.84C319.04,-100.77 336.49,-89.04 350.05,-79.92"/>
<polygon fill="#63b8ff" stroke="#63b8ff" points="352.37,-82.58 358.72,-74.09 348.47,-76.77 352.37,-82.58"/>
</a>
</g>
</g>
<!-- Node7&#45;&gt;Node8 -->
<g id="edge8_Node000007_Node000008" class="edge">
<title>Node7&#45;&gt;Node8</title>
<g id="a_edge8_Node000007_Node000008"><a xlink:title=" ">
<path fill="none" stroke="#63b8ff" d="M280.63,-109.84C278.52,-102.13 275.88,-92.49 273.61,-84.17"/>
<polygon fill="#63b8ff" stroke="#63b8ff" points="276.91,-82.99 270.9,-74.27 270.16,-84.84 276.91,-82.99"/>
</a>
</g>
</g>
<!-- Node8&#45;&gt;Node3 -->
<g id="edge11_Node000008_Node000003" class="edge">
<title>Node8&#45;&gt;Node3</title>
<g id="a_edge11_Node000008_Node000003"><a xlink:title=" ">
<path fill="none" stroke="#63b8ff" d="M231.23,-54.98C190.23,-45.62 124.39,-30.58 80.79,-20.62"/>
<polygon fill="#63b8ff" stroke="#63b8ff" points="81.56,-17.2 71.03,-18.39 80,-24.03 81.56,-17.2"/>
</a>
</g>
</g>
<!-- Node8&#45;&gt;Node5 -->
<g id="edge12_Node000008_Node000005" class="edge">
<title>Node8&#45;&gt;Node5</title>
<g id="a_edge12_Node000008_Node000005"><a xlink:title=" ">
<path fill="none" stroke="#63b8ff" d="M246.01,-54.98C222.98,-46.27 186.96,-32.63 160.87,-22.75"/>
<polygon fill="#63b8ff" stroke="#63b8ff" points="161.99,-19.44 151.4,-19.17 159.52,-25.98 161.99,-19.44"/>
</a>
</g>
</g>
<!-- Node8&#45;&gt;Node6 -->
<g id="edge14_Node000008_Node000006" class="edge">
<title>Node8&#45;&gt;Node6</title>
<g id="a_edge14_Node000008_Node000006"><a xlink:title=" ">
<path fill="none" stroke="#63b8ff" d="M319.33,-56.3C384.76,-47.03 498.76,-30.87 572.39,-20.44"/>
<polygon fill="#63b8ff" stroke="#63b8ff" points="573.1,-23.87 582.51,-19 572.11,-16.94 573.1,-23.87"/>
</a>
</g>
</g>
<!-- Node9 -->
<g id="Node000009" class="node">
<title>Node9</title>
<g id="a_Node000009"><a xlink:title=" ">
<polygon fill="#e0e0e0" stroke="#999999" points="552.5,-19 502.5,-19 502.5,0 552.5,0 552.5,-19"/>
<text text-anchor="middle" x="527.5" y="-7" font-family="Helvetica,sans-Serif" font-size="10.00">format</text>
</a>
</g>
</g>
<!-- Node8&#45;&gt;Node9 -->
<g id="edge9_Node000008_Node000009" class="edge">
<title>Node8&#45;&gt;Node9</title>
<g id="a_edge9_Node000008_Node000009"><a xlink:title=" ">
<path fill="none" stroke="#63b8ff" d="M315.18,-54.97C358.65,-46.87 425.47,-34.01 492.41,-19.16"/>
<polygon fill="#63b8ff" stroke="#63b8ff" points="493.29,-22.55 502.28,-16.95 491.76,-15.72 493.29,-22.55"/>
</a>
</g>
</g>
<!-- Node10 -->
<g id="Node000010" class="node">
<title>Node10</title>
<g id="a_Node000010"><a xlink:title=" ">
<polygon fill="#e0e0e0" stroke="#999999" points="231,-19 186,-19 186,0 231,0 231,-19"/>
<text text-anchor="middle" x="208.5" y="-7" font-family="Helvetica,sans-Serif" font-size="10.00">utility</text>
</a>
</g>
</g>
<!-- Node8&#45;&gt;Node10 -->
<g id="edge10_Node000008_Node000010" class="edge">
<title>Node8&#45;&gt;Node10</title>
<g id="a_edge10_Node000008_Node000010"><a xlink:title=" ">
<path fill="none" stroke="#63b8ff" d="M258.86,-54.98C249.99,-47.15 236.63,-35.34 225.89,-25.86"/>
<polygon fill="#63b8ff" stroke="#63b8ff" points="228.13,-23.17 218.32,-19.17 223.49,-28.41 228.13,-23.17"/>
</a>
</g>
</g>
<!-- Node11 -->
<g id="Node000011" class="node">
<title>Node11</title>
<g id="a_Node000011"><a xlink:title=" ">
<polygon fill="#e0e0e0" stroke="#999999" points="350,-19 249,-19 249,0 350,0 350,-19"/>
<text text-anchor="middle" x="299.5" y="-7" font-family="Helvetica,sans-Serif" font-size="10.00">debug/assert.hxx</text>
</a>
</g>
</g>
<!-- Node8&#45;&gt;Node11 -->
<g id="edge13_Node000008_Node000011" class="edge">
<title>Node8&#45;&gt;Node11</title>
<g id="a_edge13_Node000008_Node000011"><a xlink:title=" ">
<path fill="none" stroke="#63b8ff" d="M273.62,-54.75C277.86,-47.49 284.03,-36.95 289.28,-27.98"/>
<polygon fill="#63b8ff" stroke="#63b8ff" points="292.45,-29.49 294.48,-19.09 286.41,-25.95 292.45,-29.49"/>
</a>
</g>
</g>
<!-- Node12 -->
<g id="Node000012" class="node">
<title>Node12</title>
<g id="a_Node000012"><a xlink:title=" ">
<polygon fill="#e0e0e0" stroke="#999999" points="484.5,-19 368.5,-19 368.5,0 484.5,0 484.5,-19"/>
<text text-anchor="middle" x="426.5" y="-7" font-family="Helvetica,sans-Serif" font-size="10.00">corelib/types/int.hxx</text>
</a>
</g>
</g>
<!-- Node8&#45;&gt;Node12 -->
<g id="edge15_Node000008_Node000012" class="edge">
<title>Node8&#45;&gt;Node12</title>
<g id="a_edge15_Node000008_Node000012"><a xlink:title=" ">
<path fill="none" stroke="#63b8ff" d="M293.89,-54.98C320.3,-46.13 361.85,-32.19 391.39,-22.28"/>
<polygon fill="#63b8ff" stroke="#63b8ff" points="392.55,-25.58 400.92,-19.08 390.32,-18.94 392.55,-25.58"/>
</a>
</g>
</g>
</g>
</svg>
