<?xml version="1.0" encoding="UTF-8" standalone="no"?>
<!DOCTYPE svg PUBLIC "-//W3C//DTD SVG 1.1//EN"
 "http://www.w3.org/Graphics/SVG/1.1/DTD/svg11.dtd">
<!-- Generated by graphviz version 2.43.0 (0)
 -->
<!-- Title: include/corelib/detail/casting/adapters.hxx Pages: 1 -->
<svg width="344pt" height="489pt"
 viewBox="0.00 0.00 344.00 489.00" xmlns="http://www.w3.org/2000/svg" xmlns:xlink="http://www.w3.org/1999/xlink">
<g id="graph0" class="graph" transform="scale(1 1) rotate(0) translate(4 485)">
<title>include/corelib/detail/casting/adapters.hxx</title>
<!-- Node1 -->
<g id="Node000001" class="node">
<title>Node1</title>
<g id="a_Node000001"><a xlink:title=" ">
<polygon fill="#999999" stroke="#666666" points="149,-481 27,-481 27,-451 149,-451 149,-481"/>
<text text-anchor="start" x="35" y="-469" font-family="Helvetica,sans-Serif" font-size="10.00">include/corelib/detail</text>
<text text-anchor="middle" x="88" y="-458" font-family="Helvetica,sans-Serif" font-size="10.00">/casting/adapters.hxx</text>
</a>
</g>
</g>
<!-- Node2 -->
<g id="Node000002" class="node">
<title>Node2</title>
<g id="a_Node000002"><a xlink:href="casting_2cast_8hxx.html" target="_top" xlink:title=" ">
<polygon fill="white" stroke="#666666" points="126,-283 0,-283 0,-253 126,-253 126,-283"/>
<text text-anchor="start" x="8" y="-271" font-family="Helvetica,sans-Serif" font-size="10.00">include/corelib/casting</text>
<text text-anchor="middle" x="63" y="-260" font-family="Helvetica,sans-Serif" font-size="10.00">/cast.hxx</text>
</a>
</g>
</g>
<!-- Node1&#45;&gt;Node2 -->
<g id="edge1_Node000001_Node000002" class="edge">
<title>Node1&#45;&gt;Node2</title>
<g id="a_edge1_Node000001_Node000002"><a xlink:title=" ">
<path fill="none" stroke="#63b8ff" d="M84.93,-440.89C79.66,-399.58 69.06,-316.48 64.82,-283.23"/>
<polygon fill="#63b8ff" stroke="#63b8ff" points="81.46,-441.43 86.2,-450.9 88.41,-440.54 81.46,-441.43"/>
</a>
</g>
</g>
<!-- Node7 -->
<g id="Node000007" class="node">
<title>Node7</title>
<g id="a_Node000007"><a xlink:href="detail_2casting_2cast_8hxx.html" target="_top" xlink:title=" ">
<polygon fill="white" stroke="#666666" points="211.5,-415 92.5,-415 92.5,-385 211.5,-385 211.5,-415"/>
<text text-anchor="start" x="100.5" y="-403" font-family="Helvetica,sans-Serif" font-size="10.00">include/corelib/detail</text>
<text text-anchor="middle" x="152" y="-392" font-family="Helvetica,sans-Serif" font-size="10.00">/casting/cast.hxx</text>
</a>
</g>
</g>
<!-- Node1&#45;&gt;Node7 -->
<g id="edge9_Node000001_Node000007" class="edge">
<title>Node1&#45;&gt;Node7</title>
<g id="a_edge9_Node000001_Node000007"><a xlink:title=" ">
<path fill="none" stroke="#63b8ff" d="M109.35,-443.65C118.73,-434.27 129.47,-423.53 137.84,-415.16"/>
<polygon fill="#63b8ff" stroke="#63b8ff" points="106.8,-441.25 102.2,-450.8 111.75,-446.2 106.8,-441.25"/>
</a>
</g>
</g>
<!-- Node3 -->
<g id="Node000003" class="node">
<title>Node3</title>
<g id="a_Node000003"><a xlink:href="casting_8hxx.html" target="_top" xlink:title="Convenience header for all casting module components.">
<polygon fill="white" stroke="#666666" points="275.5,-19 128.5,-19 128.5,0 275.5,0 275.5,-19"/>
<text text-anchor="middle" x="202" y="-7" font-family="Helvetica,sans-Serif" font-size="10.00">include/corelib/casting.hxx</text>
</a>
</g>
</g>
<!-- Node2&#45;&gt;Node3 -->
<g id="edge2_Node000002_Node000003" class="edge">
<title>Node2&#45;&gt;Node3</title>
<g id="a_edge2_Node000002_Node000003"><a xlink:title=" ">
<path fill="none" stroke="#63b8ff" d="M57.88,-242.78C50.33,-200.06 41.33,-110.61 84,-55 98.46,-36.15 121.86,-25.29 144.02,-19.02"/>
<polygon fill="#63b8ff" stroke="#63b8ff" points="54.48,-243.64 59.78,-252.82 61.36,-242.34 54.48,-243.64"/>
</a>
</g>
</g>
<!-- Node4 -->
<g id="Node000004" class="node">
<title>Node4</title>
<g id="a_Node000004"><a xlink:href="dyn__cast_8hxx.html" target="_top" xlink:title=" ">
<polygon fill="white" stroke="#666666" points="308,-217 182,-217 182,-187 308,-187 308,-217"/>
<text text-anchor="start" x="190" y="-205" font-family="Helvetica,sans-Serif" font-size="10.00">include/corelib/casting</text>
<text text-anchor="middle" x="245" y="-194" font-family="Helvetica,sans-Serif" font-size="10.00">/dyn_cast.hxx</text>
</a>
</g>
</g>
<!-- Node2&#45;&gt;Node4 -->
<g id="edge3_Node000002_Node000004" class="edge">
<title>Node2&#45;&gt;Node4</title>
<g id="a_edge3_Node000002_Node000004"><a xlink:title=" ">
<path fill="none" stroke="#63b8ff" d="M112.51,-249.59C141.61,-239.36 177.91,-226.59 205.15,-217.01"/>
<polygon fill="#63b8ff" stroke="#63b8ff" points="111.21,-246.34 102.94,-252.95 113.54,-252.94 111.21,-246.34"/>
</a>
</g>
</g>
<!-- Node5 -->
<g id="Node000005" class="node">
<title>Node5</title>
<g id="a_Node000005"><a xlink:href="detail_2casting_2predicates_8hxx.html" target="_top" xlink:title=" ">
<polygon fill="white" stroke="#666666" points="220,-151 90,-151 90,-121 220,-121 220,-151"/>
<text text-anchor="start" x="98" y="-139" font-family="Helvetica,sans-Serif" font-size="10.00">include/corelib/detail</text>
<text text-anchor="middle" x="155" y="-128" font-family="Helvetica,sans-Serif" font-size="10.00">/casting/predicates.hxx</text>
</a>
</g>
</g>
<!-- Node2&#45;&gt;Node5 -->
<g id="edge8_Node000002_Node000005" class="edge">
<title>Node2&#45;&gt;Node5</title>
<g id="a_edge8_Node000002_Node000005"><a xlink:title=" ">
<path fill="none" stroke="#63b8ff" d="M78.96,-244.45C97.95,-217.61 129.1,-173.6 144.99,-151.14"/>
<polygon fill="#63b8ff" stroke="#63b8ff" points="75.94,-242.66 73.02,-252.84 81.65,-246.7 75.94,-242.66"/>
</a>
</g>
</g>
<!-- Node4&#45;&gt;Node3 -->
<g id="edge4_Node000004_Node000003" class="edge">
<title>Node4&#45;&gt;Node3</title>
<g id="a_edge4_Node000004_Node000003"><a xlink:title=" ">
<path fill="none" stroke="#63b8ff" d="M245.19,-176.7C244.74,-147.18 241.76,-96.21 228,-55 223.52,-41.59 214.67,-27.78 208.54,-19.18"/>
<polygon fill="#63b8ff" stroke="#63b8ff" points="241.69,-176.92 245.25,-186.9 248.69,-176.88 241.69,-176.92"/>
</a>
</g>
</g>
<!-- Node4&#45;&gt;Node5 -->
<g id="edge5_Node000004_Node000005" class="edge">
<title>Node4&#45;&gt;Node5</title>
<g id="a_edge5_Node000004_Node000005"><a xlink:title=" ">
<path fill="none" stroke="#63b8ff" d="M216.53,-180.75C202.99,-171.13 187.14,-159.86 174.92,-151.16"/>
<polygon fill="#63b8ff" stroke="#63b8ff" points="214.85,-183.85 225.03,-186.8 218.9,-178.15 214.85,-183.85"/>
</a>
</g>
</g>
<!-- Node6 -->
<g id="Node000006" class="node">
<title>Node6</title>
<g id="a_Node000006"><a xlink:href="casting_2predicates_8hxx.html" target="_top" xlink:title=" ">
<polygon fill="white" stroke="#666666" points="219,-85 93,-85 93,-55 219,-55 219,-85"/>
<text text-anchor="start" x="101" y="-73" font-family="Helvetica,sans-Serif" font-size="10.00">include/corelib/casting</text>
<text text-anchor="middle" x="156" y="-62" font-family="Helvetica,sans-Serif" font-size="10.00">/predicates.hxx</text>
</a>
</g>
</g>
<!-- Node5&#45;&gt;Node6 -->
<g id="edge6_Node000005_Node000006" class="edge">
<title>Node5&#45;&gt;Node6</title>
<g id="a_edge6_Node000005_Node000006"><a xlink:title=" ">
<path fill="none" stroke="#63b8ff" d="M155.38,-110.54C155.52,-101.96 155.66,-92.61 155.78,-85.16"/>
<polygon fill="#63b8ff" stroke="#63b8ff" points="151.88,-110.74 155.22,-120.8 158.88,-110.85 151.88,-110.74"/>
</a>
</g>
</g>
<!-- Node6&#45;&gt;Node3 -->
<g id="edge7_Node000006_Node000003" class="edge">
<title>Node6&#45;&gt;Node3</title>
<g id="a_edge7_Node000006_Node000003"><a xlink:title=" ">
<path fill="none" stroke="#63b8ff" d="M173.46,-46.8C181,-37.21 189.39,-26.54 195.11,-19.27"/>
<polygon fill="#63b8ff" stroke="#63b8ff" points="170.57,-44.81 167.14,-54.84 176.07,-49.14 170.57,-44.81"/>
</a>
</g>
</g>
<!-- Node7&#45;&gt;Node2 -->
<g id="edge10_Node000007_Node000002" class="edge">
<title>Node7&#45;&gt;Node2</title>
<g id="a_edge10_Node000007_Node000002"><a xlink:title=" ">
<path fill="none" stroke="#63b8ff" d="M127.24,-378.07C118.24,-369.65 108.46,-359.46 101,-349 85.91,-327.84 74.19,-299.75 67.96,-283.11"/>
<polygon fill="#63b8ff" stroke="#63b8ff" points="125.1,-380.86 134.86,-384.97 129.8,-375.67 125.1,-380.86"/>
</a>
</g>
</g>
<!-- Node7&#45;&gt;Node4 -->
<g id="edge11_Node000007_Node000004" class="edge">
<title>Node7&#45;&gt;Node4</title>
<g id="a_edge11_Node000007_Node000004"><a xlink:title=" ">
<path fill="none" stroke="#63b8ff" d="M209.4,-380.28C223.47,-372.84 236.82,-362.68 245,-349 270.23,-306.79 257.22,-244.71 249.44,-217.12"/>
<polygon fill="#63b8ff" stroke="#63b8ff" points="207.57,-377.28 200.1,-384.8 210.63,-383.58 207.57,-377.28"/>
</a>
</g>
</g>
<!-- Node8 -->
<g id="Node000008" class="node">
<title>Node8</title>
<g id="a_Node000008"><a xlink:href="casting_2isa_8hxx.html" target="_top" xlink:title=" ">
<polygon fill="white" stroke="#666666" points="236,-349 110,-349 110,-319 236,-319 236,-349"/>
<text text-anchor="start" x="118" y="-337" font-family="Helvetica,sans-Serif" font-size="10.00">include/corelib/casting</text>
<text text-anchor="middle" x="173" y="-326" font-family="Helvetica,sans-Serif" font-size="10.00">/isa.hxx</text>
</a>
</g>
</g>
<!-- Node7&#45;&gt;Node8 -->
<g id="edge12_Node000007_Node000008" class="edge">
<title>Node7&#45;&gt;Node8</title>
<g id="a_edge12_Node000007_Node000008"><a xlink:title=" ">
<path fill="none" stroke="#63b8ff" d="M159.84,-375.11C162.7,-366.38 165.85,-356.78 168.35,-349.16"/>
<polygon fill="#63b8ff" stroke="#63b8ff" points="156.45,-374.2 156.66,-384.8 163.1,-376.39 156.45,-374.2"/>
</a>
</g>
</g>
<!-- Node8&#45;&gt;Node2 -->
<g id="edge14_Node000008_Node000002" class="edge">
<title>Node8&#45;&gt;Node2</title>
<g id="a_edge14_Node000008_Node000002"><a xlink:title=" ">
<path fill="none" stroke="#63b8ff" d="M139.82,-313.69C122.84,-303.82 102.55,-292.01 87.08,-283.01"/>
<polygon fill="#63b8ff" stroke="#63b8ff" points="138.46,-316.95 148.86,-318.95 141.98,-310.9 138.46,-316.95"/>
</a>
</g>
</g>
<!-- Node8&#45;&gt;Node3 -->
<g id="edge13_Node000008_Node000003" class="edge">
<title>Node8&#45;&gt;Node3</title>
<g id="a_edge13_Node000008_Node000003"><a xlink:title=" ">
<path fill="none" stroke="#63b8ff" d="M227.54,-315.1C274.92,-295.71 336,-259.72 336,-203 336,-203 336,-203 336,-135 336,-74.66 262.19,-35.31 224.13,-19.03"/>
<polygon fill="#63b8ff" stroke="#63b8ff" points="225.99,-311.95 217.97,-318.87 228.56,-318.46 225.99,-311.95"/>
</a>
</g>
</g>
<!-- Node8&#45;&gt;Node5 -->
<g id="edge15_Node000008_Node000005" class="edge">
<title>Node8&#45;&gt;Node5</title>
<g id="a_edge15_Node000008_Node000005"><a xlink:title=" ">
<path fill="none" stroke="#63b8ff" d="M170.79,-308.89C166.99,-267.58 159.36,-184.48 156.31,-151.23"/>
<polygon fill="#63b8ff" stroke="#63b8ff" points="167.31,-309.27 171.71,-318.9 174.28,-308.63 167.31,-309.27"/>
</a>
</g>
</g>
</g>
</svg>
