<?xml version="1.0" encoding="UTF-8" standalone="no"?>
<!DOCTYPE svg PUBLIC "-//W3C//DTD SVG 1.1//EN"
 "http://www.w3.org/Graphics/SVG/1.1/DTD/svg11.dtd">
<!-- Generated by graphviz version 2.43.0 (0)
 -->
<!-- Title: include/corelib/detail/casting/adapters.hxx Pages: 1 -->
<!--zoomable 236 -->

<svg id="main" version="1.1" xmlns="http://www.w3.org/2000/svg" xmlns:xlink="http://www.w3.org/1999/xlink" xml:space="preserve" onload="init(evt)">
<style type="text/css"><![CDATA[
.node, .edge {opacity: 0.7;}
.node.selected, .edge.selected {opacity: 1;}
.edge:hover path { stroke: red; }
.edge:hover polygon { stroke: red; fill: red; }
]]></style>

<defs>
  <circle id="rim" cx="0" cy="0" r="7"/>
  <circle id="rim2" cx="0" cy="0" r="3.5"/>
  <g id="zoomPlus">
    <use xlink:href="#rim" fill="#404040"><set attributeName="fill" to="#808080" begin="zoomplus.mouseover" end="zoomplus.mouseout"/></use>
    <path d="M-4,0h8M0,-4v8" fill="none" stroke="white" stroke-width="1.5" pointer-events="none"/>
  </g>
  <g id="zoomMin">
    <use xlink:href="#rim" fill="#404040"><set attributeName="fill" to="#808080" begin="zoomminus.mouseover" end="zoomminus.mouseout"/></use>
    <path d="M-4,0h8" fill="none" stroke="white" stroke-width="1.5" pointer-events="none"/>
  </g>
  <g id="arrowUp" transform="translate(30 24)">
    <use xlink:href="#rim"/>
    <path pointer-events="none" fill="none" stroke="white" stroke-width="1.5" d="M0,-3.0v7 M-2.5,-0.5L0,-3.0L2.5,-0.5"/>
  </g>
  <g id="arrowRight" transform="rotate(90) translate(36 -43)">
    <use xlink:href="#rim"/>
    <path pointer-events="none" fill="none" stroke="white" stroke-width="1.5" d="M0,-3.0v7 M-2.5,-0.5L0,-3.0L2.5,-0.5"/>
  </g>
  <g id="arrowDown" transform="rotate(180) translate(-30 -48)">
    <use xlink:href="#rim"/>
    <path pointer-events="none" fill="none" stroke="white" stroke-width="1.5" d="M0,-3.0v7 M-2.5,-0.5L0,-3.0L2.5,-0.5"/>
  </g>
  <g id="arrowLeft" transform="rotate(270) translate(-36 17)">
    <use xlink:href="#rim"/>
    <path pointer-events="none" fill="none" stroke="white" stroke-width="1.5" d="M0,-3.0v7 M-2.5,-0.5L0,-3.0L2.5,-0.5"/>
  </g>
  <g id="resetDef">
    <use xlink:href="#rim2" fill="#404040"><set attributeName="fill" to="#808080" begin="reset.mouseover" end="reset.mouseout"/></use>
  </g>
</defs>
<script type="application/ecmascript">
var viewWidth = 712;
var viewHeight = 236;
var sectionId = 'dynsection-0';
</script>
<script type="application/ecmascript" xlink:href="svg.min.js"/>
<svg id="graph" class="graph">
<g id="viewport">
<title>include/corelib/detail/casting/adapters.hxx</title>
<!-- Node1 -->
<g id="Node000001" class="node">
<title>Node1</title>
<g id="a_Node000001"><a xlink:title=" ">
<polygon fill="#999999" stroke="#666666" points="432,-228 310,-228 310,-198 432,-198 432,-228"/>
<text text-anchor="start" x="318" y="-216" font-family="Helvetica,sans-Serif" font-size="10.00">include/corelib/detail</text>
<text text-anchor="middle" x="371" y="-205" font-family="Helvetica,sans-Serif" font-size="10.00">/casting/adapters.hxx</text>
</a>
</g>
</g>
<!-- Node2 -->
<g id="Node000002" class="node">
<title>Node2</title>
<g id="a_Node000002"><a xlink:title=" ">
<polygon fill="#e0e0e0" stroke="#999999" points="123,-156.5 65,-156.5 65,-137.5 123,-137.5 123,-156.5"/>
<text text-anchor="middle" x="94" y="-144.5" font-family="Helvetica,sans-Serif" font-size="10.00">memory</text>
</a>
</g>
</g>
<!-- Node1&#45;&gt;Node2 -->
<g id="edge1_Node000001_Node000002" class="edge">
<title>Node1&#45;&gt;Node2</title>
<g id="a_edge1_Node000001_Node000002"><a xlink:title=" ">
<path fill="none" stroke="#63b8ff" d="M309.98,-200.77C262.52,-191.6 195.17,-177.64 137,-162 134.23,-161.25 131.37,-160.44 128.51,-159.58"/>
<polygon fill="#63b8ff" stroke="#63b8ff" points="129.47,-156.22 118.88,-156.59 127.39,-162.9 129.47,-156.22"/>
</a>
</g>
</g>
<!-- Node3 -->
<g id="Node000003" class="node">
<title>Node3</title>
<g id="a_Node000003"><a xlink:title=" ">
<polygon fill="#e0e0e0" stroke="#999999" points="686,-85 630,-85 630,-66 686,-66 686,-85"/>
<text text-anchor="middle" x="658" y="-73" font-family="Helvetica,sans-Serif" font-size="10.00">optional</text>
</a>
</g>
</g>
<!-- Node1&#45;&gt;Node3 -->
<g id="edge2_Node000001_Node000003" class="edge">
<title>Node1&#45;&gt;Node3</title>
<g id="a_edge2_Node000001_Node000003"><a xlink:title=" ">
<path fill="none" stroke="#63b8ff" d="M415.91,-197.92C443.29,-188.81 478.72,-176.05 509,-162 555.91,-140.24 607.63,-108.73 636.13,-90.66"/>
<polygon fill="#63b8ff" stroke="#63b8ff" points="638.31,-93.42 644.86,-85.09 634.55,-87.52 638.31,-93.42"/>
</a>
</g>
</g>
<!-- Node4 -->
<g id="Node000004" class="node">
<title>Node4</title>
<g id="a_Node000004"><a xlink:title=" ">
<polygon fill="#e0e0e0" stroke="#999999" points="474.5,-19 405.5,-19 405.5,0 474.5,0 474.5,-19"/>
<text text-anchor="middle" x="440" y="-7" font-family="Helvetica,sans-Serif" font-size="10.00">type_traits</text>
</a>
</g>
</g>
<!-- Node1&#45;&gt;Node4 -->
<g id="edge3_Node000001_Node000004" class="edge">
<title>Node1&#45;&gt;Node4</title>
<g id="a_edge3_Node000001_Node000004"><a xlink:title=" ">
<path fill="none" stroke="#63b8ff" d="M432.11,-210.83C509.28,-205.59 638.74,-183.42 695,-96 744.3,-19.39 570.33,-9.89 484.78,-9.71"/>
<polygon fill="#63b8ff" stroke="#63b8ff" points="484.55,-6.21 474.56,-9.73 484.57,-13.21 484.55,-6.21"/>
</a>
</g>
</g>
<!-- Node5 -->
<g id="Node000005" class="node">
<title>Node5</title>
<g id="a_Node000005"><a xlink:href="forwarding_8hxx.html" target="_top" xlink:title=" ">
<polygon fill="white" stroke="#666666" points="298.5,-162 179.5,-162 179.5,-132 298.5,-132 298.5,-162"/>
<text text-anchor="start" x="187.5" y="-150" font-family="Helvetica,sans-Serif" font-size="10.00">corelib/detail/casting</text>
<text text-anchor="middle" x="239" y="-139" font-family="Helvetica,sans-Serif" font-size="10.00">/forwarding.hxx</text>
</a>
</g>
</g>
<!-- Node1&#45;&gt;Node5 -->
<g id="edge4_Node000001_Node000005" class="edge">
<title>Node1&#45;&gt;Node5</title>
<g id="a_edge4_Node000001_Node000005"><a xlink:title=" ">
<path fill="none" stroke="#63b8ff" d="M342.03,-197.95C322.95,-188.7 297.75,-176.49 277.06,-166.45"/>
<polygon fill="#63b8ff" stroke="#63b8ff" points="278.43,-163.23 267.9,-162.01 275.37,-169.52 278.43,-163.23"/>
</a>
</g>
</g>
<!-- Node6 -->
<g id="Node000006" class="node">
<title>Node6</title>
<g id="a_Node000006"><a xlink:href="tracing_8hxx.html" target="_top" xlink:title=" ">
<polygon fill="white" stroke="#666666" points="148,-85 0,-85 0,-66 148,-66 148,-85"/>
<text text-anchor="middle" x="74" y="-73" font-family="Helvetica,sans-Serif" font-size="10.00">corelib/internal/tracing.hxx</text>
</a>
</g>
</g>
<!-- Node1&#45;&gt;Node6 -->
<g id="edge17_Node000001_Node000006" class="edge">
<title>Node1&#45;&gt;Node6</title>
<g id="a_edge17_Node000001_Node000006"><a xlink:title=" ">
<path fill="none" stroke="#63b8ff" d="M309.77,-204.62C268.47,-197.79 213.73,-185.08 170,-162 160.96,-157.23 115.71,-115.51 90.69,-92.16"/>
<polygon fill="#63b8ff" stroke="#63b8ff" points="93.05,-89.57 83.35,-85.3 88.26,-94.68 93.05,-89.57"/>
</a>
</g>
</g>
<!-- Node8 -->
<g id="Node000008" class="node">
<title>Node8</title>
<g id="a_Node000008"><a xlink:href="traits_8hxx.html" target="_top" xlink:title=" ">
<polygon fill="white" stroke="#666666" points="499.5,-162 380.5,-162 380.5,-132 499.5,-132 499.5,-162"/>
<text text-anchor="start" x="388.5" y="-150" font-family="Helvetica,sans-Serif" font-size="10.00">corelib/detail/casting</text>
<text text-anchor="middle" x="440" y="-139" font-family="Helvetica,sans-Serif" font-size="10.00">/traits.hxx</text>
</a>
</g>
</g>
<!-- Node1&#45;&gt;Node8 -->
<g id="edge8_Node000001_Node000008" class="edge">
<title>Node1&#45;&gt;Node8</title>
<g id="a_edge8_Node000001_Node000008"><a xlink:title=" ">
<path fill="none" stroke="#63b8ff" d="M386.31,-197.8C395.43,-189.34 407.16,-178.46 417.33,-169.03"/>
<polygon fill="#63b8ff" stroke="#63b8ff" points="419.78,-171.53 424.73,-162.16 415.02,-166.4 419.78,-171.53"/>
</a>
</g>
</g>
<!-- Node5&#45;&gt;Node4 -->
<g id="edge5_Node000005_Node000004" class="edge">
<title>Node5&#45;&gt;Node4</title>
<g id="a_edge5_Node000005_Node000004"><a xlink:title=" ">
<path fill="none" stroke="#63b8ff" d="M223,-131.84C203.43,-112.83 175.21,-78.71 195,-55 220,-25.06 331.49,-15.22 395.12,-12.02"/>
<polygon fill="#63b8ff" stroke="#63b8ff" points="395.45,-15.5 405.27,-11.54 395.12,-8.51 395.45,-15.5"/>
</a>
</g>
</g>
<!-- Node5&#45;&gt;Node6 -->
<g id="edge6_Node000005_Node000006" class="edge">
<title>Node5&#45;&gt;Node6</title>
<g id="a_edge6_Node000005_Node000006"><a xlink:title=" ">
<path fill="none" stroke="#63b8ff" d="M205.61,-131.94C175.79,-119.38 132.51,-101.15 103.83,-89.07"/>
<polygon fill="#63b8ff" stroke="#63b8ff" points="104.92,-85.72 94.34,-85.07 102.2,-92.18 104.92,-85.72"/>
</a>
</g>
</g>
<!-- Node7 -->
<g id="Node000007" class="node">
<title>Node7</title>
<g id="a_Node000007"><a xlink:title=" ">
<polygon fill="#e0e0e0" stroke="#999999" points="126,-19 22,-19 22,0 126,0 126,-19"/>
<text text-anchor="middle" x="74" y="-7" font-family="Helvetica,sans-Serif" font-size="10.00">debug/tracing.hxx</text>
</a>
</g>
</g>
<!-- Node6&#45;&gt;Node7 -->
<g id="edge7_Node000006_Node000007" class="edge">
<title>Node6&#45;&gt;Node7</title>
<g id="a_edge7_Node000006_Node000007"><a xlink:title=" ">
<path fill="none" stroke="#63b8ff" d="M74,-65.87C74,-56.66 74,-41.79 74,-29.77"/>
<polygon fill="#63b8ff" stroke="#63b8ff" points="77.5,-29.41 74,-19.41 70.5,-29.41 77.5,-29.41"/>
</a>
</g>
</g>
<!-- Node8&#45;&gt;Node3 -->
<g id="edge10_Node000008_Node000003" class="edge">
<title>Node8&#45;&gt;Node3</title>
<g id="a_edge10_Node000008_Node000003"><a xlink:title=" ">
<path fill="none" stroke="#63b8ff" d="M498.21,-131.93C532.85,-122.95 577.44,-110.33 616,-96 621.14,-94.09 626.53,-91.81 631.66,-89.5"/>
<polygon fill="#63b8ff" stroke="#63b8ff" points="633.52,-92.5 641.09,-85.09 630.55,-86.15 633.52,-92.5"/>
</a>
</g>
</g>
<!-- Node8&#45;&gt;Node4 -->
<g id="edge11_Node000008_Node000004" class="edge">
<title>Node8&#45;&gt;Node4</title>
<g id="a_edge11_Node000008_Node000004"><a xlink:title=" ">
<path fill="none" stroke="#63b8ff" d="M499.8,-141.04C529.98,-135.16 564.13,-122.6 583,-96 593.55,-81.14 593.8,-69.68 583,-55 560.68,-24.67 517.84,-14.42 484.85,-11.23"/>
<polygon fill="#63b8ff" stroke="#63b8ff" points="484.77,-7.71 474.53,-10.43 484.22,-14.69 484.77,-7.71"/>
</a>
</g>
</g>
<!-- Node8&#45;&gt;Node6 -->
<g id="edge12_Node000008_Node000006" class="edge">
<title>Node8&#45;&gt;Node6</title>
<g id="a_edge12_Node000008_Node000006"><a xlink:title=" ">
<path fill="none" stroke="#63b8ff" d="M380.38,-134.68C310.73,-121.45 196.45,-99.75 128.9,-86.92"/>
<polygon fill="#63b8ff" stroke="#63b8ff" points="129.35,-83.45 118.87,-85.02 128.05,-90.33 129.35,-83.45"/>
</a>
</g>
</g>
<!-- Node9 -->
<g id="Node000009" class="node">
<title>Node9</title>
<g id="a_Node000009"><a xlink:title=" ">
<polygon fill="#e0e0e0" stroke="#999999" points="573.5,-85 520.5,-85 520.5,-66 573.5,-66 573.5,-85"/>
<text text-anchor="middle" x="547" y="-73" font-family="Helvetica,sans-Serif" font-size="10.00">cstddef</text>
</a>
</g>
</g>
<!-- Node8&#45;&gt;Node9 -->
<g id="edge9_Node000008_Node000009" class="edge">
<title>Node8&#45;&gt;Node9</title>
<g id="a_edge9_Node000008_Node000009"><a xlink:title=" ">
<path fill="none" stroke="#63b8ff" d="M461.65,-131.94C480.23,-119.87 506.86,-102.57 525.42,-90.52"/>
<polygon fill="#63b8ff" stroke="#63b8ff" points="527.33,-93.45 533.81,-85.07 523.52,-87.58 527.33,-93.45"/>
</a>
</g>
</g>
<!-- Node10 -->
<g id="Node000010" class="node">
<title>Node10</title>
<g id="a_Node000010"><a xlink:href="add__const__past__pointer_8hxx.html" target="_top" xlink:title=" ">
<polygon fill="white" stroke="#666666" points="359.5,-90.5 204.5,-90.5 204.5,-60.5 359.5,-60.5 359.5,-90.5"/>
<text text-anchor="start" x="212.5" y="-78.5" font-family="Helvetica,sans-Serif" font-size="10.00">corelib/type_traits</text>
<text text-anchor="middle" x="282" y="-67.5" font-family="Helvetica,sans-Serif" font-size="10.00">/add_const_past_pointer.hxx</text>
</a>
</g>
</g>
<!-- Node8&#45;&gt;Node10 -->
<g id="edge13_Node000008_Node000010" class="edge">
<title>Node8&#45;&gt;Node10</title>
<g id="a_edge13_Node000008_Node000010"><a xlink:title=" ">
<path fill="none" stroke="#63b8ff" d="M408.03,-131.94C383.61,-121.2 349.78,-106.31 323.31,-94.67"/>
<polygon fill="#63b8ff" stroke="#63b8ff" points="324.49,-91.37 313.93,-90.54 321.67,-97.77 324.49,-91.37"/>
</a>
</g>
</g>
<!-- Node11 -->
<g id="Node000011" class="node">
<title>Node11</title>
<g id="a_Node000011"><a xlink:href="add__lvalue__reference__if__not__pointer_8hxx.html" target="_top" xlink:title=" ">
<polygon fill="white" stroke="#666666" points="502.5,-96 377.5,-96 377.5,-55 502.5,-55 502.5,-96"/>
<text text-anchor="start" x="385.5" y="-84" font-family="Helvetica,sans-Serif" font-size="10.00">corelib/type_traits</text>
<text text-anchor="start" x="385.5" y="-73" font-family="Helvetica,sans-Serif" font-size="10.00">/add_lvalue_reference</text>
<text text-anchor="middle" x="440" y="-62" font-family="Helvetica,sans-Serif" font-size="10.00">_if_not_pointer.hxx</text>
</a>
</g>
</g>
<!-- Node8&#45;&gt;Node11 -->
<g id="edge15_Node000008_Node000011" class="edge">
<title>Node8&#45;&gt;Node11</title>
<g id="a_edge15_Node000008_Node000011"><a xlink:title=" ">
<path fill="none" stroke="#63b8ff" d="M440,-131.94C440,-124.52 440,-115.14 440,-106.2"/>
<polygon fill="#63b8ff" stroke="#63b8ff" points="443.5,-106.07 440,-96.07 436.5,-106.07 443.5,-106.07"/>
</a>
</g>
</g>
<!-- Node10&#45;&gt;Node4 -->
<g id="edge14_Node000010_Node000004" class="edge">
<title>Node10&#45;&gt;Node4</title>
<g id="a_edge14_Node000010_Node000004"><a xlink:title=" ">
<path fill="none" stroke="#63b8ff" d="M316.67,-60.45C344.38,-49.23 382.85,-33.65 409.42,-22.89"/>
<polygon fill="#63b8ff" stroke="#63b8ff" points="411.02,-26.02 418.97,-19.02 408.39,-19.53 411.02,-26.02"/>
</a>
</g>
</g>
<!-- Node11&#45;&gt;Node4 -->
<g id="edge16_Node000011_Node000004" class="edge">
<title>Node11&#45;&gt;Node4</title>
<g id="a_edge16_Node000011_Node000004"><a xlink:title=" ">
<path fill="none" stroke="#63b8ff" d="M440,-54.95C440,-46.85 440,-37.5 440,-29.47"/>
<polygon fill="#63b8ff" stroke="#63b8ff" points="443.5,-29.26 440,-19.26 436.5,-29.26 443.5,-29.26"/>
</a>
</g>
</g>
</g>
</svg>

<g id="navigator" transform="translate(0 0)" fill="#404254">
  <rect fill="#f2f5e9" fill-opacity="0.5" stroke="#606060" stroke-width=".5" x="0" y="0" width="60" height="60"/>
  <use id="zoomplus" xlink:href="#zoomPlus" x="17" y="9" onmousedown="handleZoom(evt,'in')"/>
  <use id="zoomminus" xlink:href="#zoomMin" x="42" y="9" onmousedown="handleZoom(evt,'out')"/>
  <use id="reset" xlink:href="#resetDef" x="30" y="36" onmousedown="handleReset()"/>
   <use id="arrowup" xlink:href="#arrowUp" x="0" y="0" onmousedown="handlePan(0,-1)"/>
  <use id="arrowright" xlink:href="#arrowRight" x="0" y="0" onmousedown="handlePan(1,0)"/>
  <use id="arrowdown" xlink:href="#arrowDown" x="0" y="0" onmousedown="handlePan(0,1)"/>
  <use id="arrowleft" xlink:href="#arrowLeft" x="0" y="0" onmousedown="handlePan(-1,0)"/>
</g>
<svg viewBox="0 0 15 15" width="100%" height="30px" preserveAspectRatio="xMaxYMin meet">
 <g id="arrow_out" transform="scale(0.3 0.3)">
  <a xlink:href="adapters_8hxx__incl_org.svg" target="_base">
   <rect id="button" ry="5" rx="5" y="6" x="6" height="38" width="38"
        fill="#f2f5e9" fill-opacity="0.5" stroke="#606060" stroke-width="1.0"/>
   <path id="arrow"
     d="M 11.500037,31.436501 C 11.940474,20.09759 22.043105,11.32322 32.158766,21.979434 L 37.068811,17.246167 C 37.068811,17.246167 37.088388,32 37.088388,32 L 22.160133,31.978069 C 22.160133,31.978069 26.997745,27.140456 26.997745,27.140456 C 18.528582,18.264221 13.291696,25.230495 11.500037,31.436501 z"
     style="fill:#404040;"/>
  </a>
 </g>
</svg>

<style type='text/css'>
<![CDATA[
[data-mouse-over-selected='false'] { opacity: 0.7; }
[data-mouse-over-selected='true']  { opacity: 1.0; }
]]>
</style>
<script type="application/ecmascript"><![CDATA[
document.addEventListener('DOMContentLoaded', (event) => {
  highlightEdges();
  highlightAdjacentNodes();
});
]]></script>
</svg>
