<?xml version="1.0" encoding="UTF-8" standalone="no"?>
<!DOCTYPE svg PUBLIC "-//W3C//DTD SVG 1.1//EN"
 "http://www.w3.org/Graphics/SVG/1.1/DTD/svg11.dtd">
<!-- Generated by graphviz version 2.43.0 (0)
 -->
<!-- Title: include/corelib/type_traits/add_lvalue_reference_if_not_pointer.hxx Pages: 1 -->
<svg width="418pt" height="632pt"
 viewBox="0.00 0.00 418.02 632.00" xmlns="http://www.w3.org/2000/svg" xmlns:xlink="http://www.w3.org/1999/xlink">
<g id="graph0" class="graph" transform="scale(1 1) rotate(0) translate(4 628)">
<title>include/corelib/type_traits/add_lvalue_reference_if_not_pointer.hxx</title>
<!-- Node1 -->
<g id="Node000001" class="node">
<title>Node1</title>
<g id="a_Node000001"><a xlink:title=" ">
<polygon fill="#999999" stroke="#666666" points="364.02,-624 209.02,-624 209.02,-583 364.02,-583 364.02,-624"/>
<text text-anchor="start" x="217.02" y="-612" font-family="Helvetica,sans-Serif" font-size="10.00">include/corelib/type</text>
<text text-anchor="start" x="217.02" y="-601" font-family="Helvetica,sans-Serif" font-size="10.00">_traits/add_lvalue_reference</text>
<text text-anchor="middle" x="286.52" y="-590" font-family="Helvetica,sans-Serif" font-size="10.00">_if_not_pointer.hxx</text>
</a>
</g>
</g>
<!-- Node2 -->
<g id="Node000002" class="node">
<title>Node2</title>
<g id="a_Node000002"><a xlink:href="traits_8hxx.html" target="_top" xlink:title=" ">
<polygon fill="white" stroke="#666666" points="279.02,-547 160.02,-547 160.02,-517 279.02,-517 279.02,-547"/>
<text text-anchor="start" x="168.02" y="-535" font-family="Helvetica,sans-Serif" font-size="10.00">include/corelib/detail</text>
<text text-anchor="middle" x="219.52" y="-524" font-family="Helvetica,sans-Serif" font-size="10.00">/casting/traits.hxx</text>
</a>
</g>
</g>
<!-- Node1&#45;&gt;Node2 -->
<g id="edge1_Node000001_Node000002" class="edge">
<title>Node1&#45;&gt;Node2</title>
<g id="a_edge1_Node000001_Node000002"><a xlink:title=" ">
<path fill="none" stroke="#63b8ff" d="M260.53,-575.55C251.15,-565.81 240.94,-555.22 233.05,-547.04"/>
<polygon fill="#63b8ff" stroke="#63b8ff" points="258.03,-578 267.49,-582.77 263.07,-573.14 258.03,-578"/>
</a>
</g>
</g>
<!-- Node12 -->
<g id="Node000012" class="node">
<title>Node12</title>
<g id="a_Node000012"><a xlink:href="type__traits_8hxx.html" target="_top" xlink:title="Convenience header for all type traits module components.">
<polygon fill="white" stroke="#666666" points="410.02,-547 297.02,-547 297.02,-517 410.02,-517 410.02,-547"/>
<text text-anchor="start" x="305.02" y="-535" font-family="Helvetica,sans-Serif" font-size="10.00">include/corelib/type</text>
<text text-anchor="middle" x="353.52" y="-524" font-family="Helvetica,sans-Serif" font-size="10.00">_traits.hxx</text>
</a>
</g>
</g>
<!-- Node1&#45;&gt;Node12 -->
<g id="edge24_Node000001_Node000012" class="edge">
<title>Node1&#45;&gt;Node12</title>
<g id="a_edge24_Node000001_Node000012"><a xlink:title=" ">
<path fill="none" stroke="#63b8ff" d="M312.5,-575.55C321.88,-565.81 332.09,-555.22 339.98,-547.04"/>
<polygon fill="#63b8ff" stroke="#63b8ff" points="309.96,-573.14 305.54,-582.77 315,-578 309.96,-573.14"/>
</a>
</g>
</g>
<!-- Node3 -->
<g id="Node000003" class="node">
<title>Node3</title>
<g id="a_Node000003"><a xlink:href="casting_2cast_8hxx.html" target="_top" xlink:title=" ">
<polygon fill="white" stroke="#666666" points="149.52,-283 23.52,-283 23.52,-253 149.52,-253 149.52,-283"/>
<text text-anchor="start" x="31.52" y="-271" font-family="Helvetica,sans-Serif" font-size="10.00">include/corelib/casting</text>
<text text-anchor="middle" x="86.52" y="-260" font-family="Helvetica,sans-Serif" font-size="10.00">/cast.hxx</text>
</a>
</g>
</g>
<!-- Node2&#45;&gt;Node3 -->
<g id="edge2_Node000002_Node000003" class="edge">
<title>Node2&#45;&gt;Node3</title>
<g id="a_edge2_Node000002_Node000003"><a xlink:title=" ">
<path fill="none" stroke="#63b8ff" d="M149.6,-522.98C97.63,-515.4 32.99,-502.03 16.52,-481 -32.61,-418.3 42.24,-319.66 73.68,-283.18"/>
<polygon fill="#63b8ff" stroke="#63b8ff" points="149.41,-526.48 159.8,-524.41 150.39,-519.55 149.41,-526.48"/>
</a>
</g>
</g>
<!-- Node5 -->
<g id="Node000005" class="node">
<title>Node5</title>
<g id="a_Node000005"><a xlink:href="dyn__cast_8hxx.html" target="_top" xlink:title=" ">
<polygon fill="white" stroke="#666666" points="240.52,-217 114.52,-217 114.52,-187 240.52,-187 240.52,-217"/>
<text text-anchor="start" x="122.52" y="-205" font-family="Helvetica,sans-Serif" font-size="10.00">include/corelib/casting</text>
<text text-anchor="middle" x="177.52" y="-194" font-family="Helvetica,sans-Serif" font-size="10.00">/dyn_cast.hxx</text>
</a>
</g>
</g>
<!-- Node2&#45;&gt;Node5 -->
<g id="edge10_Node000002_Node000005" class="edge">
<title>Node2&#45;&gt;Node5</title>
<g id="a_edge10_Node000002_Node000005"><a xlink:title=" ">
<path fill="none" stroke="#63b8ff" d="M288.69,-515.37C310.42,-507.81 333.23,-496.82 350.52,-481 379.7,-454.3 389.52,-440.56 389.52,-401 389.52,-401 389.52,-401 389.52,-333 389.52,-262.41 303.04,-228.96 240.55,-214"/>
<polygon fill="#63b8ff" stroke="#63b8ff" points="287.54,-512.06 279.13,-518.5 289.72,-518.71 287.54,-512.06"/>
</a>
</g>
</g>
<!-- Node8 -->
<g id="Node000008" class="node">
<title>Node8</title>
<g id="a_Node000008"><a xlink:href="casting_2isa_8hxx.html" target="_top" xlink:title=" ">
<polygon fill="white" stroke="#666666" points="331.52,-349 205.52,-349 205.52,-319 331.52,-319 331.52,-349"/>
<text text-anchor="start" x="213.52" y="-337" font-family="Helvetica,sans-Serif" font-size="10.00">include/corelib/casting</text>
<text text-anchor="middle" x="268.52" y="-326" font-family="Helvetica,sans-Serif" font-size="10.00">/isa.hxx</text>
</a>
</g>
</g>
<!-- Node2&#45;&gt;Node8 -->
<g id="edge11_Node000002_Node000008" class="edge">
<title>Node2&#45;&gt;Node8</title>
<g id="a_edge11_Node000002_Node000008"><a xlink:title=" ">
<path fill="none" stroke="#63b8ff" d="M288.62,-514.59C305.46,-507.17 321.49,-496.45 331.52,-481 360.51,-436.3 309.98,-376.02 283.35,-349.05"/>
<polygon fill="#63b8ff" stroke="#63b8ff" points="287.18,-511.39 279.22,-518.38 289.8,-517.89 287.18,-511.39"/>
</a>
</g>
</g>
<!-- Node9 -->
<g id="Node000009" class="node">
<title>Node9</title>
<g id="a_Node000009"><a xlink:href="adapters_8hxx.html" target="_top" xlink:title=" ">
<polygon fill="white" stroke="#666666" points="147.52,-481 25.52,-481 25.52,-451 147.52,-451 147.52,-481"/>
<text text-anchor="start" x="33.52" y="-469" font-family="Helvetica,sans-Serif" font-size="10.00">include/corelib/detail</text>
<text text-anchor="middle" x="86.52" y="-458" font-family="Helvetica,sans-Serif" font-size="10.00">/casting/adapters.hxx</text>
</a>
</g>
</g>
<!-- Node2&#45;&gt;Node9 -->
<g id="edge15_Node000002_Node000009" class="edge">
<title>Node2&#45;&gt;Node9</title>
<g id="a_edge15_Node000002_Node000009"><a xlink:title=" ">
<path fill="none" stroke="#63b8ff" d="M181.1,-512.51C160.23,-502.47 134.85,-490.26 115.63,-481.01"/>
<polygon fill="#63b8ff" stroke="#63b8ff" points="179.8,-515.77 190.33,-516.95 182.83,-509.46 179.8,-515.77"/>
</a>
</g>
</g>
<!-- Node10 -->
<g id="Node000010" class="node">
<title>Node10</title>
<g id="a_Node000010"><a xlink:href="detail_2casting_2cast_8hxx.html" target="_top" xlink:title=" ">
<polygon fill="white" stroke="#666666" points="236.02,-415 117.02,-415 117.02,-385 236.02,-385 236.02,-415"/>
<text text-anchor="start" x="125.02" y="-403" font-family="Helvetica,sans-Serif" font-size="10.00">include/corelib/detail</text>
<text text-anchor="middle" x="176.52" y="-392" font-family="Helvetica,sans-Serif" font-size="10.00">/casting/cast.hxx</text>
</a>
</g>
</g>
<!-- Node2&#45;&gt;Node10 -->
<g id="edge21_Node000002_Node000010" class="edge">
<title>Node2&#45;&gt;Node10</title>
<g id="a_edge21_Node000002_Node000010"><a xlink:title=" ">
<path fill="none" stroke="#63b8ff" d="M206.5,-507.91C202.23,-499.61 197.75,-490.07 194.52,-481 186.53,-458.61 181.3,-431.39 178.63,-415.16"/>
<polygon fill="#63b8ff" stroke="#63b8ff" points="203.54,-509.79 211.34,-516.96 209.72,-506.5 203.54,-509.79"/>
</a>
</g>
</g>
<!-- Node11 -->
<g id="Node000011" class="node">
<title>Node11</title>
<g id="a_Node000011"><a xlink:href="detail_2casting_2isa_8hxx.html" target="_top" xlink:title=" ">
<polygon fill="white" stroke="#666666" points="323.02,-481 204.02,-481 204.02,-451 323.02,-451 323.02,-481"/>
<text text-anchor="start" x="212.02" y="-469" font-family="Helvetica,sans-Serif" font-size="10.00">include/corelib/detail</text>
<text text-anchor="middle" x="263.52" y="-458" font-family="Helvetica,sans-Serif" font-size="10.00">/casting/isa.hxx</text>
</a>
</g>
</g>
<!-- Node2&#45;&gt;Node11 -->
<g id="edge22_Node000002_Node000011" class="edge">
<title>Node2&#45;&gt;Node11</title>
<g id="a_edge22_Node000002_Node000011"><a xlink:title=" ">
<path fill="none" stroke="#63b8ff" d="M234.97,-508.53C241.22,-499.43 248.26,-489.19 253.78,-481.16"/>
<polygon fill="#63b8ff" stroke="#63b8ff" points="232.06,-506.57 229.28,-516.8 237.83,-510.54 232.06,-506.57"/>
</a>
</g>
</g>
<!-- Node4 -->
<g id="Node000004" class="node">
<title>Node4</title>
<g id="a_Node000004"><a xlink:href="casting_8hxx.html" target="_top" xlink:title="Convenience header for all casting module components.">
<polygon fill="white" stroke="#666666" points="279.02,-19 132.02,-19 132.02,0 279.02,0 279.02,-19"/>
<text text-anchor="middle" x="205.52" y="-7" font-family="Helvetica,sans-Serif" font-size="10.00">include/corelib/casting.hxx</text>
</a>
</g>
</g>
<!-- Node3&#45;&gt;Node4 -->
<g id="edge3_Node000003_Node000004" class="edge">
<title>Node3&#45;&gt;Node4</title>
<g id="a_edge3_Node000003_Node000004"><a xlink:title=" ">
<path fill="none" stroke="#63b8ff" d="M78.47,-243.22C65.77,-200.87 46.46,-111.57 87.52,-55 101.15,-36.22 123.72,-25.36 145.49,-19.08"/>
<polygon fill="#63b8ff" stroke="#63b8ff" points="75.18,-244.43 81.52,-252.92 81.86,-242.33 75.18,-244.43"/>
</a>
</g>
</g>
<!-- Node3&#45;&gt;Node5 -->
<g id="edge4_Node000003_Node000005" class="edge">
<title>Node3&#45;&gt;Node5</title>
<g id="a_edge4_Node000003_Node000005"><a xlink:title=" ">
<path fill="none" stroke="#63b8ff" d="M114.91,-247.03C128.68,-237.34 144.9,-225.94 157.38,-217.16"/>
<polygon fill="#63b8ff" stroke="#63b8ff" points="112.88,-244.18 106.71,-252.8 116.9,-249.91 112.88,-244.18"/>
</a>
</g>
</g>
<!-- Node6 -->
<g id="Node000006" class="node">
<title>Node6</title>
<g id="a_Node000006"><a xlink:href="detail_2casting_2predicates_8hxx.html" target="_top" xlink:title=" ">
<polygon fill="white" stroke="#666666" points="223.52,-151 93.52,-151 93.52,-121 223.52,-121 223.52,-151"/>
<text text-anchor="start" x="101.52" y="-139" font-family="Helvetica,sans-Serif" font-size="10.00">include/corelib/detail</text>
<text text-anchor="middle" x="158.52" y="-128" font-family="Helvetica,sans-Serif" font-size="10.00">/casting/predicates.hxx</text>
</a>
</g>
</g>
<!-- Node3&#45;&gt;Node6 -->
<g id="edge9_Node000003_Node000006" class="edge">
<title>Node3&#45;&gt;Node6</title>
<g id="a_edge9_Node000003_Node000006"><a xlink:title=" ">
<path fill="none" stroke="#63b8ff" d="M88.59,-242.78C90.87,-226.17 95.62,-204.14 105.52,-187 113.74,-172.76 127.28,-160.09 138.61,-151.07"/>
<polygon fill="#63b8ff" stroke="#63b8ff" points="85.11,-242.46 87.43,-252.8 92.06,-243.27 85.11,-242.46"/>
</a>
</g>
</g>
<!-- Node5&#45;&gt;Node4 -->
<g id="edge5_Node000005_Node000004" class="edge">
<title>Node5&#45;&gt;Node4</title>
<g id="a_edge5_Node000005_Node000004"><a xlink:title=" ">
<path fill="none" stroke="#63b8ff" d="M208.53,-180.7C218.06,-172.69 227.38,-162.62 232.52,-151 236.93,-141.03 239.68,-84.29 231.52,-55 227.72,-41.38 218.7,-27.62 212.36,-19.08"/>
<polygon fill="#63b8ff" stroke="#63b8ff" points="206.29,-178 200.57,-186.92 210.61,-183.52 206.29,-178"/>
</a>
</g>
</g>
<!-- Node5&#45;&gt;Node6 -->
<g id="edge6_Node000005_Node000006" class="edge">
<title>Node5&#45;&gt;Node6</title>
<g id="a_edge6_Node000005_Node000006"><a xlink:title=" ">
<path fill="none" stroke="#63b8ff" d="M170.42,-177.11C167.83,-168.38 164.98,-158.78 162.72,-151.16"/>
<polygon fill="#63b8ff" stroke="#63b8ff" points="167.1,-178.21 173.3,-186.8 173.81,-176.21 167.1,-178.21"/>
</a>
</g>
</g>
<!-- Node7 -->
<g id="Node000007" class="node">
<title>Node7</title>
<g id="a_Node000007"><a xlink:href="casting_2predicates_8hxx.html" target="_top" xlink:title=" ">
<polygon fill="white" stroke="#666666" points="222.52,-85 96.52,-85 96.52,-55 222.52,-55 222.52,-85"/>
<text text-anchor="start" x="104.52" y="-73" font-family="Helvetica,sans-Serif" font-size="10.00">include/corelib/casting</text>
<text text-anchor="middle" x="159.52" y="-62" font-family="Helvetica,sans-Serif" font-size="10.00">/predicates.hxx</text>
</a>
</g>
</g>
<!-- Node6&#45;&gt;Node7 -->
<g id="edge7_Node000006_Node000007" class="edge">
<title>Node6&#45;&gt;Node7</title>
<g id="a_edge7_Node000006_Node000007"><a xlink:title=" ">
<path fill="none" stroke="#63b8ff" d="M158.9,-110.54C159.03,-101.96 159.18,-92.61 159.29,-85.16"/>
<polygon fill="#63b8ff" stroke="#63b8ff" points="155.39,-110.74 158.74,-120.8 162.39,-110.85 155.39,-110.74"/>
</a>
</g>
</g>
<!-- Node7&#45;&gt;Node4 -->
<g id="edge8_Node000007_Node000004" class="edge">
<title>Node7&#45;&gt;Node4</title>
<g id="a_edge8_Node000007_Node000004"><a xlink:title=" ">
<path fill="none" stroke="#63b8ff" d="M176.97,-46.8C184.51,-37.21 192.9,-26.54 198.62,-19.27"/>
<polygon fill="#63b8ff" stroke="#63b8ff" points="174.08,-44.81 170.65,-54.84 179.58,-49.14 174.08,-44.81"/>
</a>
</g>
</g>
<!-- Node8&#45;&gt;Node3 -->
<g id="edge13_Node000008_Node000003" class="edge">
<title>Node8&#45;&gt;Node3</title>
<g id="a_edge13_Node000008_Node000003"><a xlink:title=" ">
<path fill="none" stroke="#63b8ff" d="M219.01,-315.59C189.91,-305.36 153.61,-292.59 126.36,-283.01"/>
<polygon fill="#63b8ff" stroke="#63b8ff" points="217.98,-318.94 228.57,-318.95 220.3,-312.34 217.98,-318.94"/>
</a>
</g>
</g>
<!-- Node8&#45;&gt;Node4 -->
<g id="edge12_Node000008_Node000004" class="edge">
<title>Node8&#45;&gt;Node4</title>
<g id="a_edge12_Node000008_Node000004"><a xlink:title=" ">
<path fill="none" stroke="#63b8ff" d="M279.67,-309.73C290.88,-284.17 306.52,-241.61 306.52,-203 306.52,-203 306.52,-203 306.52,-135 306.52,-80.73 247.91,-36.9 219.99,-19.09"/>
<polygon fill="#63b8ff" stroke="#63b8ff" points="276.43,-308.41 275.48,-318.97 282.8,-311.3 276.43,-308.41"/>
</a>
</g>
</g>
<!-- Node8&#45;&gt;Node6 -->
<g id="edge14_Node000008_Node000006" class="edge">
<title>Node8&#45;&gt;Node6</title>
<g id="a_edge14_Node000008_Node000006"><a xlink:title=" ">
<path fill="none" stroke="#63b8ff" d="M271.69,-308.31C274.36,-277.22 274.41,-223.48 249.52,-187 238.24,-170.47 219.63,-158.88 202.17,-151.04"/>
<polygon fill="#63b8ff" stroke="#63b8ff" points="268.17,-308.36 270.63,-318.66 275.13,-309.07 268.17,-308.36"/>
</a>
</g>
</g>
<!-- Node9&#45;&gt;Node3 -->
<g id="edge16_Node000009_Node000003" class="edge">
<title>Node9&#45;&gt;Node3</title>
<g id="a_edge16_Node000009_Node000003"><a xlink:title=" ">
<path fill="none" stroke="#63b8ff" d="M86.52,-440.89C86.52,-399.58 86.52,-316.48 86.52,-283.23"/>
<polygon fill="#63b8ff" stroke="#63b8ff" points="83.02,-440.9 86.52,-450.9 90.02,-440.9 83.02,-440.9"/>
</a>
</g>
</g>
<!-- Node9&#45;&gt;Node10 -->
<g id="edge17_Node000009_Node000010" class="edge">
<title>Node9&#45;&gt;Node10</title>
<g id="a_edge17_Node000009_Node000010"><a xlink:title=" ">
<path fill="none" stroke="#63b8ff" d="M114.99,-444.75C128.52,-435.13 144.37,-423.86 156.6,-415.16"/>
<polygon fill="#63b8ff" stroke="#63b8ff" points="112.61,-442.15 106.49,-450.8 116.67,-447.85 112.61,-442.15"/>
</a>
</g>
</g>
<!-- Node10&#45;&gt;Node3 -->
<g id="edge18_Node000010_Node000003" class="edge">
<title>Node10&#45;&gt;Node3</title>
<g id="a_edge18_Node000010_Node000003"><a xlink:title=" ">
<path fill="none" stroke="#63b8ff" d="M160.9,-376.45C142.32,-349.61 111.85,-305.6 96.31,-283.14"/>
<polygon fill="#63b8ff" stroke="#63b8ff" points="158.14,-378.61 166.71,-384.84 163.9,-374.63 158.14,-378.61"/>
</a>
</g>
</g>
<!-- Node10&#45;&gt;Node5 -->
<g id="edge19_Node000010_Node000005" class="edge">
<title>Node10&#45;&gt;Node5</title>
<g id="a_edge19_Node000010_Node000005"><a xlink:title=" ">
<path fill="none" stroke="#63b8ff" d="M176.64,-374.89C176.85,-333.58 177.27,-250.48 177.44,-217.23"/>
<polygon fill="#63b8ff" stroke="#63b8ff" points="173.14,-374.89 176.59,-384.9 180.14,-374.92 173.14,-374.89"/>
</a>
</g>
</g>
<!-- Node10&#45;&gt;Node8 -->
<g id="edge20_Node000010_Node000008" class="edge">
<title>Node10&#45;&gt;Node8</title>
<g id="a_edge20_Node000010_Node000008"><a xlink:title=" ">
<path fill="none" stroke="#63b8ff" d="M205.23,-379.03C219.15,-369.34 235.54,-357.94 248.15,-349.16"/>
<polygon fill="#63b8ff" stroke="#63b8ff" points="203.14,-376.21 196.93,-384.8 207.14,-381.96 203.14,-376.21"/>
</a>
</g>
</g>
<!-- Node11&#45;&gt;Node10 -->
<g id="edge23_Node000011_Node000010" class="edge">
<title>Node11&#45;&gt;Node10</title>
<g id="a_edge23_Node000011_Node000010"><a xlink:title=" ">
<path fill="none" stroke="#63b8ff" d="M235.99,-444.75C222.91,-435.13 207.59,-423.86 195.77,-415.16"/>
<polygon fill="#63b8ff" stroke="#63b8ff" points="234.08,-447.69 244.21,-450.8 238.23,-442.05 234.08,-447.69"/>
</a>
</g>
</g>
</g>
</svg>
