<?xml version="1.0" encoding="UTF-8" standalone="no"?>
<!DOCTYPE svg PUBLIC "-//W3C//DTD SVG 1.1//EN"
 "http://www.w3.org/Graphics/SVG/1.1/DTD/svg11.dtd">
<!-- Generated by graphviz version 2.43.0 (0)
 -->
<!-- Title: include/corelib/casting/predicates.hxx Pages: 1 -->
<svg width="1116pt" height="610pt"
 viewBox="0.00 0.00 1116.00 610.00" xmlns="http://www.w3.org/2000/svg" xmlns:xlink="http://www.w3.org/1999/xlink">
<g id="graph0" class="graph" transform="scale(1 1) rotate(0) translate(4 606)">
<title>include/corelib/casting/predicates.hxx</title>
<!-- Node1 -->
<g id="Node000001" class="node">
<title>Node1</title>
<g id="a_Node000001"><a xlink:title=" ">
<polygon fill="#999999" stroke="#666666" points="480,-602 354,-602 354,-572 480,-572 480,-602"/>
<text text-anchor="start" x="362" y="-590" font-family="Helvetica,sans-Serif" font-size="10.00">include/corelib/casting</text>
<text text-anchor="middle" x="417" y="-579" font-family="Helvetica,sans-Serif" font-size="10.00">/predicates.hxx</text>
</a>
</g>
</g>
<!-- Node2 -->
<g id="Node000002" class="node">
<title>Node2</title>
<g id="a_Node000002"><a xlink:href="detail_2casting_2predicates_8hxx.html" target="_top" xlink:title=" ">
<polygon fill="white" stroke="#666666" points="476.5,-536 357.5,-536 357.5,-506 476.5,-506 476.5,-536"/>
<text text-anchor="start" x="365.5" y="-524" font-family="Helvetica,sans-Serif" font-size="10.00">corelib/detail/casting</text>
<text text-anchor="middle" x="417" y="-513" font-family="Helvetica,sans-Serif" font-size="10.00">/predicates.hxx</text>
</a>
</g>
</g>
<!-- Node1&#45;&gt;Node2 -->
<g id="edge1_Node000001_Node000002" class="edge">
<title>Node1&#45;&gt;Node2</title>
<g id="a_edge1_Node000001_Node000002"><a xlink:title=" ">
<path fill="none" stroke="#63b8ff" d="M417,-571.8C417,-564.34 417,-554.99 417,-546.41"/>
<polygon fill="#63b8ff" stroke="#63b8ff" points="420.5,-546.16 417,-536.16 413.5,-546.16 420.5,-546.16"/>
</a>
</g>
</g>
<!-- Node3 -->
<g id="Node000003" class="node">
<title>Node3</title>
<g id="a_Node000003"><a xlink:href="casting_2cast_8hxx.html" target="_top" xlink:title=" ">
<polygon fill="white" stroke="#666666" points="526,-404 394,-404 394,-385 526,-385 526,-404"/>
<text text-anchor="middle" x="460" y="-392" font-family="Helvetica,sans-Serif" font-size="10.00">corelib/casting/cast.hxx</text>
</a>
</g>
</g>
<!-- Node2&#45;&gt;Node3 -->
<g id="edge2_Node000002_Node000003" class="edge">
<title>Node2&#45;&gt;Node3</title>
<g id="a_edge2_Node000002_Node000003"><a xlink:title=" ">
<path fill="none" stroke="#63b8ff" d="M421.93,-505.72C429.77,-483.02 445.07,-438.72 453.7,-413.75"/>
<polygon fill="#63b8ff" stroke="#63b8ff" points="457.08,-414.66 457.04,-404.07 450.47,-412.38 457.08,-414.66"/>
</a>
</g>
</g>
<!-- Node6 -->
<g id="Node000006" class="node">
<title>Node6</title>
<g id="a_Node000006"><a xlink:href="casting_2isa_8hxx.html" target="_top" xlink:title=" ">
<polygon fill="white" stroke="#666666" points="384,-349 258,-349 258,-330 384,-330 384,-349"/>
<text text-anchor="middle" x="321" y="-337" font-family="Helvetica,sans-Serif" font-size="10.00">corelib/casting/isa.hxx</text>
</a>
</g>
</g>
<!-- Node2&#45;&gt;Node6 -->
<g id="edge55_Node000002_Node000006" class="edge">
<title>Node2&#45;&gt;Node6</title>
<g id="a_edge55_Node000002_Node000006"><a xlink:title=" ">
<path fill="none" stroke="#63b8ff" d="M409.47,-505.91C392.17,-473.57 349.62,-394.02 330.54,-358.33"/>
<polygon fill="#63b8ff" stroke="#63b8ff" points="333.42,-356.3 325.62,-349.13 327.25,-359.6 333.42,-356.3"/>
</a>
</g>
</g>
<!-- Node10 -->
<g id="Node000010" class="node">
<title>Node10</title>
<g id="a_Node000010"><a xlink:href="tracing_8hxx.html" target="_top" xlink:title=" ">
<polygon fill="white" stroke="#666666" points="212,-85 64,-85 64,-66 212,-66 212,-85"/>
<text text-anchor="middle" x="138" y="-73" font-family="Helvetica,sans-Serif" font-size="10.00">corelib/internal/tracing.hxx</text>
</a>
</g>
</g>
<!-- Node2&#45;&gt;Node10 -->
<g id="edge56_Node000002_Node000010" class="edge">
<title>Node2&#45;&gt;Node10</title>
<g id="a_edge56_Node000002_Node000010"><a xlink:title=" ">
<path fill="none" stroke="#63b8ff" d="M357.25,-514.71C241.95,-502.84 0,-469.16 0,-395.5 0,-395.5 0,-395.5 0,-212 0,-151.7 67.92,-109.31 108.46,-89.39"/>
<polygon fill="#63b8ff" stroke="#63b8ff" points="110.11,-92.48 117.64,-85.03 107.1,-86.16 110.11,-92.48"/>
</a>
</g>
</g>
<!-- Node21 -->
<g id="Node000021" class="node">
<title>Node21</title>
<g id="a_Node000021"><a xlink:href="dyn__cast_8hxx.html" target="_top" xlink:title=" ">
<polygon fill="white" stroke="#666666" points="675.5,-470 566.5,-470 566.5,-440 675.5,-440 675.5,-470"/>
<text text-anchor="start" x="574.5" y="-458" font-family="Helvetica,sans-Serif" font-size="10.00">corelib/casting/dyn</text>
<text text-anchor="middle" x="621" y="-447" font-family="Helvetica,sans-Serif" font-size="10.00">_cast.hxx</text>
</a>
</g>
</g>
<!-- Node2&#45;&gt;Node21 -->
<g id="edge47_Node000002_Node000021" class="edge">
<title>Node2&#45;&gt;Node21</title>
<g id="a_edge47_Node000002_Node000021"><a xlink:title=" ">
<path fill="none" stroke="#63b8ff" d="M461.77,-505.95C492.59,-496.28 533.73,-483.38 566.47,-473.11"/>
<polygon fill="#63b8ff" stroke="#63b8ff" points="567.84,-476.35 576.34,-470.01 565.75,-469.67 567.84,-476.35"/>
</a>
</g>
</g>
<!-- Node4 -->
<g id="Node000004" class="node">
<title>Node4</title>
<g id="a_Node000004"><a xlink:title=" ">
<polygon fill="#e0e0e0" stroke="#999999" points="628,-156.5 570,-156.5 570,-137.5 628,-137.5 628,-156.5"/>
<text text-anchor="middle" x="599" y="-144.5" font-family="Helvetica,sans-Serif" font-size="10.00">memory</text>
</a>
</g>
</g>
<!-- Node3&#45;&gt;Node4 -->
<g id="edge3_Node000003_Node000004" class="edge">
<title>Node3&#45;&gt;Node4</title>
<g id="a_edge3_Node000003_Node000004"><a xlink:title=" ">
<path fill="none" stroke="#63b8ff" d="M464.95,-384.76C485.17,-349.04 561.79,-213.72 589.19,-165.33"/>
<polygon fill="#63b8ff" stroke="#63b8ff" points="592.23,-167.06 594.11,-156.63 586.14,-163.61 592.23,-167.06"/>
</a>
</g>
</g>
<!-- Node5 -->
<g id="Node000005" class="node">
<title>Node5</title>
<g id="a_Node000005"><a xlink:title=" ">
<polygon fill="#e0e0e0" stroke="#999999" points="983.5,-156.5 882.5,-156.5 882.5,-137.5 983.5,-137.5 983.5,-156.5"/>
<text text-anchor="middle" x="933" y="-144.5" font-family="Helvetica,sans-Serif" font-size="10.00">debug/assert.hxx</text>
</a>
</g>
</g>
<!-- Node3&#45;&gt;Node5 -->
<g id="edge4_Node000003_Node000005" class="edge">
<title>Node3&#45;&gt;Node5</title>
<g id="a_edge4_Node000003_Node000005"><a xlink:title=" ">
<path fill="none" stroke="#63b8ff" d="M482.27,-384.93C514.11,-372.68 574.49,-349.51 626,-330 746.74,-284.27 804.29,-316.81 898,-228 915.5,-211.42 924.76,-184.57 929.27,-166.61"/>
<polygon fill="#63b8ff" stroke="#63b8ff" points="932.71,-167.27 931.49,-156.75 925.88,-165.73 932.71,-167.27"/>
</a>
</g>
</g>
<!-- Node3&#45;&gt;Node6 -->
<g id="edge5_Node000003_Node000006" class="edge">
<title>Node3&#45;&gt;Node6</title>
<g id="a_edge5_Node000003_Node000006"><a xlink:title=" ">
<path fill="none" stroke="#63b8ff" d="M437.67,-384.98C414.8,-376.27 379.04,-362.63 353.14,-352.75"/>
<polygon fill="#63b8ff" stroke="#63b8ff" points="354.33,-349.46 343.74,-349.17 351.84,-356 354.33,-349.46"/>
</a>
</g>
</g>
<!-- Node7 -->
<g id="Node000007" class="node">
<title>Node7</title>
<g id="a_Node000007"><a xlink:href="detail_2casting_2cast_8hxx.html" target="_top" xlink:title=" ">
<polygon fill="white" stroke="#666666" points="673.5,-294 554.5,-294 554.5,-264 673.5,-264 673.5,-294"/>
<text text-anchor="start" x="562.5" y="-282" font-family="Helvetica,sans-Serif" font-size="10.00">corelib/detail/casting</text>
<text text-anchor="middle" x="614" y="-271" font-family="Helvetica,sans-Serif" font-size="10.00">/cast.hxx</text>
</a>
</g>
</g>
<!-- Node3&#45;&gt;Node7 -->
<g id="edge43_Node000003_Node000007" class="edge">
<title>Node3&#45;&gt;Node7</title>
<g id="a_edge43_Node000003_Node000007"><a xlink:title=" ">
<path fill="none" stroke="#63b8ff" d="M471.58,-384.97C495.82,-367.1 552.52,-325.31 586.61,-300.19"/>
<polygon fill="#63b8ff" stroke="#63b8ff" points="588.79,-302.93 594.76,-294.18 584.63,-297.3 588.79,-302.93"/>
</a>
</g>
</g>
<!-- Node3&#45;&gt;Node10 -->
<g id="edge45_Node000003_Node000010" class="edge">
<title>Node3&#45;&gt;Node10</title>
<g id="a_edge45_Node000003_Node000010"><a xlink:title=" ">
<path fill="none" stroke="#63b8ff" d="M393.6,-389.39C274.76,-380.19 38,-352.74 38,-280 38,-280 38,-280 38,-212 38,-159.27 87.63,-113.59 116.96,-91.19"/>
<polygon fill="#63b8ff" stroke="#63b8ff" points="119.37,-93.76 125.33,-85.01 115.21,-88.13 119.37,-93.76"/>
</a>
</g>
</g>
<!-- Node12 -->
<g id="Node000012" class="node">
<title>Node12</title>
<g id="a_Node000012"><a xlink:href="adapters_8hxx.html" target="_top" xlink:title=" ">
<polygon fill="white" stroke="#666666" points="421.5,-228 302.5,-228 302.5,-198 421.5,-198 421.5,-228"/>
<text text-anchor="start" x="310.5" y="-216" font-family="Helvetica,sans-Serif" font-size="10.00">corelib/detail/casting</text>
<text text-anchor="middle" x="362" y="-205" font-family="Helvetica,sans-Serif" font-size="10.00">/adapters.hxx</text>
</a>
</g>
</g>
<!-- Node3&#45;&gt;Node12 -->
<g id="edge42_Node000003_Node000012" class="edge">
<title>Node3&#45;&gt;Node12</title>
<g id="a_edge42_Node000003_Node000012"><a xlink:title=" ">
<path fill="none" stroke="#63b8ff" d="M455.27,-384.84C440.76,-358.26 396.5,-277.2 374.58,-237.04"/>
<polygon fill="#63b8ff" stroke="#63b8ff" points="377.63,-235.32 369.76,-228.22 371.48,-238.68 377.63,-235.32"/>
</a>
</g>
</g>
<!-- Node14 -->
<g id="Node000014" class="node">
<title>Node14</title>
<g id="a_Node000014"><a xlink:href="traits_8hxx.html" target="_top" xlink:title=" ">
<polygon fill="white" stroke="#666666" points="513.5,-162 394.5,-162 394.5,-132 513.5,-132 513.5,-162"/>
<text text-anchor="start" x="402.5" y="-150" font-family="Helvetica,sans-Serif" font-size="10.00">corelib/detail/casting</text>
<text text-anchor="middle" x="454" y="-139" font-family="Helvetica,sans-Serif" font-size="10.00">/traits.hxx</text>
</a>
</g>
</g>
<!-- Node3&#45;&gt;Node14 -->
<g id="edge44_Node000003_Node000014" class="edge">
<title>Node3&#45;&gt;Node14</title>
<g id="a_edge44_Node000003_Node000014"><a xlink:title=" ">
<path fill="none" stroke="#63b8ff" d="M459.79,-384.76C458.95,-350.63 455.9,-225.57 454.59,-172.3"/>
<polygon fill="#63b8ff" stroke="#63b8ff" points="458.09,-171.99 454.34,-162.08 451.09,-172.16 458.09,-171.99"/>
</a>
</g>
</g>
<!-- Node19 -->
<g id="Node000019" class="node">
<title>Node19</title>
<g id="a_Node000019"><a xlink:href="type__name_8hxx.html" target="_top" xlink:title=" ">
<polygon fill="white" stroke="#666666" points="1108,-162 1002,-162 1002,-132 1108,-132 1108,-162"/>
<text text-anchor="start" x="1010" y="-150" font-family="Helvetica,sans-Serif" font-size="10.00">corelib/utility/type</text>
<text text-anchor="middle" x="1055" y="-139" font-family="Helvetica,sans-Serif" font-size="10.00">_name.hxx</text>
</a>
</g>
</g>
<!-- Node3&#45;&gt;Node19 -->
<g id="edge46_Node000003_Node000019" class="edge">
<title>Node3&#45;&gt;Node19</title>
<g id="a_edge46_Node000003_Node000019"><a xlink:title=" ">
<path fill="none" stroke="#63b8ff" d="M510.46,-384.96C582.95,-371.56 719.72,-342.07 828,-294 906.37,-259.21 988.68,-199.56 1029.26,-168.37"/>
<polygon fill="#63b8ff" stroke="#63b8ff" points="1031.51,-171.05 1037.27,-162.16 1027.22,-165.52 1031.51,-171.05"/>
</a>
</g>
</g>
<!-- Node6&#45;&gt;Node7 -->
<g id="edge6_Node000006_Node000007" class="edge">
<title>Node6&#45;&gt;Node7</title>
<g id="a_edge6_Node000006_Node000007"><a xlink:title=" ">
<path fill="none" stroke="#63b8ff" d="M363.6,-329.99C410.99,-320.53 488.26,-305.1 544.45,-293.89"/>
<polygon fill="#63b8ff" stroke="#63b8ff" points="545.21,-297.3 554.33,-291.91 543.84,-290.44 545.21,-297.3"/>
</a>
</g>
</g>
<!-- Node6&#45;&gt;Node10 -->
<g id="edge41_Node000006_Node000010" class="edge">
<title>Node6&#45;&gt;Node10</title>
<g id="a_edge41_Node000006_Node000010"><a xlink:title=" ">
<path fill="none" stroke="#63b8ff" d="M300.71,-329.88C254.63,-309.02 142.79,-250.94 100,-162 88.5,-138.1 107.13,-109.9 122.13,-92.62"/>
<polygon fill="#63b8ff" stroke="#63b8ff" points="124.87,-94.81 129.06,-85.07 119.72,-90.07 124.87,-94.81"/>
</a>
</g>
</g>
<!-- Node6&#45;&gt;Node14 -->
<g id="edge40_Node000006_Node000014" class="edge">
<title>Node6&#45;&gt;Node14</title>
<g id="a_edge40_Node000006_Node000014"><a xlink:title=" ">
<path fill="none" stroke="#63b8ff" d="M315.18,-329.93C299.98,-306.37 262.32,-239.65 293,-198 304.35,-182.59 346.14,-169.87 384.3,-161.12"/>
<polygon fill="#63b8ff" stroke="#63b8ff" points="385.41,-164.46 394.41,-158.87 383.89,-157.62 385.41,-164.46"/>
</a>
</g>
</g>
<!-- Node7&#45;&gt;Node4 -->
<g id="edge7_Node000007_Node000004" class="edge">
<title>Node7&#45;&gt;Node4</title>
<g id="a_edge7_Node000007_Node000004"><a xlink:title=" ">
<path fill="none" stroke="#63b8ff" d="M612.37,-263.84C609.65,-240.34 604.22,-193.26 601.18,-166.93"/>
<polygon fill="#63b8ff" stroke="#63b8ff" points="604.63,-166.28 600.01,-156.75 597.68,-167.08 604.63,-166.28"/>
</a>
</g>
</g>
<!-- Node7&#45;&gt;Node5 -->
<g id="edge10_Node000007_Node000005" class="edge">
<title>Node7&#45;&gt;Node5</title>
<g id="a_edge10_Node000007_Node000005"><a xlink:title=" ">
<path fill="none" stroke="#63b8ff" d="M673.54,-277.56C727.78,-274.66 808.3,-263.9 868,-228 893.22,-212.83 912.86,-184.14 923.68,-165.56"/>
<polygon fill="#63b8ff" stroke="#63b8ff" points="926.83,-167.09 928.64,-156.66 920.72,-163.69 926.83,-167.09"/>
</a>
</g>
</g>
<!-- Node8 -->
<g id="Node000008" class="node">
<title>Node8</title>
<g id="a_Node000008"><a xlink:title=" ">
<polygon fill="#e0e0e0" stroke="#999999" points="788,-85 732,-85 732,-66 788,-66 788,-85"/>
<text text-anchor="middle" x="760" y="-73" font-family="Helvetica,sans-Serif" font-size="10.00">optional</text>
</a>
</g>
</g>
<!-- Node7&#45;&gt;Node8 -->
<g id="edge8_Node000007_Node000008" class="edge">
<title>Node7&#45;&gt;Node8</title>
<g id="a_edge8_Node000007_Node000008"><a xlink:title=" ">
<path fill="none" stroke="#63b8ff" d="M624.27,-263.83C650.47,-227.67 719.72,-132.1 747.85,-93.26"/>
<polygon fill="#63b8ff" stroke="#63b8ff" points="750.75,-95.23 753.79,-85.08 745.08,-91.12 750.75,-95.23"/>
</a>
</g>
</g>
<!-- Node9 -->
<g id="Node000009" class="node">
<title>Node9</title>
<g id="a_Node000009"><a xlink:title=" ">
<polygon fill="#e0e0e0" stroke="#999999" points="570.5,-19 501.5,-19 501.5,0 570.5,0 570.5,-19"/>
<text text-anchor="middle" x="536" y="-7" font-family="Helvetica,sans-Serif" font-size="10.00">type_traits</text>
</a>
</g>
</g>
<!-- Node7&#45;&gt;Node9 -->
<g id="edge9_Node000007_Node000009" class="edge">
<title>Node7&#45;&gt;Node9</title>
<g id="a_edge9_Node000007_Node000009"><a xlink:title=" ">
<path fill="none" stroke="#63b8ff" d="M673.73,-272.77C732.15,-266.26 815.14,-252.85 835,-228 849.58,-209.76 875.85,-115.1 818,-55 786.06,-21.81 651.86,-13.36 580.71,-11.22"/>
<polygon fill="#63b8ff" stroke="#63b8ff" points="580.79,-7.72 570.7,-10.95 580.6,-14.72 580.79,-7.72"/>
</a>
</g>
</g>
<!-- Node7&#45;&gt;Node10 -->
<g id="edge11_Node000007_Node000010" class="edge">
<title>Node7&#45;&gt;Node10</title>
<g id="a_edge11_Node000007_Node000010"><a xlink:title=" ">
<path fill="none" stroke="#63b8ff" d="M554.22,-274.96C488.6,-270.2 380.89,-258.15 293,-228 235.79,-208.38 214.4,-207.01 174,-162 156.63,-142.65 146.86,-113.71 142,-94.97"/>
<polygon fill="#63b8ff" stroke="#63b8ff" points="145.35,-93.95 139.64,-85.02 138.54,-95.56 145.35,-93.95"/>
</a>
</g>
</g>
<!-- Node7&#45;&gt;Node12 -->
<g id="edge13_Node000007_Node000012" class="edge">
<title>Node7&#45;&gt;Node12</title>
<g id="a_edge13_Node000007_Node000012"><a xlink:title=" ">
<path fill="none" stroke="#63b8ff" d="M558.7,-263.95C519.88,-254.1 467.83,-240.88 427.02,-230.51"/>
<polygon fill="#63b8ff" stroke="#63b8ff" points="427.73,-227.08 417.17,-228.01 426,-233.87 427.73,-227.08"/>
</a>
</g>
</g>
<!-- Node7&#45;&gt;Node14 -->
<g id="edge39_Node000007_Node000014" class="edge">
<title>Node7&#45;&gt;Node14</title>
<g id="a_edge39_Node000007_Node000014"><a xlink:title=" ">
<path fill="none" stroke="#63b8ff" d="M596.57,-263.84C568.2,-240.79 511.91,-195.05 479.19,-168.46"/>
<polygon fill="#63b8ff" stroke="#63b8ff" points="481.37,-165.73 471.41,-162.14 476.96,-171.16 481.37,-165.73"/>
</a>
</g>
</g>
<!-- Node18 -->
<g id="Node000018" class="node">
<title>Node18</title>
<g id="a_Node000018"><a xlink:href="detail_2casting_2isa_8hxx.html" target="_top" xlink:title=" ">
<polygon fill="white" stroke="#666666" points="825.5,-228 706.5,-228 706.5,-198 825.5,-198 825.5,-228"/>
<text text-anchor="start" x="714.5" y="-216" font-family="Helvetica,sans-Serif" font-size="10.00">corelib/detail/casting</text>
<text text-anchor="middle" x="766" y="-205" font-family="Helvetica,sans-Serif" font-size="10.00">/isa.hxx</text>
</a>
</g>
</g>
<!-- Node7&#45;&gt;Node18 -->
<g id="edge30_Node000007_Node000018" class="edge">
<title>Node7&#45;&gt;Node18</title>
<g id="a_edge30_Node000007_Node000018"><a xlink:title=" ">
<path fill="none" stroke="#63b8ff" d="M647.36,-263.95C669.73,-254.53 699.39,-242.04 723.46,-231.91"/>
<polygon fill="#63b8ff" stroke="#63b8ff" points="724.86,-235.12 732.72,-228.01 722.15,-228.67 724.86,-235.12"/>
</a>
</g>
</g>
<!-- Node11 -->
<g id="Node000011" class="node">
<title>Node11</title>
<g id="a_Node000011"><a xlink:title=" ">
<polygon fill="#e0e0e0" stroke="#999999" points="190,-19 86,-19 86,0 190,0 190,-19"/>
<text text-anchor="middle" x="138" y="-7" font-family="Helvetica,sans-Serif" font-size="10.00">debug/tracing.hxx</text>
</a>
</g>
</g>
<!-- Node10&#45;&gt;Node11 -->
<g id="edge12_Node000010_Node000011" class="edge">
<title>Node10&#45;&gt;Node11</title>
<g id="a_edge12_Node000010_Node000011"><a xlink:title=" ">
<path fill="none" stroke="#63b8ff" d="M138,-65.87C138,-56.66 138,-41.79 138,-29.77"/>
<polygon fill="#63b8ff" stroke="#63b8ff" points="141.5,-29.41 138,-19.41 134.5,-29.41 141.5,-29.41"/>
</a>
</g>
</g>
<!-- Node12&#45;&gt;Node4 -->
<g id="edge14_Node000012_Node000004" class="edge">
<title>Node12&#45;&gt;Node4</title>
<g id="a_edge14_Node000012_Node000004"><a xlink:title=" ">
<path fill="none" stroke="#63b8ff" d="M420.41,-197.96C459.05,-188.42 510.75,-175.18 556,-162 558.6,-161.24 561.27,-160.44 563.96,-159.61"/>
<polygon fill="#63b8ff" stroke="#63b8ff" points="565.14,-162.91 573.62,-156.56 563.03,-156.23 565.14,-162.91"/>
</a>
</g>
</g>
<!-- Node12&#45;&gt;Node8 -->
<g id="edge15_Node000012_Node000008" class="edge">
<title>Node12&#45;&gt;Node8</title>
<g id="a_edge15_Node000012_Node000008"><a xlink:title=" ">
<path fill="none" stroke="#63b8ff" d="M421.8,-199.02C453.05,-190.87 491.28,-178.71 523,-162 542.04,-151.97 541.56,-141.23 561,-132 627.62,-100.35 653.76,-121.42 723,-96 727.69,-94.28 732.54,-92.07 737.12,-89.76"/>
<polygon fill="#63b8ff" stroke="#63b8ff" points="738.83,-92.81 746,-85.01 735.53,-86.64 738.83,-92.81"/>
</a>
</g>
</g>
<!-- Node12&#45;&gt;Node9 -->
<g id="edge16_Node000012_Node000009" class="edge">
<title>Node12&#45;&gt;Node9</title>
<g id="a_edge16_Node000012_Node000009"><a xlink:title=" ">
<path fill="none" stroke="#63b8ff" d="M361.07,-197.93C359.61,-181.57 355.95,-153.99 347,-132 339.75,-114.19 328.57,-114.4 323,-96 317.72,-78.56 311.51,-69.14 323,-55 343.8,-29.4 435.34,-18.02 491.43,-13.37"/>
<polygon fill="#63b8ff" stroke="#63b8ff" points="491.77,-16.85 501.46,-12.58 491.22,-9.88 491.77,-16.85"/>
</a>
</g>
</g>
<!-- Node12&#45;&gt;Node10 -->
<g id="edge29_Node000012_Node000010" class="edge">
<title>Node12&#45;&gt;Node10</title>
<g id="a_edge29_Node000012_Node000010"><a xlink:title=" ">
<path fill="none" stroke="#63b8ff" d="M302.19,-200.71C272.38,-193.11 236.85,-180.93 209,-162 182.38,-143.91 160.3,-113.09 148.15,-93.81"/>
<polygon fill="#63b8ff" stroke="#63b8ff" points="151.07,-91.87 142.87,-85.15 145.09,-95.51 151.07,-91.87"/>
</a>
</g>
</g>
<!-- Node13 -->
<g id="Node000013" class="node">
<title>Node13</title>
<g id="a_Node000013"><a xlink:href="forwarding_8hxx.html" target="_top" xlink:title=" ">
<polygon fill="white" stroke="#666666" points="337.5,-162 218.5,-162 218.5,-132 337.5,-132 337.5,-162"/>
<text text-anchor="start" x="226.5" y="-150" font-family="Helvetica,sans-Serif" font-size="10.00">corelib/detail/casting</text>
<text text-anchor="middle" x="278" y="-139" font-family="Helvetica,sans-Serif" font-size="10.00">/forwarding.hxx</text>
</a>
</g>
</g>
<!-- Node12&#45;&gt;Node13 -->
<g id="edge17_Node000012_Node000013" class="edge">
<title>Node12&#45;&gt;Node13</title>
<g id="a_edge17_Node000012_Node000013"><a xlink:title=" ">
<path fill="none" stroke="#63b8ff" d="M343.36,-197.8C332.05,-189.18 317.42,-178.04 304.88,-168.48"/>
<polygon fill="#63b8ff" stroke="#63b8ff" points="306.67,-165.44 296.59,-162.16 302.42,-171.01 306.67,-165.44"/>
</a>
</g>
</g>
<!-- Node12&#45;&gt;Node14 -->
<g id="edge20_Node000012_Node000014" class="edge">
<title>Node12&#45;&gt;Node14</title>
<g id="a_edge20_Node000012_Node000014"><a xlink:title=" ">
<path fill="none" stroke="#63b8ff" d="M382.42,-197.8C395.04,-189.01 411.44,-177.61 425.35,-167.93"/>
<polygon fill="#63b8ff" stroke="#63b8ff" points="427.43,-170.75 433.64,-162.16 423.43,-165 427.43,-170.75"/>
</a>
</g>
</g>
<!-- Node13&#45;&gt;Node9 -->
<g id="edge18_Node000013_Node000009" class="edge">
<title>Node13&#45;&gt;Node9</title>
<g id="a_edge18_Node000013_Node000009"><a xlink:title=" ">
<path fill="none" stroke="#63b8ff" d="M269.76,-131.84C259.54,-112.21 245.58,-76.68 264,-55 292.62,-21.31 421.62,-13.07 491.19,-11.09"/>
<polygon fill="#63b8ff" stroke="#63b8ff" points="491.5,-14.59 501.41,-10.84 491.33,-7.59 491.5,-14.59"/>
</a>
</g>
</g>
<!-- Node13&#45;&gt;Node10 -->
<g id="edge19_Node000013_Node000010" class="edge">
<title>Node13&#45;&gt;Node10</title>
<g id="a_edge19_Node000013_Node000010"><a xlink:title=" ">
<path fill="none" stroke="#63b8ff" d="M249.67,-131.94C224.7,-119.54 188.61,-101.62 164.27,-89.54"/>
<polygon fill="#63b8ff" stroke="#63b8ff" points="165.77,-86.38 155.26,-85.07 162.66,-92.65 165.77,-86.38"/>
</a>
</g>
</g>
<!-- Node14&#45;&gt;Node8 -->
<g id="edge22_Node000014_Node000008" class="edge">
<title>Node14&#45;&gt;Node8</title>
<g id="a_edge22_Node000014_Node000008"><a xlink:title=" ">
<path fill="none" stroke="#63b8ff" d="M513.77,-134.67C518.58,-133.76 523.37,-132.86 528,-132 614.63,-115.81 639.73,-124.87 723,-96 727.73,-94.36 732.59,-92.19 737.17,-89.9"/>
<polygon fill="#63b8ff" stroke="#63b8ff" points="738.88,-92.95 746.05,-85.14 735.58,-86.78 738.88,-92.95"/>
</a>
</g>
</g>
<!-- Node14&#45;&gt;Node9 -->
<g id="edge23_Node000014_Node000009" class="edge">
<title>Node14&#45;&gt;Node9</title>
<g id="a_edge23_Node000014_Node000009"><a xlink:title=" ">
<path fill="none" stroke="#63b8ff" d="M394.41,-135.5C371.88,-128.32 348.46,-116.25 335,-96 324.91,-80.82 323.59,-69.21 335,-55 354.19,-31.09 437.94,-19.24 491.09,-14.03"/>
<polygon fill="#63b8ff" stroke="#63b8ff" points="491.65,-17.49 501.28,-13.07 491,-10.52 491.65,-17.49"/>
</a>
</g>
</g>
<!-- Node14&#45;&gt;Node10 -->
<g id="edge24_Node000014_Node000010" class="edge">
<title>Node14&#45;&gt;Node10</title>
<g id="a_edge24_Node000014_Node000010"><a xlink:title=" ">
<path fill="none" stroke="#63b8ff" d="M394.19,-132.85C334.06,-119.62 242.48,-99.48 186.65,-87.2"/>
<polygon fill="#63b8ff" stroke="#63b8ff" points="187.18,-83.73 176.66,-85 185.67,-90.57 187.18,-83.73"/>
</a>
</g>
</g>
<!-- Node15 -->
<g id="Node000015" class="node">
<title>Node15</title>
<g id="a_Node000015"><a xlink:title=" ">
<polygon fill="#e0e0e0" stroke="#999999" points="570.5,-85 517.5,-85 517.5,-66 570.5,-66 570.5,-85"/>
<text text-anchor="middle" x="544" y="-73" font-family="Helvetica,sans-Serif" font-size="10.00">cstddef</text>
</a>
</g>
</g>
<!-- Node14&#45;&gt;Node15 -->
<g id="edge21_Node000014_Node000015" class="edge">
<title>Node14&#45;&gt;Node15</title>
<g id="a_edge21_Node000014_Node000015"><a xlink:title=" ">
<path fill="none" stroke="#63b8ff" d="M472.21,-131.94C487.55,-120.09 509.43,-103.2 524.99,-91.18"/>
<polygon fill="#63b8ff" stroke="#63b8ff" points="527.13,-93.95 532.91,-85.07 522.85,-88.41 527.13,-93.95"/>
</a>
</g>
</g>
<!-- Node16 -->
<g id="Node000016" class="node">
<title>Node16</title>
<g id="a_Node000016"><a xlink:href="add__const__past__pointer_8hxx.html" target="_top" xlink:title=" ">
<polygon fill="white" stroke="#666666" points="499.5,-90.5 344.5,-90.5 344.5,-60.5 499.5,-60.5 499.5,-90.5"/>
<text text-anchor="start" x="352.5" y="-78.5" font-family="Helvetica,sans-Serif" font-size="10.00">corelib/type_traits</text>
<text text-anchor="middle" x="422" y="-67.5" font-family="Helvetica,sans-Serif" font-size="10.00">/add_const_past_pointer.hxx</text>
</a>
</g>
</g>
<!-- Node14&#45;&gt;Node16 -->
<g id="edge25_Node000014_Node000016" class="edge">
<title>Node14&#45;&gt;Node16</title>
<g id="a_edge25_Node000014_Node000016"><a xlink:title=" ">
<path fill="none" stroke="#63b8ff" d="M447.52,-131.94C443.27,-122.7 437.61,-110.41 432.7,-99.74"/>
<polygon fill="#63b8ff" stroke="#63b8ff" points="435.83,-98.16 428.47,-90.54 429.47,-101.09 435.83,-98.16"/>
</a>
</g>
</g>
<!-- Node17 -->
<g id="Node000017" class="node">
<title>Node17</title>
<g id="a_Node000017"><a xlink:href="add__lvalue__reference__if__not__pointer_8hxx.html" target="_top" xlink:title=" ">
<polygon fill="white" stroke="#666666" points="713.5,-96 588.5,-96 588.5,-55 713.5,-55 713.5,-96"/>
<text text-anchor="start" x="596.5" y="-84" font-family="Helvetica,sans-Serif" font-size="10.00">corelib/type_traits</text>
<text text-anchor="start" x="596.5" y="-73" font-family="Helvetica,sans-Serif" font-size="10.00">/add_lvalue_reference</text>
<text text-anchor="middle" x="651" y="-62" font-family="Helvetica,sans-Serif" font-size="10.00">_if_not_pointer.hxx</text>
</a>
</g>
</g>
<!-- Node14&#45;&gt;Node17 -->
<g id="edge27_Node000014_Node000017" class="edge">
<title>Node14&#45;&gt;Node17</title>
<g id="a_edge27_Node000014_Node000017"><a xlink:title=" ">
<path fill="none" stroke="#63b8ff" d="M493.87,-131.94C520.24,-122.63 555.44,-110.21 585.84,-99.49"/>
<polygon fill="#63b8ff" stroke="#63b8ff" points="587.25,-102.7 595.52,-96.07 584.92,-96.1 587.25,-102.7"/>
</a>
</g>
</g>
<!-- Node16&#45;&gt;Node9 -->
<g id="edge26_Node000016_Node000009" class="edge">
<title>Node16&#45;&gt;Node9</title>
<g id="a_edge26_Node000016_Node000009"><a xlink:title=" ">
<path fill="none" stroke="#63b8ff" d="M447.02,-60.45C466.31,-49.63 492.82,-34.74 511.88,-24.04"/>
<polygon fill="#63b8ff" stroke="#63b8ff" points="513.82,-26.96 520.83,-19.02 510.4,-20.86 513.82,-26.96"/>
</a>
</g>
</g>
<!-- Node17&#45;&gt;Node9 -->
<g id="edge28_Node000017_Node000009" class="edge">
<title>Node17&#45;&gt;Node9</title>
<g id="a_edge28_Node000017_Node000009"><a xlink:title=" ">
<path fill="none" stroke="#63b8ff" d="M615.87,-54.95C597.87,-44.93 576.4,-32.99 560.26,-24"/>
<polygon fill="#63b8ff" stroke="#63b8ff" points="561.88,-20.9 551.44,-19.09 558.47,-27.01 561.88,-20.9"/>
</a>
</g>
</g>
<!-- Node18&#45;&gt;Node4 -->
<g id="edge31_Node000018_Node000004" class="edge">
<title>Node18&#45;&gt;Node4</title>
<g id="a_edge31_Node000018_Node000004"><a xlink:title=" ">
<path fill="none" stroke="#63b8ff" d="M729.35,-197.95C699.81,-186.63 658.69,-170.88 630.58,-160.1"/>
<polygon fill="#63b8ff" stroke="#63b8ff" points="631.82,-156.83 621.22,-156.52 629.31,-163.36 631.82,-156.83"/>
</a>
</g>
</g>
<!-- Node18&#45;&gt;Node5 -->
<g id="edge33_Node000018_Node000005" class="edge">
<title>Node18&#45;&gt;Node5</title>
<g id="a_edge33_Node000018_Node000005"><a xlink:title=" ">
<path fill="none" stroke="#63b8ff" d="M802.65,-197.95C832.19,-186.63 873.31,-170.88 901.42,-160.1"/>
<polygon fill="#63b8ff" stroke="#63b8ff" points="902.69,-163.36 910.78,-156.52 900.18,-156.83 902.69,-163.36"/>
</a>
</g>
</g>
<!-- Node18&#45;&gt;Node9 -->
<g id="edge32_Node000018_Node000009" class="edge">
<title>Node18&#45;&gt;Node9</title>
<g id="a_edge32_Node000018_Node000009"><a xlink:title=" ">
<path fill="none" stroke="#63b8ff" d="M775.52,-197.95C794.53,-167.97 832.48,-97.04 797,-55 769.91,-22.91 648.52,-13.96 581.25,-11.46"/>
<polygon fill="#63b8ff" stroke="#63b8ff" points="581.05,-7.95 570.94,-11.11 580.82,-14.95 581.05,-7.95"/>
</a>
</g>
</g>
<!-- Node18&#45;&gt;Node10 -->
<g id="edge35_Node000018_Node000010" class="edge">
<title>Node18&#45;&gt;Node10</title>
<g id="a_edge35_Node000018_Node000010"><a xlink:title=" ">
<path fill="none" stroke="#63b8ff" d="M748.92,-197.89C725.37,-179.29 680.83,-147.16 637,-132 617.71,-125.33 359.5,-98.71 222.33,-84.9"/>
<polygon fill="#63b8ff" stroke="#63b8ff" points="222.56,-81.41 212.26,-83.89 221.86,-88.37 222.56,-81.41"/>
</a>
</g>
</g>
<!-- Node18&#45;&gt;Node14 -->
<g id="edge34_Node000018_Node000014" class="edge">
<title>Node18&#45;&gt;Node14</title>
<g id="a_edge34_Node000018_Node000014"><a xlink:title=" ">
<path fill="none" stroke="#63b8ff" d="M706.21,-199.74C654.07,-189.04 578.41,-173.52 523.57,-162.27"/>
<polygon fill="#63b8ff" stroke="#63b8ff" points="524.08,-158.8 513.59,-160.22 522.68,-165.66 524.08,-158.8"/>
</a>
</g>
</g>
<!-- Node18&#45;&gt;Node19 -->
<g id="edge36_Node000018_Node000019" class="edge">
<title>Node18&#45;&gt;Node19</title>
<g id="a_edge36_Node000018_Node000019"><a xlink:title=" ">
<path fill="none" stroke="#63b8ff" d="M825.76,-198.93C869.22,-189.4 929.76,-176.09 991.92,-162.24"/>
<polygon fill="#63b8ff" stroke="#63b8ff" points="992.91,-165.6 1001.9,-160.01 991.38,-158.77 992.91,-165.6"/>
</a>
</g>
</g>
<!-- Node19&#45;&gt;Node9 -->
<g id="edge38_Node000019_Node000009" class="edge">
<title>Node19&#45;&gt;Node9</title>
<g id="a_edge38_Node000019_Node000009"><a xlink:title=" ">
<path fill="none" stroke="#63b8ff" d="M1032.08,-131.84C997.77,-111.34 930.39,-73.83 868,-55 768.32,-24.92 645.69,-15.15 580.96,-11.99"/>
<polygon fill="#63b8ff" stroke="#63b8ff" points="580.85,-8.48 570.7,-11.52 580.53,-15.48 580.85,-8.48"/>
</a>
</g>
</g>
<!-- Node20 -->
<g id="Node000020" class="node">
<title>Node20</title>
<g id="a_Node000020"><a xlink:title=" ">
<polygon fill="#e0e0e0" stroke="#999999" points="1091.5,-85 1018.5,-85 1018.5,-66 1091.5,-66 1091.5,-85"/>
<text text-anchor="middle" x="1055" y="-73" font-family="Helvetica,sans-Serif" font-size="10.00">string_view</text>
</a>
</g>
</g>
<!-- Node19&#45;&gt;Node20 -->
<g id="edge37_Node000019_Node000020" class="edge">
<title>Node19&#45;&gt;Node20</title>
<g id="a_edge37_Node000019_Node000020"><a xlink:title=" ">
<path fill="none" stroke="#63b8ff" d="M1055,-131.94C1055,-121.46 1055,-107.05 1055,-95.55"/>
<polygon fill="#63b8ff" stroke="#63b8ff" points="1058.5,-95.27 1055,-85.27 1051.5,-95.27 1058.5,-95.27"/>
</a>
</g>
</g>
<!-- Node21&#45;&gt;Node3 -->
<g id="edge50_Node000021_Node000003" class="edge">
<title>Node21&#45;&gt;Node3</title>
<g id="a_edge50_Node000021_Node000003"><a xlink:title=" ">
<path fill="none" stroke="#63b8ff" d="M582.44,-439.99C555.21,-430.1 519.12,-416.98 493.18,-407.56"/>
<polygon fill="#63b8ff" stroke="#63b8ff" points="494.37,-404.26 483.78,-404.14 491.98,-410.84 494.37,-404.26"/>
</a>
</g>
</g>
<!-- Node21&#45;&gt;Node4 -->
<g id="edge48_Node000021_Node000004" class="edge">
<title>Node21&#45;&gt;Node4</title>
<g id="a_edge48_Node000021_Node000004"><a xlink:title=" ">
<path fill="none" stroke="#63b8ff" d="M632.02,-439.71C655.01,-408.06 704.29,-329.69 683,-264 669.75,-223.1 636.08,-184.53 615.61,-163.8"/>
<polygon fill="#63b8ff" stroke="#63b8ff" points="618.06,-161.3 608.49,-156.76 613.14,-166.28 618.06,-161.3"/>
</a>
</g>
</g>
<!-- Node21&#45;&gt;Node5 -->
<g id="edge49_Node000021_Node000005" class="edge">
<title>Node21&#45;&gt;Node5</title>
<g id="a_edge49_Node000021_Node000005"><a xlink:title=" ">
<path fill="none" stroke="#63b8ff" d="M675.75,-449.35C782.04,-438.81 1006,-408.53 1006,-340.5 1006,-340.5 1006,-340.5 1006,-278 1006,-231.89 970.66,-187.01 949.16,-163.97"/>
<polygon fill="#63b8ff" stroke="#63b8ff" points="951.42,-161.27 941.95,-156.51 946.38,-166.13 951.42,-161.27"/>
</a>
</g>
</g>
<!-- Node21&#45;&gt;Node7 -->
<g id="edge51_Node000021_Node000007" class="edge">
<title>Node21&#45;&gt;Node7</title>
<g id="a_edge51_Node000021_Node000007"><a xlink:title=" ">
<path fill="none" stroke="#63b8ff" d="M620.43,-439.76C619.24,-410.19 616.49,-341.82 615,-304.83"/>
<polygon fill="#63b8ff" stroke="#63b8ff" points="618.48,-304.29 614.58,-294.44 611.49,-304.57 618.48,-304.29"/>
</a>
</g>
</g>
<!-- Node21&#45;&gt;Node10 -->
<g id="edge53_Node000021_Node000010" class="edge">
<title>Node21&#45;&gt;Node10</title>
<g id="a_edge53_Node000021_Node000010"><a xlink:title=" ">
<path fill="none" stroke="#63b8ff" d="M566.26,-453.23C435.16,-449.91 114,-432.39 114,-340.5 114,-340.5 114,-340.5 114,-212 114,-169.75 125.45,-121.22 132.53,-95.24"/>
<polygon fill="#63b8ff" stroke="#63b8ff" points="136,-95.86 135.34,-85.28 129.26,-93.96 136,-95.86"/>
</a>
</g>
</g>
<!-- Node21&#45;&gt;Node14 -->
<g id="edge52_Node000021_Node000014" class="edge">
<title>Node21&#45;&gt;Node14</title>
<g id="a_edge52_Node000021_Node000014"><a xlink:title=" ">
<path fill="none" stroke="#63b8ff" d="M613.17,-439.65C586.6,-390.96 499.7,-231.74 466.79,-171.43"/>
<polygon fill="#63b8ff" stroke="#63b8ff" points="469.68,-169.42 461.81,-162.32 463.53,-172.77 469.68,-169.42"/>
</a>
</g>
</g>
<!-- Node21&#45;&gt;Node19 -->
<g id="edge54_Node000021_Node000019" class="edge">
<title>Node21&#45;&gt;Node19</title>
<g id="a_edge54_Node000021_Node000019"><a xlink:title=" ">
<path fill="none" stroke="#63b8ff" d="M675.64,-450.97C791.02,-443.08 1049,-416.89 1049,-340.5 1049,-340.5 1049,-340.5 1049,-278 1049,-241.03 1051.45,-198.21 1053.22,-172.12"/>
<polygon fill="#63b8ff" stroke="#63b8ff" points="1056.72,-172.25 1053.93,-162.03 1049.74,-171.76 1056.72,-172.25"/>
</a>
</g>
</g>
</g>
</svg>
