<?xml version="1.0" encoding="UTF-8" standalone="no"?>
<!DOCTYPE svg PUBLIC "-//W3C//DTD SVG 1.1//EN"
 "http://www.w3.org/Graphics/SVG/1.1/DTD/svg11.dtd">
<!-- Generated by graphviz version 2.43.0 (0)
 -->
<!-- Title: include/corelib/casting/cast.hxx Pages: 1 -->
<svg width="1235pt" height="423pt"
 viewBox="0.00 0.00 1234.50 423.00" xmlns="http://www.w3.org/2000/svg" xmlns:xlink="http://www.w3.org/1999/xlink">
<g id="graph0" class="graph" transform="scale(1 1) rotate(0) translate(4 419)">
<title>include/corelib/casting/cast.hxx</title>
<!-- Node1 -->
<g id="Node000001" class="node">
<title>Node1</title>
<g id="a_Node000001"><a xlink:title=" ">
<polygon fill="#999999" stroke="#666666" points="880.5,-415 754.5,-415 754.5,-385 880.5,-385 880.5,-415"/>
<text text-anchor="start" x="762.5" y="-403" font-family="Helvetica,sans-Serif" font-size="10.00">include/corelib/casting</text>
<text text-anchor="middle" x="817.5" y="-392" font-family="Helvetica,sans-Serif" font-size="10.00">/cast.hxx</text>
</a>
</g>
</g>
<!-- Node2 -->
<g id="Node000002" class="node">
<title>Node2</title>
<g id="a_Node000002"><a xlink:title=" ">
<polygon fill="#e0e0e0" stroke="#999999" points="754.5,-156.5 696.5,-156.5 696.5,-137.5 754.5,-137.5 754.5,-156.5"/>
<text text-anchor="middle" x="725.5" y="-144.5" font-family="Helvetica,sans-Serif" font-size="10.00">memory</text>
</a>
</g>
</g>
<!-- Node1&#45;&gt;Node2 -->
<g id="edge1_Node000001_Node000002" class="edge">
<title>Node1&#45;&gt;Node2</title>
<g id="a_edge1_Node000001_Node000002"><a xlink:title=" ">
<path fill="none" stroke="#63b8ff" d="M754.28,-386.68C733.6,-379.33 712.79,-367.62 700.5,-349 662.25,-291.06 697.87,-202.93 716.17,-165.65"/>
<polygon fill="#63b8ff" stroke="#63b8ff" points="719.38,-167.05 720.79,-156.55 713.14,-163.87 719.38,-167.05"/>
</a>
</g>
</g>
<!-- Node3 -->
<g id="Node000003" class="node">
<title>Node3</title>
<g id="a_Node000003"><a xlink:title=" ">
<polygon fill="#e0e0e0" stroke="#999999" points="988,-156.5 887,-156.5 887,-137.5 988,-137.5 988,-156.5"/>
<text text-anchor="middle" x="937.5" y="-144.5" font-family="Helvetica,sans-Serif" font-size="10.00">debug/assert.hxx</text>
</a>
</g>
</g>
<!-- Node1&#45;&gt;Node3 -->
<g id="edge2_Node000001_Node000003" class="edge">
<title>Node1&#45;&gt;Node3</title>
<g id="a_edge2_Node000001_Node000003"><a xlink:title=" ">
<path fill="none" stroke="#63b8ff" d="M833.15,-384.94C861.83,-357.94 921.78,-295.5 942.5,-228 948.74,-207.68 945.75,-183.13 942.33,-166.63"/>
<polygon fill="#63b8ff" stroke="#63b8ff" points="945.68,-165.58 940,-156.64 938.86,-167.17 945.68,-165.58"/>
</a>
</g>
</g>
<!-- Node4 -->
<g id="Node000004" class="node">
<title>Node4</title>
<g id="a_Node000004"><a xlink:href="casting_2isa_8hxx.html" target="_top" xlink:title=" ">
<polygon fill="white" stroke="#666666" points="835.5,-349 709.5,-349 709.5,-330 835.5,-330 835.5,-349"/>
<text text-anchor="middle" x="772.5" y="-337" font-family="Helvetica,sans-Serif" font-size="10.00">corelib/casting/isa.hxx</text>
</a>
</g>
</g>
<!-- Node1&#45;&gt;Node4 -->
<g id="edge3_Node000001_Node000004" class="edge">
<title>Node1&#45;&gt;Node4</title>
<g id="a_edge3_Node000001_Node000004"><a xlink:title=" ">
<path fill="none" stroke="#63b8ff" d="M806.61,-384.84C800.21,-376.52 792.08,-365.96 785.37,-357.23"/>
<polygon fill="#63b8ff" stroke="#63b8ff" points="788.11,-355.06 779.24,-349.27 782.57,-359.33 788.11,-355.06"/>
</a>
</g>
</g>
<!-- Node5 -->
<g id="Node000005" class="node">
<title>Node5</title>
<g id="a_Node000005"><a xlink:href="detail_2casting_2cast_8hxx.html" target="_top" xlink:title=" ">
<polygon fill="white" stroke="#666666" points="831,-294 712,-294 712,-264 831,-264 831,-294"/>
<text text-anchor="start" x="720" y="-282" font-family="Helvetica,sans-Serif" font-size="10.00">corelib/detail/casting</text>
<text text-anchor="middle" x="771.5" y="-271" font-family="Helvetica,sans-Serif" font-size="10.00">/cast.hxx</text>
</a>
</g>
</g>
<!-- Node1&#45;&gt;Node5 -->
<g id="edge41_Node000001_Node000005" class="edge">
<title>Node1&#45;&gt;Node5</title>
<g id="a_edge41_Node000001_Node000005"><a xlink:title=" ">
<path fill="none" stroke="#63b8ff" d="M830.09,-384.85C841.15,-370.61 854.1,-348.21 844.5,-330 837.76,-317.21 826.1,-307.06 814.05,-299.34"/>
<polygon fill="#63b8ff" stroke="#63b8ff" points="815.67,-296.23 805.28,-294.15 812.1,-302.26 815.67,-296.23"/>
</a>
</g>
</g>
<!-- Node8 -->
<g id="Node000008" class="node">
<title>Node8</title>
<g id="a_Node000008"><a xlink:href="tracing_8hxx.html" target="_top" xlink:title=" ">
<polygon fill="white" stroke="#666666" points="996.5,-85 848.5,-85 848.5,-66 996.5,-66 996.5,-85"/>
<text text-anchor="middle" x="922.5" y="-73" font-family="Helvetica,sans-Serif" font-size="10.00">corelib/internal/tracing.hxx</text>
</a>
</g>
</g>
<!-- Node1&#45;&gt;Node8 -->
<g id="edge43_Node000001_Node000008" class="edge">
<title>Node1&#45;&gt;Node8</title>
<g id="a_edge43_Node000001_Node000008"><a xlink:title=" ">
<path fill="none" stroke="#63b8ff" d="M880.59,-398.26C961.78,-393.59 1092.5,-371.82 1092.5,-280 1092.5,-280 1092.5,-280 1092.5,-212 1092.5,-145.48 1011.92,-106.33 961.71,-88.39"/>
<polygon fill="#63b8ff" stroke="#63b8ff" points="962.71,-85.03 952.11,-85.08 960.43,-91.65 962.71,-85.03"/>
</a>
</g>
</g>
<!-- Node10 -->
<g id="Node000010" class="node">
<title>Node10</title>
<g id="a_Node000010"><a xlink:href="adapters_8hxx.html" target="_top" xlink:title=" ">
<polygon fill="white" stroke="#666666" points="552,-228 433,-228 433,-198 552,-198 552,-228"/>
<text text-anchor="start" x="441" y="-216" font-family="Helvetica,sans-Serif" font-size="10.00">corelib/detail/casting</text>
<text text-anchor="middle" x="492.5" y="-205" font-family="Helvetica,sans-Serif" font-size="10.00">/adapters.hxx</text>
</a>
</g>
</g>
<!-- Node1&#45;&gt;Node10 -->
<g id="edge40_Node000001_Node000010" class="edge">
<title>Node1&#45;&gt;Node10</title>
<g id="a_edge40_Node000001_Node000010"><a xlink:title=" ">
<path fill="none" stroke="#63b8ff" d="M760.81,-384.98C731.93,-376.64 696.82,-364.61 667.5,-349 607.24,-316.91 546.21,-264.21 514.59,-235.06"/>
<polygon fill="#63b8ff" stroke="#63b8ff" points="516.91,-232.43 507.2,-228.18 512.14,-237.55 516.91,-232.43"/>
</a>
</g>
</g>
<!-- Node12 -->
<g id="Node000012" class="node">
<title>Node12</title>
<g id="a_Node000012"><a xlink:href="traits_8hxx.html" target="_top" xlink:title=" ">
<polygon fill="white" stroke="#666666" points="388,-162 269,-162 269,-132 388,-132 388,-162"/>
<text text-anchor="start" x="277" y="-150" font-family="Helvetica,sans-Serif" font-size="10.00">corelib/detail/casting</text>
<text text-anchor="middle" x="328.5" y="-139" font-family="Helvetica,sans-Serif" font-size="10.00">/traits.hxx</text>
</a>
</g>
</g>
<!-- Node1&#45;&gt;Node12 -->
<g id="edge42_Node000001_Node000012" class="edge">
<title>Node1&#45;&gt;Node12</title>
<g id="a_edge42_Node000001_Node000012"><a xlink:title=" ">
<path fill="none" stroke="#63b8ff" d="M754.36,-389.07C676.77,-375.21 542.48,-345.74 437.5,-294 393.65,-272.39 376.78,-268.57 349.5,-228 338.33,-211.38 333.09,-189.13 330.65,-172.31"/>
<polygon fill="#63b8ff" stroke="#63b8ff" points="334.09,-171.66 329.41,-162.16 327.14,-172.51 334.09,-171.66"/>
</a>
</g>
</g>
<!-- Node17 -->
<g id="Node000017" class="node">
<title>Node17</title>
<g id="a_Node000017"><a xlink:href="type__name_8hxx.html" target="_top" xlink:title=" ">
<polygon fill="white" stroke="#666666" points="1226.5,-162 1120.5,-162 1120.5,-132 1226.5,-132 1226.5,-162"/>
<text text-anchor="start" x="1128.5" y="-150" font-family="Helvetica,sans-Serif" font-size="10.00">corelib/utility/type</text>
<text text-anchor="middle" x="1173.5" y="-139" font-family="Helvetica,sans-Serif" font-size="10.00">_name.hxx</text>
</a>
</g>
</g>
<!-- Node1&#45;&gt;Node17 -->
<g id="edge44_Node000001_Node000017" class="edge">
<title>Node1&#45;&gt;Node17</title>
<g id="a_edge44_Node000001_Node000017"><a xlink:title=" ">
<path fill="none" stroke="#63b8ff" d="M880.68,-395.53C955.29,-390.2 1073.44,-377.43 1106.5,-349 1159.48,-303.44 1170.73,-214.82 1173,-172.13"/>
<polygon fill="#63b8ff" stroke="#63b8ff" points="1176.5,-172.22 1173.41,-162.08 1169.51,-171.93 1176.5,-172.22"/>
</a>
</g>
</g>
<!-- Node4&#45;&gt;Node5 -->
<g id="edge4_Node000004_Node000005" class="edge">
<title>Node4&#45;&gt;Node5</title>
<g id="a_edge4_Node000004_Node000005"><a xlink:title=" ">
<path fill="none" stroke="#63b8ff" d="M772.35,-329.87C772.24,-323.11 772.07,-313.35 771.91,-304.26"/>
<polygon fill="#63b8ff" stroke="#63b8ff" points="775.41,-304.05 771.74,-294.11 768.41,-304.17 775.41,-304.05"/>
</a>
</g>
</g>
<!-- Node4&#45;&gt;Node8 -->
<g id="edge39_Node000004_Node000008" class="edge">
<title>Node4&#45;&gt;Node8</title>
<g id="a_edge39_Node000004_Node000008"><a xlink:title=" ">
<path fill="none" stroke="#63b8ff" d="M802,-329.95C860.19,-311.11 986.39,-259.68 1012.5,-162 1015.94,-149.12 1019,-143.64 1012.5,-132 1001.12,-111.61 978.83,-97.78 959.28,-89.03"/>
<polygon fill="#63b8ff" stroke="#63b8ff" points="960.54,-85.76 949.97,-85.13 957.84,-92.22 960.54,-85.76"/>
</a>
</g>
</g>
<!-- Node4&#45;&gt;Node12 -->
<g id="edge38_Node000004_Node000012" class="edge">
<title>Node4&#45;&gt;Node12</title>
<g id="a_edge38_Node000004_Node000012"><a xlink:title=" ">
<path fill="none" stroke="#63b8ff" d="M709.17,-334.31C626.32,-325.99 480.01,-301.25 380.5,-228 360.92,-213.58 346.69,-189.39 338.12,-171.38"/>
<polygon fill="#63b8ff" stroke="#63b8ff" points="341.24,-169.79 333.94,-162.11 334.86,-172.66 341.24,-169.79"/>
</a>
</g>
</g>
<!-- Node5&#45;&gt;Node2 -->
<g id="edge5_Node000005_Node000002" class="edge">
<title>Node5&#45;&gt;Node2</title>
<g id="a_edge5_Node000005_Node000002"><a xlink:title=" ">
<path fill="none" stroke="#63b8ff" d="M765.07,-263.7C760.71,-253.78 754.96,-240.2 750.5,-228 742.95,-207.34 735.61,-183.2 730.85,-166.88"/>
<polygon fill="#63b8ff" stroke="#63b8ff" points="734.13,-165.61 728,-156.97 727.4,-167.55 734.13,-165.61"/>
</a>
</g>
</g>
<!-- Node5&#45;&gt;Node3 -->
<g id="edge8_Node000005_Node000003" class="edge">
<title>Node5&#45;&gt;Node3</title>
<g id="a_edge8_Node000005_Node000003"><a xlink:title=" ">
<path fill="none" stroke="#63b8ff" d="M831.16,-272.04C862.03,-265.87 897.89,-253.35 920.5,-228 935.45,-211.23 938.42,-184.62 938.5,-166.75"/>
<polygon fill="#63b8ff" stroke="#63b8ff" points="942,-166.59 938.25,-156.68 935,-166.77 942,-166.59"/>
</a>
</g>
</g>
<!-- Node6 -->
<g id="Node000006" class="node">
<title>Node6</title>
<g id="a_Node000006"><a xlink:title=" ">
<polygon fill="#e0e0e0" stroke="#999999" points="520.5,-85 464.5,-85 464.5,-66 520.5,-66 520.5,-85"/>
<text text-anchor="middle" x="492.5" y="-73" font-family="Helvetica,sans-Serif" font-size="10.00">optional</text>
</a>
</g>
</g>
<!-- Node5&#45;&gt;Node6 -->
<g id="edge6_Node000005_Node000006" class="edge">
<title>Node5&#45;&gt;Node6</title>
<g id="a_edge6_Node000005_Node000006"><a xlink:title=" ">
<path fill="none" stroke="#63b8ff" d="M728.2,-263.99C662,-241.74 540.27,-197.22 511.5,-162 495.97,-142.99 492.47,-113.96 492.01,-95.11"/>
<polygon fill="#63b8ff" stroke="#63b8ff" points="495.51,-95.1 492.02,-85.1 488.51,-95.09 495.51,-95.1"/>
</a>
</g>
</g>
<!-- Node7 -->
<g id="Node000007" class="node">
<title>Node7</title>
<g id="a_Node000007"><a xlink:title=" ">
<polygon fill="#e0e0e0" stroke="#999999" points="527,-19 458,-19 458,0 527,0 527,-19"/>
<text text-anchor="middle" x="492.5" y="-7" font-family="Helvetica,sans-Serif" font-size="10.00">type_traits</text>
</a>
</g>
</g>
<!-- Node5&#45;&gt;Node7 -->
<g id="edge7_Node000005_Node000007" class="edge">
<title>Node5&#45;&gt;Node7</title>
<g id="a_edge7_Node000005_Node000007"><a xlink:title=" ">
<path fill="none" stroke="#63b8ff" d="M775.23,-263.6C781.6,-235.51 791.39,-172.59 763.5,-132 711.22,-55.92 599.52,-26.83 537.08,-16.21"/>
<polygon fill="#63b8ff" stroke="#63b8ff" points="537.56,-12.74 527.13,-14.61 536.45,-19.66 537.56,-12.74"/>
</a>
</g>
</g>
<!-- Node5&#45;&gt;Node8 -->
<g id="edge9_Node000005_Node000008" class="edge">
<title>Node5&#45;&gt;Node8</title>
<g id="a_edge9_Node000005_Node000008"><a xlink:title=" ">
<path fill="none" stroke="#63b8ff" d="M831.36,-269.44C865.97,-262.4 909.13,-249.88 942.5,-228 974.43,-207.07 984.5,-197.9 997.5,-162 1002.04,-149.46 1003.5,-143.91 997.5,-132 987.97,-113.08 968.6,-99.01 951.93,-89.77"/>
<polygon fill="#63b8ff" stroke="#63b8ff" points="953.52,-86.65 943.03,-85.13 950.29,-92.86 953.52,-86.65"/>
</a>
</g>
</g>
<!-- Node5&#45;&gt;Node10 -->
<g id="edge11_Node000005_Node000010" class="edge">
<title>Node5&#45;&gt;Node10</title>
<g id="a_edge11_Node000005_Node000010"><a xlink:title=" ">
<path fill="none" stroke="#63b8ff" d="M711.99,-264.35C668.16,-254.29 608.41,-240.59 562.31,-230.01"/>
<polygon fill="#63b8ff" stroke="#63b8ff" points="562.93,-226.56 552.4,-227.74 561.36,-233.39 562.93,-226.56"/>
</a>
</g>
</g>
<!-- Node5&#45;&gt;Node12 -->
<g id="edge37_Node000005_Node000012" class="edge">
<title>Node5&#45;&gt;Node12</title>
<g id="a_edge37_Node000005_Node000012"><a xlink:title=" ">
<path fill="none" stroke="#63b8ff" d="M711.66,-273.4C626.15,-266.14 473.77,-250.53 423.5,-228 407.48,-220.82 373.42,-190.42 350.74,-169.23"/>
<polygon fill="#63b8ff" stroke="#63b8ff" points="352.92,-166.48 343.24,-162.18 348.12,-171.58 352.92,-166.48"/>
</a>
</g>
</g>
<!-- Node16 -->
<g id="Node000016" class="node">
<title>Node16</title>
<g id="a_Node000016"><a xlink:href="detail_2casting_2isa_8hxx.html" target="_top" xlink:title=" ">
<polygon fill="white" stroke="#666666" points="912,-228 793,-228 793,-198 912,-198 912,-228"/>
<text text-anchor="start" x="801" y="-216" font-family="Helvetica,sans-Serif" font-size="10.00">corelib/detail/casting</text>
<text text-anchor="middle" x="852.5" y="-205" font-family="Helvetica,sans-Serif" font-size="10.00">/isa.hxx</text>
</a>
</g>
</g>
<!-- Node5&#45;&gt;Node16 -->
<g id="edge28_Node000005_Node000016" class="edge">
<title>Node5&#45;&gt;Node16</title>
<g id="a_edge28_Node000005_Node000016"><a xlink:title=" ">
<path fill="none" stroke="#63b8ff" d="M789.48,-263.8C800.38,-255.18 814.48,-244.04 826.58,-234.48"/>
<polygon fill="#63b8ff" stroke="#63b8ff" points="828.9,-237.11 834.57,-228.16 824.56,-231.62 828.9,-237.11"/>
</a>
</g>
</g>
<!-- Node9 -->
<g id="Node000009" class="node">
<title>Node9</title>
<g id="a_Node000009"><a xlink:title=" ">
<polygon fill="#e0e0e0" stroke="#999999" points="974.5,-19 870.5,-19 870.5,0 974.5,0 974.5,-19"/>
<text text-anchor="middle" x="922.5" y="-7" font-family="Helvetica,sans-Serif" font-size="10.00">debug/tracing.hxx</text>
</a>
</g>
</g>
<!-- Node8&#45;&gt;Node9 -->
<g id="edge10_Node000008_Node000009" class="edge">
<title>Node8&#45;&gt;Node9</title>
<g id="a_edge10_Node000008_Node000009"><a xlink:title=" ">
<path fill="none" stroke="#63b8ff" d="M922.5,-65.87C922.5,-56.66 922.5,-41.79 922.5,-29.77"/>
<polygon fill="#63b8ff" stroke="#63b8ff" points="926,-29.41 922.5,-19.41 919,-29.41 926,-29.41"/>
</a>
</g>
</g>
<!-- Node10&#45;&gt;Node2 -->
<g id="edge12_Node000010_Node000002" class="edge">
<title>Node10&#45;&gt;Node2</title>
<g id="a_edge12_Node000010_Node000002"><a xlink:title=" ">
<path fill="none" stroke="#63b8ff" d="M549.27,-197.97C587.15,-188.38 638,-175.09 682.5,-162 685.09,-161.24 687.77,-160.43 690.45,-159.59"/>
<polygon fill="#63b8ff" stroke="#63b8ff" points="691.63,-162.89 700.11,-156.53 689.52,-156.22 691.63,-162.89"/>
</a>
</g>
</g>
<!-- Node10&#45;&gt;Node6 -->
<g id="edge13_Node000010_Node000006" class="edge">
<title>Node10&#45;&gt;Node6</title>
<g id="a_edge13_Node000010_Node000006"><a xlink:title=" ">
<path fill="none" stroke="#63b8ff" d="M487.4,-197.78C484.13,-187.89 480.19,-174.32 478.5,-162 476.69,-148.79 476.86,-145.23 478.5,-132 480.06,-119.41 483.55,-105.58 486.65,-94.87"/>
<polygon fill="#63b8ff" stroke="#63b8ff" points="490.08,-95.61 489.65,-85.03 483.39,-93.57 490.08,-95.61"/>
</a>
</g>
</g>
<!-- Node10&#45;&gt;Node7 -->
<g id="edge14_Node000010_Node000007" class="edge">
<title>Node10&#45;&gt;Node7</title>
<g id="a_edge14_Node000010_Node000007"><a xlink:title=" ">
<path fill="none" stroke="#63b8ff" d="M483.79,-197.82C467.8,-169.91 437.03,-106.09 455.5,-55 459.44,-44.09 467.36,-33.96 474.86,-26.14"/>
<polygon fill="#63b8ff" stroke="#63b8ff" points="477.34,-28.61 482.06,-19.13 472.45,-23.6 477.34,-28.61"/>
</a>
</g>
</g>
<!-- Node10&#45;&gt;Node8 -->
<g id="edge27_Node000010_Node000008" class="edge">
<title>Node10&#45;&gt;Node8</title>
<g id="a_edge27_Node000010_Node000008"><a xlink:title=" ">
<path fill="none" stroke="#63b8ff" d="M552.21,-198.08C582.11,-189.83 618.27,-177.85 648.5,-162 667.87,-151.84 667.75,-141.39 687.5,-132 736.53,-108.69 796.09,-94.76 842.98,-86.69"/>
<polygon fill="#63b8ff" stroke="#63b8ff" points="843.8,-90.1 853.09,-85 842.65,-83.19 843.8,-90.1"/>
</a>
</g>
</g>
<!-- Node11 -->
<g id="Node000011" class="node">
<title>Node11</title>
<g id="a_Node000011"><a xlink:href="forwarding_8hxx.html" target="_top" xlink:title=" ">
<polygon fill="white" stroke="#666666" points="640,-162 521,-162 521,-132 640,-132 640,-162"/>
<text text-anchor="start" x="529" y="-150" font-family="Helvetica,sans-Serif" font-size="10.00">corelib/detail/casting</text>
<text text-anchor="middle" x="580.5" y="-139" font-family="Helvetica,sans-Serif" font-size="10.00">/forwarding.hxx</text>
</a>
</g>
</g>
<!-- Node10&#45;&gt;Node11 -->
<g id="edge15_Node000010_Node000011" class="edge">
<title>Node10&#45;&gt;Node11</title>
<g id="a_edge15_Node000010_Node000011"><a xlink:title=" ">
<path fill="none" stroke="#63b8ff" d="M512.03,-197.8C523.99,-189.1 539.49,-177.82 552.72,-168.2"/>
<polygon fill="#63b8ff" stroke="#63b8ff" points="555,-170.88 561.02,-162.16 550.88,-165.22 555,-170.88"/>
</a>
</g>
</g>
<!-- Node10&#45;&gt;Node12 -->
<g id="edge18_Node000010_Node000012" class="edge">
<title>Node10&#45;&gt;Node12</title>
<g id="a_edge18_Node000010_Node000012"><a xlink:title=" ">
<path fill="none" stroke="#63b8ff" d="M456.51,-197.95C432.26,-188.49 400.08,-175.93 374.05,-165.78"/>
<polygon fill="#63b8ff" stroke="#63b8ff" points="374.99,-162.39 364.41,-162.01 372.45,-168.91 374.99,-162.39"/>
</a>
</g>
</g>
<!-- Node11&#45;&gt;Node7 -->
<g id="edge16_Node000011_Node000007" class="edge">
<title>Node11&#45;&gt;Node7</title>
<g id="a_edge16_Node000011_Node000007"><a xlink:title=" ">
<path fill="none" stroke="#63b8ff" d="M573.65,-131.96C564.5,-113.68 547.35,-80.97 529.5,-55 522.83,-45.29 514.5,-35.14 507.44,-26.99"/>
<polygon fill="#63b8ff" stroke="#63b8ff" points="509.91,-24.49 500.66,-19.32 504.66,-29.13 509.91,-24.49"/>
</a>
</g>
</g>
<!-- Node11&#45;&gt;Node8 -->
<g id="edge17_Node000011_Node000008" class="edge">
<title>Node11&#45;&gt;Node8</title>
<g id="a_edge17_Node000011_Node000008"><a xlink:title=" ">
<path fill="none" stroke="#63b8ff" d="M640.07,-133.89C705.24,-120.65 808.66,-99.63 870.62,-87.04"/>
<polygon fill="#63b8ff" stroke="#63b8ff" points="871.47,-90.44 880.57,-85.02 870.07,-83.58 871.47,-90.44"/>
</a>
</g>
</g>
<!-- Node12&#45;&gt;Node6 -->
<g id="edge20_Node000012_Node000006" class="edge">
<title>Node12&#45;&gt;Node6</title>
<g id="a_edge20_Node000012_Node000006"><a xlink:title=" ">
<path fill="none" stroke="#63b8ff" d="M361.69,-131.94C391.33,-119.38 434.34,-101.15 462.85,-89.07"/>
<polygon fill="#63b8ff" stroke="#63b8ff" points="464.44,-92.19 472.28,-85.07 461.71,-85.75 464.44,-92.19"/>
</a>
</g>
</g>
<!-- Node12&#45;&gt;Node7 -->
<g id="edge21_Node000012_Node000007" class="edge">
<title>Node12&#45;&gt;Node7</title>
<g id="a_edge21_Node000012_Node000007"><a xlink:title=" ">
<path fill="none" stroke="#63b8ff" d="M326.96,-131.74C325.65,-111.98 326.41,-76.3 345.5,-55 371.11,-26.42 414.39,-15.91 447.37,-12.19"/>
<polygon fill="#63b8ff" stroke="#63b8ff" points="448.06,-15.64 457.68,-11.2 447.4,-8.67 448.06,-15.64"/>
</a>
</g>
</g>
<!-- Node12&#45;&gt;Node8 -->
<g id="edge22_Node000012_Node000008" class="edge">
<title>Node12&#45;&gt;Node8</title>
<g id="a_edge22_Node000012_Node000008"><a xlink:title=" ">
<path fill="none" stroke="#63b8ff" d="M388.17,-139.02C494.77,-126.55 718.07,-100.42 839.53,-86.21"/>
<polygon fill="#63b8ff" stroke="#63b8ff" points="840,-89.68 849.52,-85.04 839.18,-82.72 840,-89.68"/>
</a>
</g>
</g>
<!-- Node13 -->
<g id="Node000013" class="node">
<title>Node13</title>
<g id="a_Node000013"><a xlink:title=" ">
<polygon fill="#e0e0e0" stroke="#999999" points="408,-85 355,-85 355,-66 408,-66 408,-85"/>
<text text-anchor="middle" x="381.5" y="-73" font-family="Helvetica,sans-Serif" font-size="10.00">cstddef</text>
</a>
</g>
</g>
<!-- Node12&#45;&gt;Node13 -->
<g id="edge19_Node000012_Node000013" class="edge">
<title>Node12&#45;&gt;Node13</title>
<g id="a_edge19_Node000012_Node000013"><a xlink:title=" ">
<path fill="none" stroke="#63b8ff" d="M339.23,-131.94C347.71,-120.81 359.59,-105.24 368.59,-93.43"/>
<polygon fill="#63b8ff" stroke="#63b8ff" points="371.53,-95.34 374.81,-85.27 365.97,-91.1 371.53,-95.34"/>
</a>
</g>
</g>
<!-- Node14 -->
<g id="Node000014" class="node">
<title>Node14</title>
<g id="a_Node000014"><a xlink:href="add__const__past__pointer_8hxx.html" target="_top" xlink:title=" ">
<polygon fill="white" stroke="#666666" points="155,-90.5 0,-90.5 0,-60.5 155,-60.5 155,-90.5"/>
<text text-anchor="start" x="8" y="-78.5" font-family="Helvetica,sans-Serif" font-size="10.00">corelib/type_traits</text>
<text text-anchor="middle" x="77.5" y="-67.5" font-family="Helvetica,sans-Serif" font-size="10.00">/add_const_past_pointer.hxx</text>
</a>
</g>
</g>
<!-- Node12&#45;&gt;Node14 -->
<g id="edge23_Node000012_Node000014" class="edge">
<title>Node12&#45;&gt;Node14</title>
<g id="a_edge23_Node000012_Node000014"><a xlink:title=" ">
<path fill="none" stroke="#63b8ff" d="M277.71,-131.94C237.31,-120.75 180.67,-105.07 137.94,-93.23"/>
<polygon fill="#63b8ff" stroke="#63b8ff" points="138.79,-89.84 128.22,-90.54 136.92,-96.59 138.79,-89.84"/>
</a>
</g>
</g>
<!-- Node15 -->
<g id="Node000015" class="node">
<title>Node15</title>
<g id="a_Node000015"><a xlink:href="add__lvalue__reference__if__not__pointer_8hxx.html" target="_top" xlink:title=" ">
<polygon fill="white" stroke="#666666" points="298,-96 173,-96 173,-55 298,-55 298,-96"/>
<text text-anchor="start" x="181" y="-84" font-family="Helvetica,sans-Serif" font-size="10.00">corelib/type_traits</text>
<text text-anchor="start" x="181" y="-73" font-family="Helvetica,sans-Serif" font-size="10.00">/add_lvalue_reference</text>
<text text-anchor="middle" x="235.5" y="-62" font-family="Helvetica,sans-Serif" font-size="10.00">_if_not_pointer.hxx</text>
</a>
</g>
</g>
<!-- Node12&#45;&gt;Node15 -->
<g id="edge25_Node000012_Node000015" class="edge">
<title>Node12&#45;&gt;Node15</title>
<g id="a_edge25_Node000012_Node000015"><a xlink:title=" ">
<path fill="none" stroke="#63b8ff" d="M309.68,-131.94C298.25,-123.4 283.32,-112.23 269.85,-102.17"/>
<polygon fill="#63b8ff" stroke="#63b8ff" points="271.8,-99.26 261.69,-96.07 267.61,-104.86 271.8,-99.26"/>
</a>
</g>
</g>
<!-- Node14&#45;&gt;Node7 -->
<g id="edge24_Node000014_Node000007" class="edge">
<title>Node14&#45;&gt;Node7</title>
<g id="a_edge24_Node000014_Node000007"><a xlink:title=" ">
<path fill="none" stroke="#63b8ff" d="M136.11,-60.48C145.25,-58.51 154.61,-56.61 163.5,-55 264.51,-36.75 384.2,-22.36 447.69,-15.29"/>
<polygon fill="#63b8ff" stroke="#63b8ff" points="448.21,-18.75 457.76,-14.17 447.44,-11.79 448.21,-18.75"/>
</a>
</g>
</g>
<!-- Node15&#45;&gt;Node7 -->
<g id="edge26_Node000015_Node000007" class="edge">
<title>Node15&#45;&gt;Node7</title>
<g id="a_edge26_Node000015_Node000007"><a xlink:title=" ">
<path fill="none" stroke="#63b8ff" d="M298.11,-58.61C302.98,-57.39 307.82,-56.17 312.5,-55 358.74,-43.43 411.71,-30.35 448.16,-21.39"/>
<polygon fill="#63b8ff" stroke="#63b8ff" points="449.1,-24.76 457.98,-18.97 447.43,-17.96 449.1,-24.76"/>
</a>
</g>
</g>
<!-- Node16&#45;&gt;Node2 -->
<g id="edge29_Node000016_Node000002" class="edge">
<title>Node16&#45;&gt;Node2</title>
<g id="a_edge29_Node000016_Node000002"><a xlink:title=" ">
<path fill="none" stroke="#63b8ff" d="M824.63,-197.95C802.85,-186.98 772.8,-171.83 751.51,-161.11"/>
<polygon fill="#63b8ff" stroke="#63b8ff" points="752.91,-157.89 742.4,-156.52 749.76,-164.14 752.91,-157.89"/>
</a>
</g>
</g>
<!-- Node16&#45;&gt;Node3 -->
<g id="edge31_Node000016_Node000003" class="edge">
<title>Node16&#45;&gt;Node3</title>
<g id="a_edge31_Node000016_Node000003"><a xlink:title=" ">
<path fill="none" stroke="#63b8ff" d="M871.36,-197.8C885.14,-187.43 903.76,-173.4 917.74,-162.88"/>
<polygon fill="#63b8ff" stroke="#63b8ff" points="919.87,-165.66 925.75,-156.84 915.66,-160.06 919.87,-165.66"/>
</a>
</g>
</g>
<!-- Node16&#45;&gt;Node7 -->
<g id="edge30_Node000016_Node000007" class="edge">
<title>Node16&#45;&gt;Node7</title>
<g id="a_edge30_Node000016_Node000007"><a xlink:title=" ">
<path fill="none" stroke="#63b8ff" d="M852.03,-197.55C850.17,-166.13 841.03,-91.51 796.5,-55 757.7,-23.18 611.72,-14.1 537.07,-11.52"/>
<polygon fill="#63b8ff" stroke="#63b8ff" points="537.13,-8.02 527.02,-11.19 536.91,-15.01 537.13,-8.02"/>
</a>
</g>
</g>
<!-- Node16&#45;&gt;Node8 -->
<g id="edge33_Node000016_Node000008" class="edge">
<title>Node16&#45;&gt;Node8</title>
<g id="a_edge33_Node000016_Node000008"><a xlink:title=" ">
<path fill="none" stroke="#63b8ff" d="M855.24,-197.78C858.79,-181.27 865.95,-153.55 877.5,-132 885.27,-117.51 897.06,-103.14 906.62,-92.66"/>
<polygon fill="#63b8ff" stroke="#63b8ff" points="909.38,-94.83 913.69,-85.15 904.29,-90.03 909.38,-94.83"/>
</a>
</g>
</g>
<!-- Node16&#45;&gt;Node12 -->
<g id="edge32_Node000016_Node000012" class="edge">
<title>Node16&#45;&gt;Node12</title>
<g id="a_edge32_Node000016_Node000012"><a xlink:title=" ">
<path fill="none" stroke="#63b8ff" d="M792.9,-204.72C695.29,-192.8 501.85,-169.17 398.1,-156.5"/>
<polygon fill="#63b8ff" stroke="#63b8ff" points="398.39,-153.01 388.04,-155.27 397.55,-159.96 398.39,-153.01"/>
</a>
</g>
</g>
<!-- Node16&#45;&gt;Node17 -->
<g id="edge34_Node000016_Node000017" class="edge">
<title>Node16&#45;&gt;Node17</title>
<g id="a_edge34_Node000016_Node000017"><a xlink:title=" ">
<path fill="none" stroke="#63b8ff" d="M912.13,-200.11C968.48,-188.88 1052.75,-172.08 1110.26,-160.61"/>
<polygon fill="#63b8ff" stroke="#63b8ff" points="1111.2,-163.99 1120.32,-158.6 1109.83,-157.13 1111.2,-163.99"/>
</a>
</g>
</g>
<!-- Node17&#45;&gt;Node7 -->
<g id="edge36_Node000017_Node000007" class="edge">
<title>Node17&#45;&gt;Node7</title>
<g id="a_edge36_Node000017_Node000007"><a xlink:title=" ">
<path fill="none" stroke="#63b8ff" d="M1154,-131.93C1123.84,-111.02 1063.32,-72.35 1005.5,-55 918.39,-28.86 645.67,-16.16 537.42,-12.05"/>
<polygon fill="#63b8ff" stroke="#63b8ff" points="537.29,-8.54 527.17,-11.67 537.03,-15.54 537.29,-8.54"/>
</a>
</g>
</g>
<!-- Node18 -->
<g id="Node000018" class="node">
<title>Node18</title>
<g id="a_Node000018"><a xlink:title=" ">
<polygon fill="#e0e0e0" stroke="#999999" points="1210,-85 1137,-85 1137,-66 1210,-66 1210,-85"/>
<text text-anchor="middle" x="1173.5" y="-73" font-family="Helvetica,sans-Serif" font-size="10.00">string_view</text>
</a>
</g>
</g>
<!-- Node17&#45;&gt;Node18 -->
<g id="edge35_Node000017_Node000018" class="edge">
<title>Node17&#45;&gt;Node18</title>
<g id="a_edge35_Node000017_Node000018"><a xlink:title=" ">
<path fill="none" stroke="#63b8ff" d="M1173.5,-131.94C1173.5,-121.46 1173.5,-107.05 1173.5,-95.55"/>
<polygon fill="#63b8ff" stroke="#63b8ff" points="1177,-95.27 1173.5,-85.27 1170,-95.27 1177,-95.27"/>
</a>
</g>
</g>
</g>
</svg>
