<?xml version="1.0" encoding="UTF-8" standalone="no"?>
<!DOCTYPE svg PUBLIC "-//W3C//DTD SVG 1.1//EN"
 "http://www.w3.org/Graphics/SVG/1.1/DTD/svg11.dtd">
<!-- Generated by graphviz version 2.43.0 (0)
 -->
<!-- Title: include/corelib/casting/cast.hxx Pages: 1 -->
<svg width="240pt" height="291pt"
 viewBox="0.00 0.00 239.50 291.00" xmlns="http://www.w3.org/2000/svg" xmlns:xlink="http://www.w3.org/1999/xlink">
<g id="graph0" class="graph" transform="scale(1 1) rotate(0) translate(4 287)">
<title>include/corelib/casting/cast.hxx</title>
<!-- Node1 -->
<g id="Node000001" class="node">
<title>Node1</title>
<g id="a_Node000001"><a xlink:title=" ">
<polygon fill="#999999" stroke="#666666" points="164.5,-283 38.5,-283 38.5,-253 164.5,-253 164.5,-283"/>
<text text-anchor="start" x="46.5" y="-271" font-family="Helvetica,sans-Serif" font-size="10.00">include/corelib/casting</text>
<text text-anchor="middle" x="101.5" y="-260" font-family="Helvetica,sans-Serif" font-size="10.00">/cast.hxx</text>
</a>
</g>
</g>
<!-- Node2 -->
<g id="Node000002" class="node">
<title>Node2</title>
<g id="a_Node000002"><a xlink:href="casting_8hxx.html" target="_top" xlink:title="Convenience header for all casting module components.">
<polygon fill="white" stroke="#666666" points="147,-19 0,-19 0,0 147,0 147,-19"/>
<text text-anchor="middle" x="73.5" y="-7" font-family="Helvetica,sans-Serif" font-size="10.00">include/corelib/casting.hxx</text>
</a>
</g>
</g>
<!-- Node1&#45;&gt;Node2 -->
<g id="edge1_Node000001_Node000002" class="edge">
<title>Node1&#45;&gt;Node2</title>
<g id="a_edge1_Node000001_Node000002"><a xlink:title=" ">
<path fill="none" stroke="#63b8ff" d="M59.82,-247.74C47.83,-239.99 36.2,-229.8 29.5,-217 -7.03,-147.17 48.84,-48.98 67.67,-19.32"/>
<polygon fill="#63b8ff" stroke="#63b8ff" points="58.17,-250.82 68.55,-252.95 61.76,-244.82 58.17,-250.82"/>
</a>
</g>
</g>
<!-- Node3 -->
<g id="Node000003" class="node">
<title>Node3</title>
<g id="a_Node000003"><a xlink:href="dyn__cast_8hxx.html" target="_top" xlink:title=" ">
<polygon fill="white" stroke="#666666" points="164.5,-217 38.5,-217 38.5,-187 164.5,-187 164.5,-217"/>
<text text-anchor="start" x="46.5" y="-205" font-family="Helvetica,sans-Serif" font-size="10.00">include/corelib/casting</text>
<text text-anchor="middle" x="101.5" y="-194" font-family="Helvetica,sans-Serif" font-size="10.00">/dyn_cast.hxx</text>
</a>
</g>
</g>
<!-- Node1&#45;&gt;Node3 -->
<g id="edge2_Node000001_Node000003" class="edge">
<title>Node1&#45;&gt;Node3</title>
<g id="a_edge2_Node000001_Node000003"><a xlink:title=" ">
<path fill="none" stroke="#63b8ff" d="M101.5,-242.54C101.5,-233.96 101.5,-224.61 101.5,-217.16"/>
<polygon fill="#63b8ff" stroke="#63b8ff" points="98,-242.8 101.5,-252.8 105,-242.8 98,-242.8"/>
</a>
</g>
</g>
<!-- Node4 -->
<g id="Node000004" class="node">
<title>Node4</title>
<g id="a_Node000004"><a xlink:href="detail_2casting_2predicates_8hxx.html" target="_top" xlink:title=" ">
<polygon fill="white" stroke="#666666" points="231.5,-151 101.5,-151 101.5,-121 231.5,-121 231.5,-151"/>
<text text-anchor="start" x="109.5" y="-139" font-family="Helvetica,sans-Serif" font-size="10.00">include/corelib/detail</text>
<text text-anchor="middle" x="166.5" y="-128" font-family="Helvetica,sans-Serif" font-size="10.00">/casting/predicates.hxx</text>
</a>
</g>
</g>
<!-- Node1&#45;&gt;Node4 -->
<g id="edge7_Node000001_Node000004" class="edge">
<title>Node1&#45;&gt;Node4</title>
<g id="a_edge7_Node000001_Node000004"><a xlink:title=" ">
<path fill="none" stroke="#63b8ff" d="M143.18,-247.74C155.17,-239.99 166.8,-229.8 173.5,-217 184.42,-196.12 177.87,-167.94 172.16,-151.2"/>
<polygon fill="#63b8ff" stroke="#63b8ff" points="141.24,-244.82 134.45,-252.95 144.83,-250.82 141.24,-244.82"/>
</a>
</g>
</g>
<!-- Node3&#45;&gt;Node2 -->
<g id="edge3_Node000003_Node000002" class="edge">
<title>Node3&#45;&gt;Node2</title>
<g id="a_edge3_Node000003_Node000002"><a xlink:title=" ">
<path fill="none" stroke="#63b8ff" d="M96.89,-176.61C95.41,-168.48 93.82,-159.36 92.5,-151 84.65,-101.16 77.19,-41.04 74.53,-19.07"/>
<polygon fill="#63b8ff" stroke="#63b8ff" points="93.47,-177.39 98.73,-186.59 100.36,-176.12 93.47,-177.39"/>
</a>
</g>
</g>
<!-- Node3&#45;&gt;Node4 -->
<g id="edge4_Node000003_Node000004" class="edge">
<title>Node3&#45;&gt;Node4</title>
<g id="a_edge4_Node000003_Node000004"><a xlink:title=" ">
<path fill="none" stroke="#63b8ff" d="M123.19,-179.65C132.71,-170.27 143.62,-159.53 152.11,-151.16"/>
<polygon fill="#63b8ff" stroke="#63b8ff" points="120.6,-177.29 115.93,-186.8 125.51,-182.27 120.6,-177.29"/>
</a>
</g>
</g>
<!-- Node5 -->
<g id="Node000005" class="node">
<title>Node5</title>
<g id="a_Node000005"><a xlink:href="casting_2predicates_8hxx.html" target="_top" xlink:title=" ">
<polygon fill="white" stroke="#666666" points="228.5,-85 102.5,-85 102.5,-55 228.5,-55 228.5,-85"/>
<text text-anchor="start" x="110.5" y="-73" font-family="Helvetica,sans-Serif" font-size="10.00">include/corelib/casting</text>
<text text-anchor="middle" x="165.5" y="-62" font-family="Helvetica,sans-Serif" font-size="10.00">/predicates.hxx</text>
</a>
</g>
</g>
<!-- Node4&#45;&gt;Node5 -->
<g id="edge5_Node000004_Node000005" class="edge">
<title>Node4&#45;&gt;Node5</title>
<g id="a_edge5_Node000004_Node000005"><a xlink:title=" ">
<path fill="none" stroke="#63b8ff" d="M166.12,-110.54C165.98,-101.96 165.84,-92.61 165.72,-85.16"/>
<polygon fill="#63b8ff" stroke="#63b8ff" points="162.62,-110.85 166.28,-120.8 169.62,-110.74 162.62,-110.85"/>
</a>
</g>
</g>
<!-- Node5&#45;&gt;Node2 -->
<g id="edge6_Node000005_Node000002" class="edge">
<title>Node5&#45;&gt;Node2</title>
<g id="a_edge6_Node000005_Node000002"><a xlink:title=" ">
<path fill="none" stroke="#63b8ff" d="M134.6,-49.35C118.44,-39.07 99.48,-27.02 87.02,-19.09"/>
<polygon fill="#63b8ff" stroke="#63b8ff" points="132.91,-52.43 143.23,-54.84 136.67,-46.52 132.91,-52.43"/>
</a>
</g>
</g>
</g>
</svg>
