<?xml version="1.0" encoding="UTF-8" standalone="no"?>
<!DOCTYPE svg PUBLIC "-//W3C//DTD SVG 1.1//EN"
 "http://www.w3.org/Graphics/SVG/1.1/DTD/svg11.dtd">
<!-- Generated by graphviz version 2.43.0 (0)
 -->
<!-- Title: include/corelib/casting/isa.hxx Pages: 1 -->
<svg width="297pt" height="357pt"
 viewBox="0.00 0.00 296.50 357.00" xmlns="http://www.w3.org/2000/svg" xmlns:xlink="http://www.w3.org/1999/xlink">
<g id="graph0" class="graph" transform="scale(1 1) rotate(0) translate(4 353)">
<title>include/corelib/casting/isa.hxx</title>
<!-- Node1 -->
<g id="Node000001" class="node">
<title>Node1</title>
<g id="a_Node000001"><a xlink:title=" ">
<polygon fill="#999999" stroke="#666666" points="208.5,-349 82.5,-349 82.5,-319 208.5,-319 208.5,-349"/>
<text text-anchor="start" x="90.5" y="-337" font-family="Helvetica,sans-Serif" font-size="10.00">include/corelib/casting</text>
<text text-anchor="middle" x="145.5" y="-326" font-family="Helvetica,sans-Serif" font-size="10.00">/isa.hxx</text>
</a>
</g>
</g>
<!-- Node2 -->
<g id="Node000002" class="node">
<title>Node2</title>
<g id="a_Node000002"><a xlink:href="casting_8hxx.html" target="_top" xlink:title="Convenience header for all casting module components.">
<polygon fill="white" stroke="#666666" points="147,-19 0,-19 0,0 147,0 147,-19"/>
<text text-anchor="middle" x="73.5" y="-7" font-family="Helvetica,sans-Serif" font-size="10.00">include/corelib/casting.hxx</text>
</a>
</g>
</g>
<!-- Node1&#45;&gt;Node2 -->
<g id="edge1_Node000001_Node000002" class="edge">
<title>Node1&#45;&gt;Node2</title>
<g id="a_edge1_Node000001_Node000002"><a xlink:title=" ">
<path fill="none" stroke="#63b8ff" d="M106.1,-314.13C68.17,-292.89 16.5,-254.51 16.5,-203 16.5,-203 16.5,-203 16.5,-135 16.5,-87.69 50.94,-38.7 66.28,-19.23"/>
<polygon fill="#63b8ff" stroke="#63b8ff" points="104.47,-317.22 114.93,-318.9 107.8,-311.07 104.47,-317.22"/>
</a>
</g>
</g>
<!-- Node3 -->
<g id="Node000003" class="node">
<title>Node3</title>
<g id="a_Node000003"><a xlink:href="casting_2cast_8hxx.html" target="_top" xlink:title=" ">
<polygon fill="white" stroke="#666666" points="208.5,-283 82.5,-283 82.5,-253 208.5,-253 208.5,-283"/>
<text text-anchor="start" x="90.5" y="-271" font-family="Helvetica,sans-Serif" font-size="10.00">include/corelib/casting</text>
<text text-anchor="middle" x="145.5" y="-260" font-family="Helvetica,sans-Serif" font-size="10.00">/cast.hxx</text>
</a>
</g>
</g>
<!-- Node1&#45;&gt;Node3 -->
<g id="edge2_Node000001_Node000003" class="edge">
<title>Node1&#45;&gt;Node3</title>
<g id="a_edge2_Node000001_Node000003"><a xlink:title=" ">
<path fill="none" stroke="#63b8ff" d="M145.5,-308.54C145.5,-299.96 145.5,-290.61 145.5,-283.16"/>
<polygon fill="#63b8ff" stroke="#63b8ff" points="142,-308.8 145.5,-318.8 149,-308.8 142,-308.8"/>
</a>
</g>
</g>
<!-- Node5 -->
<g id="Node000005" class="node">
<title>Node5</title>
<g id="a_Node000005"><a xlink:href="detail_2casting_2predicates_8hxx.html" target="_top" xlink:title=" ">
<polygon fill="white" stroke="#666666" points="288.5,-151 158.5,-151 158.5,-121 288.5,-121 288.5,-151"/>
<text text-anchor="start" x="166.5" y="-139" font-family="Helvetica,sans-Serif" font-size="10.00">include/corelib/detail</text>
<text text-anchor="middle" x="223.5" y="-128" font-family="Helvetica,sans-Serif" font-size="10.00">/casting/predicates.hxx</text>
</a>
</g>
</g>
<!-- Node1&#45;&gt;Node5 -->
<g id="edge10_Node000001_Node000005" class="edge">
<title>Node1&#45;&gt;Node5</title>
<g id="a_edge10_Node000001_Node000005"><a xlink:title=" ">
<path fill="none" stroke="#63b8ff" d="M183.73,-313.53C196.08,-305.57 208.81,-295.3 217.5,-283 242.55,-247.54 240.6,-230.11 235.5,-187 234.05,-174.77 230.68,-161.19 227.88,-151.28"/>
<polygon fill="#63b8ff" stroke="#63b8ff" points="181.59,-310.73 174.86,-318.92 185.23,-316.71 181.59,-310.73"/>
</a>
</g>
</g>
<!-- Node3&#45;&gt;Node2 -->
<g id="edge3_Node000003_Node000002" class="edge">
<title>Node3&#45;&gt;Node2</title>
<g id="a_edge3_Node000003_Node000002"><a xlink:title=" ">
<path fill="none" stroke="#63b8ff" d="M103.82,-247.74C91.83,-239.99 80.2,-229.8 73.5,-217 37.61,-148.38 62.28,-48.55 70.87,-19.02"/>
<polygon fill="#63b8ff" stroke="#63b8ff" points="102.17,-250.82 112.55,-252.95 105.76,-244.82 102.17,-250.82"/>
</a>
</g>
</g>
<!-- Node4 -->
<g id="Node000004" class="node">
<title>Node4</title>
<g id="a_Node000004"><a xlink:href="dyn__cast_8hxx.html" target="_top" xlink:title=" ">
<polygon fill="white" stroke="#666666" points="208.5,-217 82.5,-217 82.5,-187 208.5,-187 208.5,-217"/>
<text text-anchor="start" x="90.5" y="-205" font-family="Helvetica,sans-Serif" font-size="10.00">include/corelib/casting</text>
<text text-anchor="middle" x="145.5" y="-194" font-family="Helvetica,sans-Serif" font-size="10.00">/dyn_cast.hxx</text>
</a>
</g>
</g>
<!-- Node3&#45;&gt;Node4 -->
<g id="edge4_Node000003_Node000004" class="edge">
<title>Node3&#45;&gt;Node4</title>
<g id="a_edge4_Node000003_Node000004"><a xlink:title=" ">
<path fill="none" stroke="#63b8ff" d="M145.5,-242.54C145.5,-233.96 145.5,-224.61 145.5,-217.16"/>
<polygon fill="#63b8ff" stroke="#63b8ff" points="142,-242.8 145.5,-252.8 149,-242.8 142,-242.8"/>
</a>
</g>
</g>
<!-- Node3&#45;&gt;Node5 -->
<g id="edge9_Node000003_Node000005" class="edge">
<title>Node3&#45;&gt;Node5</title>
<g id="a_edge9_Node000003_Node000005"><a xlink:title=" ">
<path fill="none" stroke="#63b8ff" d="M186.31,-247.62C198.37,-239.83 210.27,-229.65 217.5,-217 229.25,-196.44 228.04,-167.91 225.9,-151.06"/>
<polygon fill="#63b8ff" stroke="#63b8ff" points="184.34,-244.73 177.57,-252.88 187.94,-250.73 184.34,-244.73"/>
</a>
</g>
</g>
<!-- Node4&#45;&gt;Node2 -->
<g id="edge5_Node000004_Node000002" class="edge">
<title>Node4&#45;&gt;Node2</title>
<g id="a_edge5_Node000004_Node000002"><a xlink:title=" ">
<path fill="none" stroke="#63b8ff" d="M136.61,-177.47C120.56,-135.02 87.46,-47.43 76.85,-19.36"/>
<polygon fill="#63b8ff" stroke="#63b8ff" points="133.4,-178.88 140.21,-186.99 139.94,-176.4 133.4,-178.88"/>
</a>
</g>
</g>
<!-- Node4&#45;&gt;Node5 -->
<g id="edge6_Node000004_Node000005" class="edge">
<title>Node4&#45;&gt;Node5</title>
<g id="a_edge6_Node000004_Node000005"><a xlink:title=" ">
<path fill="none" stroke="#63b8ff" d="M170.85,-180.2C182.43,-170.7 195.85,-159.69 206.24,-151.16"/>
<polygon fill="#63b8ff" stroke="#63b8ff" points="168.32,-177.75 162.81,-186.8 172.76,-183.16 168.32,-177.75"/>
</a>
</g>
</g>
<!-- Node6 -->
<g id="Node000006" class="node">
<title>Node6</title>
<g id="a_Node000006"><a xlink:href="casting_2predicates_8hxx.html" target="_top" xlink:title=" ">
<polygon fill="white" stroke="#666666" points="272.5,-85 146.5,-85 146.5,-55 272.5,-55 272.5,-85"/>
<text text-anchor="start" x="154.5" y="-73" font-family="Helvetica,sans-Serif" font-size="10.00">include/corelib/casting</text>
<text text-anchor="middle" x="209.5" y="-62" font-family="Helvetica,sans-Serif" font-size="10.00">/predicates.hxx</text>
</a>
</g>
</g>
<!-- Node5&#45;&gt;Node6 -->
<g id="edge7_Node000005_Node000006" class="edge">
<title>Node5&#45;&gt;Node6</title>
<g id="a_edge7_Node000005_Node000006"><a xlink:title=" ">
<path fill="none" stroke="#63b8ff" d="M218.21,-110.83C216.32,-102.17 214.25,-92.7 212.6,-85.16"/>
<polygon fill="#63b8ff" stroke="#63b8ff" points="214.84,-111.78 220.39,-120.8 221.68,-110.28 214.84,-111.78"/>
</a>
</g>
</g>
<!-- Node6&#45;&gt;Node2 -->
<g id="edge8_Node000006_Node000002" class="edge">
<title>Node6&#45;&gt;Node2</title>
<g id="a_edge8_Node000006_Node000002"><a xlink:title=" ">
<path fill="none" stroke="#63b8ff" d="M167.45,-50.91C142.87,-40.34 112.95,-27.47 93.58,-19.14"/>
<polygon fill="#63b8ff" stroke="#63b8ff" points="166.36,-54.25 176.92,-54.99 169.12,-47.82 166.36,-54.25"/>
</a>
</g>
</g>
</g>
</svg>
