<?xml version="1.0" encoding="UTF-8" standalone="no"?>
<!DOCTYPE svg PUBLIC "-//W3C//DTD SVG 1.1//EN"
 "http://www.w3.org/Graphics/SVG/1.1/DTD/svg11.dtd">
<!-- Generated by graphviz version 2.43.0 (0)
 -->
<!-- Title: include/corelib/casting.hxx Pages: 1 -->
<svg width="1198pt" height="654pt"
 viewBox="0.00 0.00 1198.08 654.00" xmlns="http://www.w3.org/2000/svg" xmlns:xlink="http://www.w3.org/1999/xlink">
<g id="graph0" class="graph" transform="scale(1 1) rotate(0) translate(4 650)">
<title>include/corelib/casting.hxx</title>
<!-- Node1 -->
<g id="Node000001" class="node">
<title>Node1</title>
<g id="a_Node000001"><a xlink:title="Convenience header for all casting module components.">
<polygon fill="#999999" stroke="#666666" points="531.77,-646 384.77,-646 384.77,-627 531.77,-627 531.77,-646"/>
<text text-anchor="middle" x="458.27" y="-634" font-family="Helvetica,sans-Serif" font-size="10.00">include/corelib/casting.hxx</text>
</a>
</g>
</g>
<!-- Node2 -->
<g id="Node000002" class="node">
<title>Node2</title>
<g id="a_Node000002"><a xlink:href="casting_2cast_8hxx.html" target="_top" xlink:title=" ">
<polygon fill="white" stroke="#666666" points="450.27,-404 318.27,-404 318.27,-385 450.27,-385 450.27,-404"/>
<text text-anchor="middle" x="384.27" y="-392" font-family="Helvetica,sans-Serif" font-size="10.00">corelib/casting/cast.hxx</text>
</a>
</g>
</g>
<!-- Node1&#45;&gt;Node2 -->
<g id="edge1_Node000001_Node000002" class="edge">
<title>Node1&#45;&gt;Node2</title>
<g id="a_edge1_Node000001_Node000002"><a xlink:title=" ">
<path fill="none" stroke="#63b8ff" d="M468.15,-626.75C476.66,-618.5 488.32,-605.3 493.27,-591 496.03,-583.02 495.57,-580.12 493.27,-572 474.65,-506.41 423.96,-441.31 398.81,-411.84"/>
<polygon fill="#63b8ff" stroke="#63b8ff" points="401.37,-409.44 392.17,-404.19 396.08,-414.03 401.37,-409.44"/>
</a>
</g>
</g>
<!-- Node5 -->
<g id="Node000005" class="node">
<title>Node5</title>
<g id="a_Node000005"><a xlink:href="casting_2isa_8hxx.html" target="_top" xlink:title=" ">
<polygon fill="white" stroke="#666666" points="923.27,-349 797.27,-349 797.27,-330 923.27,-330 923.27,-349"/>
<text text-anchor="middle" x="860.27" y="-337" font-family="Helvetica,sans-Serif" font-size="10.00">corelib/casting/isa.hxx</text>
</a>
</g>
</g>
<!-- Node1&#45;&gt;Node5 -->
<g id="edge54_Node000001_Node000005" class="edge">
<title>Node1&#45;&gt;Node5</title>
<g id="a_edge54_Node000001_Node000005"><a xlink:title=" ">
<path fill="none" stroke="#63b8ff" d="M531.81,-631.56C603.65,-623.27 702.27,-598.04 702.27,-522 702.27,-522 702.27,-522 702.27,-454 702.27,-398.03 768.47,-366.96 815.17,-352.01"/>
<polygon fill="#63b8ff" stroke="#63b8ff" points="816.27,-355.33 824.81,-349.06 814.22,-348.64 816.27,-355.33"/>
</a>
</g>
</g>
<!-- Node20 -->
<g id="Node000020" class="node">
<title>Node20</title>
<g id="a_Node000020"><a xlink:href="dyn__cast_8hxx.html" target="_top" xlink:title=" ">
<polygon fill="white" stroke="#666666" points="334.77,-470 225.77,-470 225.77,-440 334.77,-440 334.77,-470"/>
<text text-anchor="start" x="233.77" y="-458" font-family="Helvetica,sans-Serif" font-size="10.00">corelib/casting/dyn</text>
<text text-anchor="middle" x="280.27" y="-447" font-family="Helvetica,sans-Serif" font-size="10.00">_cast.hxx</text>
</a>
</g>
</g>
<!-- Node1&#45;&gt;Node20 -->
<g id="edge46_Node000001_Node000020" class="edge">
<title>Node1&#45;&gt;Node20</title>
<g id="a_edge46_Node000001_Node000020"><a xlink:title=" ">
<path fill="none" stroke="#63b8ff" d="M384.55,-628.23C358.5,-622.1 331.04,-611 312.27,-591 283.93,-560.81 279.22,-510.3 279.18,-480.37"/>
<polygon fill="#63b8ff" stroke="#63b8ff" points="282.68,-480.4 279.35,-470.35 275.68,-480.29 282.68,-480.4"/>
</a>
</g>
</g>
<!-- Node21 -->
<g id="Node000021" class="node">
<title>Node21</title>
<g id="a_Node000021"><a xlink:href="casting_2predicates_8hxx.html" target="_top" xlink:title=" ">
<polygon fill="white" stroke="#666666" points="484.77,-591 321.77,-591 321.77,-572 484.77,-572 484.77,-591"/>
<text text-anchor="middle" x="403.27" y="-579" font-family="Helvetica,sans-Serif" font-size="10.00">corelib/casting/predicates.hxx</text>
</a>
</g>
</g>
<!-- Node1&#45;&gt;Node21 -->
<g id="edge55_Node000001_Node000021" class="edge">
<title>Node1&#45;&gt;Node21</title>
<g id="a_edge55_Node000001_Node000021"><a xlink:title=" ">
<path fill="none" stroke="#63b8ff" d="M449.18,-626.75C441.18,-619.03 429.31,-607.6 419.65,-598.28"/>
<polygon fill="#63b8ff" stroke="#63b8ff" points="421.81,-595.51 412.18,-591.09 416.95,-600.55 421.81,-595.51"/>
</a>
</g>
</g>
<!-- Node3 -->
<g id="Node000003" class="node">
<title>Node3</title>
<g id="a_Node000003"><a xlink:title=" ">
<polygon fill="#e0e0e0" stroke="#999999" points="444.27,-156.5 386.27,-156.5 386.27,-137.5 444.27,-137.5 444.27,-156.5"/>
<text text-anchor="middle" x="415.27" y="-144.5" font-family="Helvetica,sans-Serif" font-size="10.00">memory</text>
</a>
</g>
</g>
<!-- Node2&#45;&gt;Node3 -->
<g id="edge2_Node000002_Node000003" class="edge">
<title>Node2&#45;&gt;Node3</title>
<g id="a_edge2_Node000002_Node000003"><a xlink:title=" ">
<path fill="none" stroke="#63b8ff" d="M385.37,-384.76C389.84,-349.34 406.68,-215.98 412.92,-166.57"/>
<polygon fill="#63b8ff" stroke="#63b8ff" points="416.4,-166.99 414.18,-156.63 409.45,-166.12 416.4,-166.99"/>
</a>
</g>
</g>
<!-- Node4 -->
<g id="Node000004" class="node">
<title>Node4</title>
<g id="a_Node000004"><a xlink:title=" ">
<polygon fill="#e0e0e0" stroke="#999999" points="329.77,-156.5 228.77,-156.5 228.77,-137.5 329.77,-137.5 329.77,-156.5"/>
<text text-anchor="middle" x="279.27" y="-144.5" font-family="Helvetica,sans-Serif" font-size="10.00">debug/assert.hxx</text>
</a>
</g>
</g>
<!-- Node2&#45;&gt;Node4 -->
<g id="edge3_Node000002_Node000004" class="edge">
<title>Node2&#45;&gt;Node4</title>
<g id="a_edge3_Node000002_Node000004"><a xlink:title=" ">
<path fill="none" stroke="#63b8ff" d="M380.06,-385C368.13,-360.76 333.34,-289.14 308.27,-228 299.8,-207.34 291.22,-183.2 285.62,-166.88"/>
<polygon fill="#63b8ff" stroke="#63b8ff" points="288.78,-165.31 282.25,-156.97 282.15,-167.56 288.78,-165.31"/>
</a>
</g>
</g>
<!-- Node2&#45;&gt;Node5 -->
<g id="edge4_Node000002_Node000005" class="edge">
<title>Node2&#45;&gt;Node5</title>
<g id="a_edge4_Node000002_Node000005"><a xlink:title=" ">
<path fill="none" stroke="#63b8ff" d="M450.45,-386.13C538.85,-376.29 694.95,-358.91 786.86,-348.67"/>
<polygon fill="#63b8ff" stroke="#63b8ff" points="787.37,-352.14 796.92,-347.55 786.59,-345.18 787.37,-352.14"/>
</a>
</g>
</g>
<!-- Node6 -->
<g id="Node000006" class="node">
<title>Node6</title>
<g id="a_Node000006"><a xlink:href="detail_2casting_2cast_8hxx.html" target="_top" xlink:title=" ">
<polygon fill="white" stroke="#666666" points="579.77,-294 460.77,-294 460.77,-264 579.77,-264 579.77,-294"/>
<text text-anchor="start" x="468.77" y="-282" font-family="Helvetica,sans-Serif" font-size="10.00">corelib/detail/casting</text>
<text text-anchor="middle" x="520.27" y="-271" font-family="Helvetica,sans-Serif" font-size="10.00">/cast.hxx</text>
</a>
</g>
</g>
<!-- Node2&#45;&gt;Node6 -->
<g id="edge42_Node000002_Node000006" class="edge">
<title>Node2&#45;&gt;Node6</title>
<g id="a_edge42_Node000002_Node000006"><a xlink:title=" ">
<path fill="none" stroke="#63b8ff" d="M394.49,-384.97C415.72,-367.25 465.12,-326.02 495.31,-300.83"/>
<polygon fill="#63b8ff" stroke="#63b8ff" points="497.84,-303.28 503.27,-294.18 493.35,-297.9 497.84,-303.28"/>
</a>
</g>
</g>
<!-- Node9 -->
<g id="Node000009" class="node">
<title>Node9</title>
<g id="a_Node000009"><a xlink:href="tracing_8hxx.html" target="_top" xlink:title=" ">
<polygon fill="white" stroke="#666666" points="520.27,-85 372.27,-85 372.27,-66 520.27,-66 520.27,-85"/>
<text text-anchor="middle" x="446.27" y="-73" font-family="Helvetica,sans-Serif" font-size="10.00">corelib/internal/tracing.hxx</text>
</a>
</g>
</g>
<!-- Node2&#45;&gt;Node9 -->
<g id="edge44_Node000002_Node000009" class="edge">
<title>Node2&#45;&gt;Node9</title>
<g id="a_edge44_Node000002_Node000009"><a xlink:title=" ">
<path fill="none" stroke="#63b8ff" d="M371.07,-384.95C320.61,-351.25 146.35,-224.9 219.27,-132 229.8,-118.58 324.54,-98.82 388.25,-86.86"/>
<polygon fill="#63b8ff" stroke="#63b8ff" points="389,-90.28 398.19,-85.01 387.72,-83.4 389,-90.28"/>
</a>
</g>
</g>
<!-- Node11 -->
<g id="Node000011" class="node">
<title>Node11</title>
<g id="a_Node000011"><a xlink:href="adapters_8hxx.html" target="_top" xlink:title=" ">
<polygon fill="white" stroke="#666666" points="793.77,-228 674.77,-228 674.77,-198 793.77,-198 793.77,-228"/>
<text text-anchor="start" x="682.77" y="-216" font-family="Helvetica,sans-Serif" font-size="10.00">corelib/detail/casting</text>
<text text-anchor="middle" x="734.27" y="-205" font-family="Helvetica,sans-Serif" font-size="10.00">/adapters.hxx</text>
</a>
</g>
</g>
<!-- Node2&#45;&gt;Node11 -->
<g id="edge41_Node000002_Node000011" class="edge">
<title>Node2&#45;&gt;Node11</title>
<g id="a_edge41_Node000002_Node000011"><a xlink:title=" ">
<path fill="none" stroke="#63b8ff" d="M402.8,-384.9C438.96,-368.04 521.3,-329.21 589.27,-294 627.85,-274.01 671.42,-249.74 700.63,-233.21"/>
<polygon fill="#63b8ff" stroke="#63b8ff" points="702.62,-236.11 709.59,-228.13 699.17,-230.02 702.62,-236.11"/>
</a>
</g>
</g>
<!-- Node13 -->
<g id="Node000013" class="node">
<title>Node13</title>
<g id="a_Node000013"><a xlink:href="traits_8hxx.html" target="_top" xlink:title=" ">
<polygon fill="white" stroke="#666666" points="985.77,-162 866.77,-162 866.77,-132 985.77,-132 985.77,-162"/>
<text text-anchor="start" x="874.77" y="-150" font-family="Helvetica,sans-Serif" font-size="10.00">corelib/detail/casting</text>
<text text-anchor="middle" x="926.27" y="-139" font-family="Helvetica,sans-Serif" font-size="10.00">/traits.hxx</text>
</a>
</g>
</g>
<!-- Node2&#45;&gt;Node13 -->
<g id="edge43_Node000002_Node000013" class="edge">
<title>Node2&#45;&gt;Node13</title>
<g id="a_edge43_Node000002_Node000013"><a xlink:title=" ">
<path fill="none" stroke="#63b8ff" d="M426.13,-384.98C510.54,-366.45 705.02,-316.87 845.27,-228 870.09,-212.27 893.4,-187.83 908.58,-170.1"/>
<polygon fill="#63b8ff" stroke="#63b8ff" points="911.62,-171.92 915.35,-162 906.25,-167.43 911.62,-171.92"/>
</a>
</g>
</g>
<!-- Node18 -->
<g id="Node000018" class="node">
<title>Node18</title>
<g id="a_Node000018"><a xlink:href="type__name_8hxx.html" target="_top" xlink:title=" ">
<polygon fill="white" stroke="#666666" points="172.27,-162 66.27,-162 66.27,-132 172.27,-132 172.27,-162"/>
<text text-anchor="start" x="74.27" y="-150" font-family="Helvetica,sans-Serif" font-size="10.00">corelib/utility/type</text>
<text text-anchor="middle" x="119.27" y="-139" font-family="Helvetica,sans-Serif" font-size="10.00">_name.hxx</text>
</a>
</g>
</g>
<!-- Node2&#45;&gt;Node18 -->
<g id="edge45_Node000002_Node000018" class="edge">
<title>Node2&#45;&gt;Node18</title>
<g id="a_edge45_Node000002_Node000018"><a xlink:title=" ">
<path fill="none" stroke="#63b8ff" d="M365.02,-384.87C320.97,-364.18 212.04,-307.48 152.27,-228 139.55,-211.1 130.84,-188.59 125.58,-171.76"/>
<polygon fill="#63b8ff" stroke="#63b8ff" points="128.92,-170.71 122.74,-162.11 122.2,-172.69 128.92,-170.71"/>
</a>
</g>
</g>
<!-- Node5&#45;&gt;Node6 -->
<g id="edge5_Node000005_Node000006" class="edge">
<title>Node5&#45;&gt;Node6</title>
<g id="a_edge5_Node000005_Node000006"><a xlink:title=" ">
<path fill="none" stroke="#63b8ff" d="M810.83,-329.99C752.58,-319.97 655.43,-303.26 589.66,-291.94"/>
<polygon fill="#63b8ff" stroke="#63b8ff" points="590.23,-288.49 579.78,-290.24 589.05,-295.39 590.23,-288.49"/>
</a>
</g>
</g>
<!-- Node5&#45;&gt;Node9 -->
<g id="edge40_Node000005_Node000009" class="edge">
<title>Node5&#45;&gt;Node9</title>
<g id="a_edge40_Node000005_Node000009"><a xlink:title=" ">
<path fill="none" stroke="#63b8ff" d="M858.58,-329.56C851.67,-295.83 822.07,-175.96 743.27,-132 677.85,-95.51 593,-82.46 530.75,-78.05"/>
<polygon fill="#63b8ff" stroke="#63b8ff" points="530.78,-74.55 520.58,-77.39 530.33,-81.53 530.78,-74.55"/>
</a>
</g>
</g>
<!-- Node5&#45;&gt;Node13 -->
<g id="edge39_Node000005_Node000013" class="edge">
<title>Node5&#45;&gt;Node13</title>
<g id="a_edge39_Node000005_Node000013"><a xlink:title=" ">
<path fill="none" stroke="#63b8ff" d="M875.89,-329.75C888.04,-322.04 904.16,-309.6 912.27,-294 932.45,-255.16 931.84,-202.66 929.26,-172.35"/>
<polygon fill="#63b8ff" stroke="#63b8ff" points="932.73,-171.86 928.26,-162.25 925.77,-172.55 932.73,-171.86"/>
</a>
</g>
</g>
<!-- Node6&#45;&gt;Node3 -->
<g id="edge6_Node000006_Node000003" class="edge">
<title>Node6&#45;&gt;Node3</title>
<g id="a_edge6_Node000006_Node000003"><a xlink:title=" ">
<path fill="none" stroke="#63b8ff" d="M494.4,-263.81C480.2,-254.99 463.13,-242.57 451.27,-228 436.28,-209.59 426.2,-183.94 420.6,-166.7"/>
<polygon fill="#63b8ff" stroke="#63b8ff" points="423.83,-165.28 417.57,-156.74 417.13,-167.32 423.83,-165.28"/>
</a>
</g>
</g>
<!-- Node6&#45;&gt;Node4 -->
<g id="edge9_Node000006_Node000004" class="edge">
<title>Node6&#45;&gt;Node4</title>
<g id="a_edge9_Node000006_Node000004"><a xlink:title=" ">
<path fill="none" stroke="#63b8ff" d="M460.65,-270.81C424.08,-264.18 377.64,-251.62 342.27,-228 318.33,-212.01 299.35,-183.99 288.71,-165.72"/>
<polygon fill="#63b8ff" stroke="#63b8ff" points="291.61,-163.73 283.68,-156.71 285.5,-167.15 291.61,-163.73"/>
</a>
</g>
</g>
<!-- Node7 -->
<g id="Node000007" class="node">
<title>Node7</title>
<g id="a_Node000007"><a xlink:title=" ">
<polygon fill="#e0e0e0" stroke="#999999" points="733.27,-85 677.27,-85 677.27,-66 733.27,-66 733.27,-85"/>
<text text-anchor="middle" x="705.27" y="-73" font-family="Helvetica,sans-Serif" font-size="10.00">optional</text>
</a>
</g>
</g>
<!-- Node6&#45;&gt;Node7 -->
<g id="edge7_Node000006_Node000007" class="edge">
<title>Node6&#45;&gt;Node7</title>
<g id="a_edge7_Node000006_Node000007"><a xlink:title=" ">
<path fill="none" stroke="#63b8ff" d="M552.12,-263.81C572.55,-254.37 599.43,-241.29 622.27,-228 642.72,-216.09 645.7,-209.72 666.27,-198 699.09,-179.3 722.98,-193.87 743.27,-162 757.71,-139.3 737.56,-110.18 721.53,-92.45"/>
<polygon fill="#63b8ff" stroke="#63b8ff" points="724.03,-90 714.59,-85.17 718.96,-94.83 724.03,-90"/>
</a>
</g>
</g>
<!-- Node8 -->
<g id="Node000008" class="node">
<title>Node8</title>
<g id="a_Node000008"><a xlink:title=" ">
<polygon fill="#e0e0e0" stroke="#999999" points="739.77,-19 670.77,-19 670.77,0 739.77,0 739.77,-19"/>
<text text-anchor="middle" x="705.27" y="-7" font-family="Helvetica,sans-Serif" font-size="10.00">type_traits</text>
</a>
</g>
</g>
<!-- Node6&#45;&gt;Node8 -->
<g id="edge8_Node000006_Node000008" class="edge">
<title>Node6&#45;&gt;Node8</title>
<g id="a_edge8_Node000006_Node000008"><a xlink:title=" ">
<path fill="none" stroke="#63b8ff" d="M549.32,-263.82C563.57,-255.37 579.69,-243.3 589.27,-228 612.26,-191.28 589.83,-172.09 606.27,-132 622.03,-93.56 632.43,-86.71 659.27,-55 667.95,-44.74 678.7,-34.24 687.62,-26.02"/>
<polygon fill="#63b8ff" stroke="#63b8ff" points="690.12,-28.48 695.19,-19.18 685.42,-23.29 690.12,-28.48"/>
</a>
</g>
</g>
<!-- Node6&#45;&gt;Node9 -->
<g id="edge10_Node000006_Node000009" class="edge">
<title>Node6&#45;&gt;Node9</title>
<g id="a_edge10_Node000006_Node000009"><a xlink:title=" ">
<path fill="none" stroke="#63b8ff" d="M486.86,-263.95C450.44,-246.38 394.98,-212.36 377.27,-162 372.84,-149.42 371.51,-144.03 377.27,-132 386.04,-113.69 404.13,-99.5 419.58,-90.05"/>
<polygon fill="#63b8ff" stroke="#63b8ff" points="421.36,-93.06 428.29,-85.04 417.87,-87 421.36,-93.06"/>
</a>
</g>
</g>
<!-- Node6&#45;&gt;Node11 -->
<g id="edge12_Node000006_Node000011" class="edge">
<title>Node6&#45;&gt;Node11</title>
<g id="a_edge12_Node000006_Node000011"><a xlink:title=" ">
<path fill="none" stroke="#63b8ff" d="M567.23,-263.95C599.7,-254.24 643.09,-241.27 677.5,-230.98"/>
<polygon fill="#63b8ff" stroke="#63b8ff" points="678.84,-234.23 687.41,-228.01 676.83,-227.52 678.84,-234.23"/>
</a>
</g>
</g>
<!-- Node6&#45;&gt;Node13 -->
<g id="edge38_Node000006_Node000013" class="edge">
<title>Node6&#45;&gt;Node13</title>
<g id="a_edge38_Node000006_Node000013"><a xlink:title=" ">
<path fill="none" stroke="#63b8ff" d="M579.86,-274.42C638.46,-269.31 729.59,-257.07 803.27,-228 840.2,-213.43 877.75,-186.95 901.48,-168.46"/>
<polygon fill="#63b8ff" stroke="#63b8ff" points="903.91,-171 909.57,-162.05 899.56,-165.51 903.91,-171"/>
</a>
</g>
</g>
<!-- Node17 -->
<g id="Node000017" class="node">
<title>Node17</title>
<g id="a_Node000017"><a xlink:href="detail_2casting_2isa_8hxx.html" target="_top" xlink:title=" ">
<polygon fill="white" stroke="#666666" points="579.77,-228 460.77,-228 460.77,-198 579.77,-198 579.77,-228"/>
<text text-anchor="start" x="468.77" y="-216" font-family="Helvetica,sans-Serif" font-size="10.00">corelib/detail/casting</text>
<text text-anchor="middle" x="520.27" y="-205" font-family="Helvetica,sans-Serif" font-size="10.00">/isa.hxx</text>
</a>
</g>
</g>
<!-- Node6&#45;&gt;Node17 -->
<g id="edge29_Node000006_Node000017" class="edge">
<title>Node6&#45;&gt;Node17</title>
<g id="a_edge29_Node000006_Node000017"><a xlink:title=" ">
<path fill="none" stroke="#63b8ff" d="M520.27,-263.8C520.27,-256.34 520.27,-246.99 520.27,-238.41"/>
<polygon fill="#63b8ff" stroke="#63b8ff" points="523.77,-238.16 520.27,-228.16 516.77,-238.16 523.77,-238.16"/>
</a>
</g>
</g>
<!-- Node10 -->
<g id="Node000010" class="node">
<title>Node10</title>
<g id="a_Node000010"><a xlink:title=" ">
<polygon fill="#e0e0e0" stroke="#999999" points="498.27,-19 394.27,-19 394.27,0 498.27,0 498.27,-19"/>
<text text-anchor="middle" x="446.27" y="-7" font-family="Helvetica,sans-Serif" font-size="10.00">debug/tracing.hxx</text>
</a>
</g>
</g>
<!-- Node9&#45;&gt;Node10 -->
<g id="edge11_Node000009_Node000010" class="edge">
<title>Node9&#45;&gt;Node10</title>
<g id="a_edge11_Node000009_Node000010"><a xlink:title=" ">
<path fill="none" stroke="#63b8ff" d="M446.27,-65.87C446.27,-56.66 446.27,-41.79 446.27,-29.77"/>
<polygon fill="#63b8ff" stroke="#63b8ff" points="449.77,-29.41 446.27,-19.41 442.77,-29.41 449.77,-29.41"/>
</a>
</g>
</g>
<!-- Node11&#45;&gt;Node3 -->
<g id="edge13_Node000011_Node000003" class="edge">
<title>Node11&#45;&gt;Node3</title>
<g id="a_edge13_Node000011_Node000003"><a xlink:title=" ">
<path fill="none" stroke="#63b8ff" d="M674.64,-200.04C610.26,-187.12 509.56,-166.92 454.49,-155.87"/>
<polygon fill="#63b8ff" stroke="#63b8ff" points="454.93,-152.39 444.43,-153.85 453.55,-159.25 454.93,-152.39"/>
</a>
</g>
</g>
<!-- Node11&#45;&gt;Node7 -->
<g id="edge14_Node000011_Node000007" class="edge">
<title>Node11&#45;&gt;Node7</title>
<g id="a_edge14_Node000011_Node000007"><a xlink:title=" ">
<path fill="none" stroke="#63b8ff" d="M772.45,-197.99C788.36,-190.03 805.22,-178.33 814.27,-162 820.73,-150.34 821.24,-143.37 814.27,-132 811.89,-128.12 763.9,-104.59 732.4,-89.44"/>
<polygon fill="#63b8ff" stroke="#63b8ff" points="733.75,-86.2 723.22,-85.04 730.72,-92.52 733.75,-86.2"/>
</a>
</g>
</g>
<!-- Node11&#45;&gt;Node8 -->
<g id="edge15_Node000011_Node000008" class="edge">
<title>Node11&#45;&gt;Node8</title>
<g id="a_edge15_Node000011_Node000008"><a xlink:title=" ">
<path fill="none" stroke="#63b8ff" d="M793.79,-210.2C936.49,-203.91 1278.32,-176.13 1168.27,-55 1140.45,-24.38 860.58,-14.27 749.94,-11.45"/>
<polygon fill="#63b8ff" stroke="#63b8ff" points="749.85,-7.95 739.77,-11.2 749.68,-14.95 749.85,-7.95"/>
</a>
</g>
</g>
<!-- Node11&#45;&gt;Node9 -->
<g id="edge28_Node000011_Node000009" class="edge">
<title>Node11&#45;&gt;Node9</title>
<g id="a_edge28_Node000011_Node000009"><a xlink:title=" ">
<path fill="none" stroke="#63b8ff" d="M694.83,-197.97C669.27,-188.54 635.41,-175.42 606.27,-162 556.49,-139.08 500.46,-107.82 469.68,-90.14"/>
<polygon fill="#63b8ff" stroke="#63b8ff" points="471.38,-87.08 460.97,-85.12 467.88,-93.15 471.38,-87.08"/>
</a>
</g>
</g>
<!-- Node12 -->
<g id="Node000012" class="node">
<title>Node12</title>
<g id="a_Node000012"><a xlink:href="forwarding_8hxx.html" target="_top" xlink:title=" ">
<polygon fill="white" stroke="#666666" points="733.77,-162 614.77,-162 614.77,-132 733.77,-132 733.77,-162"/>
<text text-anchor="start" x="622.77" y="-150" font-family="Helvetica,sans-Serif" font-size="10.00">corelib/detail/casting</text>
<text text-anchor="middle" x="674.27" y="-139" font-family="Helvetica,sans-Serif" font-size="10.00">/forwarding.hxx</text>
</a>
</g>
</g>
<!-- Node11&#45;&gt;Node12 -->
<g id="edge16_Node000011_Node000012" class="edge">
<title>Node11&#45;&gt;Node12</title>
<g id="a_edge16_Node000011_Node000012"><a xlink:title=" ">
<path fill="none" stroke="#63b8ff" d="M720.95,-197.8C713.18,-189.51 703.23,-178.89 694.51,-169.59"/>
<polygon fill="#63b8ff" stroke="#63b8ff" points="696.94,-167.07 687.55,-162.16 691.83,-171.85 696.94,-167.07"/>
</a>
</g>
</g>
<!-- Node11&#45;&gt;Node13 -->
<g id="edge19_Node000011_Node000013" class="edge">
<title>Node11&#45;&gt;Node13</title>
<g id="a_edge19_Node000011_Node000013"><a xlink:title=" ">
<path fill="none" stroke="#63b8ff" d="M776.4,-197.95C805.29,-188.33 843.79,-175.49 874.54,-165.24"/>
<polygon fill="#63b8ff" stroke="#63b8ff" points="875.85,-168.5 884.23,-162.01 873.64,-161.85 875.85,-168.5"/>
</a>
</g>
</g>
<!-- Node12&#45;&gt;Node8 -->
<g id="edge17_Node000012_Node000008" class="edge">
<title>Node12&#45;&gt;Node8</title>
<g id="a_edge17_Node000012_Node000008"><a xlink:title=" ">
<path fill="none" stroke="#63b8ff" d="M669.93,-131.95C665.04,-113.64 658.9,-80.91 668.27,-55 672.21,-44.09 680.13,-33.96 687.63,-26.14"/>
<polygon fill="#63b8ff" stroke="#63b8ff" points="690.1,-28.61 694.83,-19.13 685.22,-23.6 690.1,-28.61"/>
</a>
</g>
</g>
<!-- Node12&#45;&gt;Node9 -->
<g id="edge18_Node000012_Node000009" class="edge">
<title>Node12&#45;&gt;Node9</title>
<g id="a_edge18_Node000012_Node000009"><a xlink:title=" ">
<path fill="none" stroke="#63b8ff" d="M628.13,-131.94C585.75,-119.02 523.71,-100.11 484.16,-88.05"/>
<polygon fill="#63b8ff" stroke="#63b8ff" points="484.96,-84.64 474.37,-85.07 482.92,-91.33 484.96,-84.64"/>
</a>
</g>
</g>
<!-- Node13&#45;&gt;Node7 -->
<g id="edge21_Node000013_Node000007" class="edge">
<title>Node13&#45;&gt;Node7</title>
<g id="a_edge21_Node000013_Node000007"><a xlink:title=" ">
<path fill="none" stroke="#63b8ff" d="M866.65,-131.93C831.46,-122.99 786.32,-110.41 747.27,-96 742.12,-94.1 736.73,-91.83 731.6,-89.52"/>
<polygon fill="#63b8ff" stroke="#63b8ff" points="732.71,-86.17 722.17,-85.11 729.74,-92.51 732.71,-86.17"/>
</a>
</g>
</g>
<!-- Node13&#45;&gt;Node8 -->
<g id="edge22_Node000013_Node000008" class="edge">
<title>Node13&#45;&gt;Node8</title>
<g id="a_edge22_Node000013_Node000008"><a xlink:title=" ">
<path fill="none" stroke="#63b8ff" d="M866.66,-132.87C839.15,-125.01 806.97,-113.14 781.27,-96 773.8,-91.02 738.97,-50.43 719.16,-27.01"/>
<polygon fill="#63b8ff" stroke="#63b8ff" points="721.74,-24.64 712.61,-19.26 716.39,-29.16 721.74,-24.64"/>
</a>
</g>
</g>
<!-- Node13&#45;&gt;Node9 -->
<g id="edge23_Node000013_Node000009" class="edge">
<title>Node13&#45;&gt;Node9</title>
<g id="a_edge23_Node000013_Node000009"><a xlink:title=" ">
<path fill="none" stroke="#63b8ff" d="M866.45,-137.34C777.21,-124.42 609.67,-100.16 515.35,-86.5"/>
<polygon fill="#63b8ff" stroke="#63b8ff" points="515.73,-83.02 505.33,-85.05 514.73,-89.95 515.73,-83.02"/>
</a>
</g>
</g>
<!-- Node14 -->
<g id="Node000014" class="node">
<title>Node14</title>
<g id="a_Node000014"><a xlink:title=" ">
<polygon fill="#e0e0e0" stroke="#999999" points="1158.77,-85 1105.77,-85 1105.77,-66 1158.77,-66 1158.77,-85"/>
<text text-anchor="middle" x="1132.27" y="-73" font-family="Helvetica,sans-Serif" font-size="10.00">cstddef</text>
</a>
</g>
</g>
<!-- Node13&#45;&gt;Node14 -->
<g id="edge20_Node000013_Node000014" class="edge">
<title>Node13&#45;&gt;Node14</title>
<g id="a_edge20_Node000013_Node000014"><a xlink:title=" ">
<path fill="none" stroke="#63b8ff" d="M985.96,-132.05C1019.33,-123.39 1061.32,-111.05 1097.27,-96 1101.38,-94.28 1105.63,-92.19 1109.69,-90.04"/>
<polygon fill="#63b8ff" stroke="#63b8ff" points="1111.64,-92.96 1118.66,-85.02 1108.22,-86.85 1111.64,-92.96"/>
</a>
</g>
</g>
<!-- Node15 -->
<g id="Node000015" class="node">
<title>Node15</title>
<g id="a_Node000015"><a xlink:href="add__const__past__pointer_8hxx.html" target="_top" xlink:title=" ">
<polygon fill="white" stroke="#666666" points="944.77,-90.5 789.77,-90.5 789.77,-60.5 944.77,-60.5 944.77,-90.5"/>
<text text-anchor="start" x="797.77" y="-78.5" font-family="Helvetica,sans-Serif" font-size="10.00">corelib/type_traits</text>
<text text-anchor="middle" x="867.27" y="-67.5" font-family="Helvetica,sans-Serif" font-size="10.00">/add_const_past_pointer.hxx</text>
</a>
</g>
</g>
<!-- Node13&#45;&gt;Node15 -->
<g id="edge24_Node000013_Node000015" class="edge">
<title>Node13&#45;&gt;Node15</title>
<g id="a_edge24_Node000013_Node000015"><a xlink:title=" ">
<path fill="none" stroke="#63b8ff" d="M914.33,-131.94C906.17,-122.33 895.2,-109.4 885.9,-98.45"/>
<polygon fill="#63b8ff" stroke="#63b8ff" points="888.33,-95.9 879.19,-90.54 882.99,-100.43 888.33,-95.9"/>
</a>
</g>
</g>
<!-- Node16 -->
<g id="Node000016" class="node">
<title>Node16</title>
<g id="a_Node000016"><a xlink:href="add__lvalue__reference__if__not__pointer_8hxx.html" target="_top" xlink:title=" ">
<polygon fill="white" stroke="#666666" points="1087.77,-96 962.77,-96 962.77,-55 1087.77,-55 1087.77,-96"/>
<text text-anchor="start" x="970.77" y="-84" font-family="Helvetica,sans-Serif" font-size="10.00">corelib/type_traits</text>
<text text-anchor="start" x="970.77" y="-73" font-family="Helvetica,sans-Serif" font-size="10.00">/add_lvalue_reference</text>
<text text-anchor="middle" x="1025.27" y="-62" font-family="Helvetica,sans-Serif" font-size="10.00">_if_not_pointer.hxx</text>
</a>
</g>
</g>
<!-- Node13&#45;&gt;Node16 -->
<g id="edge26_Node000013_Node000016" class="edge">
<title>Node13&#45;&gt;Node16</title>
<g id="a_edge26_Node000013_Node000016"><a xlink:title=" ">
<path fill="none" stroke="#63b8ff" d="M946.3,-131.94C958.58,-123.31 974.66,-112.02 989.11,-101.88"/>
<polygon fill="#63b8ff" stroke="#63b8ff" points="991.21,-104.68 997.39,-96.07 987.19,-98.95 991.21,-104.68"/>
</a>
</g>
</g>
<!-- Node15&#45;&gt;Node8 -->
<g id="edge25_Node000015_Node000008" class="edge">
<title>Node15&#45;&gt;Node8</title>
<g id="a_edge25_Node000015_Node000008"><a xlink:title=" ">
<path fill="none" stroke="#63b8ff" d="M831.72,-60.45C803.18,-49.18 763.52,-33.51 736.26,-22.75"/>
<polygon fill="#63b8ff" stroke="#63b8ff" points="737.41,-19.44 726.83,-19.02 734.84,-25.95 737.41,-19.44"/>
</a>
</g>
</g>
<!-- Node16&#45;&gt;Node8 -->
<g id="edge27_Node000016_Node000008" class="edge">
<title>Node16&#45;&gt;Node8</title>
<g id="a_edge27_Node000016_Node000008"><a xlink:title=" ">
<path fill="none" stroke="#63b8ff" d="M962.63,-56.96C959.81,-56.28 957.01,-55.62 954.27,-55 883.49,-38.99 800.34,-25.11 750.27,-17.28"/>
<polygon fill="#63b8ff" stroke="#63b8ff" points="750.53,-13.77 740.11,-15.7 749.45,-20.69 750.53,-13.77"/>
</a>
</g>
</g>
<!-- Node17&#45;&gt;Node3 -->
<g id="edge30_Node000017_Node000003" class="edge">
<title>Node17&#45;&gt;Node3</title>
<g id="a_edge30_Node000017_Node000003"><a xlink:title=" ">
<path fill="none" stroke="#63b8ff" d="M497.22,-197.95C479.7,-187.27 455.71,-172.65 438.21,-161.98"/>
<polygon fill="#63b8ff" stroke="#63b8ff" points="439.6,-158.73 429.24,-156.52 435.96,-164.71 439.6,-158.73"/>
</a>
</g>
</g>
<!-- Node17&#45;&gt;Node4 -->
<g id="edge32_Node000017_Node000004" class="edge">
<title>Node17&#45;&gt;Node4</title>
<g id="a_edge32_Node000017_Node000004"><a xlink:title=" ">
<path fill="none" stroke="#63b8ff" d="M467.38,-197.95C423.44,-186.29 361.76,-169.91 321.18,-159.13"/>
<polygon fill="#63b8ff" stroke="#63b8ff" points="321.9,-155.7 311.34,-156.52 320.11,-162.47 321.9,-155.7"/>
</a>
</g>
</g>
<!-- Node17&#45;&gt;Node8 -->
<g id="edge31_Node000017_Node000008" class="edge">
<title>Node17&#45;&gt;Node8</title>
<g id="a_edge31_Node000017_Node000008"><a xlink:title=" ">
<path fill="none" stroke="#63b8ff" d="M520.88,-197.67C522.97,-167.16 532.13,-95.26 572.27,-55 595.62,-31.58 631.63,-20.49 660.29,-15.23"/>
<polygon fill="#63b8ff" stroke="#63b8ff" points="661.19,-18.63 670.48,-13.55 660.05,-11.72 661.19,-18.63"/>
</a>
</g>
</g>
<!-- Node17&#45;&gt;Node9 -->
<g id="edge34_Node000017_Node000009" class="edge">
<title>Node17&#45;&gt;Node9</title>
<g id="a_edge34_Node000017_Node000009"><a xlink:title=" ">
<path fill="none" stroke="#63b8ff" d="M512.49,-197.76C498.87,-172.81 470.73,-121.3 455.9,-94.14"/>
<polygon fill="#63b8ff" stroke="#63b8ff" points="458.79,-92.13 450.93,-85.03 452.65,-95.49 458.79,-92.13"/>
</a>
</g>
</g>
<!-- Node17&#45;&gt;Node13 -->
<g id="edge33_Node000017_Node000013" class="edge">
<title>Node17&#45;&gt;Node13</title>
<g id="a_edge33_Node000017_Node000013"><a xlink:title=" ">
<path fill="none" stroke="#63b8ff" d="M580.17,-202.56C653.74,-190.96 778.33,-171.32 856.24,-159.04"/>
<polygon fill="#63b8ff" stroke="#63b8ff" points="857.11,-162.44 866.45,-157.43 856.02,-155.53 857.11,-162.44"/>
</a>
</g>
</g>
<!-- Node17&#45;&gt;Node18 -->
<g id="edge35_Node000017_Node000018" class="edge">
<title>Node17&#45;&gt;Node18</title>
<g id="a_edge35_Node000017_Node000018"><a xlink:title=" ">
<path fill="none" stroke="#63b8ff" d="M460.67,-202.49C386.02,-190.57 258.69,-170.25 182.41,-158.08"/>
<polygon fill="#63b8ff" stroke="#63b8ff" points="182.89,-154.61 172.46,-156.49 181.78,-161.52 182.89,-154.61"/>
</a>
</g>
</g>
<!-- Node18&#45;&gt;Node8 -->
<g id="edge37_Node000018_Node000008" class="edge">
<title>Node18&#45;&gt;Node8</title>
<g id="a_edge37_Node000018_Node000008"><a xlink:title=" ">
<path fill="none" stroke="#63b8ff" d="M150.13,-131.88C195.74,-111.62 284.28,-74.6 363.27,-55 467.8,-29.07 594.28,-17.61 660.26,-13.08"/>
<polygon fill="#63b8ff" stroke="#63b8ff" points="660.57,-16.57 670.32,-12.42 660.11,-9.59 660.57,-16.57"/>
</a>
</g>
</g>
<!-- Node19 -->
<g id="Node000019" class="node">
<title>Node19</title>
<g id="a_Node000019"><a xlink:title=" ">
<polygon fill="#e0e0e0" stroke="#999999" points="155.77,-85 82.77,-85 82.77,-66 155.77,-66 155.77,-85"/>
<text text-anchor="middle" x="119.27" y="-73" font-family="Helvetica,sans-Serif" font-size="10.00">string_view</text>
</a>
</g>
</g>
<!-- Node18&#45;&gt;Node19 -->
<g id="edge36_Node000018_Node000019" class="edge">
<title>Node18&#45;&gt;Node19</title>
<g id="a_edge36_Node000018_Node000019"><a xlink:title=" ">
<path fill="none" stroke="#63b8ff" d="M119.27,-131.94C119.27,-121.46 119.27,-107.05 119.27,-95.55"/>
<polygon fill="#63b8ff" stroke="#63b8ff" points="122.77,-95.27 119.27,-85.27 115.77,-95.27 122.77,-95.27"/>
</a>
</g>
</g>
<!-- Node20&#45;&gt;Node2 -->
<g id="edge49_Node000020_Node000002" class="edge">
<title>Node20&#45;&gt;Node2</title>
<g id="a_edge49_Node000020_Node000002"><a xlink:title=" ">
<path fill="none" stroke="#63b8ff" d="M305.18,-439.99C321.75,-430.66 343.43,-418.47 359.89,-409.21"/>
<polygon fill="#63b8ff" stroke="#63b8ff" points="361.91,-412.09 368.91,-404.14 358.48,-405.99 361.91,-412.09"/>
</a>
</g>
</g>
<!-- Node20&#45;&gt;Node3 -->
<g id="edge47_Node000020_Node000003" class="edge">
<title>Node20&#45;&gt;Node3</title>
<g id="a_edge47_Node000020_Node000003"><a xlink:title=" ">
<path fill="none" stroke="#63b8ff" d="M281.71,-439.95C283.44,-425.79 286.93,-403.45 293.27,-385 323.07,-298.22 379.89,-203.69 404,-165.48"/>
<polygon fill="#63b8ff" stroke="#63b8ff" points="407.22,-166.94 409.64,-156.63 401.32,-163.18 407.22,-166.94"/>
</a>
</g>
</g>
<!-- Node20&#45;&gt;Node4 -->
<g id="edge48_Node000020_Node000004" class="edge">
<title>Node20&#45;&gt;Node4</title>
<g id="a_edge48_Node000020_Node000004"><a xlink:title=" ">
<path fill="none" stroke="#63b8ff" d="M234.62,-439.87C217.6,-432.14 200.06,-420.64 190.27,-404 158.71,-350.37 174.2,-324.11 190.27,-264 201.59,-221.63 238.17,-183.61 260.76,-163.37"/>
<polygon fill="#63b8ff" stroke="#63b8ff" points="263.13,-165.95 268.37,-156.74 258.53,-160.67 263.13,-165.95"/>
</a>
</g>
</g>
<!-- Node20&#45;&gt;Node6 -->
<g id="edge50_Node000020_Node000006" class="edge">
<title>Node20&#45;&gt;Node6</title>
<g id="a_edge50_Node000020_Node000006"><a xlink:title=" ">
<path fill="none" stroke="#63b8ff" d="M283.09,-439.97C286.79,-424.78 294.6,-400.64 309.27,-385 350.17,-341.4 413.11,-313.36 459.62,-297.33"/>
<polygon fill="#63b8ff" stroke="#63b8ff" points="460.91,-300.59 469.27,-294.09 458.68,-293.95 460.91,-300.59"/>
</a>
</g>
</g>
<!-- Node20&#45;&gt;Node9 -->
<g id="edge52_Node000020_Node000009" class="edge">
<title>Node20&#45;&gt;Node9</title>
<g id="a_edge52_Node000020_Node000009"><a xlink:title=" ">
<path fill="none" stroke="#63b8ff" d="M225.62,-443.43C144.13,-426.07 0.27,-388.63 0.27,-340.5 0.27,-340.5 0.27,-340.5 0.27,-212 0.27,-174.88 -4,-156.06 24.27,-132 49.46,-110.56 245.94,-91.95 361.72,-82.71"/>
<polygon fill="#63b8ff" stroke="#63b8ff" points="362.28,-86.18 371.97,-81.9 361.73,-79.2 362.28,-86.18"/>
</a>
</g>
</g>
<!-- Node20&#45;&gt;Node13 -->
<g id="edge51_Node000020_Node000013" class="edge">
<title>Node20&#45;&gt;Node13</title>
<g id="a_edge51_Node000020_Node000013"><a xlink:title=" ">
<path fill="none" stroke="#63b8ff" d="M335.01,-450.81C498.89,-440.54 974.27,-405.17 974.27,-340.5 974.27,-340.5 974.27,-340.5 974.27,-278 974.27,-238.53 954.56,-196.27 940.4,-170.99"/>
<polygon fill="#63b8ff" stroke="#63b8ff" points="943.33,-169.08 935.3,-162.18 937.28,-172.59 943.33,-169.08"/>
</a>
</g>
</g>
<!-- Node20&#45;&gt;Node18 -->
<g id="edge53_Node000020_Node000018" class="edge">
<title>Node20&#45;&gt;Node18</title>
<g id="a_edge53_Node000020_Node000018"><a xlink:title=" ">
<path fill="none" stroke="#63b8ff" d="M225.57,-445.26C169.44,-432.81 90.27,-403.99 90.27,-340.5 90.27,-340.5 90.27,-340.5 90.27,-278 90.27,-240.2 102.09,-197.66 110.64,-171.85"/>
<polygon fill="#63b8ff" stroke="#63b8ff" points="114.02,-172.79 113.95,-162.2 107.4,-170.52 114.02,-172.79"/>
</a>
</g>
</g>
<!-- Node22 -->
<g id="Node000022" class="node">
<title>Node22</title>
<g id="a_Node000022"><a xlink:href="detail_2casting_2predicates_8hxx.html" target="_top" xlink:title=" ">
<polygon fill="white" stroke="#666666" points="443.77,-536 324.77,-536 324.77,-506 443.77,-506 443.77,-536"/>
<text text-anchor="start" x="332.77" y="-524" font-family="Helvetica,sans-Serif" font-size="10.00">corelib/detail/casting</text>
<text text-anchor="middle" x="384.27" y="-513" font-family="Helvetica,sans-Serif" font-size="10.00">/predicates.hxx</text>
</a>
</g>
</g>
<!-- Node21&#45;&gt;Node22 -->
<g id="edge56_Node000021_Node000022" class="edge">
<title>Node21&#45;&gt;Node22</title>
<g id="a_edge56_Node000021_Node000022"><a xlink:title=" ">
<path fill="none" stroke="#63b8ff" d="M400.46,-571.87C398.22,-564.96 394.96,-554.93 391.95,-545.67"/>
<polygon fill="#63b8ff" stroke="#63b8ff" points="395.27,-544.54 388.85,-536.11 388.61,-546.71 395.27,-544.54"/>
</a>
</g>
</g>
<!-- Node22&#45;&gt;Node2 -->
<g id="edge57_Node000022_Node000002" class="edge">
<title>Node22&#45;&gt;Node2</title>
<g id="a_edge57_Node000022_Node000002"><a xlink:title=" ">
<path fill="none" stroke="#63b8ff" d="M384.27,-505.72C384.27,-483.12 384.27,-439.12 384.27,-414.09"/>
<polygon fill="#63b8ff" stroke="#63b8ff" points="387.77,-414.07 384.27,-404.07 380.77,-414.07 387.77,-414.07"/>
</a>
</g>
</g>
<!-- Node22&#45;&gt;Node5 -->
<g id="edge59_Node000022_Node000005" class="edge">
<title>Node22&#45;&gt;Node5</title>
<g id="a_edge59_Node000022_Node000005"><a xlink:title=" ">
<path fill="none" stroke="#63b8ff" d="M411.73,-505.96C464.3,-479.49 583.3,-421.6 688.27,-385 728.29,-371.04 774.92,-359.25 809.51,-351.31"/>
<polygon fill="#63b8ff" stroke="#63b8ff" points="810.41,-354.7 819.39,-349.08 808.87,-347.87 810.41,-354.7"/>
</a>
</g>
</g>
<!-- Node22&#45;&gt;Node9 -->
<g id="edge60_Node000022_Node000009" class="edge">
<title>Node22&#45;&gt;Node9</title>
<g id="a_edge60_Node000022_Node000009"><a xlink:title=" ">
<path fill="none" stroke="#63b8ff" d="M324.39,-511.08C225.36,-494.63 38.27,-455.59 38.27,-395.5 38.27,-395.5 38.27,-395.5 38.27,-212 38.27,-175.46 30.27,-156.63 57.27,-132 79.39,-111.82 254.16,-93.21 361.78,-83.51"/>
<polygon fill="#63b8ff" stroke="#63b8ff" points="362.33,-86.98 371.98,-82.6 361.71,-80.01 362.33,-86.98"/>
</a>
</g>
</g>
<!-- Node22&#45;&gt;Node20 -->
<g id="edge58_Node000022_Node000020" class="edge">
<title>Node22&#45;&gt;Node20</title>
<g id="a_edge58_Node000022_Node000020"><a xlink:title=" ">
<path fill="none" stroke="#63b8ff" d="M361.44,-505.95C346.81,-496.95 327.63,-485.14 311.58,-475.27"/>
<polygon fill="#63b8ff" stroke="#63b8ff" points="313.39,-472.27 303.04,-470.01 309.72,-478.23 313.39,-472.27"/>
</a>
</g>
</g>
</g>
</svg>
