<?xml version="1.0" encoding="UTF-8" standalone="no"?>
<!DOCTYPE svg PUBLIC "-//W3C//DTD SVG 1.1//EN"
 "http://www.w3.org/Graphics/SVG/1.1/DTD/svg11.dtd">
<!-- Generated by graphviz version 2.43.0 (0)
 -->
<!-- Title: include/corelib/casting/isa.hxx Pages: 1 -->
<!--zoomable 368 -->

<svg id="main" version="1.1" xmlns="http://www.w3.org/2000/svg" xmlns:xlink="http://www.w3.org/1999/xlink" xml:space="preserve" onload="init(evt)">
<style type="text/css"><![CDATA[
.node, .edge {opacity: 0.7;}
.node.selected, .edge.selected {opacity: 1;}
.edge:hover path { stroke: red; }
.edge:hover polygon { stroke: red; fill: red; }
]]></style>

<defs>
  <circle id="rim" cx="0" cy="0" r="7"/>
  <circle id="rim2" cx="0" cy="0" r="3.5"/>
  <g id="zoomPlus">
    <use xlink:href="#rim" fill="#404040"><set attributeName="fill" to="#808080" begin="zoomplus.mouseover" end="zoomplus.mouseout"/></use>
    <path d="M-4,0h8M0,-4v8" fill="none" stroke="white" stroke-width="1.5" pointer-events="none"/>
  </g>
  <g id="zoomMin">
    <use xlink:href="#rim" fill="#404040"><set attributeName="fill" to="#808080" begin="zoomminus.mouseover" end="zoomminus.mouseout"/></use>
    <path d="M-4,0h8" fill="none" stroke="white" stroke-width="1.5" pointer-events="none"/>
  </g>
  <g id="arrowUp" transform="translate(30 24)">
    <use xlink:href="#rim"/>
    <path pointer-events="none" fill="none" stroke="white" stroke-width="1.5" d="M0,-3.0v7 M-2.5,-0.5L0,-3.0L2.5,-0.5"/>
  </g>
  <g id="arrowRight" transform="rotate(90) translate(36 -43)">
    <use xlink:href="#rim"/>
    <path pointer-events="none" fill="none" stroke="white" stroke-width="1.5" d="M0,-3.0v7 M-2.5,-0.5L0,-3.0L2.5,-0.5"/>
  </g>
  <g id="arrowDown" transform="rotate(180) translate(-30 -48)">
    <use xlink:href="#rim"/>
    <path pointer-events="none" fill="none" stroke="white" stroke-width="1.5" d="M0,-3.0v7 M-2.5,-0.5L0,-3.0L2.5,-0.5"/>
  </g>
  <g id="arrowLeft" transform="rotate(270) translate(-36 17)">
    <use xlink:href="#rim"/>
    <path pointer-events="none" fill="none" stroke="white" stroke-width="1.5" d="M0,-3.0v7 M-2.5,-0.5L0,-3.0L2.5,-0.5"/>
  </g>
  <g id="resetDef">
    <use xlink:href="#rim2" fill="#404040"><set attributeName="fill" to="#808080" begin="reset.mouseover" end="reset.mouseout"/></use>
  </g>
</defs>
<script type="application/ecmascript">
var viewWidth = 1049;
var viewHeight = 368;
var sectionId = 'dynsection-0';
</script>
<script type="application/ecmascript" xlink:href="svg.min.js"/>
<svg id="graph" class="graph">
<g id="viewport">
<title>include/corelib/casting/isa.hxx</title>
<!-- Node1 -->
<g id="Node000001" class="node">
<title>Node1</title>
<g id="a_Node000001"><a xlink:title=" ">
<polygon fill="#999999" stroke="#666666" points="662.12,-360 536.12,-360 536.12,-330 662.12,-330 662.12,-360"/>
<text text-anchor="start" x="544.12" y="-348" font-family="Helvetica,sans-Serif" font-size="10.00">include/corelib/casting</text>
<text text-anchor="middle" x="599.12" y="-337" font-family="Helvetica,sans-Serif" font-size="10.00">/isa.hxx</text>
</a>
</g>
</g>
<!-- Node2 -->
<g id="Node000002" class="node">
<title>Node2</title>
<g id="a_Node000002"><a xlink:href="detail_2casting_2cast_8hxx.html" target="_top" xlink:title=" ">
<polygon fill="white" stroke="#666666" points="658.62,-294 539.62,-294 539.62,-264 658.62,-264 658.62,-294"/>
<text text-anchor="start" x="547.62" y="-282" font-family="Helvetica,sans-Serif" font-size="10.00">corelib/detail/casting</text>
<text text-anchor="middle" x="599.12" y="-271" font-family="Helvetica,sans-Serif" font-size="10.00">/cast.hxx</text>
</a>
</g>
</g>
<!-- Node1&#45;&gt;Node2 -->
<g id="edge1_Node000001_Node000002" class="edge">
<title>Node1&#45;&gt;Node2</title>
<g id="a_edge1_Node000001_Node000002"><a xlink:title=" ">
<path fill="none" stroke="#63b8ff" d="M599.12,-329.8C599.12,-322.34 599.12,-312.99 599.12,-304.41"/>
<polygon fill="#63b8ff" stroke="#63b8ff" points="602.62,-304.16 599.12,-294.16 595.62,-304.16 602.62,-304.16"/>
</a>
</g>
</g>
<!-- Node7 -->
<g id="Node000007" class="node">
<title>Node7</title>
<g id="a_Node000007"><a xlink:href="tracing_8hxx.html" target="_top" xlink:title=" ">
<polygon fill="white" stroke="#666666" points="909.12,-85 761.12,-85 761.12,-66 909.12,-66 909.12,-85"/>
<text text-anchor="middle" x="835.12" y="-73" font-family="Helvetica,sans-Serif" font-size="10.00">corelib/internal/tracing.hxx</text>
</a>
</g>
</g>
<!-- Node1&#45;&gt;Node7 -->
<g id="edge36_Node000001_Node000007" class="edge">
<title>Node1&#45;&gt;Node7</title>
<g id="a_edge36_Node000001_Node000007"><a xlink:title=" ">
<path fill="none" stroke="#63b8ff" d="M662.4,-341.02C765.23,-332.2 964.24,-297.56 1035.12,-162 1061.88,-110.83 985.33,-90.29 919.33,-82.04"/>
<polygon fill="#63b8ff" stroke="#63b8ff" points="919.6,-78.54 909.26,-80.86 918.79,-85.5 919.6,-78.54"/>
</a>
</g>
</g>
<!-- Node11 -->
<g id="Node000011" class="node">
<title>Node11</title>
<g id="a_Node000011"><a xlink:href="traits_8hxx.html" target="_top" xlink:title=" ">
<polygon fill="white" stroke="#666666" points="377.62,-162 258.62,-162 258.62,-132 377.62,-132 377.62,-162"/>
<text text-anchor="start" x="266.62" y="-150" font-family="Helvetica,sans-Serif" font-size="10.00">corelib/detail/casting</text>
<text text-anchor="middle" x="318.12" y="-139" font-family="Helvetica,sans-Serif" font-size="10.00">/traits.hxx</text>
</a>
</g>
</g>
<!-- Node1&#45;&gt;Node11 -->
<g id="edge35_Node000001_Node000011" class="edge">
<title>Node1&#45;&gt;Node11</title>
<g id="a_edge35_Node000001_Node000011"><a xlink:title=" ">
<path fill="none" stroke="#63b8ff" d="M565.49,-329.95C521.91,-310.79 444.8,-273.58 388.12,-228 367.18,-211.16 347.41,-187.59 334.26,-170.4"/>
<polygon fill="#63b8ff" stroke="#63b8ff" points="336.81,-167.97 328.01,-162.06 331.21,-172.16 336.81,-167.97"/>
</a>
</g>
</g>
<!-- Node3 -->
<g id="Node000003" class="node">
<title>Node3</title>
<g id="a_Node000003"><a xlink:title=" ">
<polygon fill="#e0e0e0" stroke="#999999" points="889.12,-156.5 831.12,-156.5 831.12,-137.5 889.12,-137.5 889.12,-156.5"/>
<text text-anchor="middle" x="860.12" y="-144.5" font-family="Helvetica,sans-Serif" font-size="10.00">memory</text>
</a>
</g>
</g>
<!-- Node2&#45;&gt;Node3 -->
<g id="edge2_Node000002_Node000003" class="edge">
<title>Node2&#45;&gt;Node3</title>
<g id="a_edge2_Node000002_Node000003"><a xlink:title=" ">
<path fill="none" stroke="#63b8ff" d="M657.6,-263.9C687.16,-255.57 723.04,-243.58 753.12,-228 787.72,-210.08 822.99,-181.22 843.15,-163.51"/>
<polygon fill="#63b8ff" stroke="#63b8ff" points="845.69,-165.93 850.82,-156.66 841.03,-160.71 845.69,-165.93"/>
</a>
</g>
</g>
<!-- Node4 -->
<g id="Node000004" class="node">
<title>Node4</title>
<g id="a_Node000004"><a xlink:title=" ">
<polygon fill="#e0e0e0" stroke="#999999" points="73.12,-85 17.12,-85 17.12,-66 73.12,-66 73.12,-85"/>
<text text-anchor="middle" x="45.12" y="-73" font-family="Helvetica,sans-Serif" font-size="10.00">optional</text>
</a>
</g>
</g>
<!-- Node2&#45;&gt;Node4 -->
<g id="edge3_Node000002_Node000004" class="edge">
<title>Node2&#45;&gt;Node4</title>
<g id="a_edge3_Node000002_Node000004"><a xlink:title=" ">
<path fill="none" stroke="#63b8ff" d="M539.54,-269.4C453.65,-255.41 291.61,-222.94 166.12,-162 126.11,-142.57 84.95,-110.38 62.44,-91.53"/>
<polygon fill="#63b8ff" stroke="#63b8ff" points="64.66,-88.82 54.77,-85.02 60.13,-94.16 64.66,-88.82"/>
</a>
</g>
</g>
<!-- Node5 -->
<g id="Node000005" class="node">
<title>Node5</title>
<g id="a_Node000005"><a xlink:title=" ">
<polygon fill="#e0e0e0" stroke="#999999" points="516.62,-19 447.62,-19 447.62,0 516.62,0 516.62,-19"/>
<text text-anchor="middle" x="482.12" y="-7" font-family="Helvetica,sans-Serif" font-size="10.00">type_traits</text>
</a>
</g>
</g>
<!-- Node2&#45;&gt;Node5 -->
<g id="edge4_Node000002_Node000005" class="edge">
<title>Node2&#45;&gt;Node5</title>
<g id="a_edge4_Node000002_Node000005"><a xlink:title=" ">
<path fill="none" stroke="#63b8ff" d="M539.57,-275.02C469.12,-270.24 348.93,-258.09 250.12,-228 185.47,-208.31 172.27,-194.7 113.12,-162 64.88,-135.33 34.78,-144.24 8.12,-96 -0.69,-80.05 -4.15,-68.47 8.12,-55 36.72,-23.59 325.07,-13.93 437.54,-11.34"/>
<polygon fill="#63b8ff" stroke="#63b8ff" points="437.62,-14.84 447.54,-11.12 437.47,-7.84 437.62,-14.84"/>
</a>
</g>
</g>
<!-- Node6 -->
<g id="Node000006" class="node">
<title>Node6</title>
<g id="a_Node000006"><a xlink:title=" ">
<polygon fill="#e0e0e0" stroke="#999999" points="1008.62,-156.5 907.62,-156.5 907.62,-137.5 1008.62,-137.5 1008.62,-156.5"/>
<text text-anchor="middle" x="958.12" y="-144.5" font-family="Helvetica,sans-Serif" font-size="10.00">debug/assert.hxx</text>
</a>
</g>
</g>
<!-- Node2&#45;&gt;Node6 -->
<g id="edge5_Node000002_Node000006" class="edge">
<title>Node2&#45;&gt;Node6</title>
<g id="a_edge5_Node000002_Node000006"><a xlink:title=" ">
<path fill="none" stroke="#63b8ff" d="M658.94,-265.4C697.04,-256.62 747.14,-243.7 790.12,-228 842.92,-208.71 901.56,-178.69 933.7,-161.43"/>
<polygon fill="#63b8ff" stroke="#63b8ff" points="935.67,-164.35 942.8,-156.51 932.33,-158.19 935.67,-164.35"/>
</a>
</g>
</g>
<!-- Node2&#45;&gt;Node7 -->
<g id="edge6_Node000002_Node000007" class="edge">
<title>Node2&#45;&gt;Node7</title>
<g id="a_edge6_Node000002_Node000007"><a xlink:title=" ">
<path fill="none" stroke="#63b8ff" d="M658.88,-270.74C764.51,-256.51 976.95,-221.06 1018.12,-162 1048.09,-119.01 980.72,-97.08 919.44,-86.27"/>
<polygon fill="#63b8ff" stroke="#63b8ff" points="919.72,-82.76 909.27,-84.56 918.56,-89.67 919.72,-82.76"/>
</a>
</g>
</g>
<!-- Node9 -->
<g id="Node000009" class="node">
<title>Node9</title>
<g id="a_Node000009"><a xlink:href="adapters_8hxx.html" target="_top" xlink:title=" ">
<polygon fill="white" stroke="#666666" points="574.62,-228 455.62,-228 455.62,-198 574.62,-198 574.62,-228"/>
<text text-anchor="start" x="463.62" y="-216" font-family="Helvetica,sans-Serif" font-size="10.00">corelib/detail/casting</text>
<text text-anchor="middle" x="515.12" y="-205" font-family="Helvetica,sans-Serif" font-size="10.00">/adapters.hxx</text>
</a>
</g>
</g>
<!-- Node2&#45;&gt;Node9 -->
<g id="edge8_Node000002_Node000009" class="edge">
<title>Node2&#45;&gt;Node9</title>
<g id="a_edge8_Node000002_Node000009"><a xlink:title=" ">
<path fill="none" stroke="#63b8ff" d="M580.48,-263.8C569.17,-255.18 554.55,-244.04 542,-234.48"/>
<polygon fill="#63b8ff" stroke="#63b8ff" points="543.79,-231.44 533.71,-228.16 539.54,-237.01 543.79,-231.44"/>
</a>
</g>
</g>
<!-- Node2&#45;&gt;Node11 -->
<g id="edge34_Node000002_Node000011" class="edge">
<title>Node2&#45;&gt;Node11</title>
<g id="a_edge34_Node000002_Node000011"><a xlink:title=" ">
<path fill="none" stroke="#63b8ff" d="M546.23,-263.96C516.46,-255.24 478.97,-242.86 447.12,-228 410.59,-210.96 371.66,-185.72 346.24,-168.16"/>
<polygon fill="#63b8ff" stroke="#63b8ff" points="348.04,-165.15 337.84,-162.3 344.03,-170.89 348.04,-165.15"/>
</a>
</g>
</g>
<!-- Node15 -->
<g id="Node000015" class="node">
<title>Node15</title>
<g id="a_Node000015"><a xlink:href="detail_2casting_2isa_8hxx.html" target="_top" xlink:title=" ">
<polygon fill="white" stroke="#666666" points="743.62,-228 624.62,-228 624.62,-198 743.62,-198 743.62,-228"/>
<text text-anchor="start" x="632.62" y="-216" font-family="Helvetica,sans-Serif" font-size="10.00">corelib/detail/casting</text>
<text text-anchor="middle" x="684.12" y="-205" font-family="Helvetica,sans-Serif" font-size="10.00">/isa.hxx</text>
</a>
</g>
</g>
<!-- Node2&#45;&gt;Node15 -->
<g id="edge25_Node000002_Node000015" class="edge">
<title>Node2&#45;&gt;Node15</title>
<g id="a_edge25_Node000002_Node000015"><a xlink:title=" ">
<path fill="none" stroke="#63b8ff" d="M617.99,-263.8C629.54,-255.1 644.51,-243.82 657.29,-234.2"/>
<polygon fill="#63b8ff" stroke="#63b8ff" points="659.43,-236.98 665.31,-228.16 655.22,-231.38 659.43,-236.98"/>
</a>
</g>
</g>
<!-- Node8 -->
<g id="Node000008" class="node">
<title>Node8</title>
<g id="a_Node000008"><a xlink:title=" ">
<polygon fill="#e0e0e0" stroke="#999999" points="887.12,-19 783.12,-19 783.12,0 887.12,0 887.12,-19"/>
<text text-anchor="middle" x="835.12" y="-7" font-family="Helvetica,sans-Serif" font-size="10.00">debug/tracing.hxx</text>
</a>
</g>
</g>
<!-- Node7&#45;&gt;Node8 -->
<g id="edge7_Node000007_Node000008" class="edge">
<title>Node7&#45;&gt;Node8</title>
<g id="a_edge7_Node000007_Node000008"><a xlink:title=" ">
<path fill="none" stroke="#63b8ff" d="M835.12,-65.87C835.12,-56.66 835.12,-41.79 835.12,-29.77"/>
<polygon fill="#63b8ff" stroke="#63b8ff" points="838.62,-29.41 835.12,-19.41 831.62,-29.41 838.62,-29.41"/>
</a>
</g>
</g>
<!-- Node9&#45;&gt;Node3 -->
<g id="edge9_Node000009_Node000003" class="edge">
<title>Node9&#45;&gt;Node3</title>
<g id="a_edge9_Node000009_Node000003"><a xlink:title=" ">
<path fill="none" stroke="#63b8ff" d="M574.82,-200.93C645.38,-187.84 760.76,-166.43 820.89,-155.28"/>
<polygon fill="#63b8ff" stroke="#63b8ff" points="821.56,-158.71 830.76,-153.45 820.28,-151.83 821.56,-158.71"/>
</a>
</g>
</g>
<!-- Node9&#45;&gt;Node4 -->
<g id="edge10_Node000009_Node000004" class="edge">
<title>Node9&#45;&gt;Node4</title>
<g id="a_edge10_Node000009_Node000004"><a xlink:title=" ">
<path fill="none" stroke="#63b8ff" d="M455.6,-204.4C401.33,-196.61 319.31,-182.71 250.12,-162 183.99,-142.21 110.11,-108.29 71.65,-89.68"/>
<polygon fill="#63b8ff" stroke="#63b8ff" points="72.74,-86.32 62.22,-85.08 69.67,-92.61 72.74,-86.32"/>
</a>
</g>
</g>
<!-- Node9&#45;&gt;Node5 -->
<g id="edge11_Node000009_Node000005" class="edge">
<title>Node9&#45;&gt;Node5</title>
<g id="a_edge11_Node000009_Node000005"><a xlink:title=" ">
<path fill="none" stroke="#63b8ff" d="M484.66,-197.94C470.5,-189.66 455.06,-177.69 447.12,-162 441.1,-150.1 440.51,-143.58 447.12,-132 462.73,-104.66 492.51,-123.34 508.12,-96 520.7,-73.97 506.61,-45.21 494.78,-27.29"/>
<polygon fill="#63b8ff" stroke="#63b8ff" points="497.57,-25.18 488.95,-19.01 491.84,-29.2 497.57,-25.18"/>
</a>
</g>
</g>
<!-- Node9&#45;&gt;Node7 -->
<g id="edge24_Node000009_Node000007" class="edge">
<title>Node9&#45;&gt;Node7</title>
<g id="a_edge24_Node000009_Node000007"><a xlink:title=" ">
<path fill="none" stroke="#63b8ff" d="M574.63,-202.91C632.86,-193.35 716.92,-177.55 746.12,-162 750.49,-159.67 795.02,-116.07 819.38,-92.05"/>
<polygon fill="#63b8ff" stroke="#63b8ff" points="821.85,-94.54 826.51,-85.02 816.93,-89.55 821.85,-94.54"/>
</a>
</g>
</g>
<!-- Node10 -->
<g id="Node000010" class="node">
<title>Node10</title>
<g id="a_Node000010"><a xlink:href="forwarding_8hxx.html" target="_top" xlink:title=" ">
<polygon fill="white" stroke="#666666" points="574.62,-162 455.62,-162 455.62,-132 574.62,-132 574.62,-162"/>
<text text-anchor="start" x="463.62" y="-150" font-family="Helvetica,sans-Serif" font-size="10.00">corelib/detail/casting</text>
<text text-anchor="middle" x="515.12" y="-139" font-family="Helvetica,sans-Serif" font-size="10.00">/forwarding.hxx</text>
</a>
</g>
</g>
<!-- Node9&#45;&gt;Node10 -->
<g id="edge12_Node000009_Node000010" class="edge">
<title>Node9&#45;&gt;Node10</title>
<g id="a_edge12_Node000009_Node000010"><a xlink:title=" ">
<path fill="none" stroke="#63b8ff" d="M515.12,-197.8C515.12,-190.34 515.12,-180.99 515.12,-172.41"/>
<polygon fill="#63b8ff" stroke="#63b8ff" points="518.62,-172.16 515.12,-162.16 511.62,-172.16 518.62,-172.16"/>
</a>
</g>
</g>
<!-- Node9&#45;&gt;Node11 -->
<g id="edge15_Node000009_Node000011" class="edge">
<title>Node9&#45;&gt;Node11</title>
<g id="a_edge15_Node000009_Node000011"><a xlink:title=" ">
<path fill="none" stroke="#63b8ff" d="M471.89,-197.95C442.12,-188.28 402.4,-175.38 370.78,-165.11"/>
<polygon fill="#63b8ff" stroke="#63b8ff" points="371.85,-161.77 361.25,-162.01 369.68,-168.43 371.85,-161.77"/>
</a>
</g>
</g>
<!-- Node10&#45;&gt;Node5 -->
<g id="edge13_Node000010_Node000005" class="edge">
<title>Node10&#45;&gt;Node5</title>
<g id="a_edge13_Node000010_Node000005"><a xlink:title=" ">
<path fill="none" stroke="#63b8ff" d="M525.34,-131.85C537.28,-113.43 553.87,-80.59 541.12,-55 534.56,-41.82 522.02,-31.52 510.19,-24.16"/>
<polygon fill="#63b8ff" stroke="#63b8ff" points="511.8,-21.05 501.39,-19.1 508.32,-27.12 511.8,-21.05"/>
</a>
</g>
</g>
<!-- Node10&#45;&gt;Node7 -->
<g id="edge14_Node000010_Node000007" class="edge">
<title>Node10&#45;&gt;Node7</title>
<g id="a_edge14_Node000010_Node000007"><a xlink:title=" ">
<path fill="none" stroke="#63b8ff" d="M575.11,-133.74C623.07,-123.84 691.99,-109.4 752.12,-96 764.31,-93.28 777.48,-90.24 789.66,-87.38"/>
<polygon fill="#63b8ff" stroke="#63b8ff" points="790.69,-90.73 799.62,-85.03 789.08,-83.92 790.69,-90.73"/>
</a>
</g>
</g>
<!-- Node11&#45;&gt;Node4 -->
<g id="edge17_Node000011_Node000004" class="edge">
<title>Node11&#45;&gt;Node4</title>
<g id="a_edge17_Node000011_Node000004"><a xlink:title=" ">
<path fill="none" stroke="#63b8ff" d="M258.28,-136.8C211.06,-128.65 143.91,-115.07 87.12,-96 81.69,-94.18 76.03,-91.86 70.69,-89.46"/>
<polygon fill="#63b8ff" stroke="#63b8ff" points="72.07,-86.24 61.53,-85.15 69.09,-92.58 72.07,-86.24"/>
</a>
</g>
</g>
<!-- Node11&#45;&gt;Node5 -->
<g id="edge18_Node000011_Node000005" class="edge">
<title>Node11&#45;&gt;Node5</title>
<g id="a_edge18_Node000011_Node000005"><a xlink:title=" ">
<path fill="none" stroke="#63b8ff" d="M258.34,-139.37C185.2,-128.97 76.19,-104.66 120.12,-55 140.85,-31.57 345.32,-17.79 437.48,-12.73"/>
<polygon fill="#63b8ff" stroke="#63b8ff" points="437.82,-16.22 447.62,-12.18 437.45,-9.23 437.82,-16.22"/>
</a>
</g>
</g>
<!-- Node11&#45;&gt;Node7 -->
<g id="edge19_Node000011_Node000007" class="edge">
<title>Node11&#45;&gt;Node7</title>
<g id="a_edge19_Node000011_Node000007"><a xlink:title=" ">
<path fill="none" stroke="#63b8ff" d="M377.92,-139.5C488.29,-127.45 716.12,-102.28 752.12,-96 765.35,-93.69 779.63,-90.57 792.56,-87.5"/>
<polygon fill="#63b8ff" stroke="#63b8ff" points="793.69,-90.83 802.58,-85.07 792.04,-84.02 793.69,-90.83"/>
</a>
</g>
</g>
<!-- Node12 -->
<g id="Node000012" class="node">
<title>Node12</title>
<g id="a_Node000012"><a xlink:title=" ">
<polygon fill="#e0e0e0" stroke="#999999" points="182.62,-85 129.62,-85 129.62,-66 182.62,-66 182.62,-85"/>
<text text-anchor="middle" x="156.12" y="-73" font-family="Helvetica,sans-Serif" font-size="10.00">cstddef</text>
</a>
</g>
</g>
<!-- Node11&#45;&gt;Node12 -->
<g id="edge16_Node000011_Node000012" class="edge">
<title>Node11&#45;&gt;Node12</title>
<g id="a_edge16_Node000011_Node000012"><a xlink:title=" ">
<path fill="none" stroke="#63b8ff" d="M278.36,-131.9C253.03,-122.54 219.72,-109.52 191.12,-96 187.34,-94.21 183.4,-92.19 179.59,-90.14"/>
<polygon fill="#63b8ff" stroke="#63b8ff" points="180.98,-86.9 170.54,-85.1 177.58,-93.02 180.98,-86.9"/>
</a>
</g>
</g>
<!-- Node13 -->
<g id="Node000013" class="node">
<title>Node13</title>
<g id="a_Node000013"><a xlink:href="add__const__past__pointer_8hxx.html" target="_top" xlink:title=" ">
<polygon fill="white" stroke="#666666" points="355.62,-90.5 200.62,-90.5 200.62,-60.5 355.62,-60.5 355.62,-90.5"/>
<text text-anchor="start" x="208.62" y="-78.5" font-family="Helvetica,sans-Serif" font-size="10.00">corelib/type_traits</text>
<text text-anchor="middle" x="278.12" y="-67.5" font-family="Helvetica,sans-Serif" font-size="10.00">/add_const_past_pointer.hxx</text>
</a>
</g>
</g>
<!-- Node11&#45;&gt;Node13 -->
<g id="edge20_Node000011_Node000013" class="edge">
<title>Node11&#45;&gt;Node13</title>
<g id="a_edge20_Node000011_Node000013"><a xlink:title=" ">
<path fill="none" stroke="#63b8ff" d="M310.03,-131.94C304.66,-122.61 297.49,-110.16 291.31,-99.42"/>
<polygon fill="#63b8ff" stroke="#63b8ff" points="294.23,-97.46 286.2,-90.54 288.16,-100.96 294.23,-97.46"/>
</a>
</g>
</g>
<!-- Node14 -->
<g id="Node000014" class="node">
<title>Node14</title>
<g id="a_Node000014"><a xlink:href="add__lvalue__reference__if__not__pointer_8hxx.html" target="_top" xlink:title=" ">
<polygon fill="white" stroke="#666666" points="498.62,-96 373.62,-96 373.62,-55 498.62,-55 498.62,-96"/>
<text text-anchor="start" x="381.62" y="-84" font-family="Helvetica,sans-Serif" font-size="10.00">corelib/type_traits</text>
<text text-anchor="start" x="381.62" y="-73" font-family="Helvetica,sans-Serif" font-size="10.00">/add_lvalue_reference</text>
<text text-anchor="middle" x="436.12" y="-62" font-family="Helvetica,sans-Serif" font-size="10.00">_if_not_pointer.hxx</text>
</a>
</g>
</g>
<!-- Node11&#45;&gt;Node14 -->
<g id="edge22_Node000011_Node000014" class="edge">
<title>Node11&#45;&gt;Node14</title>
<g id="a_edge22_Node000011_Node000014"><a xlink:title=" ">
<path fill="none" stroke="#63b8ff" d="M342,-131.94C356.91,-123.15 376.53,-111.6 393.99,-101.32"/>
<polygon fill="#63b8ff" stroke="#63b8ff" points="396.05,-104.16 402.89,-96.07 392.5,-98.13 396.05,-104.16"/>
</a>
</g>
</g>
<!-- Node13&#45;&gt;Node5 -->
<g id="edge21_Node000013_Node000005" class="edge">
<title>Node13&#45;&gt;Node5</title>
<g id="a_edge21_Node000013_Node000005"><a xlink:title=" ">
<path fill="none" stroke="#63b8ff" d="M322.89,-60.45C359.61,-48.93 410.97,-32.82 445.32,-22.04"/>
<polygon fill="#63b8ff" stroke="#63b8ff" points="446.48,-25.35 454.97,-19.02 444.38,-18.67 446.48,-25.35"/>
</a>
</g>
</g>
<!-- Node14&#45;&gt;Node5 -->
<g id="edge23_Node000014_Node000005" class="edge">
<title>Node14&#45;&gt;Node5</title>
<g id="a_edge23_Node000014_Node000005"><a xlink:title=" ">
<path fill="none" stroke="#63b8ff" d="M450.17,-54.95C456.46,-46.2 463.8,-35.99 469.86,-27.56"/>
<polygon fill="#63b8ff" stroke="#63b8ff" points="472.83,-29.42 475.82,-19.26 467.15,-25.34 472.83,-29.42"/>
</a>
</g>
</g>
<!-- Node15&#45;&gt;Node3 -->
<g id="edge26_Node000015_Node000003" class="edge">
<title>Node15&#45;&gt;Node3</title>
<g id="a_edge26_Node000015_Node000003"><a xlink:title=" ">
<path fill="none" stroke="#63b8ff" d="M722.75,-197.95C754.02,-186.58 797.59,-170.74 827.22,-159.96"/>
<polygon fill="#63b8ff" stroke="#63b8ff" points="828.5,-163.22 836.7,-156.52 826.1,-156.65 828.5,-163.22"/>
</a>
</g>
</g>
<!-- Node15&#45;&gt;Node5 -->
<g id="edge27_Node000015_Node000005" class="edge">
<title>Node15&#45;&gt;Node5</title>
<g id="a_edge27_Node000015_Node000005"><a xlink:title=" ">
<path fill="none" stroke="#63b8ff" d="M663.04,-197.84C650.25,-188.6 634.14,-175.73 622.12,-162 585.47,-120.13 596.67,-94.14 557.12,-55 543.97,-41.98 526.28,-31.25 511.38,-23.59"/>
<polygon fill="#63b8ff" stroke="#63b8ff" points="512.59,-20.28 502.07,-19.01 509.5,-26.56 512.59,-20.28"/>
</a>
</g>
</g>
<!-- Node15&#45;&gt;Node6 -->
<g id="edge28_Node000015_Node000006" class="edge">
<title>Node15&#45;&gt;Node6</title>
<g id="a_edge28_Node000015_Node000006"><a xlink:title=" ">
<path fill="none" stroke="#63b8ff" d="M743.91,-198.03C794.38,-186.25 865.59,-169.61 911.81,-158.82"/>
<polygon fill="#63b8ff" stroke="#63b8ff" points="912.62,-162.22 921.56,-156.54 911.03,-155.41 912.62,-162.22"/>
</a>
</g>
</g>
<!-- Node15&#45;&gt;Node7 -->
<g id="edge30_Node000015_Node000007" class="edge">
<title>Node15&#45;&gt;Node7</title>
<g id="a_edge30_Node000015_Node000007"><a xlink:title=" ">
<path fill="none" stroke="#63b8ff" d="M721.13,-197.81C739.93,-189.37 762.29,-177.29 779.12,-162 800.62,-142.46 817.52,-112.96 826.91,-94.21"/>
<polygon fill="#63b8ff" stroke="#63b8ff" points="830.14,-95.57 831.34,-85.04 823.84,-92.53 830.14,-95.57"/>
</a>
</g>
</g>
<!-- Node15&#45;&gt;Node11 -->
<g id="edge29_Node000015_Node000011" class="edge">
<title>Node15&#45;&gt;Node11</title>
<g id="a_edge29_Node000015_Node000011"><a xlink:title=" ">
<path fill="none" stroke="#63b8ff" d="M624.5,-201.57C559.77,-190.25 456.47,-172.19 387.98,-160.22"/>
<polygon fill="#63b8ff" stroke="#63b8ff" points="388.17,-156.7 377.71,-158.42 386.96,-163.59 388.17,-156.7"/>
</a>
</g>
</g>
<!-- Node16 -->
<g id="Node000016" class="node">
<title>Node16</title>
<g id="a_Node000016"><a xlink:href="type__name_8hxx.html" target="_top" xlink:title=" ">
<polygon fill="white" stroke="#666666" points="737.12,-162 631.12,-162 631.12,-132 737.12,-132 737.12,-162"/>
<text text-anchor="start" x="639.12" y="-150" font-family="Helvetica,sans-Serif" font-size="10.00">corelib/utility/type</text>
<text text-anchor="middle" x="684.12" y="-139" font-family="Helvetica,sans-Serif" font-size="10.00">_name.hxx</text>
</a>
</g>
</g>
<!-- Node15&#45;&gt;Node16 -->
<g id="edge31_Node000015_Node000016" class="edge">
<title>Node15&#45;&gt;Node16</title>
<g id="a_edge31_Node000015_Node000016"><a xlink:title=" ">
<path fill="none" stroke="#63b8ff" d="M684.12,-197.8C684.12,-190.34 684.12,-180.99 684.12,-172.41"/>
<polygon fill="#63b8ff" stroke="#63b8ff" points="687.62,-172.16 684.12,-162.16 680.62,-172.16 687.62,-172.16"/>
</a>
</g>
</g>
<!-- Node16&#45;&gt;Node5 -->
<g id="edge33_Node000016_Node000005" class="edge">
<title>Node16&#45;&gt;Node5</title>
<g id="a_edge33_Node000016_Node000005"><a xlink:title=" ">
<path fill="none" stroke="#63b8ff" d="M677.3,-131.85C666.98,-111.89 645.55,-75.61 617.12,-55 590.34,-35.58 554.59,-24.3 526.61,-17.96"/>
<polygon fill="#63b8ff" stroke="#63b8ff" points="527.2,-14.5 516.69,-15.84 525.73,-21.35 527.2,-14.5"/>
</a>
</g>
</g>
<!-- Node17 -->
<g id="Node000017" class="node">
<title>Node17</title>
<g id="a_Node000017"><a xlink:title=" ">
<polygon fill="#e0e0e0" stroke="#999999" points="742.62,-85 669.62,-85 669.62,-66 742.62,-66 742.62,-85"/>
<text text-anchor="middle" x="706.12" y="-73" font-family="Helvetica,sans-Serif" font-size="10.00">string_view</text>
</a>
</g>
</g>
<!-- Node16&#45;&gt;Node17 -->
<g id="edge32_Node000016_Node000017" class="edge">
<title>Node16&#45;&gt;Node17</title>
<g id="a_edge32_Node000016_Node000017"><a xlink:title=" ">
<path fill="none" stroke="#63b8ff" d="M688.57,-131.94C691.96,-121.25 696.64,-106.45 700.32,-94.83"/>
<polygon fill="#63b8ff" stroke="#63b8ff" points="703.67,-95.86 703.35,-85.27 696.99,-93.74 703.67,-95.86"/>
</a>
</g>
</g>
</g>
</svg>

<g id="navigator" transform="translate(0 0)" fill="#404254">
  <rect fill="#f2f5e9" fill-opacity="0.5" stroke="#606060" stroke-width=".5" x="0" y="0" width="60" height="60"/>
  <use id="zoomplus" xlink:href="#zoomPlus" x="17" y="9" onmousedown="handleZoom(evt,'in')"/>
  <use id="zoomminus" xlink:href="#zoomMin" x="42" y="9" onmousedown="handleZoom(evt,'out')"/>
  <use id="reset" xlink:href="#resetDef" x="30" y="36" onmousedown="handleReset()"/>
   <use id="arrowup" xlink:href="#arrowUp" x="0" y="0" onmousedown="handlePan(0,-1)"/>
  <use id="arrowright" xlink:href="#arrowRight" x="0" y="0" onmousedown="handlePan(1,0)"/>
  <use id="arrowdown" xlink:href="#arrowDown" x="0" y="0" onmousedown="handlePan(0,1)"/>
  <use id="arrowleft" xlink:href="#arrowLeft" x="0" y="0" onmousedown="handlePan(-1,0)"/>
</g>
<svg viewBox="0 0 15 15" width="100%" height="30px" preserveAspectRatio="xMaxYMin meet">
 <g id="arrow_out" transform="scale(0.3 0.3)">
  <a xlink:href="casting_2isa_8hxx__incl_org.svg" target="_base">
   <rect id="button" ry="5" rx="5" y="6" x="6" height="38" width="38"
        fill="#f2f5e9" fill-opacity="0.5" stroke="#606060" stroke-width="1.0"/>
   <path id="arrow"
     d="M 11.500037,31.436501 C 11.940474,20.09759 22.043105,11.32322 32.158766,21.979434 L 37.068811,17.246167 C 37.068811,17.246167 37.088388,32 37.088388,32 L 22.160133,31.978069 C 22.160133,31.978069 26.997745,27.140456 26.997745,27.140456 C 18.528582,18.264221 13.291696,25.230495 11.500037,31.436501 z"
     style="fill:#404040;"/>
  </a>
 </g>
</svg>

<style type='text/css'>
<![CDATA[
[data-mouse-over-selected='false'] { opacity: 0.7; }
[data-mouse-over-selected='true']  { opacity: 1.0; }
]]>
</style>
<script type="application/ecmascript"><![CDATA[
document.addEventListener('DOMContentLoaded', (event) => {
  highlightEdges();
  highlightAdjacentNodes();
});
]]></script>
</svg>
