<?xml version="1.0" encoding="UTF-8" standalone="no"?>
<!DOCTYPE svg PUBLIC "-//W3C//DTD SVG 1.1//EN"
 "http://www.w3.org/Graphics/SVG/1.1/DTD/svg11.dtd">
<!-- Generated by graphviz version 2.43.0 (0)
 -->
<!-- Title: corelib::rtti::Extends&lt; ThisType, ParentType, ParentTypes &gt; Pages: 1 -->
<svg width="172pt" height="104pt"
 viewBox="0.00 0.00 171.50 104.00" xmlns="http://www.w3.org/2000/svg" xmlns:xlink="http://www.w3.org/1999/xlink">
<g id="graph0" class="graph" transform="scale(1 1) rotate(0) translate(4 100)">
<title>corelib::rtti::Extends&lt; ThisType, ParentType, ParentTypes &gt;</title>
<!-- Node1 -->
<g id="Node000001" class="node">
<title>Node1</title>
<g id="a_Node000001"><a xlink:title="CRTP base class template for implementing extensible RTTI hierarchies.">
<polygon fill="#999999" stroke="#666666" points="146.5,-41 13.5,-41 13.5,0 146.5,0 146.5,-41"/>
<text text-anchor="start" x="21.5" y="-29" font-family="Helvetica,sans-Serif" font-size="10.00">corelib::rtti::Extends</text>
<text text-anchor="start" x="21.5" y="-18" font-family="Helvetica,sans-Serif" font-size="10.00">&lt; ThisType, ParentType,</text>
<text text-anchor="middle" x="80" y="-7" font-family="Helvetica,sans-Serif" font-size="10.00"> ParentTypes &gt;</text>
</a>
</g>
</g>
<!-- Node2 -->
<g id="Node000002" class="node">
<title>Node2</title>
<g id="a_Node000002"><a xlink:title=" ">
<polygon fill="white" stroke="#666666" points="70,-96 0,-96 0,-77 70,-77 70,-96"/>
<text text-anchor="middle" x="35" y="-84" font-family="Helvetica,sans-Serif" font-size="10.00">ParentType</text>
</a>
</g>
</g>
<!-- Node2&#45;&gt;Node1 -->
<g id="edge1_Node000001_Node000002" class="edge">
<title>Node2&#45;&gt;Node1</title>
<g id="a_edge1_Node000001_Node000002"><a xlink:title=" ">
<path fill="none" stroke="#63b8ff" d="M46.92,-68.55C52.87,-60.09 60.1,-49.8 66.28,-41.01"/>
<polygon fill="#63b8ff" stroke="#63b8ff" points="43.96,-66.68 41.07,-76.87 49.68,-70.7 43.96,-66.68"/>
</a>
</g>
</g>
<!-- Node3 -->
<g id="Node000003" class="node">
<title>Node3</title>
<g id="a_Node000003"><a xlink:title=" ">
<polygon fill="white" stroke="#666666" points="163.5,-96 88.5,-96 88.5,-77 163.5,-77 163.5,-96"/>
<text text-anchor="middle" x="126" y="-84" font-family="Helvetica,sans-Serif" font-size="10.00">ParentTypes</text>
</a>
</g>
</g>
<!-- Node3&#45;&gt;Node1 -->
<g id="edge2_Node000001_Node000003" class="edge">
<title>Node3&#45;&gt;Node1</title>
<g id="a_edge2_Node000001_Node000003"><a xlink:title=" ">
<path fill="none" stroke="#63b8ff" d="M113.82,-68.55C107.74,-60.09 100.34,-49.8 94.02,-41.01"/>
<polygon fill="#63b8ff" stroke="#63b8ff" points="111.12,-70.79 119.8,-76.87 116.8,-66.71 111.12,-70.79"/>
</a>
</g>
</g>
</g>
</svg>
