<?xml version="1.0" encoding="UTF-8" standalone="no"?>
<!DOCTYPE svg PUBLIC "-//W3C//DTD SVG 1.1//EN"
 "http://www.w3.org/Graphics/SVG/1.1/DTD/svg11.dtd">
<!-- Generated by graphviz version 2.43.0 (0)
 -->
<!-- Title: corelib::rtti::Extends&lt; ThisT, ParentT, ParentTs &gt; Pages: 1 -->
<svg width="163pt" height="93pt"
 viewBox="0.00 0.00 163.00 93.00" xmlns="http://www.w3.org/2000/svg" xmlns:xlink="http://www.w3.org/1999/xlink">
<g id="graph0" class="graph" transform="scale(1 1) rotate(0) translate(4 89)">
<title>corelib::rtti::Extends&lt; ThisT, ParentT, ParentTs &gt;</title>
<!-- Node1 -->
<g id="Node000001" class="node">
<title>Node1</title>
<g id="a_Node000001"><a xlink:title="CRTP base class template for implementing extensible RTTI hierarchies.">
<polygon fill="#999999" stroke="#666666" points="155,-30 0,-30 0,0 155,0 155,-30"/>
<text text-anchor="start" x="8" y="-18" font-family="Helvetica,sans-Serif" font-size="10.00">corelib::rtti::Extends</text>
<text text-anchor="middle" x="77.5" y="-7" font-family="Helvetica,sans-Serif" font-size="10.00">&lt; ThisT, ParentT, ParentTs &gt;</text>
</a>
</g>
</g>
<!-- Node2 -->
<g id="Node000002" class="node">
<title>Node2</title>
<g id="a_Node000002"><a xlink:title=" ">
<polygon fill="white" stroke="#666666" points="68,-85 15,-85 15,-66 68,-66 68,-85"/>
<text text-anchor="middle" x="41.5" y="-73" font-family="Helvetica,sans-Serif" font-size="10.00">ParentT</text>
</a>
</g>
</g>
<!-- Node2&#45;&gt;Node1 -->
<g id="edge1_Node000001_Node000002" class="edge">
<title>Node2&#45;&gt;Node1</title>
<g id="a_edge1_Node000001_Node000002"><a xlink:title=" ">
<path fill="none" stroke="#63b8ff" d="M52.07,-57.33C57.39,-48.67 63.78,-38.3 68.81,-30.11"/>
<polygon fill="#63b8ff" stroke="#63b8ff" points="49.07,-55.52 46.81,-65.87 55.03,-59.19 49.07,-55.52"/>
</a>
</g>
</g>
<!-- Node3 -->
<g id="Node000003" class="node">
<title>Node3</title>
<g id="a_Node000003"><a xlink:title=" ">
<polygon fill="white" stroke="#666666" points="143,-85 86,-85 86,-66 143,-66 143,-85"/>
<text text-anchor="middle" x="114.5" y="-73" font-family="Helvetica,sans-Serif" font-size="10.00">ParentTs</text>
</a>
</g>
</g>
<!-- Node3&#45;&gt;Node1 -->
<g id="edge2_Node000001_Node000003" class="edge">
<title>Node3&#45;&gt;Node1</title>
<g id="a_edge2_Node000001_Node000003"><a xlink:title=" ">
<path fill="none" stroke="#63b8ff" d="M103.64,-57.33C98.16,-48.67 91.61,-38.3 86.43,-30.11"/>
<polygon fill="#63b8ff" stroke="#63b8ff" points="100.74,-59.29 109.04,-65.87 106.65,-55.55 100.74,-59.29"/>
</a>
</g>
</g>
</g>
</svg>
