<?xml version="1.0" encoding="UTF-8" standalone="no"?>
<!DOCTYPE svg PUBLIC "-//W3C//DTD SVG 1.1//EN"
 "http://www.w3.org/Graphics/SVG/1.1/DTD/svg11.dtd">
<!-- Generated by graphviz version 2.43.0 (0)
 -->
<!-- Title: include/corelib/detail/casting/isa.hxx Pages: 1 -->
<svg width="316pt" height="489pt"
 viewBox="0.00 0.00 316.00 489.00" xmlns="http://www.w3.org/2000/svg" xmlns:xlink="http://www.w3.org/1999/xlink">
<g id="graph0" class="graph" transform="scale(1 1) rotate(0) translate(4 485)">
<title>include/corelib/detail/casting/isa.hxx</title>
<!-- Node1 -->
<g id="Node000001" class="node">
<title>Node1</title>
<g id="a_Node000001"><a xlink:title=" ">
<polygon fill="#999999" stroke="#666666" points="213.5,-481 94.5,-481 94.5,-451 213.5,-451 213.5,-481"/>
<text text-anchor="start" x="102.5" y="-469" font-family="Helvetica,sans-Serif" font-size="10.00">include/corelib/detail</text>
<text text-anchor="middle" x="154" y="-458" font-family="Helvetica,sans-Serif" font-size="10.00">/casting/isa.hxx</text>
</a>
</g>
</g>
<!-- Node2 -->
<g id="Node000002" class="node">
<title>Node2</title>
<g id="a_Node000002"><a xlink:href="detail_2casting_2cast_8hxx.html" target="_top" xlink:title=" ">
<polygon fill="white" stroke="#666666" points="213.5,-415 94.5,-415 94.5,-385 213.5,-385 213.5,-415"/>
<text text-anchor="start" x="102.5" y="-403" font-family="Helvetica,sans-Serif" font-size="10.00">include/corelib/detail</text>
<text text-anchor="middle" x="154" y="-392" font-family="Helvetica,sans-Serif" font-size="10.00">/casting/cast.hxx</text>
</a>
</g>
</g>
<!-- Node1&#45;&gt;Node2 -->
<g id="edge1_Node000001_Node000002" class="edge">
<title>Node1&#45;&gt;Node2</title>
<g id="a_edge1_Node000001_Node000002"><a xlink:title=" ">
<path fill="none" stroke="#63b8ff" d="M154,-440.54C154,-431.96 154,-422.61 154,-415.16"/>
<polygon fill="#63b8ff" stroke="#63b8ff" points="150.5,-440.8 154,-450.8 157.5,-440.8 150.5,-440.8"/>
</a>
</g>
</g>
<!-- Node3 -->
<g id="Node000003" class="node">
<title>Node3</title>
<g id="a_Node000003"><a xlink:href="casting_2cast_8hxx.html" target="_top" xlink:title=" ">
<polygon fill="white" stroke="#666666" points="217,-283 91,-283 91,-253 217,-253 217,-283"/>
<text text-anchor="start" x="99" y="-271" font-family="Helvetica,sans-Serif" font-size="10.00">include/corelib/casting</text>
<text text-anchor="middle" x="154" y="-260" font-family="Helvetica,sans-Serif" font-size="10.00">/cast.hxx</text>
</a>
</g>
</g>
<!-- Node2&#45;&gt;Node3 -->
<g id="edge2_Node000002_Node000003" class="edge">
<title>Node2&#45;&gt;Node3</title>
<g id="a_edge2_Node000002_Node000003"><a xlink:title=" ">
<path fill="none" stroke="#63b8ff" d="M154,-374.68C154,-347.7 154,-305.11 154,-283.14"/>
<polygon fill="#63b8ff" stroke="#63b8ff" points="150.5,-374.84 154,-384.84 157.5,-374.84 150.5,-374.84"/>
</a>
</g>
</g>
<!-- Node5 -->
<g id="Node000005" class="node">
<title>Node5</title>
<g id="a_Node000005"><a xlink:href="dyn__cast_8hxx.html" target="_top" xlink:title=" ">
<polygon fill="white" stroke="#666666" points="126,-217 0,-217 0,-187 126,-187 126,-217"/>
<text text-anchor="start" x="8" y="-205" font-family="Helvetica,sans-Serif" font-size="10.00">include/corelib/casting</text>
<text text-anchor="middle" x="63" y="-194" font-family="Helvetica,sans-Serif" font-size="10.00">/dyn_cast.hxx</text>
</a>
</g>
</g>
<!-- Node2&#45;&gt;Node5 -->
<g id="edge10_Node000002_Node000005" class="edge">
<title>Node2&#45;&gt;Node5</title>
<g id="a_edge10_Node000002_Node000005"><a xlink:title=" ">
<path fill="none" stroke="#63b8ff" d="M137.03,-376.61C120.72,-354.07 96.47,-317.77 82,-283 72.79,-260.86 67.48,-233.32 64.93,-217.01"/>
<polygon fill="#63b8ff" stroke="#63b8ff" points="134.32,-378.83 143.06,-384.81 139.96,-374.68 134.32,-378.83"/>
</a>
</g>
</g>
<!-- Node8 -->
<g id="Node000008" class="node">
<title>Node8</title>
<g id="a_Node000008"><a xlink:href="casting_2isa_8hxx.html" target="_top" xlink:title=" ">
<polygon fill="white" stroke="#666666" points="308,-349 182,-349 182,-319 308,-319 308,-349"/>
<text text-anchor="start" x="190" y="-337" font-family="Helvetica,sans-Serif" font-size="10.00">include/corelib/casting</text>
<text text-anchor="middle" x="245" y="-326" font-family="Helvetica,sans-Serif" font-size="10.00">/isa.hxx</text>
</a>
</g>
</g>
<!-- Node2&#45;&gt;Node8 -->
<g id="edge11_Node000002_Node000008" class="edge">
<title>Node2&#45;&gt;Node8</title>
<g id="a_edge11_Node000002_Node000008"><a xlink:title=" ">
<path fill="none" stroke="#63b8ff" d="M182.4,-379.03C196.17,-369.34 212.38,-357.94 224.86,-349.16"/>
<polygon fill="#63b8ff" stroke="#63b8ff" points="180.36,-376.18 174.2,-384.8 184.39,-381.91 180.36,-376.18"/>
</a>
</g>
</g>
<!-- Node4 -->
<g id="Node000004" class="node">
<title>Node4</title>
<g id="a_Node000004"><a xlink:href="casting_8hxx.html" target="_top" xlink:title="Convenience header for all casting module components.">
<polygon fill="white" stroke="#666666" points="234.5,-19 87.5,-19 87.5,0 234.5,0 234.5,-19"/>
<text text-anchor="middle" x="161" y="-7" font-family="Helvetica,sans-Serif" font-size="10.00">include/corelib/casting.hxx</text>
</a>
</g>
</g>
<!-- Node3&#45;&gt;Node4 -->
<g id="edge3_Node000003_Node000004" class="edge">
<title>Node3&#45;&gt;Node4</title>
<g id="a_edge3_Node000003_Node000004"><a xlink:title=" ">
<path fill="none" stroke="#63b8ff" d="M164.04,-243.56C179.55,-204.06 205.69,-122 187,-55 183.2,-41.38 174.19,-27.62 167.84,-19.08"/>
<polygon fill="#63b8ff" stroke="#63b8ff" points="160.78,-242.29 160.27,-252.87 167.27,-244.91 160.78,-242.29"/>
</a>
</g>
</g>
<!-- Node3&#45;&gt;Node5 -->
<g id="edge4_Node000003_Node000005" class="edge">
<title>Node3&#45;&gt;Node5</title>
<g id="a_edge4_Node000003_Node000005"><a xlink:title=" ">
<path fill="none" stroke="#63b8ff" d="M125.6,-247.03C111.83,-237.34 95.62,-225.94 83.14,-217.16"/>
<polygon fill="#63b8ff" stroke="#63b8ff" points="123.61,-249.91 133.8,-252.8 127.64,-244.18 123.61,-249.91"/>
</a>
</g>
</g>
<!-- Node6 -->
<g id="Node000006" class="node">
<title>Node6</title>
<g id="a_Node000006"><a xlink:href="detail_2casting_2predicates_8hxx.html" target="_top" xlink:title=" ">
<polygon fill="white" stroke="#666666" points="179,-151 49,-151 49,-121 179,-121 179,-151"/>
<text text-anchor="start" x="57" y="-139" font-family="Helvetica,sans-Serif" font-size="10.00">include/corelib/detail</text>
<text text-anchor="middle" x="114" y="-128" font-family="Helvetica,sans-Serif" font-size="10.00">/casting/predicates.hxx</text>
</a>
</g>
</g>
<!-- Node3&#45;&gt;Node6 -->
<g id="edge9_Node000003_Node000006" class="edge">
<title>Node3&#45;&gt;Node6</title>
<g id="a_edge9_Node000003_Node000006"><a xlink:title=" ">
<path fill="none" stroke="#63b8ff" d="M149.34,-242.8C145.99,-226.78 141.01,-205.41 135,-187 130.97,-174.65 125.18,-161.08 120.7,-151.2"/>
<polygon fill="#63b8ff" stroke="#63b8ff" points="145.97,-243.83 151.39,-252.93 152.83,-242.44 145.97,-243.83"/>
</a>
</g>
</g>
<!-- Node5&#45;&gt;Node4 -->
<g id="edge5_Node000005_Node000004" class="edge">
<title>Node5&#45;&gt;Node4</title>
<g id="a_edge5_Node000005_Node000004"><a xlink:title=" ">
<path fill="none" stroke="#63b8ff" d="M50.6,-177.79C35.91,-146.76 16.56,-91.43 43,-55 56.63,-36.22 79.21,-25.36 100.98,-19.08"/>
<polygon fill="#63b8ff" stroke="#63b8ff" points="47.57,-179.55 55.14,-186.96 53.84,-176.44 47.57,-179.55"/>
</a>
</g>
</g>
<!-- Node5&#45;&gt;Node6 -->
<g id="edge6_Node000005_Node000006" class="edge">
<title>Node5&#45;&gt;Node6</title>
<g id="a_edge6_Node000005_Node000006"><a xlink:title=" ">
<path fill="none" stroke="#63b8ff" d="M80.68,-178.81C87.99,-169.64 96.25,-159.28 102.71,-151.16"/>
<polygon fill="#63b8ff" stroke="#63b8ff" points="77.81,-176.79 74.32,-186.8 83.29,-181.16 77.81,-176.79"/>
</a>
</g>
</g>
<!-- Node7 -->
<g id="Node000007" class="node">
<title>Node7</title>
<g id="a_Node000007"><a xlink:href="casting_2predicates_8hxx.html" target="_top" xlink:title=" ">
<polygon fill="white" stroke="#666666" points="178,-85 52,-85 52,-55 178,-55 178,-85"/>
<text text-anchor="start" x="60" y="-73" font-family="Helvetica,sans-Serif" font-size="10.00">include/corelib/casting</text>
<text text-anchor="middle" x="115" y="-62" font-family="Helvetica,sans-Serif" font-size="10.00">/predicates.hxx</text>
</a>
</g>
</g>
<!-- Node6&#45;&gt;Node7 -->
<g id="edge7_Node000006_Node000007" class="edge">
<title>Node6&#45;&gt;Node7</title>
<g id="a_edge7_Node000006_Node000007"><a xlink:title=" ">
<path fill="none" stroke="#63b8ff" d="M114.38,-110.54C114.52,-101.96 114.66,-92.61 114.78,-85.16"/>
<polygon fill="#63b8ff" stroke="#63b8ff" points="110.88,-110.74 114.22,-120.8 117.88,-110.85 110.88,-110.74"/>
</a>
</g>
</g>
<!-- Node7&#45;&gt;Node4 -->
<g id="edge8_Node000007_Node000004" class="edge">
<title>Node7&#45;&gt;Node4</title>
<g id="a_edge8_Node000007_Node000004"><a xlink:title=" ">
<path fill="none" stroke="#63b8ff" d="M132.46,-46.8C140,-37.21 148.39,-26.54 154.11,-19.27"/>
<polygon fill="#63b8ff" stroke="#63b8ff" points="129.57,-44.81 126.14,-54.84 135.07,-49.14 129.57,-44.81"/>
</a>
</g>
</g>
<!-- Node8&#45;&gt;Node3 -->
<g id="edge13_Node000008_Node000003" class="edge">
<title>Node8&#45;&gt;Node3</title>
<g id="a_edge13_Node000008_Node000003"><a xlink:title=" ">
<path fill="none" stroke="#63b8ff" d="M216.6,-313.03C202.83,-303.34 186.62,-291.94 174.14,-283.16"/>
<polygon fill="#63b8ff" stroke="#63b8ff" points="214.61,-315.91 224.8,-318.8 218.64,-310.18 214.61,-315.91"/>
</a>
</g>
</g>
<!-- Node8&#45;&gt;Node4 -->
<g id="edge12_Node000008_Node000004" class="edge">
<title>Node8&#45;&gt;Node4</title>
<g id="a_edge12_Node000008_Node000004"><a xlink:title=" ">
<path fill="none" stroke="#63b8ff" d="M256.15,-309.73C267.37,-284.17 283,-241.61 283,-203 283,-203 283,-203 283,-135 283,-76.9 214.38,-35.92 180.06,-19.06"/>
<polygon fill="#63b8ff" stroke="#63b8ff" points="252.91,-308.41 251.97,-318.97 259.29,-311.3 252.91,-308.41"/>
</a>
</g>
</g>
<!-- Node8&#45;&gt;Node6 -->
<g id="edge14_Node000008_Node000006" class="edge">
<title>Node8&#45;&gt;Node6</title>
<g id="a_edge14_Node000008_Node000006"><a xlink:title=" ">
<path fill="none" stroke="#63b8ff" d="M242.67,-308.92C240.28,-292.38 235.5,-270.36 226,-253 202.36,-209.77 158.29,-171.16 133.05,-151.24"/>
<polygon fill="#63b8ff" stroke="#63b8ff" points="239.2,-309.41 243.92,-318.9 246.15,-308.54 239.2,-309.41"/>
</a>
</g>
</g>
</g>
</svg>
