<?xml version="1.0" encoding="UTF-8" standalone="no"?>
<!DOCTYPE svg PUBLIC "-//W3C//DTD SVG 1.1//EN"
 "http://www.w3.org/Graphics/SVG/1.1/DTD/svg11.dtd">
<!-- Generated by graphviz version 2.43.0 (0)
 -->
<!-- Title: include/corelib/detail/casting/cast.hxx Pages: 1 -->
<svg width="952pt" height="302pt"
 viewBox="0.00 0.00 952.05 302.00" xmlns="http://www.w3.org/2000/svg" xmlns:xlink="http://www.w3.org/1999/xlink">
<g id="graph0" class="graph" transform="scale(1 1) rotate(0) translate(4 298)">
<title>include/corelib/detail/casting/cast.hxx</title>
<!-- Node1 -->
<g id="Node000001" class="node">
<title>Node1</title>
<g id="a_Node000001"><a xlink:title=" ">
<polygon fill="#999999" stroke="#666666" points="477.5,-294 358.5,-294 358.5,-264 477.5,-264 477.5,-294"/>
<text text-anchor="start" x="366.5" y="-282" font-family="Helvetica,sans-Serif" font-size="10.00">include/corelib/detail</text>
<text text-anchor="middle" x="418" y="-271" font-family="Helvetica,sans-Serif" font-size="10.00">/casting/cast.hxx</text>
</a>
</g>
</g>
<!-- Node2 -->
<g id="Node000002" class="node">
<title>Node2</title>
<g id="a_Node000002"><a xlink:title=" ">
<polygon fill="#e0e0e0" stroke="#999999" points="371,-156.5 313,-156.5 313,-137.5 371,-137.5 371,-156.5"/>
<text text-anchor="middle" x="342" y="-144.5" font-family="Helvetica,sans-Serif" font-size="10.00">memory</text>
</a>
</g>
</g>
<!-- Node1&#45;&gt;Node2 -->
<g id="edge1_Node000001_Node000002" class="edge">
<title>Node1&#45;&gt;Node2</title>
<g id="a_edge1_Node000001_Node000002"><a xlink:title=" ">
<path fill="none" stroke="#63b8ff" d="M408.12,-263.78C401.37,-253.89 392.36,-240.32 385,-228 372.41,-206.92 359.23,-181.89 350.84,-165.52"/>
<polygon fill="#63b8ff" stroke="#63b8ff" points="353.93,-163.87 346.27,-156.55 347.69,-167.05 353.93,-163.87"/>
</a>
</g>
</g>
<!-- Node3 -->
<g id="Node000003" class="node">
<title>Node3</title>
<g id="a_Node000003"><a xlink:title=" ">
<polygon fill="#e0e0e0" stroke="#999999" points="298,-85 242,-85 242,-66 298,-66 298,-85"/>
<text text-anchor="middle" x="270" y="-73" font-family="Helvetica,sans-Serif" font-size="10.00">optional</text>
</a>
</g>
</g>
<!-- Node1&#45;&gt;Node3 -->
<g id="edge2_Node000001_Node000003" class="edge">
<title>Node1&#45;&gt;Node3</title>
<g id="a_edge2_Node000001_Node000003"><a xlink:title=" ">
<path fill="none" stroke="#63b8ff" d="M418.03,-263.84C417.37,-235.62 412.15,-171.69 380,-132 357.48,-104.2 339.92,-112.17 308,-96 304.06,-94 299.89,-91.88 295.81,-89.79"/>
<polygon fill="#63b8ff" stroke="#63b8ff" points="297.12,-86.53 286.63,-85.08 293.93,-92.76 297.12,-86.53"/>
</a>
</g>
</g>
<!-- Node4 -->
<g id="Node000004" class="node">
<title>Node4</title>
<g id="a_Node000004"><a xlink:title=" ">
<polygon fill="#e0e0e0" stroke="#999999" points="667.5,-19 598.5,-19 598.5,0 667.5,0 667.5,-19"/>
<text text-anchor="middle" x="633" y="-7" font-family="Helvetica,sans-Serif" font-size="10.00">type_traits</text>
</a>
</g>
</g>
<!-- Node1&#45;&gt;Node4 -->
<g id="edge3_Node000001_Node000004" class="edge">
<title>Node1&#45;&gt;Node4</title>
<g id="a_edge3_Node000001_Node000004"><a xlink:title=" ">
<path fill="none" stroke="#63b8ff" d="M477.96,-273.79C601.94,-263.7 879.66,-233.47 936,-162 961.09,-130.18 919.55,-69.23 901,-55 866.81,-28.77 744.89,-17.31 677.9,-12.9"/>
<polygon fill="#63b8ff" stroke="#63b8ff" points="677.84,-9.39 667.64,-12.26 677.4,-16.38 677.84,-9.39"/>
</a>
</g>
</g>
<!-- Node5 -->
<g id="Node000005" class="node">
<title>Node5</title>
<g id="a_Node000005"><a xlink:title=" ">
<polygon fill="#e0e0e0" stroke="#999999" points="926.5,-156.5 825.5,-156.5 825.5,-137.5 926.5,-137.5 926.5,-156.5"/>
<text text-anchor="middle" x="876" y="-144.5" font-family="Helvetica,sans-Serif" font-size="10.00">debug/assert.hxx</text>
</a>
</g>
</g>
<!-- Node1&#45;&gt;Node5 -->
<g id="edge4_Node000001_Node000005" class="edge">
<title>Node1&#45;&gt;Node5</title>
<g id="a_edge4_Node000001_Node000005"><a xlink:title=" ">
<path fill="none" stroke="#63b8ff" d="M467.45,-263.96C558.91,-238 752.79,-182.97 836.33,-159.26"/>
<polygon fill="#63b8ff" stroke="#63b8ff" points="837.29,-162.62 845.96,-156.53 835.38,-155.89 837.29,-162.62"/>
</a>
</g>
</g>
<!-- Node6 -->
<g id="Node000006" class="node">
<title>Node6</title>
<g id="a_Node000006"><a xlink:href="tracing_8hxx.html" target="_top" xlink:title=" ">
<polygon fill="white" stroke="#666666" points="148,-85 0,-85 0,-66 148,-66 148,-85"/>
<text text-anchor="middle" x="74" y="-73" font-family="Helvetica,sans-Serif" font-size="10.00">corelib/internal/tracing.hxx</text>
</a>
</g>
</g>
<!-- Node1&#45;&gt;Node6 -->
<g id="edge5_Node000001_Node000006" class="edge">
<title>Node1&#45;&gt;Node6</title>
<g id="a_edge5_Node000001_Node000006"><a xlink:title=" ">
<path fill="none" stroke="#63b8ff" d="M358.31,-267.55C266.85,-250.11 99.3,-211.98 68,-162 55.32,-141.76 60.9,-113.29 66.83,-94.87"/>
<polygon fill="#63b8ff" stroke="#63b8ff" points="70.17,-95.91 70.22,-85.32 63.57,-93.57 70.17,-95.91"/>
</a>
</g>
</g>
<!-- Node8 -->
<g id="Node000008" class="node">
<title>Node8</title>
<g id="a_Node000008"><a xlink:href="adapters_8hxx.html" target="_top" xlink:title=" ">
<polygon fill="white" stroke="#666666" points="332.5,-228 213.5,-228 213.5,-198 332.5,-198 332.5,-228"/>
<text text-anchor="start" x="221.5" y="-216" font-family="Helvetica,sans-Serif" font-size="10.00">corelib/detail/casting</text>
<text text-anchor="middle" x="273" y="-205" font-family="Helvetica,sans-Serif" font-size="10.00">/adapters.hxx</text>
</a>
</g>
</g>
<!-- Node1&#45;&gt;Node8 -->
<g id="edge7_Node000001_Node000008" class="edge">
<title>Node1&#45;&gt;Node8</title>
<g id="a_edge7_Node000001_Node000008"><a xlink:title=" ">
<path fill="none" stroke="#63b8ff" d="M386.18,-263.95C365.03,-254.62 337.04,-242.27 314.19,-232.18"/>
<polygon fill="#63b8ff" stroke="#63b8ff" points="315.31,-228.85 304.75,-228.01 312.48,-235.25 315.31,-228.85"/>
</a>
</g>
</g>
<!-- Node10 -->
<g id="Node000010" class="node">
<title>Node10</title>
<g id="a_Node000010"><a xlink:href="traits_8hxx.html" target="_top" xlink:title=" ">
<polygon fill="white" stroke="#666666" points="584.5,-162 465.5,-162 465.5,-132 584.5,-132 584.5,-162"/>
<text text-anchor="start" x="473.5" y="-150" font-family="Helvetica,sans-Serif" font-size="10.00">corelib/detail/casting</text>
<text text-anchor="middle" x="525" y="-139" font-family="Helvetica,sans-Serif" font-size="10.00">/traits.hxx</text>
</a>
</g>
</g>
<!-- Node1&#45;&gt;Node10 -->
<g id="edge33_Node000001_Node000010" class="edge">
<title>Node1&#45;&gt;Node10</title>
<g id="a_edge33_Node000001_Node000010"><a xlink:title=" ">
<path fill="none" stroke="#63b8ff" d="M422.55,-263.81C428.5,-246.83 440.18,-218.17 457,-198 466.67,-186.41 479.56,-176.05 491.53,-167.81"/>
<polygon fill="#63b8ff" stroke="#63b8ff" points="493.6,-170.63 500.01,-162.2 489.74,-164.8 493.6,-170.63"/>
</a>
</g>
</g>
<!-- Node14 -->
<g id="Node000014" class="node">
<title>Node14</title>
<g id="a_Node000014"><a xlink:href="detail_2casting_2isa_8hxx.html" target="_top" xlink:title=" ">
<polygon fill="white" stroke="#666666" points="584.5,-228 465.5,-228 465.5,-198 584.5,-198 584.5,-228"/>
<text text-anchor="start" x="473.5" y="-216" font-family="Helvetica,sans-Serif" font-size="10.00">corelib/detail/casting</text>
<text text-anchor="middle" x="525" y="-205" font-family="Helvetica,sans-Serif" font-size="10.00">/isa.hxx</text>
</a>
</g>
</g>
<!-- Node1&#45;&gt;Node14 -->
<g id="edge24_Node000001_Node000014" class="edge">
<title>Node1&#45;&gt;Node14</title>
<g id="a_edge24_Node000001_Node000014"><a xlink:title=" ">
<path fill="none" stroke="#63b8ff" d="M441.48,-263.95C456.53,-254.95 476.27,-243.14 492.78,-233.27"/>
<polygon fill="#63b8ff" stroke="#63b8ff" points="494.79,-236.15 501.57,-228.01 491.19,-230.14 494.79,-236.15"/>
</a>
</g>
</g>
<!-- Node7 -->
<g id="Node000007" class="node">
<title>Node7</title>
<g id="a_Node000007"><a xlink:title=" ">
<polygon fill="#e0e0e0" stroke="#999999" points="126,-19 22,-19 22,0 126,0 126,-19"/>
<text text-anchor="middle" x="74" y="-7" font-family="Helvetica,sans-Serif" font-size="10.00">debug/tracing.hxx</text>
</a>
</g>
</g>
<!-- Node6&#45;&gt;Node7 -->
<g id="edge6_Node000006_Node000007" class="edge">
<title>Node6&#45;&gt;Node7</title>
<g id="a_edge6_Node000006_Node000007"><a xlink:title=" ">
<path fill="none" stroke="#63b8ff" d="M74,-65.87C74,-56.66 74,-41.79 74,-29.77"/>
<polygon fill="#63b8ff" stroke="#63b8ff" points="77.5,-29.41 74,-19.41 70.5,-29.41 77.5,-29.41"/>
</a>
</g>
</g>
<!-- Node8&#45;&gt;Node2 -->
<g id="edge8_Node000008_Node000002" class="edge">
<title>Node8&#45;&gt;Node2</title>
<g id="a_edge8_Node000008_Node000002"><a xlink:title=" ">
<path fill="none" stroke="#63b8ff" d="M288.31,-197.8C299.18,-187.72 313.76,-174.19 324.99,-163.78"/>
<polygon fill="#63b8ff" stroke="#63b8ff" points="327.51,-166.21 332.46,-156.84 322.75,-161.08 327.51,-166.21"/>
</a>
</g>
</g>
<!-- Node8&#45;&gt;Node3 -->
<g id="edge9_Node000008_Node000003" class="edge">
<title>Node8&#45;&gt;Node3</title>
<g id="a_edge9_Node000008_Node000003"><a xlink:title=" ">
<path fill="none" stroke="#63b8ff" d="M272.68,-197.76C272.14,-173.14 271.02,-122.66 270.41,-95.23"/>
<polygon fill="#63b8ff" stroke="#63b8ff" points="273.91,-94.95 270.19,-85.03 266.91,-95.11 273.91,-94.95"/>
</a>
</g>
</g>
<!-- Node8&#45;&gt;Node4 -->
<g id="edge10_Node000008_Node000004" class="edge">
<title>Node8&#45;&gt;Node4</title>
<g id="a_edge10_Node000008_Node000004"><a xlink:title=" ">
<path fill="none" stroke="#63b8ff" d="M262.05,-197.87C240.1,-167.72 195.86,-96.5 233,-55 256.37,-28.88 488.84,-16.37 588.27,-12.18"/>
<polygon fill="#63b8ff" stroke="#63b8ff" points="588.46,-15.67 598.31,-11.76 588.17,-8.68 588.46,-15.67"/>
</a>
</g>
</g>
<!-- Node8&#45;&gt;Node6 -->
<g id="edge23_Node000008_Node000006" class="edge">
<title>Node8&#45;&gt;Node6</title>
<g id="a_edge23_Node000008_Node000006"><a xlink:title=" ">
<path fill="none" stroke="#63b8ff" d="M213.13,-203.6C164.36,-195.46 100.9,-181.49 84,-162 68.12,-143.69 68.35,-114.27 70.65,-95.16"/>
<polygon fill="#63b8ff" stroke="#63b8ff" points="74.11,-95.67 72.13,-85.26 67.19,-94.63 74.11,-95.67"/>
</a>
</g>
</g>
<!-- Node9 -->
<g id="Node000009" class="node">
<title>Node9</title>
<g id="a_Node000009"><a xlink:href="forwarding_8hxx.html" target="_top" xlink:title=" ">
<polygon fill="white" stroke="#666666" points="212.5,-162 93.5,-162 93.5,-132 212.5,-132 212.5,-162"/>
<text text-anchor="start" x="101.5" y="-150" font-family="Helvetica,sans-Serif" font-size="10.00">corelib/detail/casting</text>
<text text-anchor="middle" x="153" y="-139" font-family="Helvetica,sans-Serif" font-size="10.00">/forwarding.hxx</text>
</a>
</g>
</g>
<!-- Node8&#45;&gt;Node9 -->
<g id="edge11_Node000008_Node000009" class="edge">
<title>Node8&#45;&gt;Node9</title>
<g id="a_edge11_Node000008_Node000009"><a xlink:title=" ">
<path fill="none" stroke="#63b8ff" d="M246.67,-197.95C229.47,-188.78 206.82,-176.71 188.11,-166.72"/>
<polygon fill="#63b8ff" stroke="#63b8ff" points="189.74,-163.63 179.27,-162.01 186.45,-169.81 189.74,-163.63"/>
</a>
</g>
</g>
<!-- Node8&#45;&gt;Node10 -->
<g id="edge14_Node000008_Node000010" class="edge">
<title>Node8&#45;&gt;Node10</title>
<g id="a_edge14_Node000008_Node000010"><a xlink:title=" ">
<path fill="none" stroke="#63b8ff" d="M328.3,-197.95C367.12,-188.1 419.17,-174.88 459.98,-164.51"/>
<polygon fill="#63b8ff" stroke="#63b8ff" points="461,-167.87 469.83,-162.01 459.27,-161.08 461,-167.87"/>
</a>
</g>
</g>
<!-- Node9&#45;&gt;Node4 -->
<g id="edge12_Node000009_Node000004" class="edge">
<title>Node9&#45;&gt;Node4</title>
<g id="a_edge12_Node000009_Node000004"><a xlink:title=" ">
<path fill="none" stroke="#63b8ff" d="M155.89,-131.81C160.92,-111.11 173.41,-73.13 200,-55 262.28,-12.55 490.42,-9.24 588.11,-9.84"/>
<polygon fill="#63b8ff" stroke="#63b8ff" points="588.23,-13.34 598.26,-9.92 588.28,-6.34 588.23,-13.34"/>
</a>
</g>
</g>
<!-- Node9&#45;&gt;Node6 -->
<g id="edge13_Node000009_Node000006" class="edge">
<title>Node9&#45;&gt;Node6</title>
<g id="a_edge13_Node000009_Node000006"><a xlink:title=" ">
<path fill="none" stroke="#63b8ff" d="M137.01,-131.94C123.87,-120.37 105.27,-104.01 91.68,-92.06"/>
<polygon fill="#63b8ff" stroke="#63b8ff" points="93.79,-89.24 83.97,-85.27 89.16,-94.5 93.79,-89.24"/>
</a>
</g>
</g>
<!-- Node10&#45;&gt;Node3 -->
<g id="edge16_Node000010_Node000003" class="edge">
<title>Node10&#45;&gt;Node3</title>
<g id="a_edge16_Node000010_Node000003"><a xlink:title=" ">
<path fill="none" stroke="#63b8ff" d="M465.27,-133.97C411.42,-122.81 336.46,-106.4 308,-96 303.29,-94.28 298.41,-92.1 293.78,-89.84"/>
<polygon fill="#63b8ff" stroke="#63b8ff" points="295.26,-86.66 284.78,-85.17 292.04,-92.88 295.26,-86.66"/>
</a>
</g>
</g>
<!-- Node10&#45;&gt;Node4 -->
<g id="edge17_Node000010_Node000004" class="edge">
<title>Node10&#45;&gt;Node4</title>
<g id="a_edge17_Node000010_Node000004"><a xlink:title=" ">
<path fill="none" stroke="#63b8ff" d="M584.74,-136.2C628.14,-127.72 681.55,-113.98 695,-96 705.92,-81.41 703.32,-71.21 695,-55 688.04,-41.44 674.81,-31.07 662.35,-23.78"/>
<polygon fill="#63b8ff" stroke="#63b8ff" points="663.98,-20.68 653.52,-19 660.65,-26.84 663.98,-20.68"/>
</a>
</g>
</g>
<!-- Node10&#45;&gt;Node6 -->
<g id="edge18_Node000010_Node000006" class="edge">
<title>Node10&#45;&gt;Node6</title>
<g id="a_edge18_Node000010_Node000006"><a xlink:title=" ">
<path fill="none" stroke="#63b8ff" d="M465.26,-134.48C460.44,-133.62 455.64,-132.78 451,-132 345.79,-114.31 223.54,-96.89 147.46,-86.41"/>
<polygon fill="#63b8ff" stroke="#63b8ff" points="147.88,-82.93 137.49,-85.04 146.92,-89.87 147.88,-82.93"/>
</a>
</g>
</g>
<!-- Node11 -->
<g id="Node000011" class="node">
<title>Node11</title>
<g id="a_Node000011"><a xlink:title=" ">
<polygon fill="#e0e0e0" stroke="#999999" points="685.5,-85 632.5,-85 632.5,-66 685.5,-66 685.5,-85"/>
<text text-anchor="middle" x="659" y="-73" font-family="Helvetica,sans-Serif" font-size="10.00">cstddef</text>
</a>
</g>
</g>
<!-- Node10&#45;&gt;Node11 -->
<g id="edge15_Node000010_Node000011" class="edge">
<title>Node10&#45;&gt;Node11</title>
<g id="a_edge15_Node000010_Node000011"><a xlink:title=" ">
<path fill="none" stroke="#63b8ff" d="M553.75,-131.86C573.59,-122.01 600.53,-108.46 624,-96 627.56,-94.11 631.3,-92.08 634.96,-90.06"/>
<polygon fill="#63b8ff" stroke="#63b8ff" points="636.7,-93.1 643.74,-85.18 633.3,-86.98 636.7,-93.1"/>
</a>
</g>
</g>
<!-- Node12 -->
<g id="Node000012" class="node">
<title>Node12</title>
<g id="a_Node000012"><a xlink:href="add__const__past__pointer_8hxx.html" target="_top" xlink:title=" ">
<polygon fill="white" stroke="#666666" points="471.5,-90.5 316.5,-90.5 316.5,-60.5 471.5,-60.5 471.5,-90.5"/>
<text text-anchor="start" x="324.5" y="-78.5" font-family="Helvetica,sans-Serif" font-size="10.00">corelib/type_traits</text>
<text text-anchor="middle" x="394" y="-67.5" font-family="Helvetica,sans-Serif" font-size="10.00">/add_const_past_pointer.hxx</text>
</a>
</g>
</g>
<!-- Node10&#45;&gt;Node12 -->
<g id="edge19_Node000010_Node000012" class="edge">
<title>Node10&#45;&gt;Node12</title>
<g id="a_edge19_Node000010_Node000012"><a xlink:title=" ">
<path fill="none" stroke="#63b8ff" d="M498.49,-131.94C478.6,-121.38 451.18,-106.83 429.41,-95.29"/>
<polygon fill="#63b8ff" stroke="#63b8ff" points="430.94,-92.14 420.47,-90.54 427.66,-98.32 430.94,-92.14"/>
</a>
</g>
</g>
<!-- Node13 -->
<g id="Node000013" class="node">
<title>Node13</title>
<g id="a_Node000013"><a xlink:href="add__lvalue__reference__if__not__pointer_8hxx.html" target="_top" xlink:title=" ">
<polygon fill="white" stroke="#666666" points="614.5,-96 489.5,-96 489.5,-55 614.5,-55 614.5,-96"/>
<text text-anchor="start" x="497.5" y="-84" font-family="Helvetica,sans-Serif" font-size="10.00">corelib/type_traits</text>
<text text-anchor="start" x="497.5" y="-73" font-family="Helvetica,sans-Serif" font-size="10.00">/add_lvalue_reference</text>
<text text-anchor="middle" x="552" y="-62" font-family="Helvetica,sans-Serif" font-size="10.00">_if_not_pointer.hxx</text>
</a>
</g>
</g>
<!-- Node10&#45;&gt;Node13 -->
<g id="edge21_Node000010_Node000013" class="edge">
<title>Node10&#45;&gt;Node13</title>
<g id="a_edge21_Node000010_Node000013"><a xlink:title=" ">
<path fill="none" stroke="#63b8ff" d="M530.46,-131.94C533.41,-124.36 537.15,-114.73 540.69,-105.62"/>
<polygon fill="#63b8ff" stroke="#63b8ff" points="544.04,-106.66 544.4,-96.07 537.51,-104.13 544.04,-106.66"/>
</a>
</g>
</g>
<!-- Node12&#45;&gt;Node4 -->
<g id="edge20_Node000012_Node000004" class="edge">
<title>Node12&#45;&gt;Node4</title>
<g id="a_edge20_Node000012_Node000004"><a xlink:title=" ">
<path fill="none" stroke="#63b8ff" d="M446.45,-60.45C490.03,-48.79 551.19,-32.41 591.44,-21.63"/>
<polygon fill="#63b8ff" stroke="#63b8ff" points="592.44,-24.98 601.19,-19.02 590.63,-18.22 592.44,-24.98"/>
</a>
</g>
</g>
<!-- Node13&#45;&gt;Node4 -->
<g id="edge22_Node000013_Node000004" class="edge">
<title>Node13&#45;&gt;Node4</title>
<g id="a_edge22_Node000013_Node000004"><a xlink:title=" ">
<path fill="none" stroke="#63b8ff" d="M576.74,-54.95C588.64,-45.55 602.68,-34.46 613.76,-25.7"/>
<polygon fill="#63b8ff" stroke="#63b8ff" points="616.24,-28.21 621.91,-19.26 611.9,-22.71 616.24,-28.21"/>
</a>
</g>
</g>
<!-- Node14&#45;&gt;Node2 -->
<g id="edge25_Node000014_Node000002" class="edge">
<title>Node14&#45;&gt;Node2</title>
<g id="a_edge25_Node000014_Node000002"><a xlink:title=" ">
<path fill="none" stroke="#63b8ff" d="M484.84,-197.95C452.18,-186.53 406.62,-170.6 375.81,-159.82"/>
<polygon fill="#63b8ff" stroke="#63b8ff" points="376.95,-156.51 366.35,-156.52 374.64,-163.12 376.95,-156.51"/>
</a>
</g>
</g>
<!-- Node14&#45;&gt;Node4 -->
<g id="edge26_Node000014_Node000004" class="edge">
<title>Node14&#45;&gt;Node4</title>
<g id="a_edge26_Node000014_Node000004"><a xlink:title=" ">
<path fill="none" stroke="#63b8ff" d="M571.21,-197.98C616.25,-181.57 682.18,-149.58 712,-96 720.86,-80.08 721.19,-70.73 712,-55 703.32,-40.14 687.65,-29.86 672.54,-22.95"/>
<polygon fill="#63b8ff" stroke="#63b8ff" points="673.85,-19.71 663.27,-19.08 671.15,-26.17 673.85,-19.71"/>
</a>
</g>
</g>
<!-- Node14&#45;&gt;Node5 -->
<g id="edge27_Node000014_Node000005" class="edge">
<title>Node14&#45;&gt;Node5</title>
<g id="a_edge27_Node000014_Node000005"><a xlink:title=" ">
<path fill="none" stroke="#63b8ff" d="M584.55,-202.82C643.5,-193.49 736.24,-178.14 816,-162 820.79,-161.03 825.79,-159.96 830.76,-158.86"/>
<polygon fill="#63b8ff" stroke="#63b8ff" points="831.88,-162.19 840.86,-156.57 830.33,-155.36 831.88,-162.19"/>
</a>
</g>
</g>
<!-- Node14&#45;&gt;Node6 -->
<g id="edge29_Node000014_Node000006" class="edge">
<title>Node14&#45;&gt;Node6</title>
<g id="a_edge29_Node000014_Node000006"><a xlink:title=" ">
<path fill="none" stroke="#63b8ff" d="M504.41,-197.8C477.18,-179.7 427.13,-148.77 380,-132 337.59,-116.91 220.58,-97.93 144.16,-86.53"/>
<polygon fill="#63b8ff" stroke="#63b8ff" points="144.53,-83.05 134.13,-85.04 143.5,-89.97 144.53,-83.05"/>
</a>
</g>
</g>
<!-- Node14&#45;&gt;Node10 -->
<g id="edge28_Node000014_Node000010" class="edge">
<title>Node14&#45;&gt;Node10</title>
<g id="a_edge28_Node000014_Node000010"><a xlink:title=" ">
<path fill="none" stroke="#63b8ff" d="M525,-197.8C525,-190.34 525,-180.99 525,-172.41"/>
<polygon fill="#63b8ff" stroke="#63b8ff" points="528.5,-172.16 525,-162.16 521.5,-172.16 528.5,-172.16"/>
</a>
</g>
</g>
<!-- Node15 -->
<g id="Node000015" class="node">
<title>Node15</title>
<g id="a_Node000015"><a xlink:href="type__name_8hxx.html" target="_top" xlink:title=" ">
<polygon fill="white" stroke="#666666" points="807,-162 701,-162 701,-132 807,-132 807,-162"/>
<text text-anchor="start" x="709" y="-150" font-family="Helvetica,sans-Serif" font-size="10.00">corelib/utility/type</text>
<text text-anchor="middle" x="754" y="-139" font-family="Helvetica,sans-Serif" font-size="10.00">_name.hxx</text>
</a>
</g>
</g>
<!-- Node14&#45;&gt;Node15 -->
<g id="edge30_Node000014_Node000015" class="edge">
<title>Node14&#45;&gt;Node15</title>
<g id="a_edge30_Node000014_Node000015"><a xlink:title=" ">
<path fill="none" stroke="#63b8ff" d="M575.26,-197.95C610.3,-188.16 657.23,-175.05 694.2,-164.71"/>
<polygon fill="#63b8ff" stroke="#63b8ff" points="695.17,-168.07 703.86,-162.01 693.29,-161.33 695.17,-168.07"/>
</a>
</g>
</g>
<!-- Node15&#45;&gt;Node4 -->
<g id="edge32_Node000015_Node000004" class="edge">
<title>Node15&#45;&gt;Node4</title>
<g id="a_edge32_Node000015_Node000004"><a xlink:title=" ">
<path fill="none" stroke="#63b8ff" d="M761.43,-131.89C770.43,-112.63 782.48,-77.89 766,-55 746,-27.22 707.85,-16.53 677.52,-12.54"/>
<polygon fill="#63b8ff" stroke="#63b8ff" points="677.89,-9.06 667.57,-11.43 677.12,-16.02 677.89,-9.06"/>
</a>
</g>
</g>
<!-- Node16 -->
<g id="Node000016" class="node">
<title>Node16</title>
<g id="a_Node000016"><a xlink:title=" ">
<polygon fill="#e0e0e0" stroke="#999999" points="891.5,-85 818.5,-85 818.5,-66 891.5,-66 891.5,-85"/>
<text text-anchor="middle" x="855" y="-73" font-family="Helvetica,sans-Serif" font-size="10.00">string_view</text>
</a>
</g>
</g>
<!-- Node15&#45;&gt;Node16 -->
<g id="edge31_Node000015_Node000016" class="edge">
<title>Node15&#45;&gt;Node16</title>
<g id="a_edge31_Node000015_Node000016"><a xlink:title=" ">
<path fill="none" stroke="#63b8ff" d="M774.44,-131.94C791.82,-119.98 816.66,-102.88 834.15,-90.85"/>
<polygon fill="#63b8ff" stroke="#63b8ff" points="836.29,-93.62 842.55,-85.07 832.33,-87.85 836.29,-93.62"/>
</a>
</g>
</g>
</g>
</svg>
