<?xml version="1.0" encoding="UTF-8" standalone="no"?>
<!DOCTYPE svg PUBLIC "-//W3C//DTD SVG 1.1//EN"
 "http://www.w3.org/Graphics/SVG/1.1/DTD/svg11.dtd">
<!-- Generated by graphviz version 2.43.0 (0)
 -->
<!-- Title: include/corelib Pages: 1 -->
<svg width="344pt" height="314pt"
 viewBox="0.00 0.00 344.00 314.00" xmlns="http://www.w3.org/2000/svg" xmlns:xlink="http://www.w3.org/1999/xlink">
<g id="graph0" class="graph" transform="scale(1 1) rotate(0) translate(4 310)">
<title>include/corelib</title>
<g id="clust1" class="cluster">
<title>clusterdir_d44c64559bbebec7f509842c48db8b23</title>
<g id="a_clust1"><a xlink:href="dir_d44c64559bbebec7f509842c48db8b23.html" target="_top" xlink:title="include">
<polygon fill="#edf0f7" stroke="#404040" stroke-dasharray="5,2" points="8,-8 8,-298 328,-298 328,-8 8,-8"/>
<text text-anchor="middle" x="168" y="-286" font-family="Helvetica,sans-Serif" font-size="10.00">include</text>
</a>
</g>
</g>
<g id="clust2" class="cluster">
<title>clusterdir_26a42341e56d51168940d0dc9d980665</title>
<g id="a_clust2"><a xlink:href="dir_26a42341e56d51168940d0dc9d980665.html" target="_top">
<polygon fill="#edf0f7" stroke="#404040" stroke-width="2" points="16,-16 16,-271 320,-271 320,-16 16,-16"/>
</a>
</g>
</g>
<!-- dir_26a42341e56d51168940d0dc9d980665 -->
<g id="node1" class="node">
<title>dir_26a42341e56d51168940d0dc9d980665</title>
<text text-anchor="middle" x="157" y="-251" font-family="Helvetica,sans-Serif" font-size="10.00">corelib</text>
</g>
<!-- dir_ccf225970601be8fec71de27f006a241 -->
<g id="node2" class="node">
<title>dir_ccf225970601be8fec71de27f006a241</title>
<g id="a_node2"><a xlink:href="dir_ccf225970601be8fec71de27f006a241.html" target="_top" xlink:title="casting">
<polygon fill="#a2b4d6" stroke="#404040" points="128,-208 76,-208 76,-189 128,-189 128,-208"/>
<text text-anchor="middle" x="102" y="-196" font-family="Helvetica,sans-Serif" font-size="10.00">casting</text>
</a>
</g>
</g>
<!-- dir_26a42341e56d51168940d0dc9d980665&#45;&gt;dir_ccf225970601be8fec71de27f006a241 -->
<g id="edge5" class="edge">
<title>dir_26a42341e56d51168940d0dc9d980665&#45;&gt;dir_ccf225970601be8fec71de27f006a241</title>
<g id="a_edge5"><a xlink:href="dir_000002_000000.html" target="_top">
<path fill="none" stroke="#63b8ff" d="M147.92,-243.75C139.91,-236.03 128.04,-224.6 118.38,-215.28"/>
<polygon fill="#63b8ff" stroke="#63b8ff" points="120.54,-212.51 110.91,-208.09 115.69,-217.55 120.54,-212.51"/>
</a>
</g>
<g id="a_edge5&#45;headlabel"><a xlink:href="dir_000002_000000.html" target="_top" xlink:title="7">
<text text-anchor="middle" x="125.1" y="-210.46" font-family="Helvetica,sans-Serif" font-size="10.00" fill="#63b8ff">7</text>
</a>
</g>
</g>
<!-- dir_d0572a3bb72777f6898f59bf0821efee -->
<g id="node4" class="node">
<title>dir_d0572a3bb72777f6898f59bf0821efee</title>
<g id="a_node4"><a xlink:href="dir_d0572a3bb72777f6898f59bf0821efee.html" target="_top" xlink:title="extensible&#45;rtti">
<polygon fill="#a2b4d6" stroke="#404040" points="312,-153 226,-153 226,-134 312,-134 312,-153"/>
<text text-anchor="middle" x="269" y="-141" font-family="Helvetica,sans-Serif" font-size="10.00">extensible&#45;rtti</text>
</a>
</g>
</g>
<!-- dir_26a42341e56d51168940d0dc9d980665&#45;&gt;dir_d0572a3bb72777f6898f59bf0821efee -->
<g id="edge6" class="edge">
<title>dir_26a42341e56d51168940d0dc9d980665&#45;&gt;dir_d0572a3bb72777f6898f59bf0821efee</title>
<g id="a_edge6"><a xlink:href="dir_000002_000004.html" target="_top">
<path fill="none" stroke="#63b8ff" d="M181.52,-243.98C199.36,-236.74 223.09,-224.83 239,-208 251.03,-195.28 259,-176.85 263.69,-163.11"/>
<polygon fill="#63b8ff" stroke="#63b8ff" points="267.11,-163.9 266.75,-153.31 260.43,-161.81 267.11,-163.9"/>
</a>
</g>
<g id="a_edge6&#45;headlabel"><a xlink:href="dir_000002_000004.html" target="_top" xlink:title="2">
<text text-anchor="middle" x="268.75" y="-165.68" font-family="Helvetica,sans-Serif" font-size="10.00" fill="#63b8ff">2</text>
</a>
</g>
</g>
<!-- dir_9f85035dd84934d4dee46fc5c02763b3 -->
<g id="node6" class="node">
<title>dir_9f85035dd84934d4dee46fc5c02763b3</title>
<g id="a_node6"><a xlink:href="dir_9f85035dd84934d4dee46fc5c02763b3.html" target="_top" xlink:title="math">
<polygon fill="#a2b4d6" stroke="#404040" points="208,-153 166,-153 166,-134 208,-134 208,-153"/>
<text text-anchor="middle" x="187" y="-141" font-family="Helvetica,sans-Serif" font-size="10.00">math</text>
</a>
</g>
</g>
<!-- dir_26a42341e56d51168940d0dc9d980665&#45;&gt;dir_9f85035dd84934d4dee46fc5c02763b3 -->
<g id="edge4" class="edge">
<title>dir_26a42341e56d51168940d0dc9d980665&#45;&gt;dir_9f85035dd84934d4dee46fc5c02763b3</title>
<g id="a_edge4"><a xlink:href="dir_000002_000008.html" target="_top">
<path fill="none" stroke="#63b8ff" d="M159.46,-243.66C164.34,-226.09 175.35,-186.45 181.87,-162.95"/>
<polygon fill="#63b8ff" stroke="#63b8ff" points="185.29,-163.73 184.59,-153.16 178.55,-161.86 185.29,-163.73"/>
</a>
</g>
<g id="a_edge4&#45;headlabel"><a xlink:href="dir_000002_000008.html" target="_top" xlink:title="1">
<text text-anchor="middle" x="187.06" y="-165.45" font-family="Helvetica,sans-Serif" font-size="10.00" fill="#63b8ff">1</text>
</a>
</g>
</g>
<!-- dir_707f9cb3ab6fc667c8977ee0db6db808 -->
<g id="node7" class="node">
<title>dir_707f9cb3ab6fc667c8977ee0db6db808</title>
<g id="a_node7"><a xlink:href="dir_707f9cb3ab6fc667c8977ee0db6db808.html" target="_top" xlink:title="type_traits">
<polygon fill="#a2b4d6" stroke="#404040" points="93.5,-98 24.5,-98 24.5,-79 93.5,-79 93.5,-98"/>
<text text-anchor="middle" x="59" y="-86" font-family="Helvetica,sans-Serif" font-size="10.00">type_traits</text>
</a>
</g>
</g>
<!-- dir_26a42341e56d51168940d0dc9d980665&#45;&gt;dir_707f9cb3ab6fc667c8977ee0db6db808 -->
<g id="edge2" class="edge">
<title>dir_26a42341e56d51168940d0dc9d980665&#45;&gt;dir_707f9cb3ab6fc667c8977ee0db6db808</title>
<g id="a_edge2"><a xlink:href="dir_000002_000010.html" target="_top">
<path fill="none" stroke="#63b8ff" d="M131.73,-244.54C112.25,-237.41 85.59,-225.38 67,-208 40.82,-183.54 26.23,-168.74 35,-134 37.41,-124.44 42.33,-114.7 47.09,-106.78"/>
<polygon fill="#63b8ff" stroke="#63b8ff" points="50.17,-108.46 52.63,-98.16 44.28,-104.68 50.17,-108.46"/>
</a>
</g>
<g id="a_edge2&#45;headlabel"><a xlink:href="dir_000002_000010.html" target="_top" xlink:title="6">
<text text-anchor="middle" x="50.61" y="-110.52" font-family="Helvetica,sans-Serif" font-size="10.00" fill="#63b8ff">6</text>
</a>
</g>
</g>
<!-- dir_57a40816abf779d7abbc91cda7d695bf -->
<g id="node8" class="node">
<title>dir_57a40816abf779d7abbc91cda7d695bf</title>
<g id="a_node8"><a xlink:href="dir_57a40816abf779d7abbc91cda7d695bf.html" target="_top" xlink:title="types">
<polygon fill="#a2b4d6" stroke="#404040" points="230,-208 186,-208 186,-189 230,-189 230,-208"/>
<text text-anchor="middle" x="208" y="-196" font-family="Helvetica,sans-Serif" font-size="10.00">types</text>
</a>
</g>
</g>
<!-- dir_26a42341e56d51168940d0dc9d980665&#45;&gt;dir_57a40816abf779d7abbc91cda7d695bf -->
<g id="edge1" class="edge">
<title>dir_26a42341e56d51168940d0dc9d980665&#45;&gt;dir_57a40816abf779d7abbc91cda7d695bf</title>
<g id="a_edge1"><a xlink:href="dir_000002_000011.html" target="_top">
<path fill="none" stroke="#63b8ff" d="M165.42,-243.75C172.77,-236.11 183.63,-224.82 192.54,-215.56"/>
<polygon fill="#63b8ff" stroke="#63b8ff" points="195.32,-217.72 199.74,-208.09 190.28,-212.87 195.32,-217.72"/>
</a>
</g>
<g id="a_edge1&#45;headlabel"><a xlink:href="dir_000002_000011.html" target="_top" xlink:title="2">
<text text-anchor="middle" x="194.88" y="-219.78" font-family="Helvetica,sans-Serif" font-size="10.00" fill="#63b8ff">2</text>
</a>
</g>
</g>
<!-- dir_8eeb13e16550b7a52bf75538c9abd6cd -->
<g id="node9" class="node">
<title>dir_8eeb13e16550b7a52bf75538c9abd6cd</title>
<g id="a_node9"><a xlink:href="dir_8eeb13e16550b7a52bf75538c9abd6cd.html" target="_top" xlink:title="utility">
<polygon fill="#a2b4d6" stroke="#404040" points="177.5,-98 132.5,-98 132.5,-79 177.5,-79 177.5,-98"/>
<text text-anchor="middle" x="155" y="-86" font-family="Helvetica,sans-Serif" font-size="10.00">utility</text>
</a>
</g>
</g>
<!-- dir_26a42341e56d51168940d0dc9d980665&#45;&gt;dir_8eeb13e16550b7a52bf75538c9abd6cd -->
<g id="edge3" class="edge">
<title>dir_26a42341e56d51168940d0dc9d980665&#45;&gt;dir_8eeb13e16550b7a52bf75538c9abd6cd</title>
<g id="a_edge3"><a xlink:href="dir_000002_000012.html" target="_top">
<path fill="none" stroke="#63b8ff" d="M156.89,-243.74C156.58,-218.31 155.67,-144.08 155.24,-108.69"/>
<polygon fill="#63b8ff" stroke="#63b8ff" points="158.73,-108.26 155.11,-98.31 151.73,-108.35 158.73,-108.26"/>
</a>
</g>
<g id="a_edge3&#45;headlabel"><a xlink:href="dir_000002_000012.html" target="_top" xlink:title="6">
<text text-anchor="middle" x="161.61" y="-109.32" font-family="Helvetica,sans-Serif" font-size="10.00" fill="#63b8ff">6</text>
</a>
</g>
</g>
<!-- dir_0546b0a51a90f19ad76b4a78ef330d86 -->
<g id="node3" class="node">
<title>dir_0546b0a51a90f19ad76b4a78ef330d86</title>
<g id="a_node3"><a xlink:href="dir_0546b0a51a90f19ad76b4a78ef330d86.html" target="_top" xlink:title="detail">
<polygon fill="#a2b4d6" stroke="#404040" points="88,-153 44,-153 44,-134 88,-134 88,-153"/>
<text text-anchor="middle" x="66" y="-141" font-family="Helvetica,sans-Serif" font-size="10.00">detail</text>
</a>
</g>
</g>
<!-- dir_ccf225970601be8fec71de27f006a241&#45;&gt;dir_0546b0a51a90f19ad76b4a78ef330d86 -->
<g id="edge7" class="edge">
<title>dir_ccf225970601be8fec71de27f006a241&#45;&gt;dir_0546b0a51a90f19ad76b4a78ef330d86</title>
<g id="a_edge7"><a xlink:href="dir_000000_000003.html" target="_top">
<path fill="none" stroke="#63b8ff" d="M90.89,-188.75C84.4,-181.49 76.84,-170.95 71.48,-161.98"/>
<polygon fill="#63b8ff" stroke="#63b8ff" points="74.52,-160.24 66.7,-153.09 68.36,-163.55 74.52,-160.24"/>
</a>
</g>
<g id="a_edge7&#45;headlabel"><a xlink:href="dir_000000_000003.html" target="_top" xlink:title="8">
<text text-anchor="middle" x="78.72" y="-159.56" font-family="Helvetica,sans-Serif" font-size="10.00" fill="#63b8ff">8</text>
</a>
</g>
</g>
<!-- dir_c6c2e0c919e0ad4a815810e080b1a836 -->
<g id="node5" class="node">
<title>dir_c6c2e0c919e0ad4a815810e080b1a836</title>
<g id="a_node5"><a xlink:href="dir_c6c2e0c919e0ad4a815810e080b1a836.html" target="_top" xlink:title="internal">
<polygon fill="#a2b4d6" stroke="#404040" points="224,-43 170,-43 170,-24 224,-24 224,-43"/>
<text text-anchor="middle" x="197" y="-31" font-family="Helvetica,sans-Serif" font-size="10.00">internal</text>
</a>
</g>
</g>
<!-- dir_ccf225970601be8fec71de27f006a241&#45;&gt;dir_c6c2e0c919e0ad4a815810e080b1a836 -->
<g id="edge9" class="edge">
<title>dir_ccf225970601be8fec71de27f006a241&#45;&gt;dir_c6c2e0c919e0ad4a815810e080b1a836</title>
<g id="a_edge9"><a xlink:href="dir_000000_000007.html" target="_top">
<path fill="none" stroke="#63b8ff" d="M109.42,-188.94C129.89,-165.31 185.76,-100.7 187,-98 193.5,-83.89 195.89,-66.34 196.71,-53.28"/>
<polygon fill="#63b8ff" stroke="#63b8ff" points="200.22,-53.27 197.1,-43.14 193.22,-53 200.22,-53.27"/>
</a>
</g>
<g id="a_edge9&#45;headlabel"><a xlink:href="dir_000000_000007.html" target="_top" xlink:title="3">
<text text-anchor="middle" x="202.92" y="-54.47" font-family="Helvetica,sans-Serif" font-size="10.00" fill="#63b8ff">3</text>
</a>
</g>
</g>
<!-- dir_ccf225970601be8fec71de27f006a241&#45;&gt;dir_8eeb13e16550b7a52bf75538c9abd6cd -->
<g id="edge8" class="edge">
<title>dir_ccf225970601be8fec71de27f006a241&#45;&gt;dir_8eeb13e16550b7a52bf75538c9abd6cd</title>
<g id="a_edge8"><a xlink:href="dir_000000_000012.html" target="_top">
<path fill="none" stroke="#63b8ff" d="M103.74,-188.93C106.5,-176.4 112.55,-152.53 122,-134 127.07,-124.06 134.32,-113.99 140.74,-105.95"/>
<polygon fill="#63b8ff" stroke="#63b8ff" points="143.54,-108.05 147.23,-98.12 138.15,-103.58 143.54,-108.05"/>
</a>
</g>
<g id="a_edge8&#45;headlabel"><a xlink:href="dir_000000_000012.html" target="_top" xlink:title="2">
<text text-anchor="middle" x="143.43" y="-110.13" font-family="Helvetica,sans-Serif" font-size="10.00" fill="#63b8ff">2</text>
</a>
</g>
</g>
<!-- dir_0546b0a51a90f19ad76b4a78ef330d86&#45;&gt;dir_ccf225970601be8fec71de27f006a241 -->
<g id="edge13" class="edge">
<title>dir_0546b0a51a90f19ad76b4a78ef330d86&#45;&gt;dir_ccf225970601be8fec71de27f006a241</title>
<g id="a_edge13"><a xlink:href="dir_000003_000000.html" target="_top">
<path fill="none" stroke="#63b8ff" d="M76.97,-153.09C83.44,-160.29 91.01,-170.82 96.39,-179.82"/>
<polygon fill="#63b8ff" stroke="#63b8ff" points="93.39,-181.61 101.22,-188.75 99.55,-178.29 93.39,-181.61"/>
</a>
</g>
<g id="a_edge13&#45;headlabel"><a xlink:href="dir_000003_000000.html" target="_top" xlink:title="3">
<text text-anchor="middle" x="89.18" y="-177.3" font-family="Helvetica,sans-Serif" font-size="10.00" fill="#63b8ff">3</text>
</a>
</g>
</g>
<!-- dir_0546b0a51a90f19ad76b4a78ef330d86&#45;&gt;dir_c6c2e0c919e0ad4a815810e080b1a836 -->
<g id="edge12" class="edge">
<title>dir_0546b0a51a90f19ad76b4a78ef330d86&#45;&gt;dir_c6c2e0c919e0ad4a815810e080b1a836</title>
<g id="a_edge12"><a xlink:href="dir_000003_000007.html" target="_top">
<path fill="none" stroke="#63b8ff" d="M72.48,-133.98C82.56,-121.08 103.03,-96.28 124,-79 138.47,-67.08 156.44,-56.09 170.92,-48.01"/>
<polygon fill="#63b8ff" stroke="#63b8ff" points="172.76,-51 179.87,-43.14 169.41,-44.85 172.76,-51"/>
</a>
</g>
<g id="a_edge12&#45;headlabel"><a xlink:href="dir_000003_000007.html" target="_top" xlink:title="6">
<text text-anchor="middle" x="170.96" y="-52.71" font-family="Helvetica,sans-Serif" font-size="10.00" fill="#63b8ff">6</text>
</a>
</g>
</g>
<!-- dir_0546b0a51a90f19ad76b4a78ef330d86&#45;&gt;dir_707f9cb3ab6fc667c8977ee0db6db808 -->
<g id="edge10" class="edge">
<title>dir_0546b0a51a90f19ad76b4a78ef330d86&#45;&gt;dir_707f9cb3ab6fc667c8977ee0db6db808</title>
<g id="a_edge10"><a xlink:href="dir_000003_000010.html" target="_top">
<path fill="none" stroke="#63b8ff" d="M64.84,-133.75C63.93,-126.8 62.61,-116.85 61.46,-108.13"/>
<polygon fill="#63b8ff" stroke="#63b8ff" points="64.91,-107.54 60.13,-98.09 57.97,-108.46 64.91,-107.54"/>
</a>
</g>
<g id="a_edge10&#45;headlabel"><a xlink:href="dir_000003_000010.html" target="_top" xlink:title="2">
<text text-anchor="middle" x="68.2" y="-108.24" font-family="Helvetica,sans-Serif" font-size="10.00" fill="#63b8ff">2</text>
</a>
</g>
</g>
<!-- dir_0546b0a51a90f19ad76b4a78ef330d86&#45;&gt;dir_8eeb13e16550b7a52bf75538c9abd6cd -->
<g id="edge11" class="edge">
<title>dir_0546b0a51a90f19ad76b4a78ef330d86&#45;&gt;dir_8eeb13e16550b7a52bf75538c9abd6cd</title>
<g id="a_edge11"><a xlink:href="dir_000003_000012.html" target="_top">
<path fill="none" stroke="#63b8ff" d="M80.3,-133.98C94.1,-125.77 115.24,-113.18 131.51,-103.49"/>
<polygon fill="#63b8ff" stroke="#63b8ff" points="133.64,-106.29 140.44,-98.17 130.06,-100.28 133.64,-106.29"/>
</a>
</g>
<g id="a_edge11&#45;headlabel"><a xlink:href="dir_000003_000012.html" target="_top" xlink:title="1">
<text text-anchor="middle" x="132" y="-108.07" font-family="Helvetica,sans-Serif" font-size="10.00" fill="#63b8ff">1</text>
</a>
</g>
</g>
<!-- dir_d0572a3bb72777f6898f59bf0821efee&#45;&gt;dir_c6c2e0c919e0ad4a815810e080b1a836 -->
<g id="edge14" class="edge">
<title>dir_d0572a3bb72777f6898f59bf0821efee&#45;&gt;dir_c6c2e0c919e0ad4a815810e080b1a836</title>
<g id="a_edge14"><a xlink:href="dir_000004_000007.html" target="_top">
<path fill="none" stroke="#63b8ff" d="M263.11,-133.66C251.18,-115.77 224,-75 208.46,-51.69"/>
<polygon fill="#63b8ff" stroke="#63b8ff" points="211.23,-49.54 202.77,-43.16 205.41,-53.42 211.23,-49.54"/>
</a>
</g>
<g id="a_edge14&#45;headlabel"><a xlink:href="dir_000004_000007.html" target="_top" xlink:title="2">
<text text-anchor="middle" x="215.59" y="-48.45" font-family="Helvetica,sans-Serif" font-size="10.00" fill="#63b8ff">2</text>
</a>
</g>
</g>
<!-- dir_9f85035dd84934d4dee46fc5c02763b3&#45;&gt;dir_c6c2e0c919e0ad4a815810e080b1a836 -->
<g id="edge15" class="edge">
<title>dir_9f85035dd84934d4dee46fc5c02763b3&#45;&gt;dir_c6c2e0c919e0ad4a815810e080b1a836</title>
<g id="a_edge15"><a xlink:href="dir_000008_000007.html" target="_top">
<path fill="none" stroke="#63b8ff" d="M190.86,-133.85C194.56,-125.04 199.89,-110.87 202,-98 204.46,-82.98 202.83,-65.75 200.8,-53.03"/>
<polygon fill="#63b8ff" stroke="#63b8ff" points="204.24,-52.39 199,-43.18 197.35,-53.65 204.24,-52.39"/>
</a>
</g>
<g id="a_edge15&#45;headlabel"><a xlink:href="dir_000008_000007.html" target="_top" xlink:title="4">
<text text-anchor="middle" x="207.68" y="-52.92" font-family="Helvetica,sans-Serif" font-size="10.00" fill="#63b8ff">4</text>
</a>
</g>
</g>
<!-- dir_8eeb13e16550b7a52bf75538c9abd6cd&#45;&gt;dir_c6c2e0c919e0ad4a815810e080b1a836 -->
<g id="edge16" class="edge">
<title>dir_8eeb13e16550b7a52bf75538c9abd6cd&#45;&gt;dir_c6c2e0c919e0ad4a815810e080b1a836</title>
<g id="a_edge16"><a xlink:href="dir_000012_000007.html" target="_top">
<path fill="none" stroke="#63b8ff" d="M161.94,-78.75C167.87,-71.26 176.57,-60.28 183.82,-51.13"/>
<polygon fill="#63b8ff" stroke="#63b8ff" points="186.73,-53.1 190.19,-43.09 181.24,-48.75 186.73,-53.1"/>
</a>
</g>
<g id="a_edge16&#45;headlabel"><a xlink:href="dir_000012_000007.html" target="_top" xlink:title="2">
<text text-anchor="middle" x="186.72" y="-55.18" font-family="Helvetica,sans-Serif" font-size="10.00" fill="#63b8ff">2</text>
</a>
</g>
</g>
</g>
</svg>
