<?xml version="1.0" encoding="UTF-8" standalone="no"?>
<!DOCTYPE svg PUBLIC "-//W3C//DTD SVG 1.1//EN"
 "http://www.w3.org/Graphics/SVG/1.1/DTD/svg11.dtd">
<!-- Generated by graphviz version 2.43.0 (0)
 -->
<!-- Title: include/corelib Pages: 1 -->
<svg width="284pt" height="314pt"
 viewBox="0.00 0.00 284.00 314.00" xmlns="http://www.w3.org/2000/svg" xmlns:xlink="http://www.w3.org/1999/xlink">
<g id="graph0" class="graph" transform="scale(1 1) rotate(0) translate(4 310)">
<title>include/corelib</title>
<g id="clust1" class="cluster">
<title>clusterdir_d44c64559bbebec7f509842c48db8b23</title>
<g id="a_clust1"><a xlink:href="dir_d44c64559bbebec7f509842c48db8b23.html" target="_top" xlink:title="include">
<polygon fill="#edf0f7" stroke="#404040" stroke-dasharray="5,2" points="8,-8 8,-298 268,-298 268,-8 8,-8"/>
<text text-anchor="middle" x="138" y="-286" font-family="Helvetica,sans-Serif" font-size="10.00">include</text>
</a>
</g>
</g>
<g id="clust2" class="cluster">
<title>clusterdir_26a42341e56d51168940d0dc9d980665</title>
<g id="a_clust2"><a xlink:href="dir_26a42341e56d51168940d0dc9d980665.html" target="_top">
<polygon fill="#edf0f7" stroke="#404040" stroke-width="2" points="16,-16 16,-271 260,-271 260,-16 16,-16"/>
</a>
</g>
</g>
<!-- dir_26a42341e56d51168940d0dc9d980665 -->
<g id="node1" class="node">
<title>dir_26a42341e56d51168940d0dc9d980665</title>
<text text-anchor="middle" x="147" y="-251" font-family="Helvetica,sans-Serif" font-size="10.00">corelib</text>
</g>
<!-- dir_ccf225970601be8fec71de27f006a241 -->
<g id="node2" class="node">
<title>dir_ccf225970601be8fec71de27f006a241</title>
<g id="a_node2"><a xlink:href="dir_ccf225970601be8fec71de27f006a241.html" target="_top" xlink:title="casting">
<polygon fill="#a2b4d6" stroke="#404040" points="128,-208 76,-208 76,-189 128,-189 128,-208"/>
<text text-anchor="middle" x="102" y="-196" font-family="Helvetica,sans-Serif" font-size="10.00">casting</text>
</a>
</g>
</g>
<!-- dir_26a42341e56d51168940d0dc9d980665&#45;&gt;dir_ccf225970601be8fec71de27f006a241 -->
<g id="edge4" class="edge">
<title>dir_26a42341e56d51168940d0dc9d980665&#45;&gt;dir_ccf225970601be8fec71de27f006a241</title>
<g id="a_edge4"><a xlink:href="dir_000002_000000.html" target="_top">
<path fill="none" stroke="#63b8ff" d="M139.57,-243.75C133.15,-236.18 123.69,-225.05 115.88,-215.84"/>
<polygon fill="#63b8ff" stroke="#63b8ff" points="118.43,-213.45 109.29,-208.09 113.1,-217.98 118.43,-213.45"/>
</a>
</g>
<g id="a_edge4&#45;headlabel"><a xlink:href="dir_000002_000000.html" target="_top" xlink:title="7">
<text text-anchor="middle" x="122.92" y="-211.85" font-family="Helvetica,sans-Serif" font-size="10.00" fill="#63b8ff">7</text>
</a>
</g>
</g>
<!-- dir_d0572a3bb72777f6898f59bf0821efee -->
<g id="node4" class="node">
<title>dir_d0572a3bb72777f6898f59bf0821efee</title>
<g id="a_node4"><a xlink:href="dir_d0572a3bb72777f6898f59bf0821efee.html" target="_top" xlink:title="extensible&#45;rtti">
<polygon fill="#a2b4d6" stroke="#404040" points="252,-153 166,-153 166,-134 252,-134 252,-153"/>
<text text-anchor="middle" x="209" y="-141" font-family="Helvetica,sans-Serif" font-size="10.00">extensible&#45;rtti</text>
</a>
</g>
</g>
<!-- dir_26a42341e56d51168940d0dc9d980665&#45;&gt;dir_d0572a3bb72777f6898f59bf0821efee -->
<g id="edge5" class="edge">
<title>dir_26a42341e56d51168940d0dc9d980665&#45;&gt;dir_d0572a3bb72777f6898f59bf0821efee</title>
<g id="a_edge5"><a xlink:href="dir_000002_000004.html" target="_top">
<path fill="none" stroke="#63b8ff" d="M172.14,-244.29C188.68,-237.43 209.05,-225.84 219,-208 226.72,-194.16 222.79,-176.13 217.77,-162.82"/>
<polygon fill="#63b8ff" stroke="#63b8ff" points="220.86,-161.14 213.71,-153.33 214.43,-163.9 220.86,-161.14"/>
</a>
</g>
<g id="a_edge5&#45;headlabel"><a xlink:href="dir_000002_000004.html" target="_top" xlink:title="2">
<text text-anchor="middle" x="224.89" y="-160.83" font-family="Helvetica,sans-Serif" font-size="10.00" fill="#63b8ff">2</text>
</a>
</g>
</g>
<!-- dir_707f9cb3ab6fc667c8977ee0db6db808 -->
<g id="node6" class="node">
<title>dir_707f9cb3ab6fc667c8977ee0db6db808</title>
<g id="a_node6"><a xlink:href="dir_707f9cb3ab6fc667c8977ee0db6db808.html" target="_top" xlink:title="type_traits">
<polygon fill="#a2b4d6" stroke="#404040" points="197.5,-98 128.5,-98 128.5,-79 197.5,-79 197.5,-98"/>
<text text-anchor="middle" x="163" y="-86" font-family="Helvetica,sans-Serif" font-size="10.00">type_traits</text>
</a>
</g>
</g>
<!-- dir_26a42341e56d51168940d0dc9d980665&#45;&gt;dir_707f9cb3ab6fc667c8977ee0db6db808 -->
<g id="edge2" class="edge">
<title>dir_26a42341e56d51168940d0dc9d980665&#45;&gt;dir_707f9cb3ab6fc667c8977ee0db6db808</title>
<g id="a_edge2"><a xlink:href="dir_000002_000009.html" target="_top">
<path fill="none" stroke="#63b8ff" d="M147.58,-243.86C148.93,-224.28 152.5,-175.05 157,-134 157.93,-125.47 159.18,-116.04 160.29,-108.07"/>
<polygon fill="#63b8ff" stroke="#63b8ff" points="163.77,-108.41 161.72,-98.02 156.84,-107.42 163.77,-108.41"/>
</a>
</g>
<g id="a_edge2&#45;headlabel"><a xlink:href="dir_000002_000009.html" target="_top" xlink:title="6">
<text text-anchor="middle" x="166.07" y="-109.87" font-family="Helvetica,sans-Serif" font-size="10.00" fill="#63b8ff">6</text>
</a>
</g>
</g>
<!-- dir_57a40816abf779d7abbc91cda7d695bf -->
<g id="node7" class="node">
<title>dir_57a40816abf779d7abbc91cda7d695bf</title>
<g id="a_node7"><a xlink:href="dir_57a40816abf779d7abbc91cda7d695bf.html" target="_top" xlink:title="types">
<polygon fill="#a2b4d6" stroke="#404040" points="210,-208 166,-208 166,-189 210,-189 210,-208"/>
<text text-anchor="middle" x="188" y="-196" font-family="Helvetica,sans-Serif" font-size="10.00">types</text>
</a>
</g>
</g>
<!-- dir_26a42341e56d51168940d0dc9d980665&#45;&gt;dir_57a40816abf779d7abbc91cda7d695bf -->
<g id="edge1" class="edge">
<title>dir_26a42341e56d51168940d0dc9d980665&#45;&gt;dir_57a40816abf779d7abbc91cda7d695bf</title>
<g id="a_edge1"><a xlink:href="dir_000002_000010.html" target="_top">
<path fill="none" stroke="#63b8ff" d="M153.77,-243.75C159.56,-236.26 168.06,-225.28 175.14,-216.13"/>
<polygon fill="#63b8ff" stroke="#63b8ff" points="178.01,-218.14 181.36,-208.09 172.47,-213.86 178.01,-218.14"/>
</a>
</g>
<g id="a_edge1&#45;headlabel"><a xlink:href="dir_000002_000010.html" target="_top" xlink:title="2">
<text text-anchor="middle" x="178.05" y="-220.22" font-family="Helvetica,sans-Serif" font-size="10.00" fill="#63b8ff">2</text>
</a>
</g>
</g>
<!-- dir_8eeb13e16550b7a52bf75538c9abd6cd -->
<g id="node8" class="node">
<title>dir_8eeb13e16550b7a52bf75538c9abd6cd</title>
<g id="a_node8"><a xlink:href="dir_8eeb13e16550b7a52bf75538c9abd6cd.html" target="_top" xlink:title="utility">
<polygon fill="#a2b4d6" stroke="#404040" points="89.5,-98 44.5,-98 44.5,-79 89.5,-79 89.5,-98"/>
<text text-anchor="middle" x="67" y="-86" font-family="Helvetica,sans-Serif" font-size="10.00">utility</text>
</a>
</g>
</g>
<!-- dir_26a42341e56d51168940d0dc9d980665&#45;&gt;dir_8eeb13e16550b7a52bf75538c9abd6cd -->
<g id="edge3" class="edge">
<title>dir_26a42341e56d51168940d0dc9d980665&#45;&gt;dir_8eeb13e16550b7a52bf75538c9abd6cd</title>
<g id="a_edge3"><a xlink:href="dir_000002_000011.html" target="_top">
<path fill="none" stroke="#63b8ff" d="M122,-245.93C103.28,-239.57 78.94,-227.89 67,-208 48.36,-176.95 55.36,-132.57 61.54,-107.87"/>
<polygon fill="#63b8ff" stroke="#63b8ff" points="64.97,-108.6 64.24,-98.03 58.22,-106.75 64.97,-108.6"/>
</a>
</g>
<g id="a_edge3&#45;headlabel"><a xlink:href="dir_000002_000011.html" target="_top" xlink:title="6">
<text text-anchor="middle" x="66.76" y="-110.32" font-family="Helvetica,sans-Serif" font-size="10.00" fill="#63b8ff">6</text>
</a>
</g>
</g>
<!-- dir_0546b0a51a90f19ad76b4a78ef330d86 -->
<g id="node3" class="node">
<title>dir_0546b0a51a90f19ad76b4a78ef330d86</title>
<g id="a_node3"><a xlink:href="dir_0546b0a51a90f19ad76b4a78ef330d86.html" target="_top" xlink:title="detail">
<polygon fill="#a2b4d6" stroke="#404040" points="128,-153 84,-153 84,-134 128,-134 128,-153"/>
<text text-anchor="middle" x="106" y="-141" font-family="Helvetica,sans-Serif" font-size="10.00">detail</text>
</a>
</g>
</g>
<!-- dir_ccf225970601be8fec71de27f006a241&#45;&gt;dir_0546b0a51a90f19ad76b4a78ef330d86 -->
<g id="edge6" class="edge">
<title>dir_ccf225970601be8fec71de27f006a241&#45;&gt;dir_0546b0a51a90f19ad76b4a78ef330d86</title>
<g id="a_edge6"><a xlink:href="dir_000000_000003.html" target="_top">
<path fill="none" stroke="#63b8ff" d="M97.49,-188.75C96.53,-181.8 96.84,-171.85 98.12,-163.13"/>
<polygon fill="#63b8ff" stroke="#63b8ff" points="101.59,-163.59 100.22,-153.09 94.74,-162.16 101.59,-163.59"/>
</a>
</g>
<g id="a_edge6&#45;headlabel"><a xlink:href="dir_000000_000003.html" target="_top" xlink:title="8">
<text text-anchor="middle" x="103.64" y="-165.19" font-family="Helvetica,sans-Serif" font-size="10.00" fill="#63b8ff">8</text>
</a>
</g>
</g>
<!-- dir_c6c2e0c919e0ad4a815810e080b1a836 -->
<g id="node5" class="node">
<title>dir_c6c2e0c919e0ad4a815810e080b1a836</title>
<g id="a_node5"><a xlink:href="dir_c6c2e0c919e0ad4a815810e080b1a836.html" target="_top" xlink:title="internal">
<polygon fill="#a2b4d6" stroke="#404040" points="115,-43 61,-43 61,-24 115,-24 115,-43"/>
<text text-anchor="middle" x="88" y="-31" font-family="Helvetica,sans-Serif" font-size="10.00">internal</text>
</a>
</g>
</g>
<!-- dir_ccf225970601be8fec71de27f006a241&#45;&gt;dir_c6c2e0c919e0ad4a815810e080b1a836 -->
<g id="edge8" class="edge">
<title>dir_ccf225970601be8fec71de27f006a241&#45;&gt;dir_c6c2e0c919e0ad4a815810e080b1a836</title>
<g id="a_edge8"><a xlink:href="dir_000000_000007.html" target="_top">
<path fill="none" stroke="#63b8ff" d="M93.29,-188.93C77.71,-172.87 45.78,-136.36 36,-98 33.91,-89.82 32.47,-86.67 36,-79 41.75,-66.52 52.91,-56.24 63.42,-48.71"/>
<polygon fill="#63b8ff" stroke="#63b8ff" points="65.57,-51.49 71.97,-43.05 61.7,-45.65 65.57,-51.49"/>
</a>
</g>
<g id="a_edge8&#45;headlabel"><a xlink:href="dir_000000_000007.html" target="_top" xlink:title="3">
<text text-anchor="middle" x="64.14" y="-53.34" font-family="Helvetica,sans-Serif" font-size="10.00" fill="#63b8ff">3</text>
</a>
</g>
</g>
<!-- dir_ccf225970601be8fec71de27f006a241&#45;&gt;dir_8eeb13e16550b7a52bf75538c9abd6cd -->
<g id="edge7" class="edge">
<title>dir_ccf225970601be8fec71de27f006a241&#45;&gt;dir_8eeb13e16550b7a52bf75538c9abd6cd</title>
<g id="a_edge7"><a xlink:href="dir_000000_000011.html" target="_top">
<path fill="none" stroke="#63b8ff" d="M95.22,-188.86C88.88,-180.27 79.7,-166.48 75,-153 69.97,-138.55 68.03,-121.28 67.32,-108.4"/>
<polygon fill="#63b8ff" stroke="#63b8ff" points="70.82,-108.26 66.96,-98.39 63.82,-108.51 70.82,-108.26"/>
</a>
</g>
<g id="a_edge7&#45;headlabel"><a xlink:href="dir_000000_000011.html" target="_top" xlink:title="2">
<text text-anchor="middle" x="73.78" y="-109.25" font-family="Helvetica,sans-Serif" font-size="10.00" fill="#63b8ff">2</text>
</a>
</g>
</g>
<!-- dir_0546b0a51a90f19ad76b4a78ef330d86&#45;&gt;dir_ccf225970601be8fec71de27f006a241 -->
<g id="edge12" class="edge">
<title>dir_0546b0a51a90f19ad76b4a78ef330d86&#45;&gt;dir_ccf225970601be8fec71de27f006a241</title>
<g id="a_edge12"><a xlink:href="dir_000003_000000.html" target="_top">
<path fill="none" stroke="#63b8ff" d="M110.48,-153.09C111.48,-160.06 111.17,-170.15 109.87,-178.95"/>
<polygon fill="#63b8ff" stroke="#63b8ff" points="106.44,-178.24 107.83,-188.75 113.3,-179.67 106.44,-178.24"/>
</a>
</g>
<g id="a_edge12&#45;headlabel"><a xlink:href="dir_000003_000000.html" target="_top" xlink:title="3">
<text text-anchor="middle" x="104.4" y="-171.64" font-family="Helvetica,sans-Serif" font-size="10.00" fill="#63b8ff">3</text>
</a>
</g>
</g>
<!-- dir_0546b0a51a90f19ad76b4a78ef330d86&#45;&gt;dir_c6c2e0c919e0ad4a815810e080b1a836 -->
<g id="edge11" class="edge">
<title>dir_0546b0a51a90f19ad76b4a78ef330d86&#45;&gt;dir_c6c2e0c919e0ad4a815810e080b1a836</title>
<g id="a_edge11"><a xlink:href="dir_000003_000007.html" target="_top">
<path fill="none" stroke="#63b8ff" d="M105.41,-133.82C104.49,-121.54 102.46,-98.44 99,-79 97.47,-70.38 95.22,-60.95 93.16,-53"/>
<polygon fill="#63b8ff" stroke="#63b8ff" points="96.52,-52.04 90.54,-43.29 89.76,-53.86 96.52,-52.04"/>
</a>
</g>
<g id="a_edge11&#45;headlabel"><a xlink:href="dir_000003_000007.html" target="_top" xlink:title="6">
<text text-anchor="middle" x="100.2" y="-52.27" font-family="Helvetica,sans-Serif" font-size="10.00" fill="#63b8ff">6</text>
</a>
</g>
</g>
<!-- dir_0546b0a51a90f19ad76b4a78ef330d86&#45;&gt;dir_707f9cb3ab6fc667c8977ee0db6db808 -->
<g id="edge9" class="edge">
<title>dir_0546b0a51a90f19ad76b4a78ef330d86&#45;&gt;dir_707f9cb3ab6fc667c8977ee0db6db808</title>
<g id="a_edge9"><a xlink:href="dir_000003_000009.html" target="_top">
<path fill="none" stroke="#63b8ff" d="M115.16,-133.98C123.5,-126.23 136.03,-114.58 146.18,-105.14"/>
<polygon fill="#63b8ff" stroke="#63b8ff" points="148.74,-107.54 153.68,-98.17 143.97,-102.42 148.74,-107.54"/>
</a>
</g>
<g id="a_edge9&#45;headlabel"><a xlink:href="dir_000003_000009.html" target="_top" xlink:title="2">
<text text-anchor="middle" x="148.04" y="-109.57" font-family="Helvetica,sans-Serif" font-size="10.00" fill="#63b8ff">2</text>
</a>
</g>
</g>
<!-- dir_0546b0a51a90f19ad76b4a78ef330d86&#45;&gt;dir_8eeb13e16550b7a52bf75538c9abd6cd -->
<g id="edge10" class="edge">
<title>dir_0546b0a51a90f19ad76b4a78ef330d86&#45;&gt;dir_8eeb13e16550b7a52bf75538c9abd6cd</title>
<g id="a_edge10"><a xlink:href="dir_000003_000011.html" target="_top">
<path fill="none" stroke="#63b8ff" d="M99.56,-133.75C94.11,-126.34 86.14,-115.5 79.44,-106.41"/>
<polygon fill="#63b8ff" stroke="#63b8ff" points="82.07,-104.07 73.32,-98.09 76.43,-108.22 82.07,-104.07"/>
</a>
</g>
<g id="a_edge10&#45;headlabel"><a xlink:href="dir_000003_000011.html" target="_top" xlink:title="1">
<text text-anchor="middle" x="86.48" y="-102.78" font-family="Helvetica,sans-Serif" font-size="10.00" fill="#63b8ff">1</text>
</a>
</g>
</g>
<!-- dir_d0572a3bb72777f6898f59bf0821efee&#45;&gt;dir_c6c2e0c919e0ad4a815810e080b1a836 -->
<g id="edge13" class="edge">
<title>dir_d0572a3bb72777f6898f59bf0821efee&#45;&gt;dir_c6c2e0c919e0ad4a815810e080b1a836</title>
<g id="a_edge13"><a xlink:href="dir_000004_000007.html" target="_top">
<path fill="none" stroke="#63b8ff" d="M211.53,-133.74C214.77,-120.53 218.7,-95.31 207,-79 188.36,-53.02 152.67,-42.19 125.21,-37.69"/>
<polygon fill="#63b8ff" stroke="#63b8ff" points="125.54,-34.2 115.15,-36.25 124.56,-41.13 125.54,-34.2"/>
</a>
</g>
<g id="a_edge13&#45;headlabel"><a xlink:href="dir_000004_000007.html" target="_top" xlink:title="2">
<text text-anchor="middle" x="129.5" y="-29.4" font-family="Helvetica,sans-Serif" font-size="10.00" fill="#63b8ff">2</text>
</a>
</g>
</g>
<!-- dir_8eeb13e16550b7a52bf75538c9abd6cd&#45;&gt;dir_c6c2e0c919e0ad4a815810e080b1a836 -->
<g id="edge14" class="edge">
<title>dir_8eeb13e16550b7a52bf75538c9abd6cd&#45;&gt;dir_c6c2e0c919e0ad4a815810e080b1a836</title>
<g id="a_edge14"><a xlink:href="dir_000011_000007.html" target="_top">
<path fill="none" stroke="#63b8ff" d="M70.47,-78.75C73.28,-71.65 77.34,-61.4 80.85,-52.56"/>
<polygon fill="#63b8ff" stroke="#63b8ff" points="84.17,-53.68 84.6,-43.09 77.66,-51.1 84.17,-53.68"/>
</a>
</g>
<g id="a_edge14&#45;headlabel"><a xlink:href="dir_000011_000007.html" target="_top" xlink:title="2">
<text text-anchor="middle" x="85.48" y="-55.56" font-family="Helvetica,sans-Serif" font-size="10.00" fill="#63b8ff">2</text>
</a>
</g>
</g>
</g>
</svg>
