<?xml version="1.0" encoding="UTF-8" standalone="no"?>
<!DOCTYPE svg PUBLIC "-//W3C//DTD SVG 1.1//EN"
 "http://www.w3.org/Graphics/SVG/1.1/DTD/svg11.dtd">
<!-- Generated by graphviz version 2.43.0 (0)
 -->
<!-- Title: include/corelib/casting/dyn_cast.hxx Pages: 1 -->
<svg width="1045pt" height="478pt"
 viewBox="0.00 0.00 1044.50 478.00" xmlns="http://www.w3.org/2000/svg" xmlns:xlink="http://www.w3.org/1999/xlink">
<g id="graph0" class="graph" transform="scale(1 1) rotate(0) translate(4 474)">
<title>include/corelib/casting/dyn_cast.hxx</title>
<!-- Node1 -->
<g id="Node000001" class="node">
<title>Node1</title>
<g id="a_Node000001"><a xlink:title=" ">
<polygon fill="#999999" stroke="#666666" points="855,-470 729,-470 729,-440 855,-440 855,-470"/>
<text text-anchor="start" x="737" y="-458" font-family="Helvetica,sans-Serif" font-size="10.00">include/corelib/casting</text>
<text text-anchor="middle" x="792" y="-447" font-family="Helvetica,sans-Serif" font-size="10.00">/dyn_cast.hxx</text>
</a>
</g>
</g>
<!-- Node2 -->
<g id="Node000002" class="node">
<title>Node2</title>
<g id="a_Node000002"><a xlink:title=" ">
<polygon fill="#e0e0e0" stroke="#999999" points="200,-156.5 142,-156.5 142,-137.5 200,-137.5 200,-156.5"/>
<text text-anchor="middle" x="171" y="-144.5" font-family="Helvetica,sans-Serif" font-size="10.00">memory</text>
</a>
</g>
</g>
<!-- Node1&#45;&gt;Node2 -->
<g id="edge1_Node000001_Node000002" class="edge">
<title>Node1&#45;&gt;Node2</title>
<g id="a_edge1_Node000001_Node000002"><a xlink:title=" ">
<path fill="none" stroke="#63b8ff" d="M728.79,-451.5C660.36,-447.21 548.83,-435.56 458,-404 326.88,-358.44 274.5,-345.12 200,-228 187.77,-208.78 179.75,-183.68 175.31,-166.77"/>
<polygon fill="#63b8ff" stroke="#63b8ff" points="178.69,-165.85 172.9,-156.97 171.89,-167.52 178.69,-165.85"/>
</a>
</g>
</g>
<!-- Node3 -->
<g id="Node000003" class="node">
<title>Node3</title>
<g id="a_Node000003"><a xlink:title=" ">
<polygon fill="#e0e0e0" stroke="#999999" points="899.5,-156.5 798.5,-156.5 798.5,-137.5 899.5,-137.5 899.5,-156.5"/>
<text text-anchor="middle" x="849" y="-144.5" font-family="Helvetica,sans-Serif" font-size="10.00">debug/assert.hxx</text>
</a>
</g>
</g>
<!-- Node1&#45;&gt;Node3 -->
<g id="edge2_Node000001_Node000003" class="edge">
<title>Node1&#45;&gt;Node3</title>
<g id="a_edge2_Node000001_Node000003"><a xlink:title=" ">
<path fill="none" stroke="#63b8ff" d="M829.6,-439.91C868,-422.8 922,-389.94 922,-340.5 922,-340.5 922,-340.5 922,-278 922,-231.89 886.66,-187.01 865.16,-163.97"/>
<polygon fill="#63b8ff" stroke="#63b8ff" points="867.42,-161.27 857.95,-156.51 862.38,-166.13 867.42,-161.27"/>
</a>
</g>
</g>
<!-- Node4 -->
<g id="Node000004" class="node">
<title>Node4</title>
<g id="a_Node000004"><a xlink:href="casting_2cast_8hxx.html" target="_top" xlink:title=" ">
<polygon fill="white" stroke="#666666" points="599,-404 467,-404 467,-385 599,-385 599,-404"/>
<text text-anchor="middle" x="533" y="-392" font-family="Helvetica,sans-Serif" font-size="10.00">corelib/casting/cast.hxx</text>
</a>
</g>
</g>
<!-- Node1&#45;&gt;Node4 -->
<g id="edge3_Node000001_Node000004" class="edge">
<title>Node1&#45;&gt;Node4</title>
<g id="a_edge3_Node000001_Node000004"><a xlink:title=" ">
<path fill="none" stroke="#63b8ff" d="M729.96,-439.99C684.2,-429.65 622.84,-415.79 580.84,-406.31"/>
<polygon fill="#63b8ff" stroke="#63b8ff" points="581.4,-402.84 570.87,-404.05 579.85,-409.67 581.4,-402.84"/>
</a>
</g>
</g>
<!-- Node6 -->
<g id="Node000006" class="node">
<title>Node6</title>
<g id="a_Node000006"><a xlink:href="detail_2casting_2cast_8hxx.html" target="_top" xlink:title=" ">
<polygon fill="white" stroke="#666666" points="627.5,-294 508.5,-294 508.5,-264 627.5,-264 627.5,-294"/>
<text text-anchor="start" x="516.5" y="-282" font-family="Helvetica,sans-Serif" font-size="10.00">corelib/detail/casting</text>
<text text-anchor="middle" x="568" y="-271" font-family="Helvetica,sans-Serif" font-size="10.00">/cast.hxx</text>
</a>
</g>
</g>
<!-- Node1&#45;&gt;Node6 -->
<g id="edge48_Node000001_Node000006" class="edge">
<title>Node1&#45;&gt;Node6</title>
<g id="a_edge48_Node000001_Node000006"><a xlink:title=" ">
<path fill="none" stroke="#63b8ff" d="M773.67,-439.76C734.03,-408.97 640.21,-336.09 594.27,-300.4"/>
<polygon fill="#63b8ff" stroke="#63b8ff" points="596.31,-297.56 586.27,-294.19 592.02,-303.09 596.31,-297.56"/>
</a>
</g>
</g>
<!-- Node9 -->
<g id="Node000009" class="node">
<title>Node9</title>
<g id="a_Node000009"><a xlink:href="tracing_8hxx.html" target="_top" xlink:title=" ">
<polygon fill="white" stroke="#666666" points="236,-85 88,-85 88,-66 236,-66 236,-85"/>
<text text-anchor="middle" x="162" y="-73" font-family="Helvetica,sans-Serif" font-size="10.00">corelib/internal/tracing.hxx</text>
</a>
</g>
</g>
<!-- Node1&#45;&gt;Node9 -->
<g id="edge50_Node000001_Node000009" class="edge">
<title>Node1&#45;&gt;Node9</title>
<g id="a_edge50_Node000001_Node000009"><a xlink:title=" ">
<path fill="none" stroke="#63b8ff" d="M728.86,-451.58C541.23,-443.54 0,-413.99 0,-340.5 0,-340.5 0,-340.5 0,-212 0,-147 77.69,-107.04 125.47,-88.62"/>
<polygon fill="#63b8ff" stroke="#63b8ff" points="126.73,-91.88 134.88,-85.11 124.29,-85.32 126.73,-91.88"/>
</a>
</g>
</g>
<!-- Node13 -->
<g id="Node000013" class="node">
<title>Node13</title>
<g id="a_Node000013"><a xlink:href="traits_8hxx.html" target="_top" xlink:title=" ">
<polygon fill="white" stroke="#666666" points="665.5,-162 546.5,-162 546.5,-132 665.5,-132 665.5,-162"/>
<text text-anchor="start" x="554.5" y="-150" font-family="Helvetica,sans-Serif" font-size="10.00">corelib/detail/casting</text>
<text text-anchor="middle" x="606" y="-139" font-family="Helvetica,sans-Serif" font-size="10.00">/traits.hxx</text>
</a>
</g>
</g>
<!-- Node1&#45;&gt;Node13 -->
<g id="edge49_Node000001_Node000013" class="edge">
<title>Node1&#45;&gt;Node13</title>
<g id="a_edge49_Node000001_Node000013"><a xlink:title=" ">
<path fill="none" stroke="#63b8ff" d="M791.51,-439.91C789.33,-397.93 777.45,-272.01 713,-198 700.73,-183.91 683.64,-173.52 666.71,-165.97"/>
<polygon fill="#63b8ff" stroke="#63b8ff" points="667.93,-162.69 657.35,-162.07 665.24,-169.15 667.93,-162.69"/>
</a>
</g>
</g>
<!-- Node18 -->
<g id="Node000018" class="node">
<title>Node18</title>
<g id="a_Node000018"><a xlink:href="type__name_8hxx.html" target="_top" xlink:title=" ">
<polygon fill="white" stroke="#666666" points="1024,-162 918,-162 918,-132 1024,-132 1024,-162"/>
<text text-anchor="start" x="926" y="-150" font-family="Helvetica,sans-Serif" font-size="10.00">corelib/utility/type</text>
<text text-anchor="middle" x="971" y="-139" font-family="Helvetica,sans-Serif" font-size="10.00">_name.hxx</text>
</a>
</g>
</g>
<!-- Node1&#45;&gt;Node18 -->
<g id="edge51_Node000001_Node000018" class="edge">
<title>Node1&#45;&gt;Node18</title>
<g id="a_edge51_Node000001_Node000018"><a xlink:title=" ">
<path fill="none" stroke="#63b8ff" d="M854.95,-439.91C904.41,-424.68 965,-394.92 965,-340.5 965,-340.5 965,-340.5 965,-278 965,-241.03 967.45,-198.21 969.22,-172.12"/>
<polygon fill="#63b8ff" stroke="#63b8ff" points="972.72,-172.25 969.93,-162.03 965.74,-171.76 972.72,-172.25"/>
</a>
</g>
</g>
<!-- Node4&#45;&gt;Node2 -->
<g id="edge4_Node000004_Node000002" class="edge">
<title>Node4&#45;&gt;Node2</title>
<g id="a_edge4_Node000004_Node000002"><a xlink:title=" ">
<path fill="none" stroke="#63b8ff" d="M502.31,-384.95C476.45,-377.19 438.83,-364.59 408,-349 322.31,-305.66 298.01,-294.78 229,-228 209.42,-209.05 191.81,-182.82 181.26,-165.64"/>
<polygon fill="#63b8ff" stroke="#63b8ff" points="184.05,-163.47 175.91,-156.69 178.04,-167.07 184.05,-163.47"/>
</a>
</g>
</g>
<!-- Node4&#45;&gt;Node3 -->
<g id="edge5_Node000004_Node000003" class="edge">
<title>Node4&#45;&gt;Node3</title>
<g id="a_edge5_Node000004_Node000003"><a xlink:title=" ">
<path fill="none" stroke="#63b8ff" d="M557.89,-384.99C611.57,-365.46 739.36,-312.5 813,-228 828.68,-210.01 838.65,-184.07 844.03,-166.66"/>
<polygon fill="#63b8ff" stroke="#63b8ff" points="847.52,-167.19 846.91,-156.61 840.79,-165.26 847.52,-167.19"/>
</a>
</g>
</g>
<!-- Node5 -->
<g id="Node000005" class="node">
<title>Node5</title>
<g id="a_Node000005"><a xlink:href="casting_2isa_8hxx.html" target="_top" xlink:title=" ">
<polygon fill="white" stroke="#666666" points="596,-349 470,-349 470,-330 596,-330 596,-349"/>
<text text-anchor="middle" x="533" y="-337" font-family="Helvetica,sans-Serif" font-size="10.00">corelib/casting/isa.hxx</text>
</a>
</g>
</g>
<!-- Node4&#45;&gt;Node5 -->
<g id="edge6_Node000004_Node000005" class="edge">
<title>Node4&#45;&gt;Node5</title>
<g id="a_edge6_Node000004_Node000005"><a xlink:title=" ">
<path fill="none" stroke="#63b8ff" d="M533,-384.75C533,-377.8 533,-367.85 533,-359.13"/>
<polygon fill="#63b8ff" stroke="#63b8ff" points="536.5,-359.09 533,-349.09 529.5,-359.09 536.5,-359.09"/>
</a>
</g>
</g>
<!-- Node4&#45;&gt;Node6 -->
<g id="edge44_Node000004_Node000006" class="edge">
<title>Node4&#45;&gt;Node6</title>
<g id="a_edge44_Node000004_Node000006"><a xlink:title=" ">
<path fill="none" stroke="#63b8ff" d="M558.85,-384.99C575.27,-378.09 595.2,-366.58 605,-349 613.8,-333.22 603.49,-315.23 591.54,-301.57"/>
<polygon fill="#63b8ff" stroke="#63b8ff" points="593.86,-298.94 584.44,-294.08 588.78,-303.75 593.86,-298.94"/>
</a>
</g>
</g>
<!-- Node4&#45;&gt;Node9 -->
<g id="edge46_Node000004_Node000009" class="edge">
<title>Node4&#45;&gt;Node9</title>
<g id="a_edge46_Node000004_Node000009"><a xlink:title=" ">
<path fill="none" stroke="#63b8ff" d="M466.83,-389.53C371.22,-379.73 198.15,-345.76 127,-228 104.79,-191.24 101.43,-172.4 116,-132 121.61,-116.43 133.71,-102.13 144.09,-91.95"/>
<polygon fill="#63b8ff" stroke="#63b8ff" points="146.61,-94.38 151.55,-85.01 141.85,-89.25 146.61,-94.38"/>
</a>
</g>
</g>
<!-- Node11 -->
<g id="Node000011" class="node">
<title>Node11</title>
<g id="a_Node000011"><a xlink:href="adapters_8hxx.html" target="_top" xlink:title=" ">
<polygon fill="white" stroke="#666666" points="413.5,-228 294.5,-228 294.5,-198 413.5,-198 413.5,-228"/>
<text text-anchor="start" x="302.5" y="-216" font-family="Helvetica,sans-Serif" font-size="10.00">corelib/detail/casting</text>
<text text-anchor="middle" x="354" y="-205" font-family="Helvetica,sans-Serif" font-size="10.00">/adapters.hxx</text>
</a>
</g>
</g>
<!-- Node4&#45;&gt;Node11 -->
<g id="edge43_Node000004_Node000011" class="edge">
<title>Node4&#45;&gt;Node11</title>
<g id="a_edge43_Node000004_Node000011"><a xlink:title=" ">
<path fill="none" stroke="#63b8ff" d="M497.6,-384.94C475.53,-378.15 447.68,-366.79 428,-349 393.77,-318.05 372.06,-267.45 361.54,-237.77"/>
<polygon fill="#63b8ff" stroke="#63b8ff" points="364.82,-236.56 358.29,-228.22 358.2,-238.81 364.82,-236.56"/>
</a>
</g>
</g>
<!-- Node4&#45;&gt;Node13 -->
<g id="edge45_Node000004_Node000013" class="edge">
<title>Node4&#45;&gt;Node13</title>
<g id="a_edge45_Node000004_Node000013"><a xlink:title=" ">
<path fill="none" stroke="#63b8ff" d="M507.15,-384.99C490.73,-378.09 470.8,-366.58 461,-349 456.89,-341.62 459.34,-338.28 461,-330 473.46,-267.68 473.65,-245.39 516,-198 527.74,-184.87 543.77,-174.43 559.06,-166.57"/>
<polygon fill="#63b8ff" stroke="#63b8ff" points="560.98,-169.53 568.44,-162.01 557.92,-163.24 560.98,-169.53"/>
</a>
</g>
</g>
<!-- Node4&#45;&gt;Node18 -->
<g id="edge47_Node000004_Node000018" class="edge">
<title>Node4&#45;&gt;Node18</title>
<g id="a_edge47_Node000004_Node000018"><a xlink:title=" ">
<path fill="none" stroke="#63b8ff" d="M567.32,-384.99C596.56,-377.21 639.37,-364.57 675,-349 785.84,-300.56 899.33,-209.51 947.3,-168.7"/>
<polygon fill="#63b8ff" stroke="#63b8ff" points="949.64,-171.31 954.95,-162.14 945.08,-165.99 949.64,-171.31"/>
</a>
</g>
</g>
<!-- Node5&#45;&gt;Node6 -->
<g id="edge7_Node000005_Node000006" class="edge">
<title>Node5&#45;&gt;Node6</title>
<g id="a_edge7_Node000005_Node000006"><a xlink:title=" ">
<path fill="none" stroke="#63b8ff" d="M538.16,-329.87C542.43,-322.74 548.68,-312.28 554.37,-302.79"/>
<polygon fill="#63b8ff" stroke="#63b8ff" points="557.42,-304.49 559.56,-294.11 551.42,-300.9 557.42,-304.49"/>
</a>
</g>
</g>
<!-- Node5&#45;&gt;Node9 -->
<g id="edge42_Node000005_Node000009" class="edge">
<title>Node5&#45;&gt;Node9</title>
<g id="a_edge42_Node000005_Node000009"><a xlink:title=" ">
<path fill="none" stroke="#63b8ff" d="M469.71,-334.8C389.12,-327.02 249.51,-302.88 159,-228 124.13,-199.15 111.88,-175.32 125,-132 129.4,-117.45 139.02,-103.23 147.34,-92.83"/>
<polygon fill="#63b8ff" stroke="#63b8ff" points="150.12,-94.97 153.89,-85.06 144.77,-90.45 150.12,-94.97"/>
</a>
</g>
</g>
<!-- Node5&#45;&gt;Node13 -->
<g id="edge41_Node000005_Node000013" class="edge">
<title>Node5&#45;&gt;Node13</title>
<g id="a_edge41_Node000005_Node000013"><a xlink:title=" ">
<path fill="none" stroke="#63b8ff" d="M523.98,-329.96C515.93,-321.66 504.71,-308.25 500,-294 495.82,-281.34 495.18,-276.43 500,-264 515.59,-223.84 552.28,-189.09 578.1,-168.35"/>
<polygon fill="#63b8ff" stroke="#63b8ff" points="580.35,-171.04 586.07,-162.12 576.03,-165.53 580.35,-171.04"/>
</a>
</g>
</g>
<!-- Node6&#45;&gt;Node2 -->
<g id="edge8_Node000006_Node000002" class="edge">
<title>Node6&#45;&gt;Node2</title>
<g id="a_edge8_Node000006_Node000002"><a xlink:title=" ">
<path fill="none" stroke="#63b8ff" d="M508.46,-275C449.69,-270.33 358.27,-258.41 285,-228 246.92,-212.2 209,-181.96 187.91,-163.52"/>
<polygon fill="#63b8ff" stroke="#63b8ff" points="189.99,-160.68 180.2,-156.64 185.33,-165.91 189.99,-160.68"/>
</a>
</g>
</g>
<!-- Node6&#45;&gt;Node3 -->
<g id="edge11_Node000006_Node000003" class="edge">
<title>Node6&#45;&gt;Node3</title>
<g id="a_edge11_Node000006_Node000003"><a xlink:title=" ">
<path fill="none" stroke="#63b8ff" d="M627.91,-274.62C673.64,-269.67 736.65,-257.55 784,-228 808.96,-212.42 828.68,-183.84 839.58,-165.4"/>
<polygon fill="#63b8ff" stroke="#63b8ff" points="842.7,-166.99 844.59,-156.57 836.61,-163.54 842.7,-166.99"/>
</a>
</g>
</g>
<!-- Node7 -->
<g id="Node000007" class="node">
<title>Node7</title>
<g id="a_Node000007"><a xlink:title=" ">
<polygon fill="#e0e0e0" stroke="#999999" points="404,-85 348,-85 348,-66 404,-66 404,-85"/>
<text text-anchor="middle" x="376" y="-73" font-family="Helvetica,sans-Serif" font-size="10.00">optional</text>
</a>
</g>
</g>
<!-- Node6&#45;&gt;Node7 -->
<g id="edge9_Node000006_Node000007" class="edge">
<title>Node6&#45;&gt;Node7</title>
<g id="a_edge9_Node000006_Node000007"><a xlink:title=" ">
<path fill="none" stroke="#63b8ff" d="M561.57,-264C548.2,-236.06 515.01,-172.61 472,-132 460.88,-121.5 426.57,-102.65 402.15,-89.86"/>
<polygon fill="#63b8ff" stroke="#63b8ff" points="403.52,-86.63 393.03,-85.13 400.29,-92.84 403.52,-86.63"/>
</a>
</g>
</g>
<!-- Node8 -->
<g id="Node000008" class="node">
<title>Node8</title>
<g id="a_Node000008"><a xlink:title=" ">
<polygon fill="#e0e0e0" stroke="#999999" points="663.5,-19 594.5,-19 594.5,0 663.5,0 663.5,-19"/>
<text text-anchor="middle" x="629" y="-7" font-family="Helvetica,sans-Serif" font-size="10.00">type_traits</text>
</a>
</g>
</g>
<!-- Node6&#45;&gt;Node8 -->
<g id="edge10_Node000006_Node000008" class="edge">
<title>Node6&#45;&gt;Node8</title>
<g id="a_edge10_Node000006_Node000008"><a xlink:title=" ">
<path fill="none" stroke="#63b8ff" d="M627.65,-265.55C655.33,-257.82 687.63,-245.86 713,-228 757.72,-196.51 747.85,-166.85 790,-132 816.36,-110.21 840.36,-125.3 858,-96 899.85,-26.5 751.5,-13.12 673.67,-10.8"/>
<polygon fill="#63b8ff" stroke="#63b8ff" points="673.73,-7.3 663.64,-10.55 673.55,-14.3 673.73,-7.3"/>
</a>
</g>
</g>
<!-- Node6&#45;&gt;Node9 -->
<g id="edge12_Node000006_Node000009" class="edge">
<title>Node6&#45;&gt;Node9</title>
<g id="a_edge12_Node000006_Node000009"><a xlink:title=" ">
<path fill="none" stroke="#63b8ff" d="M508.34,-277.29C438.95,-274.66 322.02,-264.55 229,-228 180.81,-209.07 157.1,-207.82 133,-162 121.13,-139.44 136.05,-111.03 148.51,-93.32"/>
<polygon fill="#63b8ff" stroke="#63b8ff" points="151.46,-95.22 154.65,-85.11 145.85,-91.02 151.46,-95.22"/>
</a>
</g>
</g>
<!-- Node6&#45;&gt;Node11 -->
<g id="edge14_Node000006_Node000011" class="edge">
<title>Node6&#45;&gt;Node11</title>
<g id="a_edge14_Node000006_Node000011"><a xlink:title=" ">
<path fill="none" stroke="#63b8ff" d="M521.04,-263.95C488.56,-254.24 445.18,-241.27 410.76,-230.98"/>
<polygon fill="#63b8ff" stroke="#63b8ff" points="411.44,-227.52 400.85,-228.01 409.43,-234.23 411.44,-227.52"/>
</a>
</g>
</g>
<!-- Node6&#45;&gt;Node13 -->
<g id="edge40_Node000006_Node000013" class="edge">
<title>Node6&#45;&gt;Node13</title>
<g id="a_edge40_Node000006_Node000013"><a xlink:title=" ">
<path fill="none" stroke="#63b8ff" d="M567.57,-263.74C567.5,-247.43 568.67,-220.13 576,-198 579.18,-188.4 584.45,-178.68 589.68,-170.4"/>
<polygon fill="#63b8ff" stroke="#63b8ff" points="592.62,-172.31 595.26,-162.04 586.8,-168.42 592.62,-172.31"/>
</a>
</g>
</g>
<!-- Node17 -->
<g id="Node000017" class="node">
<title>Node17</title>
<g id="a_Node000017"><a xlink:href="detail_2casting_2isa_8hxx.html" target="_top" xlink:title=" ">
<polygon fill="white" stroke="#666666" points="703.5,-228 584.5,-228 584.5,-198 703.5,-198 703.5,-228"/>
<text text-anchor="start" x="592.5" y="-216" font-family="Helvetica,sans-Serif" font-size="10.00">corelib/detail/casting</text>
<text text-anchor="middle" x="644" y="-205" font-family="Helvetica,sans-Serif" font-size="10.00">/isa.hxx</text>
</a>
</g>
</g>
<!-- Node6&#45;&gt;Node17 -->
<g id="edge31_Node000006_Node000017" class="edge">
<title>Node6&#45;&gt;Node17</title>
<g id="a_edge31_Node000006_Node000017"><a xlink:title=" ">
<path fill="none" stroke="#63b8ff" d="M584.87,-263.8C595,-255.26 608.08,-244.25 619.35,-234.75"/>
<polygon fill="#63b8ff" stroke="#63b8ff" points="621.79,-237.28 627.18,-228.16 617.28,-231.93 621.79,-237.28"/>
</a>
</g>
</g>
<!-- Node10 -->
<g id="Node000010" class="node">
<title>Node10</title>
<g id="a_Node000010"><a xlink:title=" ">
<polygon fill="#e0e0e0" stroke="#999999" points="214,-19 110,-19 110,0 214,0 214,-19"/>
<text text-anchor="middle" x="162" y="-7" font-family="Helvetica,sans-Serif" font-size="10.00">debug/tracing.hxx</text>
</a>
</g>
</g>
<!-- Node9&#45;&gt;Node10 -->
<g id="edge13_Node000009_Node000010" class="edge">
<title>Node9&#45;&gt;Node10</title>
<g id="a_edge13_Node000009_Node000010"><a xlink:title=" ">
<path fill="none" stroke="#63b8ff" d="M162,-65.87C162,-56.66 162,-41.79 162,-29.77"/>
<polygon fill="#63b8ff" stroke="#63b8ff" points="165.5,-29.41 162,-19.41 158.5,-29.41 165.5,-29.41"/>
</a>
</g>
</g>
<!-- Node11&#45;&gt;Node2 -->
<g id="edge15_Node000011_Node000002" class="edge">
<title>Node11&#45;&gt;Node2</title>
<g id="a_edge15_Node000011_Node000002"><a xlink:title=" ">
<path fill="none" stroke="#63b8ff" d="M313.84,-197.95C281.18,-186.53 235.62,-170.6 204.81,-159.82"/>
<polygon fill="#63b8ff" stroke="#63b8ff" points="205.95,-156.51 195.35,-156.52 203.64,-163.12 205.95,-156.51"/>
</a>
</g>
</g>
<!-- Node11&#45;&gt;Node7 -->
<g id="edge16_Node000011_Node000007" class="edge">
<title>Node11&#45;&gt;Node7</title>
<g id="a_edge16_Node000011_Node000007"><a xlink:title=" ">
<path fill="none" stroke="#63b8ff" d="M409.04,-197.91C427.18,-190.36 445.41,-178.99 456,-162 463.05,-150.69 462.18,-143.81 456,-132 449.92,-120.39 421.86,-102.48 400.67,-90.17"/>
<polygon fill="#63b8ff" stroke="#63b8ff" points="402.23,-87.03 391.81,-85.1 398.76,-93.1 402.23,-87.03"/>
</a>
</g>
</g>
<!-- Node11&#45;&gt;Node8 -->
<g id="edge17_Node000011_Node000008" class="edge">
<title>Node11&#45;&gt;Node8</title>
<g id="a_edge17_Node000011_Node000008"><a xlink:title=" ">
<path fill="none" stroke="#63b8ff" d="M366.25,-197.81C378.69,-181.57 394.73,-154.33 384,-132 372.9,-108.92 350.1,-119.08 339,-96 331.11,-79.58 327.13,-68.83 339,-55 370.03,-18.85 510.54,-11.77 583.97,-10.58"/>
<polygon fill="#63b8ff" stroke="#63b8ff" points="584.35,-14.07 594.3,-10.44 584.26,-7.07 584.35,-14.07"/>
</a>
</g>
</g>
<!-- Node11&#45;&gt;Node9 -->
<g id="edge30_Node000011_Node000009" class="edge">
<title>Node11&#45;&gt;Node9</title>
<g id="a_edge30_Node000011_Node000009"><a xlink:title=" ">
<path fill="none" stroke="#63b8ff" d="M315.6,-197.91C294.39,-189.2 268.14,-176.86 247,-162 218.32,-141.84 190.79,-111.46 175.18,-92.87"/>
<polygon fill="#63b8ff" stroke="#63b8ff" points="177.76,-90.5 168.7,-85.01 172.35,-94.95 177.76,-90.5"/>
</a>
</g>
</g>
<!-- Node12 -->
<g id="Node000012" class="node">
<title>Node12</title>
<g id="a_Node000012"><a xlink:href="forwarding_8hxx.html" target="_top" xlink:title=" ">
<polygon fill="white" stroke="#666666" points="375.5,-162 256.5,-162 256.5,-132 375.5,-132 375.5,-162"/>
<text text-anchor="start" x="264.5" y="-150" font-family="Helvetica,sans-Serif" font-size="10.00">corelib/detail/casting</text>
<text text-anchor="middle" x="316" y="-139" font-family="Helvetica,sans-Serif" font-size="10.00">/forwarding.hxx</text>
</a>
</g>
</g>
<!-- Node11&#45;&gt;Node12 -->
<g id="edge18_Node000011_Node000012" class="edge">
<title>Node11&#45;&gt;Node12</title>
<g id="a_edge18_Node000011_Node000012"><a xlink:title=" ">
<path fill="none" stroke="#63b8ff" d="M345.57,-197.8C340.89,-189.92 334.97,-179.95 329.65,-170.99"/>
<polygon fill="#63b8ff" stroke="#63b8ff" points="332.52,-168.98 324.41,-162.16 326.51,-172.55 332.52,-168.98"/>
</a>
</g>
</g>
<!-- Node11&#45;&gt;Node13 -->
<g id="edge21_Node000011_Node000013" class="edge">
<title>Node11&#45;&gt;Node13</title>
<g id="a_edge21_Node000011_Node000013"><a xlink:title=" ">
<path fill="none" stroke="#63b8ff" d="M409.3,-197.95C448.12,-188.1 500.17,-174.88 540.98,-164.51"/>
<polygon fill="#63b8ff" stroke="#63b8ff" points="542,-167.87 550.83,-162.01 540.27,-161.08 542,-167.87"/>
</a>
</g>
</g>
<!-- Node12&#45;&gt;Node8 -->
<g id="edge19_Node000012_Node000008" class="edge">
<title>Node12&#45;&gt;Node8</title>
<g id="a_edge19_Node000012_Node000008"><a xlink:title=" ">
<path fill="none" stroke="#63b8ff" d="M308.6,-131.74C299.51,-111.99 287.41,-76.33 306,-55 341.55,-14.21 504.12,-9.53 584.18,-9.77"/>
<polygon fill="#63b8ff" stroke="#63b8ff" points="584.43,-13.27 594.45,-9.83 584.47,-6.27 584.43,-13.27"/>
</a>
</g>
</g>
<!-- Node12&#45;&gt;Node9 -->
<g id="edge20_Node000012_Node000009" class="edge">
<title>Node12&#45;&gt;Node9</title>
<g id="a_edge20_Node000012_Node000009"><a xlink:title=" ">
<path fill="none" stroke="#63b8ff" d="M284.84,-131.94C257.13,-119.43 216.96,-101.31 190.19,-89.22"/>
<polygon fill="#63b8ff" stroke="#63b8ff" points="191.54,-85.99 180.98,-85.07 188.66,-92.37 191.54,-85.99"/>
</a>
</g>
</g>
<!-- Node13&#45;&gt;Node7 -->
<g id="edge23_Node000013_Node000007" class="edge">
<title>Node13&#45;&gt;Node7</title>
<g id="a_edge23_Node000013_Node000007"><a xlink:title=" ">
<path fill="none" stroke="#63b8ff" d="M546.13,-133.97C507.71,-125.38 457.13,-112.45 414,-96 409.31,-94.21 404.44,-92 399.82,-89.73"/>
<polygon fill="#63b8ff" stroke="#63b8ff" points="401.3,-86.55 390.81,-85.06 398.08,-92.77 401.3,-86.55"/>
</a>
</g>
</g>
<!-- Node13&#45;&gt;Node8 -->
<g id="edge24_Node000013_Node000008" class="edge">
<title>Node13&#45;&gt;Node8</title>
<g id="a_edge24_Node000013_Node000008"><a xlink:title=" ">
<path fill="none" stroke="#63b8ff" d="M600.81,-131.74C594.97,-113.49 587.38,-81.11 596,-55 599.46,-44.54 606.43,-34.53 613.08,-26.66"/>
<polygon fill="#63b8ff" stroke="#63b8ff" points="615.86,-28.8 619.98,-19.04 610.67,-24.1 615.86,-28.8"/>
</a>
</g>
</g>
<!-- Node13&#45;&gt;Node9 -->
<g id="edge25_Node000013_Node000009" class="edge">
<title>Node13&#45;&gt;Node9</title>
<g id="a_edge25_Node000013_Node000009"><a xlink:title=" ">
<path fill="none" stroke="#63b8ff" d="M546.12,-136.63C462.76,-123.58 312.33,-100.03 226.55,-86.6"/>
<polygon fill="#63b8ff" stroke="#63b8ff" points="226.83,-83.11 216.41,-85.02 225.75,-90.02 226.83,-83.11"/>
</a>
</g>
</g>
<!-- Node14 -->
<g id="Node000014" class="node">
<title>Node14</title>
<g id="a_Node000014"><a xlink:title=" ">
<polygon fill="#e0e0e0" stroke="#999999" points="830.5,-85 777.5,-85 777.5,-66 830.5,-66 830.5,-85"/>
<text text-anchor="middle" x="804" y="-73" font-family="Helvetica,sans-Serif" font-size="10.00">cstddef</text>
</a>
</g>
</g>
<!-- Node13&#45;&gt;Node14 -->
<g id="edge22_Node000013_Node000014" class="edge">
<title>Node13&#45;&gt;Node14</title>
<g id="a_edge22_Node000013_Node000014"><a xlink:title=" ">
<path fill="none" stroke="#63b8ff" d="M662.11,-131.94C694.03,-123.16 734.42,-110.74 769,-96 773.03,-94.28 777.2,-92.23 781.19,-90.11"/>
<polygon fill="#63b8ff" stroke="#63b8ff" points="783.01,-93.1 790.04,-85.17 779.6,-86.99 783.01,-93.1"/>
</a>
</g>
</g>
<!-- Node15 -->
<g id="Node000015" class="node">
<title>Node15</title>
<g id="a_Node000015"><a xlink:href="add__const__past__pointer_8hxx.html" target="_top" xlink:title=" ">
<polygon fill="white" stroke="#666666" points="759.5,-90.5 604.5,-90.5 604.5,-60.5 759.5,-60.5 759.5,-90.5"/>
<text text-anchor="start" x="612.5" y="-78.5" font-family="Helvetica,sans-Serif" font-size="10.00">corelib/type_traits</text>
<text text-anchor="middle" x="682" y="-67.5" font-family="Helvetica,sans-Serif" font-size="10.00">/add_const_past_pointer.hxx</text>
</a>
</g>
</g>
<!-- Node13&#45;&gt;Node15 -->
<g id="edge26_Node000013_Node000015" class="edge">
<title>Node13&#45;&gt;Node15</title>
<g id="a_edge26_Node000013_Node000015"><a xlink:title=" ">
<path fill="none" stroke="#63b8ff" d="M621.38,-131.94C632.2,-122.04 646.86,-108.64 659.05,-97.49"/>
<polygon fill="#63b8ff" stroke="#63b8ff" points="661.63,-99.87 666.64,-90.54 656.9,-94.71 661.63,-99.87"/>
</a>
</g>
</g>
<!-- Node16 -->
<g id="Node000016" class="node">
<title>Node16</title>
<g id="a_Node000016"><a xlink:href="add__lvalue__reference__if__not__pointer_8hxx.html" target="_top" xlink:title=" ">
<polygon fill="white" stroke="#666666" points="547.5,-96 422.5,-96 422.5,-55 547.5,-55 547.5,-96"/>
<text text-anchor="start" x="430.5" y="-84" font-family="Helvetica,sans-Serif" font-size="10.00">corelib/type_traits</text>
<text text-anchor="start" x="430.5" y="-73" font-family="Helvetica,sans-Serif" font-size="10.00">/add_lvalue_reference</text>
<text text-anchor="middle" x="485" y="-62" font-family="Helvetica,sans-Serif" font-size="10.00">_if_not_pointer.hxx</text>
</a>
</g>
</g>
<!-- Node13&#45;&gt;Node16 -->
<g id="edge28_Node000013_Node000016" class="edge">
<title>Node13&#45;&gt;Node16</title>
<g id="a_edge28_Node000013_Node000016"><a xlink:title=" ">
<path fill="none" stroke="#63b8ff" d="M581.51,-131.94C566.22,-123.15 546.11,-111.6 528.2,-101.32"/>
<polygon fill="#63b8ff" stroke="#63b8ff" points="529.49,-98.02 519.08,-96.07 526.01,-104.09 529.49,-98.02"/>
</a>
</g>
</g>
<!-- Node15&#45;&gt;Node8 -->
<g id="edge27_Node000015_Node000008" class="edge">
<title>Node15&#45;&gt;Node8</title>
<g id="a_edge27_Node000015_Node000008"><a xlink:title=" ">
<path fill="none" stroke="#63b8ff" d="M670.24,-60.3C662.14,-50.51 651.34,-37.48 642.83,-27.2"/>
<polygon fill="#63b8ff" stroke="#63b8ff" points="645.4,-24.81 636.32,-19.34 640.01,-29.28 645.4,-24.81"/>
</a>
</g>
</g>
<!-- Node16&#45;&gt;Node8 -->
<g id="edge29_Node000016_Node000008" class="edge">
<title>Node16&#45;&gt;Node8</title>
<g id="a_edge29_Node000016_Node000008"><a xlink:title=" ">
<path fill="none" stroke="#63b8ff" d="M528.99,-54.95C552.16,-44.65 579.92,-32.31 600.3,-23.25"/>
<polygon fill="#63b8ff" stroke="#63b8ff" points="601.95,-26.35 609.67,-19.09 599.11,-19.95 601.95,-26.35"/>
</a>
</g>
</g>
<!-- Node17&#45;&gt;Node2 -->
<g id="edge32_Node000017_Node000002" class="edge">
<title>Node17&#45;&gt;Node2</title>
<g id="a_edge32_Node000017_Node000002"><a xlink:title=" ">
<path fill="none" stroke="#63b8ff" d="M584.33,-205.56C506.52,-196.91 366.28,-180.48 247,-162 235,-160.14 221.99,-157.85 210.18,-155.66"/>
<polygon fill="#63b8ff" stroke="#63b8ff" points="210.64,-152.18 200.17,-153.77 209.35,-159.06 210.64,-152.18"/>
</a>
</g>
</g>
<!-- Node17&#45;&gt;Node3 -->
<g id="edge34_Node000017_Node000003" class="edge">
<title>Node17&#45;&gt;Node3</title>
<g id="a_edge34_Node000017_Node000003"><a xlink:title=" ">
<path fill="none" stroke="#63b8ff" d="M688.99,-197.95C725.89,-186.43 777.5,-170.32 812.02,-159.54"/>
<polygon fill="#63b8ff" stroke="#63b8ff" points="813.22,-162.84 821.72,-156.52 811.13,-156.16 813.22,-162.84"/>
</a>
</g>
</g>
<!-- Node17&#45;&gt;Node8 -->
<g id="edge33_Node000017_Node000008" class="edge">
<title>Node17&#45;&gt;Node8</title>
<g id="a_edge33_Node000017_Node000008"><a xlink:title=" ">
<path fill="none" stroke="#63b8ff" d="M661.44,-197.73C682.82,-180.66 720.6,-151.92 756,-132 791.4,-112.08 817.64,-129.91 840,-96 850.03,-80.79 851.48,-69.15 840,-55 819.51,-29.73 729.59,-18.26 673.95,-13.5"/>
<polygon fill="#63b8ff" stroke="#63b8ff" points="673.9,-9.99 663.65,-12.66 673.34,-16.96 673.9,-9.99"/>
</a>
</g>
</g>
<!-- Node17&#45;&gt;Node9 -->
<g id="edge36_Node000017_Node000009" class="edge">
<title>Node17&#45;&gt;Node9</title>
<g id="a_edge36_Node000017_Node000009"><a xlink:title=" ">
<path fill="none" stroke="#63b8ff" d="M600.96,-197.98C549.57,-181.43 460.89,-153.42 384,-132 323.69,-115.2 253.51,-98.05 208.47,-87.35"/>
<polygon fill="#63b8ff" stroke="#63b8ff" points="209.23,-83.93 198.69,-85.04 207.62,-90.75 209.23,-83.93"/>
</a>
</g>
</g>
<!-- Node17&#45;&gt;Node13 -->
<g id="edge35_Node000017_Node000013" class="edge">
<title>Node17&#45;&gt;Node13</title>
<g id="a_edge35_Node000017_Node000013"><a xlink:title=" ">
<path fill="none" stroke="#63b8ff" d="M635.57,-197.8C630.89,-189.92 624.97,-179.95 619.65,-170.99"/>
<polygon fill="#63b8ff" stroke="#63b8ff" points="622.52,-168.98 614.41,-162.16 616.51,-172.55 622.52,-168.98"/>
</a>
</g>
</g>
<!-- Node17&#45;&gt;Node18 -->
<g id="edge37_Node000017_Node000018" class="edge">
<title>Node17&#45;&gt;Node18</title>
<g id="a_edge37_Node000017_Node000018"><a xlink:title=" ">
<path fill="none" stroke="#63b8ff" d="M703.58,-201.38C755.06,-192.07 831.7,-177.86 907.7,-162.23"/>
<polygon fill="#63b8ff" stroke="#63b8ff" points="908.84,-165.57 917.93,-160.11 907.43,-158.71 908.84,-165.57"/>
</a>
</g>
</g>
<!-- Node18&#45;&gt;Node8 -->
<g id="edge39_Node000018_Node000008" class="edge">
<title>Node18&#45;&gt;Node8</title>
<g id="a_edge39_Node000018_Node000008"><a xlink:title=" ">
<path fill="none" stroke="#63b8ff" d="M965.98,-131.92C957.87,-111.36 939.8,-73.55 911,-55 872.6,-30.27 743.35,-18.08 673.95,-13.2"/>
<polygon fill="#63b8ff" stroke="#63b8ff" points="673.97,-9.69 663.75,-12.5 673.49,-16.67 673.97,-9.69"/>
</a>
</g>
</g>
<!-- Node19 -->
<g id="Node000019" class="node">
<title>Node19</title>
<g id="a_Node000019"><a xlink:title=" ">
<polygon fill="#e0e0e0" stroke="#999999" points="1036.5,-85 963.5,-85 963.5,-66 1036.5,-66 1036.5,-85"/>
<text text-anchor="middle" x="1000" y="-73" font-family="Helvetica,sans-Serif" font-size="10.00">string_view</text>
</a>
</g>
</g>
<!-- Node18&#45;&gt;Node19 -->
<g id="edge38_Node000018_Node000019" class="edge">
<title>Node18&#45;&gt;Node19</title>
<g id="a_edge38_Node000018_Node000019"><a xlink:title=" ">
<path fill="none" stroke="#63b8ff" d="M976.87,-131.94C981.33,-121.25 987.5,-106.45 992.35,-94.83"/>
<polygon fill="#63b8ff" stroke="#63b8ff" points="995.72,-95.84 996.34,-85.27 989.26,-93.15 995.72,-95.84"/>
</a>
</g>
</g>
</g>
</svg>
