<?xml version="1.0" encoding="UTF-8" standalone="no"?>
<!DOCTYPE svg PUBLIC "-//W3C//DTD SVG 1.1//EN"
 "http://www.w3.org/Graphics/SVG/1.1/DTD/svg11.dtd">
<!-- Generated by graphviz version 2.43.0 (0)
 -->
<!-- Title: include/corelib/extensible&#45;rtti.hxx Pages: 1 -->
<svg width="234pt" height="214pt"
 viewBox="0.00 0.00 234.00 214.00" xmlns="http://www.w3.org/2000/svg" xmlns:xlink="http://www.w3.org/1999/xlink">
<g id="graph0" class="graph" transform="scale(1 1) rotate(0) translate(4 210)">
<title>include/corelib/extensible&#45;rtti.hxx</title>
<!-- Node1 -->
<g id="Node000001" class="node">
<title>Node1</title>
<g id="a_Node000001"><a xlink:title="Convenience header for all extensible RTTI module components.">
<polygon fill="#999999" stroke="#666666" points="184,-206 42,-206 42,-176 184,-176 184,-206"/>
<text text-anchor="start" x="50" y="-194" font-family="Helvetica,sans-Serif" font-size="10.00">include/corelib/extensible</text>
<text text-anchor="middle" x="113" y="-183" font-family="Helvetica,sans-Serif" font-size="10.00">&#45;rtti.hxx</text>
</a>
</g>
</g>
<!-- Node2 -->
<g id="Node000002" class="node">
<title>Node2</title>
<g id="a_Node000002"><a xlink:href="base_8hxx.html" target="_top" xlink:title=" ">
<polygon fill="white" stroke="#666666" points="104,-140 0,-140 0,-110 104,-110 104,-140"/>
<text text-anchor="start" x="8" y="-128" font-family="Helvetica,sans-Serif" font-size="10.00">corelib/extensible</text>
<text text-anchor="middle" x="52" y="-117" font-family="Helvetica,sans-Serif" font-size="10.00">&#45;rtti/base.hxx</text>
</a>
</g>
</g>
<!-- Node1&#45;&gt;Node2 -->
<g id="edge1_Node000001_Node000002" class="edge">
<title>Node1&#45;&gt;Node2</title>
<g id="a_edge1_Node000001_Node000002"><a xlink:title=" ">
<path fill="none" stroke="#63b8ff" d="M99.46,-175.8C91.56,-167.51 81.44,-156.89 72.58,-147.59"/>
<polygon fill="#63b8ff" stroke="#63b8ff" points="74.93,-144.99 65.5,-140.16 69.87,-149.82 74.93,-144.99"/>
</a>
</g>
</g>
<!-- Node5 -->
<g id="Node000005" class="node">
<title>Node5</title>
<g id="a_Node000005"><a xlink:href="extends_8hxx.html" target="_top" xlink:title=" ">
<polygon fill="white" stroke="#666666" points="226,-140 122,-140 122,-110 226,-110 226,-140"/>
<text text-anchor="start" x="130" y="-128" font-family="Helvetica,sans-Serif" font-size="10.00">corelib/extensible</text>
<text text-anchor="middle" x="174" y="-117" font-family="Helvetica,sans-Serif" font-size="10.00">&#45;rtti/extends.hxx</text>
</a>
</g>
</g>
<!-- Node1&#45;&gt;Node5 -->
<g id="edge4_Node000001_Node000005" class="edge">
<title>Node1&#45;&gt;Node5</title>
<g id="a_edge4_Node000001_Node000005"><a xlink:title=" ">
<path fill="none" stroke="#63b8ff" d="M126.54,-175.8C134.44,-167.51 144.56,-156.89 153.42,-147.59"/>
<polygon fill="#63b8ff" stroke="#63b8ff" points="156.13,-149.82 160.5,-140.16 151.07,-144.99 156.13,-149.82"/>
</a>
</g>
</g>
<!-- Node3 -->
<g id="Node000003" class="node">
<title>Node3</title>
<g id="a_Node000003"><a xlink:href="tracing_8hxx.html" target="_top" xlink:title=" ">
<polygon fill="white" stroke="#666666" points="187,-74 39,-74 39,-55 187,-55 187,-74"/>
<text text-anchor="middle" x="113" y="-62" font-family="Helvetica,sans-Serif" font-size="10.00">corelib/internal/tracing.hxx</text>
</a>
</g>
</g>
<!-- Node2&#45;&gt;Node3 -->
<g id="edge2_Node000002_Node000003" class="edge">
<title>Node2&#45;&gt;Node3</title>
<g id="a_edge2_Node000002_Node000003"><a xlink:title=" ">
<path fill="none" stroke="#63b8ff" d="M66.77,-109.84C75.71,-101.26 87.14,-90.3 96.4,-81.42"/>
<polygon fill="#63b8ff" stroke="#63b8ff" points="99.06,-83.71 103.86,-74.27 94.22,-78.66 99.06,-83.71"/>
</a>
</g>
</g>
<!-- Node4 -->
<g id="Node000004" class="node">
<title>Node4</title>
<g id="a_Node000004"><a xlink:title=" ">
<polygon fill="#e0e0e0" stroke="#999999" points="165,-19 61,-19 61,0 165,0 165,-19"/>
<text text-anchor="middle" x="113" y="-7" font-family="Helvetica,sans-Serif" font-size="10.00">debug/tracing.hxx</text>
</a>
</g>
</g>
<!-- Node3&#45;&gt;Node4 -->
<g id="edge3_Node000003_Node000004" class="edge">
<title>Node3&#45;&gt;Node4</title>
<g id="a_edge3_Node000003_Node000004"><a xlink:title=" ">
<path fill="none" stroke="#63b8ff" d="M113,-54.75C113,-47.8 113,-37.85 113,-29.13"/>
<polygon fill="#63b8ff" stroke="#63b8ff" points="116.5,-29.09 113,-19.09 109.5,-29.09 116.5,-29.09"/>
</a>
</g>
</g>
<!-- Node5&#45;&gt;Node3 -->
<g id="edge5_Node000005_Node000003" class="edge">
<title>Node5&#45;&gt;Node3</title>
<g id="a_edge5_Node000005_Node000003"><a xlink:title=" ">
<path fill="none" stroke="#63b8ff" d="M159.23,-109.84C150.29,-101.26 138.86,-90.3 129.6,-81.42"/>
<polygon fill="#63b8ff" stroke="#63b8ff" points="131.78,-78.66 122.14,-74.27 126.94,-83.71 131.78,-78.66"/>
</a>
</g>
</g>
</g>
</svg>
