<?xml version="1.0" encoding="UTF-8" standalone="no"?>
<!DOCTYPE svg PUBLIC "-//W3C//DTD SVG 1.1//EN"
 "http://www.w3.org/Graphics/SVG/1.1/DTD/svg11.dtd">
<!-- Generated by graphviz version 2.43.0 (0)
 -->
<!-- Title: include/corelib/detail/casting/forwarding.hxx Pages: 1 -->
<svg width="244pt" height="148pt"
 viewBox="0.00 0.00 243.50 148.00" xmlns="http://www.w3.org/2000/svg" xmlns:xlink="http://www.w3.org/1999/xlink">

<svg id="main" version="1.1" xmlns="http://www.w3.org/2000/svg" xmlns:xlink="http://www.w3.org/1999/xlink" xml:space="preserve" onload="init(evt)">
<style type="text/css"><![CDATA[
.node, .edge {opacity: 0.7;}
.node.selected, .edge.selected {opacity: 1;}
.edge:hover path { stroke: red; }
.edge:hover polygon { stroke: red; fill: red; }
]]></style>
<script type="application/ecmascript" xlink:href="svg.min.js"/>
<svg id="graph" class="graph">
<g id="graph0" class="graph" transform="scale(1 1) rotate(0) translate(4 144)">
<title>include/corelib/detail/casting/forwarding.hxx</title>
<!-- Node1 -->
<g id="Node000001" class="node">
<title>Node1</title>
<g id="a_Node000001"><a xlink:title=" ">
<polygon fill="#999999" stroke="#666666" points="163,-140 32,-140 32,-110 163,-110 163,-140"/>
<text text-anchor="start" x="40" y="-128" font-family="Helvetica,sans-Serif" font-size="10.00">include/corelib/detail</text>
<text text-anchor="middle" x="97.5" y="-117" font-family="Helvetica,sans-Serif" font-size="10.00">/casting/forwarding.hxx</text>
</a>
</g>
</g>
<!-- Node2 -->
<g id="Node000002" class="node">
<title>Node2</title>
<g id="a_Node000002"><a xlink:title=" ">
<polygon fill="#e0e0e0" stroke="#999999" points="69,-74 0,-74 0,-55 69,-55 69,-74"/>
<text text-anchor="middle" x="34.5" y="-62" font-family="Helvetica,sans-Serif" font-size="10.00">type_traits</text>
</a>
</g>
</g>
<!-- Node1&#45;&gt;Node2 -->
<g id="edge1_Node000001_Node000002" class="edge">
<title>Node1&#45;&gt;Node2</title>
<g id="a_edge1_Node000001_Node000002"><a xlink:title=" ">
<path fill="none" stroke="#63b8ff" d="M82.25,-109.84C72.92,-101.17 60.97,-90.08 51.35,-81.15"/>
<polygon fill="#63b8ff" stroke="#63b8ff" points="53.65,-78.51 43.94,-74.27 48.89,-83.64 53.65,-78.51"/>
</a>
</g>
</g>
<!-- Node3 -->
<g id="Node000003" class="node">
<title>Node3</title>
<g id="a_Node000003"><a xlink:href="tracing_8hxx.html" target="_top" xlink:title=" ">
<polygon fill="white" stroke="#666666" points="235.5,-74 87.5,-74 87.5,-55 235.5,-55 235.5,-74"/>
<text text-anchor="middle" x="161.5" y="-62" font-family="Helvetica,sans-Serif" font-size="10.00">corelib/internal/tracing.hxx</text>
</a>
</g>
</g>
<!-- Node1&#45;&gt;Node3 -->
<g id="edge2_Node000001_Node000003" class="edge">
<title>Node1&#45;&gt;Node3</title>
<g id="a_edge2_Node000001_Node000003"><a xlink:title=" ">
<path fill="none" stroke="#63b8ff" d="M112.99,-109.84C122.47,-101.17 134.61,-90.08 144.38,-81.15"/>
<polygon fill="#63b8ff" stroke="#63b8ff" points="146.89,-83.6 151.91,-74.27 142.17,-78.43 146.89,-83.6"/>
</a>
</g>
</g>
<!-- Node4 -->
<g id="Node000004" class="node">
<title>Node4</title>
<g id="a_Node000004"><a xlink:title=" ">
<polygon fill="#e0e0e0" stroke="#999999" points="213.5,-19 109.5,-19 109.5,0 213.5,0 213.5,-19"/>
<text text-anchor="middle" x="161.5" y="-7" font-family="Helvetica,sans-Serif" font-size="10.00">debug/tracing.hxx</text>
</a>
</g>
</g>
<!-- Node3&#45;&gt;Node4 -->
<g id="edge3_Node000003_Node000004" class="edge">
<title>Node3&#45;&gt;Node4</title>
<g id="a_edge3_Node000003_Node000004"><a xlink:title=" ">
<path fill="none" stroke="#63b8ff" d="M161.5,-54.75C161.5,-47.8 161.5,-37.85 161.5,-29.13"/>
<polygon fill="#63b8ff" stroke="#63b8ff" points="165,-29.09 161.5,-19.09 158,-29.09 165,-29.09"/>
</a>
</g>
</g>
</g>
</svg>
</svg>

<style type='text/css'>
<![CDATA[
[data-mouse-over-selected='false'] { opacity: 0.7; }
[data-mouse-over-selected='true']  { opacity: 1.0; }
]]>
</style>
<script type="application/ecmascript"><![CDATA[
document.addEventListener('DOMContentLoaded', (event) => {
  highlightEdges();
  highlightAdjacentNodes();
});
]]></script>
</svg>
