<?xml version="1.0" encoding="UTF-8" standalone="no"?>
<!DOCTYPE svg PUBLIC "-//W3C//DTD SVG 1.1//EN"
 "http://www.w3.org/Graphics/SVG/1.1/DTD/svg11.dtd">
<!-- Generated by graphviz version 2.43.0 (0)
 -->
<!-- Title: Graphical Class Hierarchy Pages: 1 -->
<svg width="577pt" height="204pt"
 viewBox="0.00 0.00 577.00 203.50" xmlns="http://www.w3.org/2000/svg" xmlns:xlink="http://www.w3.org/1999/xlink">
<g id="graph0" class="graph" transform="scale(1 1) rotate(0) translate(4 199.5)">
<title>Graphical Class Hierarchy</title>
<!-- Node0 -->
<g id="Node000000" class="node">
<title>Node0</title>
<g id="a_Node000000"><a xlink:href="structcorelib_1_1detail_1_1CastIsPossible.html" target="_top" xlink:title=" ">
<polygon fill="white" stroke="#666666" points="160,-188 0,-188 0,-158 160,-158 160,-188"/>
<text text-anchor="start" x="8" y="-176" font-family="Helvetica,sans-Serif" font-size="10.00">corelib::detail::CastIsPossible</text>
<text text-anchor="middle" x="80" y="-165" font-family="Helvetica,sans-Serif" font-size="10.00">&lt; To, From * &gt;</text>
</a>
</g>
</g>
<!-- Node1 -->
<g id="Node000001" class="node">
<title>Node1</title>
<g id="a_Node000001"><a xlink:href="structcorelib_1_1detail_1_1UniquePtrCast.html" target="_top" xlink:title="Casting adapter for std::unique_ptr with ownership transfer.">
<polygon fill="white" stroke="#666666" points="355.5,-190 209.5,-190 209.5,-160 355.5,-160 355.5,-190"/>
<text text-anchor="start" x="217.5" y="-178" font-family="Helvetica,sans-Serif" font-size="10.00">corelib::detail::UniquePtr</text>
<text text-anchor="middle" x="282.5" y="-167" font-family="Helvetica,sans-Serif" font-size="10.00">Cast&lt; To, From, Derived &gt;</text>
</a>
</g>
</g>
<!-- Node0&#45;&gt;Node1 -->
<g id="edge1_Node000000_Node000001" class="edge">
<title>Node0&#45;&gt;Node1</title>
<g id="a_edge1_Node000000_Node000001"><a xlink:title=" ">
<path fill="none" stroke="#63b8ff" d="M170.58,-173.89C183.55,-174.02 196.77,-174.15 209.35,-174.28"/>
<polygon fill="#63b8ff" stroke="#63b8ff" points="170.28,-170.39 160.24,-173.79 170.21,-177.39 170.28,-170.39"/>
</a>
</g>
</g>
<!-- Node3 -->
<g id="Node000003" class="node">
<title>Node3</title>
<g id="a_Node000003"><a xlink:href="structcorelib_1_1detail_1_1ValueFromPointerCast.html" target="_top" xlink:title="Casting adapter for converting pointers to values.">
<polygon fill="white" stroke="#666666" points="353,-141.5 212,-141.5 212,-100.5 353,-100.5 353,-141.5"/>
<text text-anchor="start" x="220" y="-129.5" font-family="Helvetica,sans-Serif" font-size="10.00">corelib::detail::ValueFrom</text>
<text text-anchor="start" x="220" y="-118.5" font-family="Helvetica,sans-Serif" font-size="10.00">PointerCast&lt; To, From,</text>
<text text-anchor="middle" x="282.5" y="-107.5" font-family="Helvetica,sans-Serif" font-size="10.00"> Derived &gt;</text>
</a>
</g>
</g>
<!-- Node0&#45;&gt;Node3 -->
<g id="edge3_Node000000_Node000003" class="edge">
<title>Node0&#45;&gt;Node3</title>
<g id="a_edge3_Node000000_Node000003"><a xlink:title=" ">
<path fill="none" stroke="#63b8ff" d="M148.8,-155.42C169.14,-150.14 191.47,-144.35 211.92,-139.05"/>
<polygon fill="#63b8ff" stroke="#63b8ff" points="147.79,-152.06 138.99,-157.96 149.55,-158.84 147.79,-152.06"/>
</a>
</g>
</g>
<!-- Node2 -->
<g id="Node000002" class="node">
<title>Node2</title>
<g id="a_Node000002"><a xlink:href="structcorelib_1_1detail_1_1CastInfo_3_01To_00_01std_1_1unique__ptr_3_01From_01_4_01_4.html" target="_top" xlink:title="Specialization for std::unique_ptr types.">
<polygon fill="white" stroke="#666666" points="552,-195.5 422,-195.5 422,-154.5 552,-154.5 552,-195.5"/>
<text text-anchor="start" x="430" y="-183.5" font-family="Helvetica,sans-Serif" font-size="10.00">corelib::detail::CastInfo</text>
<text text-anchor="start" x="430" y="-172.5" font-family="Helvetica,sans-Serif" font-size="10.00">&lt; To, std::unique_ptr&lt;</text>
<text text-anchor="middle" x="487" y="-161.5" font-family="Helvetica,sans-Serif" font-size="10.00"> From &gt; &gt;</text>
</a>
</g>
</g>
<!-- Node1&#45;&gt;Node2 -->
<g id="edge2_Node000001_Node000002" class="edge">
<title>Node1&#45;&gt;Node2</title>
<g id="a_edge2_Node000001_Node000002"><a xlink:title=" ">
<path fill="none" stroke="#63b8ff" d="M365.99,-175C384.61,-175 404.12,-175 421.85,-175"/>
<polygon fill="#63b8ff" stroke="#63b8ff" points="365.75,-171.5 355.75,-175 365.75,-178.5 365.75,-171.5"/>
</a>
</g>
</g>
<!-- Node7 -->
<g id="Node000007" class="node">
<title>Node7</title>
<g id="a_Node000007"><a xlink:href="structcorelib_1_1detail_1_1CastIsPossible.html" target="_top" xlink:title=" ">
<polygon fill="white" stroke="#666666" points="160,-30 0,-30 0,0 160,0 160,-30"/>
<text text-anchor="start" x="8" y="-18" font-family="Helvetica,sans-Serif" font-size="10.00">corelib::detail::CastIsPossible</text>
<text text-anchor="middle" x="80" y="-7" font-family="Helvetica,sans-Serif" font-size="10.00">&lt; To, From &gt;</text>
</a>
</g>
</g>
<!-- Node8 -->
<g id="Node000008" class="node">
<title>Node8</title>
<g id="a_Node000008"><a xlink:href="structcorelib_1_1detail_1_1CastInfo.html" target="_top" xlink:title="Main orchestrator for cast operations.">
<polygon fill="white" stroke="#666666" points="347.5,-30 217.5,-30 217.5,0 347.5,0 347.5,-30"/>
<text text-anchor="start" x="225.5" y="-18" font-family="Helvetica,sans-Serif" font-size="10.00">corelib::detail::CastInfo</text>
<text text-anchor="middle" x="282.5" y="-7" font-family="Helvetica,sans-Serif" font-size="10.00">&lt; To, From, Enable &gt;</text>
</a>
</g>
</g>
<!-- Node7&#45;&gt;Node8 -->
<g id="edge4_Node000007_Node000008" class="edge">
<title>Node7&#45;&gt;Node8</title>
<g id="a_edge4_Node000007_Node000008"><a xlink:title=" ">
<path fill="none" stroke="#63b8ff" d="M170.54,-15C186.3,-15 202.43,-15 217.32,-15"/>
<polygon fill="#63b8ff" stroke="#63b8ff" points="170.24,-11.5 160.24,-15 170.24,-18.5 170.24,-11.5"/>
</a>
</g>
</g>
<!-- Node5 -->
<g id="Node000005" class="node">
<title>Node5</title>
<g id="a_Node000005"><a xlink:href="structcorelib_1_1detail_1_1OptionalValueCast.html" target="_top" xlink:title="Casting adapter for optional&#45;returning casts.">
<polygon fill="white" stroke="#666666" points="369,-81 196,-81 196,-51 369,-51 369,-81"/>
<text text-anchor="start" x="204" y="-69" font-family="Helvetica,sans-Serif" font-size="10.00">corelib::detail::Optional</text>
<text text-anchor="middle" x="282.5" y="-58" font-family="Helvetica,sans-Serif" font-size="10.00">ValueCast&lt; To, From, Derived &gt;</text>
</a>
</g>
</g>
<!-- Node7&#45;&gt;Node5 -->
<g id="edge5_Node000007_Node000005" class="edge">
<title>Node7&#45;&gt;Node5</title>
<g id="a_edge5_Node000007_Node000005"><a xlink:title=" ">
<path fill="none" stroke="#63b8ff" d="M150.01,-32.55C173.61,-38.56 199.77,-45.21 222.5,-50.99"/>
<polygon fill="#63b8ff" stroke="#63b8ff" points="150.63,-29.1 140.07,-30.03 148.9,-35.88 150.63,-29.1"/>
</a>
</g>
</g>
<!-- Node6 -->
<g id="Node000006" class="node">
<title>Node6</title>
<g id="a_Node000006"><a xlink:href="structcorelib_1_1detail_1_1CastInfo_3_01To_00_01std_1_1optional_3_01From_01_4_01_4.html" target="_top" xlink:title="Specialization for std::optional types.">
<polygon fill="white" stroke="#666666" points="569,-81 405,-81 405,-51 569,-51 569,-81"/>
<text text-anchor="start" x="413" y="-69" font-family="Helvetica,sans-Serif" font-size="10.00">corelib::detail::CastInfo</text>
<text text-anchor="middle" x="487" y="-58" font-family="Helvetica,sans-Serif" font-size="10.00">&lt; To, std::optional&lt; From &gt; &gt;</text>
</a>
</g>
</g>
<!-- Node5&#45;&gt;Node6 -->
<g id="edge6_Node000005_Node000006" class="edge">
<title>Node5&#45;&gt;Node6</title>
<g id="a_edge6_Node000005_Node000006"><a xlink:title=" ">
<path fill="none" stroke="#63b8ff" d="M379.16,-66C387.77,-66 396.44,-66 404.91,-66"/>
<polygon fill="#63b8ff" stroke="#63b8ff" points="379.08,-62.5 369.08,-66 379.08,-69.5 379.08,-62.5"/>
</a>
</g>
</g>
<!-- Node4 -->
<g id="Node000004" class="node">
<title>Node4</title>
<g id="a_Node000004"><a xlink:href="structcorelib_1_1detail_1_1DefaultDoCastIfPossible.html" target="_top" xlink:title="CRTP base providing default DoCastIfPossible() implementation.">
<polygon fill="white" stroke="#666666" points="142.5,-89.5 17.5,-89.5 17.5,-48.5 142.5,-48.5 142.5,-89.5"/>
<text text-anchor="start" x="25.5" y="-77.5" font-family="Helvetica,sans-Serif" font-size="10.00">corelib::detail::Default</text>
<text text-anchor="start" x="25.5" y="-66.5" font-family="Helvetica,sans-Serif" font-size="10.00">DoCastIfPossible&lt; To,</text>
<text text-anchor="middle" x="80" y="-55.5" font-family="Helvetica,sans-Serif" font-size="10.00"> From, Derived &gt;</text>
</a>
</g>
</g>
<!-- Node4&#45;&gt;Node3 -->
<g id="edge8_Node000004_Node000003" class="edge">
<title>Node4&#45;&gt;Node3</title>
<g id="a_edge8_Node000004_Node000003"><a xlink:title=" ">
<path fill="none" stroke="#63b8ff" d="M152.43,-87.53C171.7,-92.52 192.51,-97.92 211.68,-102.89"/>
<polygon fill="#63b8ff" stroke="#63b8ff" points="153.08,-84.08 142.52,-84.96 151.32,-90.85 153.08,-84.08"/>
</a>
</g>
</g>
<!-- Node4&#45;&gt;Node5 -->
<g id="edge7_Node000004_Node000005" class="edge">
<title>Node4&#45;&gt;Node5</title>
<g id="a_edge7_Node000004_Node000005"><a xlink:title=" ">
<path fill="none" stroke="#63b8ff" d="M152.55,-67.93C166.54,-67.72 181.34,-67.5 195.74,-67.28"/>
<polygon fill="#63b8ff" stroke="#63b8ff" points="152.47,-64.43 142.52,-68.08 152.57,-71.43 152.47,-64.43"/>
</a>
</g>
</g>
<!-- Node9 -->
<g id="Node000009" class="node">
<title>Node9</title>
<g id="a_Node000009"><a xlink:href="structcorelib_1_1detail_1_1NullableValueCastFailed.html" target="_top" xlink:title="Provides default CastFailed() implementation for nullable types.">
<polygon fill="white" stroke="#666666" points="145,-138 15,-138 15,-108 145,-108 145,-138"/>
<text text-anchor="start" x="23" y="-126" font-family="Helvetica,sans-Serif" font-size="10.00">corelib::detail::Nullable</text>
<text text-anchor="middle" x="80" y="-115" font-family="Helvetica,sans-Serif" font-size="10.00">ValueCastFailed&lt; To &gt;</text>
</a>
</g>
</g>
<!-- Node9&#45;&gt;Node3 -->
<g id="edge9_Node000009_Node000003" class="edge">
<title>Node9&#45;&gt;Node3</title>
<g id="a_edge9_Node000009_Node000003"><a xlink:title=" ">
<path fill="none" stroke="#63b8ff" d="M155.36,-122.26C173.8,-122.07 193.49,-121.88 211.7,-121.7"/>
<polygon fill="#63b8ff" stroke="#63b8ff" points="155.23,-118.76 145.27,-122.36 155.3,-125.76 155.23,-118.76"/>
</a>
</g>
</g>
</g>
</svg>
