<?xml version="1.0" encoding="UTF-8" standalone="no"?>
<!DOCTYPE svg PUBLIC "-//W3C//DTD SVG 1.1//EN"
 "http://www.w3.org/Graphics/SVG/1.1/DTD/svg11.dtd">
<!-- Generated by graphviz version 2.43.0 (0)
 -->
<!-- Title: Graphical Class Hierarchy Pages: 1 -->
<svg width="311pt" height="64pt"
 viewBox="0.00 0.00 311.00 64.00" xmlns="http://www.w3.org/2000/svg" xmlns:xlink="http://www.w3.org/1999/xlink">
<g id="graph0" class="graph" transform="scale(1 1) rotate(0) translate(4 60)">
<title>Graphical Class Hierarchy</title>
<!-- Node0 -->
<g id="Node000000" class="node">
<title>Node0</title>
<g id="a_Node000000"><a xlink:title=" ">
<polygon fill="#e0e0e0" stroke="#999999" points="102,-56 32,-56 32,-37 102,-37 102,-56"/>
<text text-anchor="middle" x="67" y="-44" font-family="Helvetica,sans-Serif" font-size="10.00">ParentType</text>
</a>
</g>
</g>
<!-- Node1 -->
<g id="Node000001" class="node">
<title>Node1</title>
<g id="a_Node000001"><a xlink:href="classcorelib_1_1rtti_1_1Extends.html" target="_top" xlink:title="CRTP base class template for implementing extensible RTTI hierarchies.">
<polygon fill="white" stroke="#666666" points="303,-48 170,-48 170,-7 303,-7 303,-48"/>
<text text-anchor="start" x="178" y="-36" font-family="Helvetica,sans-Serif" font-size="10.00">corelib::rtti::Extends</text>
<text text-anchor="start" x="178" y="-25" font-family="Helvetica,sans-Serif" font-size="10.00">&lt; ThisType, ParentType,</text>
<text text-anchor="middle" x="236.5" y="-14" font-family="Helvetica,sans-Serif" font-size="10.00"> ParentTypes &gt;</text>
</a>
</g>
</g>
<!-- Node0&#45;&gt;Node1 -->
<g id="edge10_Node000000_Node000001" class="edge">
<title>Node0&#45;&gt;Node1</title>
<g id="a_edge10_Node000000_Node000001"><a xlink:title=" ">
<path fill="none" stroke="#63b8ff" d="M112.28,-41.48C129.87,-39.48 150.47,-37.14 169.74,-34.96"/>
<polygon fill="#63b8ff" stroke="#63b8ff" points="111.84,-38 102.3,-42.61 112.63,-44.96 111.84,-38"/>
</a>
</g>
</g>
<!-- Node2 -->
<g id="Node000002" class="node">
<title>Node2</title>
<g id="a_Node000002"><a xlink:title=" ">
<polygon fill="#e0e0e0" stroke="#999999" points="134,-19 0,-19 0,0 134,0 134,-19"/>
<text text-anchor="middle" x="67" y="-7" font-family="Helvetica,sans-Serif" font-size="10.00">corelib::rtti::ParentTypes</text>
</a>
</g>
</g>
<!-- Node2&#45;&gt;Node1 -->
<g id="edge11_Node000002_Node000001" class="edge">
<title>Node2&#45;&gt;Node1</title>
<g id="a_edge11_Node000002_Node000001"><a xlink:title=" ">
<path fill="none" stroke="#63b8ff" d="M144.17,-17.69C152.72,-18.6 161.38,-19.53 169.78,-20.44"/>
<polygon fill="#63b8ff" stroke="#63b8ff" points="144.52,-14.2 134.2,-16.61 143.77,-21.16 144.52,-14.2"/>
</a>
</g>
</g>
</g>
</svg>
