<?xml version="1.0" encoding="UTF-8" standalone="no"?>
<!DOCTYPE svg PUBLIC "-//W3C//DTD SVG 1.1//EN"
 "http://www.w3.org/Graphics/SVG/1.1/DTD/svg11.dtd">
<!-- Generated by graphviz version 2.43.0 (0)
 -->
<!-- Title: Graphical Class Hierarchy Pages: 1 -->
<svg width="315pt" height="64pt"
 viewBox="0.00 0.00 315.00 64.00" xmlns="http://www.w3.org/2000/svg" xmlns:xlink="http://www.w3.org/1999/xlink">
<g id="graph0" class="graph" transform="scale(1 1) rotate(0) translate(4 60)">
<title>Graphical Class Hierarchy</title>
<!-- Node0 -->
<g id="Node000000" class="node">
<title>Node0</title>
<g id="a_Node000000"><a xlink:title=" ">
<polygon fill="#e0e0e0" stroke="#999999" points="84.5,-56 31.5,-56 31.5,-37 84.5,-37 84.5,-56"/>
<text text-anchor="middle" x="58" y="-44" font-family="Helvetica,sans-Serif" font-size="10.00">ParentT</text>
</a>
</g>
</g>
<!-- Node1 -->
<g id="Node000001" class="node">
<title>Node1</title>
<g id="a_Node000001"><a xlink:href="classcorelib_1_1rtti_1_1Extends.html" target="_top" xlink:title="CRTP base class template for implementing extensible RTTI hierarchies.">
<polygon fill="white" stroke="#666666" points="307,-42.5 152,-42.5 152,-12.5 307,-12.5 307,-42.5"/>
<text text-anchor="start" x="160" y="-30.5" font-family="Helvetica,sans-Serif" font-size="10.00">corelib::rtti::Extends</text>
<text text-anchor="middle" x="229.5" y="-19.5" font-family="Helvetica,sans-Serif" font-size="10.00">&lt; ThisT, ParentT, ParentTs &gt;</text>
</a>
</g>
</g>
<!-- Node0&#45;&gt;Node1 -->
<g id="edge10_Node000000_Node000001" class="edge">
<title>Node0&#45;&gt;Node1</title>
<g id="a_edge10_Node000000_Node000001"><a xlink:title=" ">
<path fill="none" stroke="#63b8ff" d="M95.06,-42.46C111.66,-40.6 132.03,-38.31 151.81,-36.1"/>
<polygon fill="#63b8ff" stroke="#63b8ff" points="94.29,-39.02 84.74,-43.61 95.07,-45.98 94.29,-39.02"/>
</a>
</g>
</g>
<!-- Node2 -->
<g id="Node000002" class="node">
<title>Node2</title>
<g id="a_Node000002"><a xlink:title=" ">
<polygon fill="#e0e0e0" stroke="#999999" points="116,-19 0,-19 0,0 116,0 116,-19"/>
<text text-anchor="middle" x="58" y="-7" font-family="Helvetica,sans-Serif" font-size="10.00">corelib::rtti::ParentTs</text>
</a>
</g>
</g>
<!-- Node2&#45;&gt;Node1 -->
<g id="edge11_Node000002_Node000001" class="edge">
<title>Node2&#45;&gt;Node1</title>
<g id="a_edge11_Node000002_Node000001"><a xlink:title=" ">
<path fill="none" stroke="#63b8ff" d="M126.46,-16.66C134.83,-17.55 143.44,-18.47 151.94,-19.37"/>
<polygon fill="#63b8ff" stroke="#63b8ff" points="126.7,-13.17 116.38,-15.59 125.96,-20.13 126.7,-13.17"/>
</a>
</g>
</g>
</g>
</svg>
