<?xml version="1.0" encoding="UTF-8" standalone="no"?>
<!DOCTYPE svg PUBLIC "-//W3C//DTD SVG 1.1//EN"
 "http://www.w3.org/Graphics/SVG/1.1/DTD/svg11.dtd">
<!-- Generated by graphviz version 2.43.0 (0)
 -->
<!-- Title: include/corelib/math.hxx Pages: 1 -->
<svg width="618pt" height="247pt"
 viewBox="0.00 0.00 618.00 247.00" xmlns="http://www.w3.org/2000/svg" xmlns:xlink="http://www.w3.org/1999/xlink">
<g id="graph0" class="graph" transform="scale(1 1) rotate(0) translate(4 243)">
<title>include/corelib/math.hxx</title>
<!-- Node1 -->
<g id="Node000001" class="node">
<title>Node1</title>
<g id="a_Node000001"><a xlink:title="Convenience header for all math module components.">
<polygon fill="#999999" stroke="#666666" points="373,-239 236,-239 236,-220 373,-220 373,-239"/>
<text text-anchor="middle" x="304.5" y="-227" font-family="Helvetica,sans-Serif" font-size="10.00">include/corelib/math.hxx</text>
</a>
</g>
</g>
<!-- Node2 -->
<g id="Node000002" class="node">
<title>Node2</title>
<g id="a_Node000002"><a xlink:href="vector_8hxx.html" target="_top" xlink:title="Convenience header for all vector classes.">
<polygon fill="white" stroke="#666666" points="370.5,-184 238.5,-184 238.5,-165 370.5,-165 370.5,-184"/>
<text text-anchor="middle" x="304.5" y="-172" font-family="Helvetica,sans-Serif" font-size="10.00">corelib/math/vector.hxx</text>
</a>
</g>
</g>
<!-- Node1&#45;&gt;Node2 -->
<g id="edge1_Node000001_Node000002" class="edge">
<title>Node1&#45;&gt;Node2</title>
<g id="a_edge1_Node000001_Node000002"><a xlink:title=" ">
<path fill="none" stroke="#63b8ff" d="M304.5,-219.75C304.5,-212.8 304.5,-202.85 304.5,-194.13"/>
<polygon fill="#63b8ff" stroke="#63b8ff" points="308,-194.09 304.5,-184.09 301,-194.09 308,-194.09"/>
</a>
</g>
</g>
<!-- Node3 -->
<g id="Node000003" class="node">
<title>Node3</title>
<g id="a_Node000003"><a xlink:href="vector1_8hxx.html" target="_top" xlink:title=" ">
<polygon fill="white" stroke="#666666" points="453,-129 314,-129 314,-110 453,-110 453,-129"/>
<text text-anchor="middle" x="383.5" y="-117" font-family="Helvetica,sans-Serif" font-size="10.00">corelib/math/vector1.hxx</text>
</a>
</g>
</g>
<!-- Node2&#45;&gt;Node3 -->
<g id="edge2_Node000002_Node000003" class="edge">
<title>Node2&#45;&gt;Node3</title>
<g id="a_edge2_Node000002_Node000003"><a xlink:title=" ">
<path fill="none" stroke="#63b8ff" d="M317.19,-164.98C329.33,-156.84 347.86,-144.41 362.25,-134.76"/>
<polygon fill="#63b8ff" stroke="#63b8ff" points="364.22,-137.65 370.58,-129.17 360.32,-131.84 364.22,-137.65"/>
</a>
</g>
</g>
<!-- Node8 -->
<g id="Node000008" class="node">
<title>Node8</title>
<g id="a_Node000008"><a xlink:href="vector2_8hxx.html" target="_top" xlink:title=" ">
<polygon fill="white" stroke="#666666" points="610,-129 471,-129 471,-110 610,-110 610,-129"/>
<text text-anchor="middle" x="540.5" y="-117" font-family="Helvetica,sans-Serif" font-size="10.00">corelib/math/vector2.hxx</text>
</a>
</g>
</g>
<!-- Node2&#45;&gt;Node8 -->
<g id="edge7_Node000002_Node000008" class="edge">
<title>Node2&#45;&gt;Node8</title>
<g id="a_edge7_Node000002_Node000008"><a xlink:title=" ">
<path fill="none" stroke="#63b8ff" d="M342.42,-164.98C383.15,-155.84 448,-141.27 492.32,-131.32"/>
<polygon fill="#63b8ff" stroke="#63b8ff" points="493.3,-134.69 502.29,-129.08 491.76,-127.86 493.3,-134.69"/>
</a>
</g>
</g>
<!-- Node9 -->
<g id="Node000009" class="node">
<title>Node9</title>
<g id="a_Node000009"><a xlink:href="vector3_8hxx.html" target="_top" xlink:title=" ">
<polygon fill="white" stroke="#666666" points="139,-129 0,-129 0,-110 139,-110 139,-129"/>
<text text-anchor="middle" x="69.5" y="-117" font-family="Helvetica,sans-Serif" font-size="10.00">corelib/math/vector3.hxx</text>
</a>
</g>
</g>
<!-- Node2&#45;&gt;Node9 -->
<g id="edge11_Node000002_Node000009" class="edge">
<title>Node2&#45;&gt;Node9</title>
<g id="a_edge11_Node000002_Node000009"><a xlink:title=" ">
<path fill="none" stroke="#63b8ff" d="M266.74,-164.98C226.18,-155.84 161.61,-141.27 117.47,-131.32"/>
<polygon fill="#63b8ff" stroke="#63b8ff" points="118.08,-127.87 107.55,-129.08 116.54,-134.7 118.08,-127.87"/>
</a>
</g>
</g>
<!-- Node10 -->
<g id="Node000010" class="node">
<title>Node10</title>
<g id="a_Node000010"><a xlink:href="vector4_8hxx.html" target="_top" xlink:title=" ">
<polygon fill="white" stroke="#666666" points="296,-129 157,-129 157,-110 296,-110 296,-129"/>
<text text-anchor="middle" x="226.5" y="-117" font-family="Helvetica,sans-Serif" font-size="10.00">corelib/math/vector4.hxx</text>
</a>
</g>
</g>
<!-- Node2&#45;&gt;Node10 -->
<g id="edge15_Node000002_Node000010" class="edge">
<title>Node2&#45;&gt;Node10</title>
<g id="a_edge15_Node000002_Node000010"><a xlink:title=" ">
<path fill="none" stroke="#63b8ff" d="M291.97,-164.98C280.1,-156.92 262.04,-144.65 247.89,-135.03"/>
<polygon fill="#63b8ff" stroke="#63b8ff" points="249.5,-131.9 239.26,-129.17 245.56,-137.69 249.5,-131.9"/>
</a>
</g>
</g>
<!-- Node4 -->
<g id="Node000004" class="node">
<title>Node4</title>
<g id="a_Node000004"><a xlink:title=" ">
<polygon fill="#e0e0e0" stroke="#999999" points="211,-74 164,-74 164,-55 211,-55 211,-74"/>
<text text-anchor="middle" x="187.5" y="-62" font-family="Helvetica,sans-Serif" font-size="10.00">cmath</text>
</a>
</g>
</g>
<!-- Node3&#45;&gt;Node4 -->
<g id="edge3_Node000003_Node000004" class="edge">
<title>Node3&#45;&gt;Node4</title>
<g id="a_edge3_Node000003_Node000004"><a xlink:title=" ">
<path fill="none" stroke="#63b8ff" d="M352.01,-109.98C316.1,-100.28 257.65,-84.47 220.95,-74.54"/>
<polygon fill="#63b8ff" stroke="#63b8ff" points="221.77,-71.14 211.21,-71.91 219.95,-77.9 221.77,-71.14"/>
</a>
</g>
</g>
<!-- Node5 -->
<g id="Node000005" class="node">
<title>Node5</title>
<g id="a_Node000005"><a xlink:title=" ">
<polygon fill="#e0e0e0" stroke="#999999" points="330,-74 229,-74 229,-55 330,-55 330,-74"/>
<text text-anchor="middle" x="279.5" y="-62" font-family="Helvetica,sans-Serif" font-size="10.00">debug/assert.hxx</text>
</a>
</g>
</g>
<!-- Node3&#45;&gt;Node5 -->
<g id="edge4_Node000003_Node000005" class="edge">
<title>Node3&#45;&gt;Node5</title>
<g id="a_edge4_Node000003_Node000005"><a xlink:title=" ">
<path fill="none" stroke="#63b8ff" d="M366.79,-109.98C350.29,-101.57 324.8,-88.59 305.62,-78.81"/>
<polygon fill="#63b8ff" stroke="#63b8ff" points="307.01,-75.59 296.51,-74.17 303.83,-81.83 307.01,-75.59"/>
</a>
</g>
</g>
<!-- Node6 -->
<g id="Node000006" class="node">
<title>Node6</title>
<g id="a_Node000006"><a xlink:href="tracing_8hxx.html" target="_top" xlink:title=" ">
<polygon fill="white" stroke="#666666" points="496.5,-74 348.5,-74 348.5,-55 496.5,-55 496.5,-74"/>
<text text-anchor="middle" x="422.5" y="-62" font-family="Helvetica,sans-Serif" font-size="10.00">corelib/internal/tracing.hxx</text>
</a>
</g>
</g>
<!-- Node3&#45;&gt;Node6 -->
<g id="edge5_Node000003_Node000006" class="edge">
<title>Node3&#45;&gt;Node6</title>
<g id="a_edge5_Node000003_Node000006"><a xlink:title=" ">
<path fill="none" stroke="#63b8ff" d="M389.94,-109.75C395.39,-102.34 403.36,-91.5 410.06,-82.41"/>
<polygon fill="#63b8ff" stroke="#63b8ff" points="413.07,-84.22 416.18,-74.09 407.43,-80.07 413.07,-84.22"/>
</a>
</g>
</g>
<!-- Node7 -->
<g id="Node000007" class="node">
<title>Node7</title>
<g id="a_Node000007"><a xlink:title=" ">
<polygon fill="#e0e0e0" stroke="#999999" points="474.5,-19 370.5,-19 370.5,0 474.5,0 474.5,-19"/>
<text text-anchor="middle" x="422.5" y="-7" font-family="Helvetica,sans-Serif" font-size="10.00">debug/tracing.hxx</text>
</a>
</g>
</g>
<!-- Node6&#45;&gt;Node7 -->
<g id="edge6_Node000006_Node000007" class="edge">
<title>Node6&#45;&gt;Node7</title>
<g id="a_edge6_Node000006_Node000007"><a xlink:title=" ">
<path fill="none" stroke="#63b8ff" d="M422.5,-54.75C422.5,-47.8 422.5,-37.85 422.5,-29.13"/>
<polygon fill="#63b8ff" stroke="#63b8ff" points="426,-29.09 422.5,-19.09 419,-29.09 426,-29.09"/>
</a>
</g>
</g>
<!-- Node8&#45;&gt;Node4 -->
<g id="edge8_Node000008_Node000004" class="edge">
<title>Node8&#45;&gt;Node4</title>
<g id="a_edge8_Node000008_Node000004"><a xlink:title=" ">
<path fill="none" stroke="#63b8ff" d="M472.61,-109.98C397.89,-100.46 281.47,-85.12 221.41,-73.92"/>
<polygon fill="#63b8ff" stroke="#63b8ff" points="221.7,-70.42 211.22,-71.95 220.37,-77.29 221.7,-70.42"/>
</a>
</g>
</g>
<!-- Node8&#45;&gt;Node5 -->
<g id="edge9_Node000008_Node000005" class="edge">
<title>Node8&#45;&gt;Node5</title>
<g id="a_edge9_Node000008_Node000005"><a xlink:title=" ">
<path fill="none" stroke="#63b8ff" d="M498.57,-109.98C453.23,-100.78 380.89,-86.09 331.85,-76.13"/>
<polygon fill="#63b8ff" stroke="#63b8ff" points="332.26,-72.64 321.76,-74.08 330.87,-79.5 332.26,-72.64"/>
</a>
</g>
</g>
<!-- Node8&#45;&gt;Node6 -->
<g id="edge10_Node000008_Node000006" class="edge">
<title>Node8&#45;&gt;Node6</title>
<g id="a_edge10_Node000008_Node000006"><a xlink:title=" ">
<path fill="none" stroke="#63b8ff" d="M521.54,-109.98C502.47,-101.42 472.84,-88.11 450.95,-78.28"/>
<polygon fill="#63b8ff" stroke="#63b8ff" points="452.36,-75.07 441.8,-74.17 449.49,-81.46 452.36,-75.07"/>
</a>
</g>
</g>
<!-- Node9&#45;&gt;Node4 -->
<g id="edge12_Node000009_Node000004" class="edge">
<title>Node9&#45;&gt;Node4</title>
<g id="a_edge12_Node000009_Node000004"><a xlink:title=" ">
<path fill="none" stroke="#63b8ff" d="M88.46,-109.98C107.53,-101.42 137.16,-88.11 159.05,-78.28"/>
<polygon fill="#63b8ff" stroke="#63b8ff" points="160.51,-81.46 168.2,-74.17 157.64,-75.07 160.51,-81.46"/>
</a>
</g>
</g>
<!-- Node9&#45;&gt;Node5 -->
<g id="edge13_Node000009_Node000005" class="edge">
<title>Node9&#45;&gt;Node5</title>
<g id="a_edge13_Node000009_Node000005"><a xlink:title=" ">
<path fill="none" stroke="#63b8ff" d="M103.24,-109.98C139.18,-100.91 196.22,-86.52 235.63,-76.57"/>
<polygon fill="#63b8ff" stroke="#63b8ff" points="236.66,-79.92 245.5,-74.08 234.94,-73.14 236.66,-79.92"/>
</a>
</g>
</g>
<!-- Node9&#45;&gt;Node6 -->
<g id="edge14_Node000009_Node000006" class="edge">
<title>Node9&#45;&gt;Node6</title>
<g id="a_edge14_Node000009_Node000006"><a xlink:title=" ">
<path fill="none" stroke="#63b8ff" d="M126.22,-109.98C188.78,-100.59 289.36,-85.49 355.7,-75.53"/>
<polygon fill="#63b8ff" stroke="#63b8ff" points="356.26,-78.98 365.63,-74.04 355.22,-72.06 356.26,-78.98"/>
</a>
</g>
</g>
<!-- Node10&#45;&gt;Node4 -->
<g id="edge16_Node000010_Node000004" class="edge">
<title>Node10&#45;&gt;Node4</title>
<g id="a_edge16_Node000010_Node000004"><a xlink:title=" ">
<path fill="none" stroke="#63b8ff" d="M220.06,-109.75C214.61,-102.34 206.64,-91.5 199.94,-82.41"/>
<polygon fill="#63b8ff" stroke="#63b8ff" points="202.57,-80.07 193.82,-74.09 196.93,-84.22 202.57,-80.07"/>
</a>
</g>
</g>
<!-- Node10&#45;&gt;Node5 -->
<g id="edge17_Node000010_Node000005" class="edge">
<title>Node10&#45;&gt;Node5</title>
<g id="a_edge17_Node000010_Node000005"><a xlink:title=" ">
<path fill="none" stroke="#63b8ff" d="M235.25,-109.75C242.97,-102.03 254.4,-90.6 263.72,-81.28"/>
<polygon fill="#63b8ff" stroke="#63b8ff" points="266.31,-83.64 270.91,-74.09 261.36,-78.69 266.31,-83.64"/>
</a>
</g>
</g>
<!-- Node10&#45;&gt;Node6 -->
<g id="edge18_Node000010_Node000006" class="edge">
<title>Node10&#45;&gt;Node6</title>
<g id="a_edge18_Node000010_Node000006"><a xlink:title=" ">
<path fill="none" stroke="#63b8ff" d="M257.99,-109.98C291.32,-100.97 344.1,-86.7 380.85,-76.76"/>
<polygon fill="#63b8ff" stroke="#63b8ff" points="382.02,-80.07 390.76,-74.08 380.2,-73.31 382.02,-80.07"/>
</a>
</g>
</g>
</g>
</svg>
