<?xml version="1.0" encoding="UTF-8" standalone="no"?>
<!DOCTYPE svg PUBLIC "-//W3C//DTD SVG 1.1//EN"
 "http://www.w3.org/Graphics/SVG/1.1/DTD/svg11.dtd">
<!-- Generated by graphviz version 2.43.0 (0)
 -->
<!-- Title: corelib::detail::OptionalValueCast&lt; To, From, Derived &gt; Pages: 1 -->
<svg width="641pt" height="98pt"
 viewBox="0.00 0.00 641.00 97.50" xmlns="http://www.w3.org/2000/svg" xmlns:xlink="http://www.w3.org/1999/xlink">
<g id="graph0" class="graph" transform="scale(1 1) rotate(0) translate(4 93.5)">
<title>corelib::detail::OptionalValueCast&lt; To, From, Derived &gt;</title>
<!-- Node1 -->
<g id="Node000001" class="node">
<title>Node1</title>
<g id="a_Node000001"><a xlink:title="Casting adapter for optional&#45;returning casts.">
<polygon fill="#999999" stroke="#666666" points="633,-47.5 460,-47.5 460,-17.5 633,-17.5 633,-47.5"/>
<text text-anchor="start" x="468" y="-35.5" font-family="Helvetica,sans-Serif" font-size="10.00">corelib::detail::Optional</text>
<text text-anchor="middle" x="546.5" y="-24.5" font-family="Helvetica,sans-Serif" font-size="10.00">ValueCast&lt; To, From, Derived &gt;</text>
</a>
</g>
</g>
<!-- Node2 -->
<g id="Node000002" class="node">
<title>Node2</title>
<g id="a_Node000002"><a xlink:href="structcorelib_1_1detail_1_1CastIsPossible.html" target="_top" xlink:title=" ">
<polygon fill="white" stroke="#666666" points="423,-89.5 263,-89.5 263,-59.5 423,-59.5 423,-89.5"/>
<text text-anchor="start" x="271" y="-77.5" font-family="Helvetica,sans-Serif" font-size="10.00">corelib::detail::CastIsPossible</text>
<text text-anchor="middle" x="343" y="-66.5" font-family="Helvetica,sans-Serif" font-size="10.00">&lt; To, From &gt;</text>
</a>
</g>
</g>
<!-- Node2&#45;&gt;Node1 -->
<g id="edge1_Node000001_Node000002" class="edge">
<title>Node2&#45;&gt;Node1</title>
<g id="a_edge1_Node000001_Node000002"><a xlink:title=" ">
<path fill="none" stroke="#63b8ff" d="M426.34,-57.34C441.97,-54.08 458.21,-50.69 473.49,-47.51"/>
<polygon fill="#63b8ff" stroke="#63b8ff" points="425.25,-53.99 416.18,-59.46 426.68,-60.84 425.25,-53.99"/>
</a>
</g>
</g>
<!-- Node3 -->
<g id="Node000003" class="node">
<title>Node3</title>
<g id="a_Node000003"><a xlink:href="structcorelib_1_1detail_1_1CastIsPossible.html" target="_top" xlink:title="Base template for checking if a cast is possible.">
<polygon fill="white" stroke="#666666" points="160,-89.5 0,-89.5 0,-59.5 160,-59.5 160,-89.5"/>
<text text-anchor="start" x="8" y="-77.5" font-family="Helvetica,sans-Serif" font-size="10.00">corelib::detail::CastIsPossible</text>
<text text-anchor="middle" x="80" y="-66.5" font-family="Helvetica,sans-Serif" font-size="10.00">&lt; To, From, Enable &gt;</text>
</a>
</g>
</g>
<!-- Node3&#45;&gt;Node2 -->
<g id="edge2_Node000002_Node000003" class="edge">
<title>Node3&#45;&gt;Node2</title>
<g id="a_edge2_Node000002_Node000003"><a xlink:title=" ">
<path fill="none" stroke="orange" stroke-dasharray="5,2" d="M170.08,-74.5C200.17,-74.5 233.53,-74.5 262.8,-74.5"/>
<polygon fill="orange" stroke="orange" points="170.02,-71 160.02,-74.5 170.02,-78 170.02,-71"/>
</a>
</g>
<text text-anchor="middle" x="211.5" y="-77.5" font-family="Helvetica,sans-Serif" font-size="10.00" fill="grey"> &lt; To, From &gt;</text>
</g>
<!-- Node4 -->
<g id="Node000004" class="node">
<title>Node4</title>
<g id="a_Node000004"><a xlink:href="structcorelib_1_1detail_1_1DefaultDoCastIfPossible.html" target="_top" xlink:title="CRTP base providing default DoCastIfPossible() implementation.">
<polygon fill="white" stroke="#666666" points="405.5,-41 280.5,-41 280.5,0 405.5,0 405.5,-41"/>
<text text-anchor="start" x="288.5" y="-29" font-family="Helvetica,sans-Serif" font-size="10.00">corelib::detail::Default</text>
<text text-anchor="start" x="288.5" y="-18" font-family="Helvetica,sans-Serif" font-size="10.00">DoCastIfPossible&lt; To,</text>
<text text-anchor="middle" x="343" y="-7" font-family="Helvetica,sans-Serif" font-size="10.00"> From, Derived &gt;</text>
</a>
</g>
</g>
<!-- Node4&#45;&gt;Node1 -->
<g id="edge3_Node000001_Node000004" class="edge">
<title>Node4&#45;&gt;Node1</title>
<g id="a_edge3_Node000001_Node000004"><a xlink:title=" ">
<path fill="none" stroke="#63b8ff" d="M415.77,-24.77C430.05,-25.62 445.16,-26.52 459.84,-27.4"/>
<polygon fill="#63b8ff" stroke="#63b8ff" points="415.74,-21.27 405.55,-24.17 415.33,-28.25 415.74,-21.27"/>
</a>
</g>
</g>
</g>
</svg>
