<?xml version="1.0" encoding="UTF-8" standalone="no"?>
<!DOCTYPE svg PUBLIC "-//W3C//DTD SVG 1.1//EN"
 "http://www.w3.org/Graphics/SVG/1.1/DTD/svg11.dtd">
<!-- Generated by graphviz version 2.43.0 (0)
 -->
<!-- Title: corelib::detail::CastInfo&lt; To, std::unique_ptr&lt; From &gt; &gt; Pages: 1 -->
<svg width="168pt" height="260pt"
 viewBox="0.00 0.00 168.00 260.00" xmlns="http://www.w3.org/2000/svg" xmlns:xlink="http://www.w3.org/1999/xlink">
<g id="graph0" class="graph" transform="scale(1 1) rotate(0) translate(4 256)">
<title>corelib::detail::CastInfo&lt; To, std::unique_ptr&lt; From &gt; &gt;</title>
<!-- Node1 -->
<g id="Node000001" class="node">
<title>Node1</title>
<g id="a_Node000001"><a xlink:title="Specialization for std::unique_ptr types.">
<polygon fill="#999999" stroke="#666666" points="145,-41 15,-41 15,0 145,0 145,-41"/>
<text text-anchor="start" x="23" y="-29" font-family="Helvetica,sans-Serif" font-size="10.00">corelib::detail::CastInfo</text>
<text text-anchor="start" x="23" y="-18" font-family="Helvetica,sans-Serif" font-size="10.00">&lt; To, std::unique_ptr&lt;</text>
<text text-anchor="middle" x="80" y="-7" font-family="Helvetica,sans-Serif" font-size="10.00"> From &gt; &gt;</text>
</a>
</g>
</g>
<!-- Node2 -->
<g id="Node000002" class="node">
<title>Node2</title>
<g id="a_Node000002"><a xlink:href="structcorelib_1_1detail_1_1UniquePtrCast.html" target="_top" xlink:title="Casting adapter for std::unique_ptr with ownership transfer.">
<polygon fill="white" stroke="#666666" points="153,-108 7,-108 7,-78 153,-78 153,-108"/>
<text text-anchor="start" x="15" y="-96" font-family="Helvetica,sans-Serif" font-size="10.00">corelib::detail::UniquePtr</text>
<text text-anchor="middle" x="80" y="-85" font-family="Helvetica,sans-Serif" font-size="10.00">Cast&lt; To, From, Derived &gt;</text>
</a>
</g>
</g>
<!-- Node2&#45;&gt;Node1 -->
<g id="edge1_Node000001_Node000002" class="edge">
<title>Node2&#45;&gt;Node1</title>
<g id="a_edge1_Node000001_Node000002"><a xlink:title=" ">
<path fill="none" stroke="#63b8ff" d="M80,-67.48C80,-58.85 80,-49.26 80,-41.09"/>
<polygon fill="#63b8ff" stroke="#63b8ff" points="76.5,-67.73 80,-77.73 83.5,-67.73 76.5,-67.73"/>
</a>
</g>
</g>
<!-- Node3 -->
<g id="Node000003" class="node">
<title>Node3</title>
<g id="a_Node000003"><a xlink:href="structcorelib_1_1detail_1_1CastIsPossible.html" target="_top" xlink:title=" ">
<polygon fill="white" stroke="#666666" points="160,-175 0,-175 0,-145 160,-145 160,-175"/>
<text text-anchor="start" x="8" y="-163" font-family="Helvetica,sans-Serif" font-size="10.00">corelib::detail::CastIsPossible</text>
<text text-anchor="middle" x="80" y="-152" font-family="Helvetica,sans-Serif" font-size="10.00">&lt; To, From * &gt;</text>
</a>
</g>
</g>
<!-- Node3&#45;&gt;Node2 -->
<g id="edge2_Node000002_Node000003" class="edge">
<title>Node3&#45;&gt;Node2</title>
<g id="a_edge2_Node000002_Node000003"><a xlink:title=" ">
<path fill="none" stroke="#63b8ff" d="M80,-134.61C80,-125.65 80,-115.82 80,-108.08"/>
<polygon fill="#63b8ff" stroke="#63b8ff" points="76.5,-134.9 80,-144.9 83.5,-134.9 76.5,-134.9"/>
</a>
</g>
</g>
<!-- Node4 -->
<g id="Node000004" class="node">
<title>Node4</title>
<g id="a_Node000004"><a xlink:href="structcorelib_1_1detail_1_1CastIsPossible.html" target="_top" xlink:title="Base template for checking if a cast is possible.">
<polygon fill="white" stroke="#666666" points="160,-252 0,-252 0,-222 160,-222 160,-252"/>
<text text-anchor="start" x="8" y="-240" font-family="Helvetica,sans-Serif" font-size="10.00">corelib::detail::CastIsPossible</text>
<text text-anchor="middle" x="80" y="-229" font-family="Helvetica,sans-Serif" font-size="10.00">&lt; To, From, Enable &gt;</text>
</a>
</g>
</g>
<!-- Node4&#45;&gt;Node3 -->
<g id="edge3_Node000003_Node000004" class="edge">
<title>Node4&#45;&gt;Node3</title>
<g id="a_edge3_Node000003_Node000004"><a xlink:title=" ">
<path fill="none" stroke="orange" stroke-dasharray="5,2" d="M80,-211.54C80,-199.45 80,-185.29 80,-175.04"/>
<polygon fill="orange" stroke="orange" points="76.5,-211.89 80,-221.89 83.5,-211.89 76.5,-211.89"/>
</a>
</g>
<text text-anchor="middle" x="118" y="-196" font-family="Helvetica,sans-Serif" font-size="10.00" fill="grey"> &lt; To, From * &gt;</text>
</g>
</g>
</svg>
