<?xml version="1.0" encoding="UTF-8" standalone="no"?>
<!DOCTYPE svg PUBLIC "-//W3C//DTD SVG 1.1//EN"
 "http://www.w3.org/Graphics/SVG/1.1/DTD/svg11.dtd">
<!-- Generated by graphviz version 2.43.0 (0)
 -->
<!-- Title: corelib::detail::DefaultDoCastIfPossible&lt; To, From, Derived &gt; Pages: 1 -->
<!--zoomable 260 -->

<svg id="main" version="1.1" xmlns="http://www.w3.org/2000/svg" xmlns:xlink="http://www.w3.org/1999/xlink" xml:space="preserve" onload="init(evt)">
<style type="text/css"><![CDATA[
.node, .edge {opacity: 0.7;}
.node.selected, .edge.selected {opacity: 1;}
.edge:hover path { stroke: red; }
.edge:hover polygon { stroke: red; fill: red; }
]]></style>

<defs>
  <circle id="rim" cx="0" cy="0" r="7"/>
  <circle id="rim2" cx="0" cy="0" r="3.5"/>
  <g id="zoomPlus">
    <use xlink:href="#rim" fill="#404040"><set attributeName="fill" to="#808080" begin="zoomplus.mouseover" end="zoomplus.mouseout"/></use>
    <path d="M-4,0h8M0,-4v8" fill="none" stroke="white" stroke-width="1.5" pointer-events="none"/>
  </g>
  <g id="zoomMin">
    <use xlink:href="#rim" fill="#404040"><set attributeName="fill" to="#808080" begin="zoomminus.mouseover" end="zoomminus.mouseout"/></use>
    <path d="M-4,0h8" fill="none" stroke="white" stroke-width="1.5" pointer-events="none"/>
  </g>
  <g id="arrowUp" transform="translate(30 24)">
    <use xlink:href="#rim"/>
    <path pointer-events="none" fill="none" stroke="white" stroke-width="1.5" d="M0,-3.0v7 M-2.5,-0.5L0,-3.0L2.5,-0.5"/>
  </g>
  <g id="arrowRight" transform="rotate(90) translate(36 -43)">
    <use xlink:href="#rim"/>
    <path pointer-events="none" fill="none" stroke="white" stroke-width="1.5" d="M0,-3.0v7 M-2.5,-0.5L0,-3.0L2.5,-0.5"/>
  </g>
  <g id="arrowDown" transform="rotate(180) translate(-30 -48)">
    <use xlink:href="#rim"/>
    <path pointer-events="none" fill="none" stroke="white" stroke-width="1.5" d="M0,-3.0v7 M-2.5,-0.5L0,-3.0L2.5,-0.5"/>
  </g>
  <g id="arrowLeft" transform="rotate(270) translate(-36 17)">
    <use xlink:href="#rim"/>
    <path pointer-events="none" fill="none" stroke="white" stroke-width="1.5" d="M0,-3.0v7 M-2.5,-0.5L0,-3.0L2.5,-0.5"/>
  </g>
  <g id="resetDef">
    <use xlink:href="#rim2" fill="#404040"><set attributeName="fill" to="#808080" begin="reset.mouseover" end="reset.mouseout"/></use>
  </g>
</defs>
<script type="application/ecmascript">
var viewWidth = 706;
var viewHeight = 260;
var sectionId = 'dynsection-0';
</script>
<script type="application/ecmascript" xlink:href="svg.min.js"/>
<svg id="graph" class="graph">
<g id="viewport">
<title>corelib::detail::DefaultDoCastIfPossible&lt; To, From, Derived &gt;</title>
<!-- Node1 -->
<g id="Node000001" class="node">
<title>Node1</title>
<g id="a_Node000001"><a xlink:title="CRTP base providing default DoCastIfPossible() implementation.">
<polygon fill="#999999" stroke="#666666" points="125,-168 0,-168 0,-127 125,-127 125,-168"/>
<text text-anchor="start" x="8" y="-156" font-family="Helvetica,sans-Serif" font-size="10.00">corelib::detail::Default</text>
<text text-anchor="start" x="8" y="-145" font-family="Helvetica,sans-Serif" font-size="10.00">DoCastIfPossible&lt; To,</text>
<text text-anchor="middle" x="62.5" y="-134" font-family="Helvetica,sans-Serif" font-size="10.00"> From, Derived &gt;</text>
</a>
</g>
</g>
<!-- Node2 -->
<g id="Node000002" class="node">
<title>Node2</title>
<g id="a_Node000002"><a xlink:href="structcorelib_1_1detail_1_1OptionalValueCast.html" target="_top" xlink:title="Casting adapter for optional&#45;returning casts.">
<polygon fill="white" stroke="#666666" points="489,-251.5 316,-251.5 316,-221.5 489,-221.5 489,-251.5"/>
<text text-anchor="start" x="324" y="-239.5" font-family="Helvetica,sans-Serif" font-size="10.00">corelib::detail::Optional</text>
<text text-anchor="middle" x="402.5" y="-228.5" font-family="Helvetica,sans-Serif" font-size="10.00">ValueCast&lt; To, From, Derived &gt;</text>
</a>
</g>
</g>
<!-- Node1&#45;&gt;Node2 -->
<g id="edge1_Node000001_Node000002" class="edge">
<title>Node1&#45;&gt;Node2</title>
<g id="a_edge1_Node000001_Node000002"><a xlink:title=" ">
<path fill="none" stroke="#63b8ff" d="M116.75,-171.95C125.42,-175.44 134.38,-178.77 143,-181.5 199.53,-199.42 264.87,-213.26 315.72,-222.58"/>
<polygon fill="#63b8ff" stroke="#63b8ff" points="118.07,-168.71 107.49,-168.12 115.39,-175.17 118.07,-168.71"/>
</a>
</g>
</g>
<!-- Node4 -->
<g id="Node000004" class="node">
<title>Node4</title>
<g id="a_Node000004"><a xlink:href="structcorelib_1_1detail_1_1ValueFromPointerCast.html" target="_top" xlink:title="Casting adapter for converting pointers to values.">
<polygon fill="white" stroke="#666666" points="473,-203 332,-203 332,-162 473,-162 473,-203"/>
<text text-anchor="start" x="340" y="-191" font-family="Helvetica,sans-Serif" font-size="10.00">corelib::detail::ValueFrom</text>
<text text-anchor="start" x="340" y="-180" font-family="Helvetica,sans-Serif" font-size="10.00">PointerCast&lt; To, From,</text>
<text text-anchor="middle" x="402.5" y="-169" font-family="Helvetica,sans-Serif" font-size="10.00"> Derived &gt;</text>
</a>
</g>
</g>
<!-- Node1&#45;&gt;Node4 -->
<g id="edge3_Node000001_Node000004" class="edge">
<title>Node1&#45;&gt;Node4</title>
<g id="a_edge3_Node000001_Node000004"><a xlink:title=" ">
<path fill="none" stroke="#63b8ff" d="M135.24,-159.49C137.86,-159.85 140.45,-160.18 143,-160.5 206.81,-168.42 279.83,-174.35 331.95,-178.04"/>
<polygon fill="#63b8ff" stroke="#63b8ff" points="135.45,-155.99 125.06,-158.05 134.47,-162.92 135.45,-155.99"/>
</a>
</g>
</g>
<!-- Node5 -->
<g id="Node000005" class="node">
<title>Node5</title>
<g id="a_Node000005"><a xlink:href="structcorelib_1_1detail_1_1DefaultDoCastIfPossible.html" target="_top" xlink:title=" ">
<polygon fill="white" stroke="#666666" points="497,-144 308,-144 308,-81 497,-81 497,-144"/>
<text text-anchor="start" x="316" y="-132" font-family="Helvetica,sans-Serif" font-size="10.00">corelib::detail::Default</text>
<text text-anchor="start" x="316" y="-121" font-family="Helvetica,sans-Serif" font-size="10.00">DoCastIfPossible&lt; std</text>
<text text-anchor="start" x="316" y="-110" font-family="Helvetica,sans-Serif" font-size="10.00">::optional&lt; To &gt;, From,</text>
<text text-anchor="start" x="316" y="-99" font-family="Helvetica,sans-Serif" font-size="10.00"> SelfType&lt; void, OptionalValueCast</text>
<text text-anchor="middle" x="402.5" y="-88" font-family="Helvetica,sans-Serif" font-size="10.00">&lt; To, From &gt; &gt; &gt;</text>
</a>
</g>
</g>
<!-- Node1&#45;&gt;Node5 -->
<g id="edge4_Node000001_Node000005" class="edge">
<title>Node1&#45;&gt;Node5</title>
<g id="a_edge4_Node000001_Node000005"><a xlink:title=" ">
<path fill="none" stroke="orange" stroke-dasharray="5,2" d="M110.89,-122.84C121.21,-118.56 132.27,-114.76 143,-112.5 196.8,-101.18 258.3,-100.7 307.82,-103.27"/>
<polygon fill="orange" stroke="orange" points="109.41,-119.67 101.65,-126.88 112.21,-126.09 109.41,-119.67"/>
</a>
</g>
<text text-anchor="start" x="156" y="-148.5" font-family="Helvetica,sans-Serif" font-size="10.00" fill="grey"> &lt; std::optional&lt; To</text>
<text text-anchor="start" x="156" y="-137.5" font-family="Helvetica,sans-Serif" font-size="10.00" fill="grey"> &gt;, From, SelfType&lt;</text>
<text text-anchor="start" x="156" y="-126.5" font-family="Helvetica,sans-Serif" font-size="10.00" fill="grey"> void, OptionalValueCast</text>
<text text-anchor="middle" x="216.5" y="-115.5" font-family="Helvetica,sans-Serif" font-size="10.00" fill="grey">&lt; To, From &gt; &gt; &gt;</text>
</g>
<!-- Node6 -->
<g id="Node000006" class="node">
<title>Node6</title>
<g id="a_Node000006"><a xlink:href="structcorelib_1_1detail_1_1DefaultDoCastIfPossible.html" target="_top" xlink:title=" ">
<polygon fill="white" stroke="#666666" points="478.5,-63 326.5,-63 326.5,0 478.5,0 478.5,-63"/>
<text text-anchor="start" x="334.5" y="-51" font-family="Helvetica,sans-Serif" font-size="10.00">corelib::detail::Default</text>
<text text-anchor="start" x="334.5" y="-40" font-family="Helvetica,sans-Serif" font-size="10.00">DoCastIfPossible&lt; To,</text>
<text text-anchor="start" x="334.5" y="-29" font-family="Helvetica,sans-Serif" font-size="10.00"> From *, SelfType&lt; void,</text>
<text text-anchor="start" x="334.5" y="-18" font-family="Helvetica,sans-Serif" font-size="10.00"> ValueFromPointerCast&lt; To,</text>
<text text-anchor="middle" x="402.5" y="-7" font-family="Helvetica,sans-Serif" font-size="10.00"> From &gt; &gt; &gt;</text>
</a>
</g>
</g>
<!-- Node1&#45;&gt;Node6 -->
<g id="edge5_Node000001_Node000006" class="edge">
<title>Node1&#45;&gt;Node6</title>
<g id="a_edge5_Node000001_Node000006"><a xlink:title=" ">
<path fill="none" stroke="orange" stroke-dasharray="5,2" d="M82.97,-118.71C97.27,-100.01 118.43,-76.89 143,-64.5 199.96,-35.78 272.6,-28.69 326.36,-28.11"/>
<polygon fill="orange" stroke="orange" points="80.02,-116.81 76.89,-126.93 85.65,-120.97 80.02,-116.81"/>
</a>
</g>
<text text-anchor="start" x="143" y="-89.5" font-family="Helvetica,sans-Serif" font-size="10.00" fill="grey"> &lt; To, From *, SelfType</text>
<text text-anchor="start" x="143" y="-78.5" font-family="Helvetica,sans-Serif" font-size="10.00" fill="grey">&lt; void, ValueFromPointerCast</text>
<text text-anchor="middle" x="216.5" y="-67.5" font-family="Helvetica,sans-Serif" font-size="10.00" fill="grey">&lt; To, From &gt; &gt; &gt;</text>
</g>
<!-- Node3 -->
<g id="Node000003" class="node">
<title>Node3</title>
<g id="a_Node000003"><a xlink:href="structcorelib_1_1detail_1_1CastInfo_3_01To_00_01std_1_1optional_3_01From_01_4_01_4.html" target="_top" xlink:title="Specialization for std::optional types.">
<polygon fill="white" stroke="#666666" points="698,-251.5 534,-251.5 534,-221.5 698,-221.5 698,-251.5"/>
<text text-anchor="start" x="542" y="-239.5" font-family="Helvetica,sans-Serif" font-size="10.00">corelib::detail::CastInfo</text>
<text text-anchor="middle" x="616" y="-228.5" font-family="Helvetica,sans-Serif" font-size="10.00">&lt; To, std::optional&lt; From &gt; &gt;</text>
</a>
</g>
</g>
<!-- Node2&#45;&gt;Node3 -->
<g id="edge2_Node000002_Node000003" class="edge">
<title>Node2&#45;&gt;Node3</title>
<g id="a_edge2_Node000002_Node000003"><a xlink:title=" ">
<path fill="none" stroke="#63b8ff" d="M499.33,-236.5C510.9,-236.5 522.62,-236.5 533.95,-236.5"/>
<polygon fill="#63b8ff" stroke="#63b8ff" points="499.22,-233 489.22,-236.5 499.22,-240 499.22,-233"/>
</a>
</g>
</g>
</g>
</svg>

<g id="navigator" transform="translate(0 0)" fill="#404254">
  <rect fill="#f2f5e9" fill-opacity="0.5" stroke="#606060" stroke-width=".5" x="0" y="0" width="60" height="60"/>
  <use id="zoomplus" xlink:href="#zoomPlus" x="17" y="9" onmousedown="handleZoom(evt,'in')"/>
  <use id="zoomminus" xlink:href="#zoomMin" x="42" y="9" onmousedown="handleZoom(evt,'out')"/>
  <use id="reset" xlink:href="#resetDef" x="30" y="36" onmousedown="handleReset()"/>
   <use id="arrowup" xlink:href="#arrowUp" x="0" y="0" onmousedown="handlePan(0,-1)"/>
  <use id="arrowright" xlink:href="#arrowRight" x="0" y="0" onmousedown="handlePan(1,0)"/>
  <use id="arrowdown" xlink:href="#arrowDown" x="0" y="0" onmousedown="handlePan(0,1)"/>
  <use id="arrowleft" xlink:href="#arrowLeft" x="0" y="0" onmousedown="handlePan(-1,0)"/>
</g>
<svg viewBox="0 0 15 15" width="100%" height="30px" preserveAspectRatio="xMaxYMin meet">
 <g id="arrow_out" transform="scale(0.3 0.3)">
  <a xlink:href="structcorelib_1_1detail_1_1DefaultDoCastIfPossible__inherit__graph_org.svg" target="_base">
   <rect id="button" ry="5" rx="5" y="6" x="6" height="38" width="38"
        fill="#f2f5e9" fill-opacity="0.5" stroke="#606060" stroke-width="1.0"/>
   <path id="arrow"
     d="M 11.500037,31.436501 C 11.940474,20.09759 22.043105,11.32322 32.158766,21.979434 L 37.068811,17.246167 C 37.068811,17.246167 37.088388,32 37.088388,32 L 22.160133,31.978069 C 22.160133,31.978069 26.997745,27.140456 26.997745,27.140456 C 18.528582,18.264221 13.291696,25.230495 11.500037,31.436501 z"
     style="fill:#404040;"/>
  </a>
 </g>
</svg>

<style type='text/css'>
<![CDATA[
[data-mouse-over-selected='false'] { opacity: 0.7; }
[data-mouse-over-selected='true']  { opacity: 1.0; }
]]>
</style>
<script type="application/ecmascript"><![CDATA[
document.addEventListener('DOMContentLoaded', (event) => {
  highlightEdges();
  highlightAdjacentNodes();
});
]]></script>
</svg>
