<?xml version="1.0" encoding="UTF-8" standalone="no"?>
<!DOCTYPE svg PUBLIC "-//W3C//DTD SVG 1.1//EN"
 "http://www.w3.org/Graphics/SVG/1.1/DTD/svg11.dtd">
<!-- Generated by graphviz version 2.43.0 (0)
 -->
<!-- Title: corelib::detail::ValueFromPointerCast&lt; To, From, Derived &gt; Pages: 1 -->
<svg width="618pt" height="146pt"
 viewBox="0.00 0.00 618.00 145.50" xmlns="http://www.w3.org/2000/svg" xmlns:xlink="http://www.w3.org/1999/xlink">
<g id="graph0" class="graph" transform="scale(1 1) rotate(0) translate(4 141.5)">
<title>corelib::detail::ValueFromPointerCast&lt; To, From, Derived &gt;</title>
<!-- Node1 -->
<g id="Node000001" class="node">
<title>Node1</title>
<g id="a_Node000001"><a xlink:title="Casting adapter for converting pointers to values.">
<polygon fill="#999999" stroke="#666666" points="610,-95 469,-95 469,-54 610,-54 610,-95"/>
<text text-anchor="start" x="477" y="-83" font-family="Helvetica,sans-Serif" font-size="10.00">corelib::detail::ValueFrom</text>
<text text-anchor="start" x="477" y="-72" font-family="Helvetica,sans-Serif" font-size="10.00">PointerCast&lt; To, From,</text>
<text text-anchor="middle" x="539.5" y="-61" font-family="Helvetica,sans-Serif" font-size="10.00"> Derived &gt;</text>
</a>
</g>
</g>
<!-- Node2 -->
<g id="Node000002" class="node">
<title>Node2</title>
<g id="a_Node000002"><a xlink:href="structcorelib_1_1detail_1_1CastIsPossible.html" target="_top" xlink:title=" ">
<polygon fill="white" stroke="#666666" points="432,-137.5 272,-137.5 272,-107.5 432,-107.5 432,-137.5"/>
<text text-anchor="start" x="280" y="-125.5" font-family="Helvetica,sans-Serif" font-size="10.00">corelib::detail::CastIsPossible</text>
<text text-anchor="middle" x="352" y="-114.5" font-family="Helvetica,sans-Serif" font-size="10.00">&lt; To, From * &gt;</text>
</a>
</g>
</g>
<!-- Node2&#45;&gt;Node1 -->
<g id="edge1_Node000001_Node000002" class="edge">
<title>Node2&#45;&gt;Node1</title>
<g id="a_edge1_Node000001_Node000002"><a xlink:title=" ">
<path fill="none" stroke="#63b8ff" d="M421.22,-104.85C436.73,-100.83 453.24,-96.56 468.81,-92.53"/>
<polygon fill="#63b8ff" stroke="#63b8ff" points="419.99,-101.55 411.18,-107.44 421.74,-108.33 419.99,-101.55"/>
</a>
</g>
</g>
<!-- Node3 -->
<g id="Node000003" class="node">
<title>Node3</title>
<g id="a_Node000003"><a xlink:href="structcorelib_1_1detail_1_1CastIsPossible.html" target="_top" xlink:title="Base template for checking if a cast is possible.">
<polygon fill="white" stroke="#666666" points="160,-137.5 0,-137.5 0,-107.5 160,-107.5 160,-137.5"/>
<text text-anchor="start" x="8" y="-125.5" font-family="Helvetica,sans-Serif" font-size="10.00">corelib::detail::CastIsPossible</text>
<text text-anchor="middle" x="80" y="-114.5" font-family="Helvetica,sans-Serif" font-size="10.00">&lt; To, From, Enable &gt;</text>
</a>
</g>
</g>
<!-- Node3&#45;&gt;Node2 -->
<g id="edge2_Node000002_Node000003" class="edge">
<title>Node3&#45;&gt;Node2</title>
<g id="a_edge2_Node000002_Node000003"><a xlink:title=" ">
<path fill="none" stroke="orange" stroke-dasharray="5,2" d="M170.23,-122.5C203.04,-122.5 239.95,-122.5 271.82,-122.5"/>
<polygon fill="orange" stroke="orange" points="170.18,-119 160.18,-122.5 170.18,-126 170.18,-119"/>
</a>
</g>
<text text-anchor="middle" x="216" y="-125.5" font-family="Helvetica,sans-Serif" font-size="10.00" fill="grey"> &lt; To, From * &gt;</text>
</g>
<!-- Node4 -->
<g id="Node000004" class="node">
<title>Node4</title>
<g id="a_Node000004"><a xlink:href="structcorelib_1_1detail_1_1NullableValueCastFailed.html" target="_top" xlink:title="Provides default CastFailed() implementation for nullable types.">
<polygon fill="white" stroke="#666666" points="417,-89.5 287,-89.5 287,-59.5 417,-59.5 417,-89.5"/>
<text text-anchor="start" x="295" y="-77.5" font-family="Helvetica,sans-Serif" font-size="10.00">corelib::detail::Nullable</text>
<text text-anchor="middle" x="352" y="-66.5" font-family="Helvetica,sans-Serif" font-size="10.00">ValueCastFailed&lt; To &gt;</text>
</a>
</g>
</g>
<!-- Node4&#45;&gt;Node1 -->
<g id="edge3_Node000001_Node000004" class="edge">
<title>Node4&#45;&gt;Node1</title>
<g id="a_edge3_Node000001_Node000004"><a xlink:title=" ">
<path fill="none" stroke="#63b8ff" d="M427.39,-74.5C441.02,-74.5 455.2,-74.5 468.7,-74.5"/>
<polygon fill="#63b8ff" stroke="#63b8ff" points="427.1,-71 417.1,-74.5 427.1,-78 427.1,-71"/>
</a>
</g>
</g>
<!-- Node5 -->
<g id="Node000005" class="node">
<title>Node5</title>
<g id="a_Node000005"><a xlink:href="structcorelib_1_1detail_1_1DefaultDoCastIfPossible.html" target="_top" xlink:title="CRTP base providing default DoCastIfPossible() implementation.">
<polygon fill="white" stroke="#666666" points="414.5,-41 289.5,-41 289.5,0 414.5,0 414.5,-41"/>
<text text-anchor="start" x="297.5" y="-29" font-family="Helvetica,sans-Serif" font-size="10.00">corelib::detail::Default</text>
<text text-anchor="start" x="297.5" y="-18" font-family="Helvetica,sans-Serif" font-size="10.00">DoCastIfPossible&lt; To,</text>
<text text-anchor="middle" x="352" y="-7" font-family="Helvetica,sans-Serif" font-size="10.00"> From, Derived &gt;</text>
</a>
</g>
</g>
<!-- Node5&#45;&gt;Node1 -->
<g id="edge4_Node000001_Node000005" class="edge">
<title>Node5&#45;&gt;Node1</title>
<g id="a_edge4_Node000001_Node000005"><a xlink:title=" ">
<path fill="none" stroke="#63b8ff" d="M424.46,-41.3C439.02,-45.54 454.32,-50 468.82,-54.22"/>
<polygon fill="#63b8ff" stroke="#63b8ff" points="425.09,-37.84 414.51,-38.41 423.13,-44.56 425.09,-37.84"/>
</a>
</g>
</g>
</g>
</svg>
