<?xml version="1.0" encoding="UTF-8" standalone="no"?>
<!DOCTYPE svg PUBLIC "-//W3C//DTD SVG 1.1//EN"
 "http://www.w3.org/Graphics/SVG/1.1/DTD/svg11.dtd">
<!-- Generated by graphviz version 2.43.0 (0)
 -->
<!-- Title: corelib::detail::ValueFromPointerCast&lt; To, From, Derived &gt; Pages: 1 -->
<!--zoomable 146 -->

<svg id="main" version="1.1" xmlns="http://www.w3.org/2000/svg" xmlns:xlink="http://www.w3.org/1999/xlink" xml:space="preserve" onload="init(evt)">
<style type="text/css"><![CDATA[
.node, .edge {opacity: 0.7;}
.node.selected, .edge.selected {opacity: 1;}
.edge:hover path { stroke: red; }
.edge:hover polygon { stroke: red; fill: red; }
]]></style>

<defs>
  <circle id="rim" cx="0" cy="0" r="7"/>
  <circle id="rim2" cx="0" cy="0" r="3.5"/>
  <g id="zoomPlus">
    <use xlink:href="#rim" fill="#404040"><set attributeName="fill" to="#808080" begin="zoomplus.mouseover" end="zoomplus.mouseout"/></use>
    <path d="M-4,0h8M0,-4v8" fill="none" stroke="white" stroke-width="1.5" pointer-events="none"/>
  </g>
  <g id="zoomMin">
    <use xlink:href="#rim" fill="#404040"><set attributeName="fill" to="#808080" begin="zoomminus.mouseover" end="zoomminus.mouseout"/></use>
    <path d="M-4,0h8" fill="none" stroke="white" stroke-width="1.5" pointer-events="none"/>
  </g>
  <g id="arrowUp" transform="translate(30 24)">
    <use xlink:href="#rim"/>
    <path pointer-events="none" fill="none" stroke="white" stroke-width="1.5" d="M0,-3.0v7 M-2.5,-0.5L0,-3.0L2.5,-0.5"/>
  </g>
  <g id="arrowRight" transform="rotate(90) translate(36 -43)">
    <use xlink:href="#rim"/>
    <path pointer-events="none" fill="none" stroke="white" stroke-width="1.5" d="M0,-3.0v7 M-2.5,-0.5L0,-3.0L2.5,-0.5"/>
  </g>
  <g id="arrowDown" transform="rotate(180) translate(-30 -48)">
    <use xlink:href="#rim"/>
    <path pointer-events="none" fill="none" stroke="white" stroke-width="1.5" d="M0,-3.0v7 M-2.5,-0.5L0,-3.0L2.5,-0.5"/>
  </g>
  <g id="arrowLeft" transform="rotate(270) translate(-36 17)">
    <use xlink:href="#rim"/>
    <path pointer-events="none" fill="none" stroke="white" stroke-width="1.5" d="M0,-3.0v7 M-2.5,-0.5L0,-3.0L2.5,-0.5"/>
  </g>
  <g id="resetDef">
    <use xlink:href="#rim2" fill="#404040"><set attributeName="fill" to="#808080" begin="reset.mouseover" end="reset.mouseout"/></use>
  </g>
</defs>
<script type="application/ecmascript">
var viewWidth = 618;
var viewHeight = 146;
var sectionId = 'dynsection-1';
</script>
<script type="application/ecmascript" xlink:href="svg.min.js"/>
<svg id="graph" class="graph">
<g id="viewport">
<title>corelib::detail::ValueFromPointerCast&lt; To, From, Derived &gt;</title>
<!-- Node1 -->
<g id="Node000001" class="node">
<title>Node1</title>
<g id="a_Node000001"><a xlink:title="Casting adapter for converting pointers to values.">
<polygon fill="#999999" stroke="#666666" points="610,-95 469,-95 469,-54 610,-54 610,-95"/>
<text text-anchor="start" x="477" y="-83" font-family="Helvetica,sans-Serif" font-size="10.00">corelib::detail::ValueFrom</text>
<text text-anchor="start" x="477" y="-72" font-family="Helvetica,sans-Serif" font-size="10.00">PointerCast&lt; To, From,</text>
<text text-anchor="middle" x="539.5" y="-61" font-family="Helvetica,sans-Serif" font-size="10.00"> Derived &gt;</text>
</a>
</g>
</g>
<!-- Node2 -->
<g id="Node000002" class="node">
<title>Node2</title>
<g id="a_Node000002"><a xlink:href="structcorelib_1_1detail_1_1CastIsPossible.html" target="_top" xlink:title=" ">
<polygon fill="white" stroke="#666666" points="432,-137.5 272,-137.5 272,-107.5 432,-107.5 432,-137.5"/>
<text text-anchor="start" x="280" y="-125.5" font-family="Helvetica,sans-Serif" font-size="10.00">corelib::detail::CastIsPossible</text>
<text text-anchor="middle" x="352" y="-114.5" font-family="Helvetica,sans-Serif" font-size="10.00">&lt; To, From * &gt;</text>
</a>
</g>
</g>
<!-- Node2&#45;&gt;Node1 -->
<g id="edge1_Node000001_Node000002" class="edge">
<title>Node2&#45;&gt;Node1</title>
<g id="a_edge1_Node000001_Node000002"><a xlink:title=" ">
<path fill="none" stroke="#63b8ff" d="M421.22,-104.85C436.73,-100.83 453.24,-96.56 468.81,-92.53"/>
<polygon fill="#63b8ff" stroke="#63b8ff" points="419.99,-101.55 411.18,-107.44 421.74,-108.33 419.99,-101.55"/>
</a>
</g>
</g>
<!-- Node3 -->
<g id="Node000003" class="node">
<title>Node3</title>
<g id="a_Node000003"><a xlink:href="structcorelib_1_1detail_1_1CastIsPossible.html" target="_top" xlink:title="Base template for checking if a cast is possible.">
<polygon fill="white" stroke="#666666" points="160,-137.5 0,-137.5 0,-107.5 160,-107.5 160,-137.5"/>
<text text-anchor="start" x="8" y="-125.5" font-family="Helvetica,sans-Serif" font-size="10.00">corelib::detail::CastIsPossible</text>
<text text-anchor="middle" x="80" y="-114.5" font-family="Helvetica,sans-Serif" font-size="10.00">&lt; To, From, Enable &gt;</text>
</a>
</g>
</g>
<!-- Node3&#45;&gt;Node2 -->
<g id="edge2_Node000002_Node000003" class="edge">
<title>Node3&#45;&gt;Node2</title>
<g id="a_edge2_Node000002_Node000003"><a xlink:title=" ">
<path fill="none" stroke="orange" stroke-dasharray="5,2" d="M170.23,-122.5C203.04,-122.5 239.95,-122.5 271.82,-122.5"/>
<polygon fill="orange" stroke="orange" points="170.18,-119 160.18,-122.5 170.18,-126 170.18,-119"/>
</a>
</g>
<text text-anchor="middle" x="216" y="-125.5" font-family="Helvetica,sans-Serif" font-size="10.00" fill="grey"> &lt; To, From * &gt;</text>
</g>
<!-- Node4 -->
<g id="Node000004" class="node">
<title>Node4</title>
<g id="a_Node000004"><a xlink:href="structcorelib_1_1detail_1_1NullableValueCastFailed.html" target="_top" xlink:title="Provides default CastFailed() implementation for nullable types.">
<polygon fill="white" stroke="#666666" points="417,-89.5 287,-89.5 287,-59.5 417,-59.5 417,-89.5"/>
<text text-anchor="start" x="295" y="-77.5" font-family="Helvetica,sans-Serif" font-size="10.00">corelib::detail::Nullable</text>
<text text-anchor="middle" x="352" y="-66.5" font-family="Helvetica,sans-Serif" font-size="10.00">ValueCastFailed&lt; To &gt;</text>
</a>
</g>
</g>
<!-- Node4&#45;&gt;Node1 -->
<g id="edge3_Node000001_Node000004" class="edge">
<title>Node4&#45;&gt;Node1</title>
<g id="a_edge3_Node000001_Node000004"><a xlink:title=" ">
<path fill="none" stroke="#63b8ff" d="M427.39,-74.5C441.02,-74.5 455.2,-74.5 468.7,-74.5"/>
<polygon fill="#63b8ff" stroke="#63b8ff" points="427.1,-71 417.1,-74.5 427.1,-78 427.1,-71"/>
</a>
</g>
</g>
<!-- Node5 -->
<g id="Node000005" class="node">
<title>Node5</title>
<g id="a_Node000005"><a xlink:href="structcorelib_1_1detail_1_1DefaultDoCastIfPossible.html" target="_top" xlink:title="CRTP base providing default DoCastIfPossible() implementation.">
<polygon fill="white" stroke="#666666" points="414.5,-41 289.5,-41 289.5,0 414.5,0 414.5,-41"/>
<text text-anchor="start" x="297.5" y="-29" font-family="Helvetica,sans-Serif" font-size="10.00">corelib::detail::Default</text>
<text text-anchor="start" x="297.5" y="-18" font-family="Helvetica,sans-Serif" font-size="10.00">DoCastIfPossible&lt; To,</text>
<text text-anchor="middle" x="352" y="-7" font-family="Helvetica,sans-Serif" font-size="10.00"> From, Derived &gt;</text>
</a>
</g>
</g>
<!-- Node5&#45;&gt;Node1 -->
<g id="edge4_Node000001_Node000005" class="edge">
<title>Node5&#45;&gt;Node1</title>
<g id="a_edge4_Node000001_Node000005"><a xlink:title=" ">
<path fill="none" stroke="#63b8ff" d="M424.46,-41.3C439.02,-45.54 454.32,-50 468.82,-54.22"/>
<polygon fill="#63b8ff" stroke="#63b8ff" points="425.09,-37.84 414.51,-38.41 423.13,-44.56 425.09,-37.84"/>
</a>
</g>
</g>
</g>
</svg>

<g id="navigator" transform="translate(0 0)" fill="#404254">
  <rect fill="#f2f5e9" fill-opacity="0.5" stroke="#606060" stroke-width=".5" x="0" y="0" width="60" height="60"/>
  <use id="zoomplus" xlink:href="#zoomPlus" x="17" y="9" onmousedown="handleZoom(evt,'in')"/>
  <use id="zoomminus" xlink:href="#zoomMin" x="42" y="9" onmousedown="handleZoom(evt,'out')"/>
  <use id="reset" xlink:href="#resetDef" x="30" y="36" onmousedown="handleReset()"/>
   <use id="arrowup" xlink:href="#arrowUp" x="0" y="0" onmousedown="handlePan(0,-1)"/>
  <use id="arrowright" xlink:href="#arrowRight" x="0" y="0" onmousedown="handlePan(1,0)"/>
  <use id="arrowdown" xlink:href="#arrowDown" x="0" y="0" onmousedown="handlePan(0,1)"/>
  <use id="arrowleft" xlink:href="#arrowLeft" x="0" y="0" onmousedown="handlePan(-1,0)"/>
</g>
<svg viewBox="0 0 15 15" width="100%" height="30px" preserveAspectRatio="xMaxYMin meet">
 <g id="arrow_out" transform="scale(0.3 0.3)">
  <a xlink:href="structcorelib_1_1detail_1_1ValueFromPointerCast__coll__graph_org.svg" target="_base">
   <rect id="button" ry="5" rx="5" y="6" x="6" height="38" width="38"
        fill="#f2f5e9" fill-opacity="0.5" stroke="#606060" stroke-width="1.0"/>
   <path id="arrow"
     d="M 11.500037,31.436501 C 11.940474,20.09759 22.043105,11.32322 32.158766,21.979434 L 37.068811,17.246167 C 37.068811,17.246167 37.088388,32 37.088388,32 L 22.160133,31.978069 C 22.160133,31.978069 26.997745,27.140456 26.997745,27.140456 C 18.528582,18.264221 13.291696,25.230495 11.500037,31.436501 z"
     style="fill:#404040;"/>
  </a>
 </g>
</svg>

<style type='text/css'>
<![CDATA[
[data-mouse-over-selected='false'] { opacity: 0.7; }
[data-mouse-over-selected='true']  { opacity: 1.0; }
]]>
</style>
<script type="application/ecmascript"><![CDATA[
document.addEventListener('DOMContentLoaded', (event) => {
  highlightEdges();
  highlightAdjacentNodes();
});
]]></script>
</svg>
