<?xml version="1.0" encoding="UTF-8" standalone="no"?>
<!DOCTYPE svg PUBLIC "-//W3C//DTD SVG 1.1//EN"
 "http://www.w3.org/Graphics/SVG/1.1/DTD/svg11.dtd">
<!-- Generated by graphviz version 2.43.0 (0)
 -->
<!-- Title: corelib::detail::CastIsPossible&lt; To, From, Enable &gt; Pages: 1 -->
<svg width="851pt" height="197pt"
 viewBox="0.00 0.00 851.00 196.50" xmlns="http://www.w3.org/2000/svg" xmlns:xlink="http://www.w3.org/1999/xlink">
<g id="graph0" class="graph" transform="scale(1 1) rotate(0) translate(4 192.5)">
<title>corelib::detail::CastIsPossible&lt; To, From, Enable &gt;</title>
<!-- Node1 -->
<g id="Node000001" class="node">
<title>Node1</title>
<g id="a_Node000001"><a xlink:title="Base template for checking if a cast is possible.">
<polygon fill="#999999" stroke="#666666" points="160,-116.5 0,-116.5 0,-86.5 160,-86.5 160,-116.5"/>
<text text-anchor="start" x="8" y="-104.5" font-family="Helvetica,sans-Serif" font-size="10.00">corelib::detail::CastIsPossible</text>
<text text-anchor="middle" x="80" y="-93.5" font-family="Helvetica,sans-Serif" font-size="10.00">&lt; To, From, Enable &gt;</text>
</a>
</g>
</g>
<!-- Node2 -->
<g id="Node000002" class="node">
<title>Node2</title>
<g id="a_Node000002"><a xlink:href="structcorelib_1_1detail_1_1CastIsPossible.html" target="_top" xlink:title=" ">
<polygon fill="white" stroke="#666666" points="432,-140.5 272,-140.5 272,-110.5 432,-110.5 432,-140.5"/>
<text text-anchor="start" x="280" y="-128.5" font-family="Helvetica,sans-Serif" font-size="10.00">corelib::detail::CastIsPossible</text>
<text text-anchor="middle" x="352" y="-117.5" font-family="Helvetica,sans-Serif" font-size="10.00">&lt; To, From &gt;</text>
</a>
</g>
</g>
<!-- Node1&#45;&gt;Node2 -->
<g id="edge1_Node000001_Node000002" class="edge">
<title>Node1&#45;&gt;Node2</title>
<g id="a_edge1_Node000001_Node000002"><a xlink:title=" ">
<path fill="none" stroke="orange" stroke-dasharray="5,2" d="M170.23,-109.43C203.04,-112.35 239.95,-115.63 271.82,-118.46"/>
<polygon fill="orange" stroke="orange" points="170.46,-105.94 160.18,-108.54 169.84,-112.91 170.46,-105.94"/>
</a>
</g>
<text text-anchor="middle" x="216" y="-118.5" font-family="Helvetica,sans-Serif" font-size="10.00" fill="grey"> &lt; To, From &gt;</text>
</g>
<!-- Node6 -->
<g id="Node000006" class="node">
<title>Node6</title>
<g id="a_Node000006"><a xlink:href="structcorelib_1_1detail_1_1CastIsPossible.html" target="_top" xlink:title=" ">
<polygon fill="white" stroke="#666666" points="432,-89.5 272,-89.5 272,-59.5 432,-59.5 432,-89.5"/>
<text text-anchor="start" x="280" y="-77.5" font-family="Helvetica,sans-Serif" font-size="10.00">corelib::detail::CastIsPossible</text>
<text text-anchor="middle" x="352" y="-66.5" font-family="Helvetica,sans-Serif" font-size="10.00">&lt; To, From * &gt;</text>
</a>
</g>
</g>
<!-- Node1&#45;&gt;Node6 -->
<g id="edge5_Node000001_Node000006" class="edge">
<title>Node1&#45;&gt;Node6</title>
<g id="a_edge5_Node000001_Node000006"><a xlink:title=" ">
<path fill="none" stroke="orange" stroke-dasharray="5,2" d="M170.23,-92.58C203.04,-89.3 239.95,-85.61 271.82,-82.42"/>
<polygon fill="orange" stroke="orange" points="169.79,-89.1 160.18,-93.58 170.48,-96.07 169.79,-89.1"/>
</a>
</g>
<text text-anchor="middle" x="216" y="-93.5" font-family="Helvetica,sans-Serif" font-size="10.00" fill="grey"> &lt; To, From * &gt;</text>
</g>
<!-- Node3 -->
<g id="Node000003" class="node">
<title>Node3</title>
<g id="a_Node000003"><a xlink:href="structcorelib_1_1detail_1_1CastInfo.html" target="_top" xlink:title="Main orchestrator for cast operations.">
<polygon fill="white" stroke="#666666" points="620.5,-188.5 490.5,-188.5 490.5,-158.5 620.5,-158.5 620.5,-188.5"/>
<text text-anchor="start" x="498.5" y="-176.5" font-family="Helvetica,sans-Serif" font-size="10.00">corelib::detail::CastInfo</text>
<text text-anchor="middle" x="555.5" y="-165.5" font-family="Helvetica,sans-Serif" font-size="10.00">&lt; To, From, Enable &gt;</text>
</a>
</g>
</g>
<!-- Node2&#45;&gt;Node3 -->
<g id="edge2_Node000002_Node000003" class="edge">
<title>Node2&#45;&gt;Node3</title>
<g id="a_edge2_Node000002_Node000003"><a xlink:title=" ">
<path fill="none" stroke="#63b8ff" d="M426.22,-142.94C447.62,-148.04 470.81,-153.57 491.52,-158.5"/>
<polygon fill="#63b8ff" stroke="#63b8ff" points="426.74,-139.47 416.2,-140.56 425.12,-146.28 426.74,-139.47"/>
</a>
</g>
</g>
<!-- Node4 -->
<g id="Node000004" class="node">
<title>Node4</title>
<g id="a_Node000004"><a xlink:href="structcorelib_1_1detail_1_1OptionalValueCast.html" target="_top" xlink:title="Casting adapter for optional&#45;returning casts.">
<polygon fill="white" stroke="#666666" points="642,-140.5 469,-140.5 469,-110.5 642,-110.5 642,-140.5"/>
<text text-anchor="start" x="477" y="-128.5" font-family="Helvetica,sans-Serif" font-size="10.00">corelib::detail::Optional</text>
<text text-anchor="middle" x="555.5" y="-117.5" font-family="Helvetica,sans-Serif" font-size="10.00">ValueCast&lt; To, From, Derived &gt;</text>
</a>
</g>
</g>
<!-- Node2&#45;&gt;Node4 -->
<g id="edge3_Node000002_Node000004" class="edge">
<title>Node2&#45;&gt;Node4</title>
<g id="a_edge3_Node000002_Node000004"><a xlink:title=" ">
<path fill="none" stroke="#63b8ff" d="M442.29,-125.5C451.06,-125.5 459.95,-125.5 468.68,-125.5"/>
<polygon fill="#63b8ff" stroke="#63b8ff" points="442.06,-122 432.06,-125.5 442.06,-129 442.06,-122"/>
</a>
</g>
</g>
<!-- Node5 -->
<g id="Node000005" class="node">
<title>Node5</title>
<g id="a_Node000005"><a xlink:href="structcorelib_1_1detail_1_1CastInfo_3_01To_00_01std_1_1optional_3_01From_01_4_01_4.html" target="_top" xlink:title="Specialization for std::optional types.">
<polygon fill="white" stroke="#666666" points="843,-142.5 679,-142.5 679,-112.5 843,-112.5 843,-142.5"/>
<text text-anchor="start" x="687" y="-130.5" font-family="Helvetica,sans-Serif" font-size="10.00">corelib::detail::CastInfo</text>
<text text-anchor="middle" x="761" y="-119.5" font-family="Helvetica,sans-Serif" font-size="10.00">&lt; To, std::optional&lt; From &gt; &gt;</text>
</a>
</g>
</g>
<!-- Node4&#45;&gt;Node5 -->
<g id="edge4_Node000004_Node000005" class="edge">
<title>Node4&#45;&gt;Node5</title>
<g id="a_edge4_Node000004_Node000005"><a xlink:title=" ">
<path fill="none" stroke="#63b8ff" d="M652.25,-126.44C661.17,-126.53 670.16,-126.62 678.93,-126.7"/>
<polygon fill="#63b8ff" stroke="#63b8ff" points="652.25,-122.94 642.21,-126.34 652.18,-129.94 652.25,-122.94"/>
</a>
</g>
</g>
<!-- Node7 -->
<g id="Node000007" class="node">
<title>Node7</title>
<g id="a_Node000007"><a xlink:href="structcorelib_1_1detail_1_1UniquePtrCast.html" target="_top" xlink:title="Casting adapter for std::unique_ptr with ownership transfer.">
<polygon fill="white" stroke="#666666" points="628.5,-89.5 482.5,-89.5 482.5,-59.5 628.5,-59.5 628.5,-89.5"/>
<text text-anchor="start" x="490.5" y="-77.5" font-family="Helvetica,sans-Serif" font-size="10.00">corelib::detail::UniquePtr</text>
<text text-anchor="middle" x="555.5" y="-66.5" font-family="Helvetica,sans-Serif" font-size="10.00">Cast&lt; To, From, Derived &gt;</text>
</a>
</g>
</g>
<!-- Node6&#45;&gt;Node7 -->
<g id="edge6_Node000006_Node000007" class="edge">
<title>Node6&#45;&gt;Node7</title>
<g id="a_edge6_Node000006_Node000007"><a xlink:title=" ">
<path fill="none" stroke="#63b8ff" d="M442.22,-74.5C455.61,-74.5 469.26,-74.5 482.23,-74.5"/>
<polygon fill="#63b8ff" stroke="#63b8ff" points="442.06,-71 432.06,-74.5 442.06,-78 442.06,-71"/>
</a>
</g>
</g>
<!-- Node9 -->
<g id="Node000009" class="node">
<title>Node9</title>
<g id="a_Node000009"><a xlink:href="structcorelib_1_1detail_1_1ValueFromPointerCast.html" target="_top" xlink:title="Casting adapter for converting pointers to values.">
<polygon fill="white" stroke="#666666" points="626,-41 485,-41 485,0 626,0 626,-41"/>
<text text-anchor="start" x="493" y="-29" font-family="Helvetica,sans-Serif" font-size="10.00">corelib::detail::ValueFrom</text>
<text text-anchor="start" x="493" y="-18" font-family="Helvetica,sans-Serif" font-size="10.00">PointerCast&lt; To, From,</text>
<text text-anchor="middle" x="555.5" y="-7" font-family="Helvetica,sans-Serif" font-size="10.00"> Derived &gt;</text>
</a>
</g>
</g>
<!-- Node6&#45;&gt;Node9 -->
<g id="edge8_Node000006_Node000009" class="edge">
<title>Node6&#45;&gt;Node9</title>
<g id="a_edge8_Node000006_Node000009"><a xlink:title=" ">
<path fill="none" stroke="#63b8ff" d="M418.94,-56.83C439.99,-51.19 463.34,-44.93 484.66,-39.22"/>
<polygon fill="#63b8ff" stroke="#63b8ff" points="417.88,-53.49 409.13,-59.46 419.69,-60.25 417.88,-53.49"/>
</a>
</g>
</g>
<!-- Node8 -->
<g id="Node000008" class="node">
<title>Node8</title>
<g id="a_Node000008"><a xlink:href="structcorelib_1_1detail_1_1CastInfo_3_01To_00_01std_1_1unique__ptr_3_01From_01_4_01_4.html" target="_top" xlink:title="Specialization for std::unique_ptr types.">
<polygon fill="white" stroke="#666666" points="826,-94 696,-94 696,-53 826,-53 826,-94"/>
<text text-anchor="start" x="704" y="-82" font-family="Helvetica,sans-Serif" font-size="10.00">corelib::detail::CastInfo</text>
<text text-anchor="start" x="704" y="-71" font-family="Helvetica,sans-Serif" font-size="10.00">&lt; To, std::unique_ptr&lt;</text>
<text text-anchor="middle" x="761" y="-60" font-family="Helvetica,sans-Serif" font-size="10.00"> From &gt; &gt;</text>
</a>
</g>
</g>
<!-- Node7&#45;&gt;Node8 -->
<g id="edge7_Node000007_Node000008" class="edge">
<title>Node7&#45;&gt;Node8</title>
<g id="a_edge7_Node000007_Node000008"><a xlink:title=" ">
<path fill="none" stroke="#63b8ff" d="M638.69,-74.1C657.73,-74 677.72,-73.9 695.86,-73.82"/>
<polygon fill="#63b8ff" stroke="#63b8ff" points="638.52,-70.6 628.53,-74.15 638.55,-77.6 638.52,-70.6"/>
</a>
</g>
</g>
</g>
</svg>
