<?xml version="1.0" encoding="UTF-8" standalone="no"?>
<!DOCTYPE svg PUBLIC "-//W3C//DTD SVG 1.1//EN"
 "http://www.w3.org/Graphics/SVG/1.1/DTD/svg11.dtd">
<!-- Generated by graphviz version 2.43.0 (0)
 -->
<!-- Title: include/corelib/internal/tracing.hxx Pages: 1 -->
<svg width="1197pt" height="621pt"
 viewBox="0.00 0.00 1196.62 621.00" xmlns="http://www.w3.org/2000/svg" xmlns:xlink="http://www.w3.org/1999/xlink">
<g id="graph0" class="graph" transform="scale(1 1) rotate(0) translate(4 617)">
<title>include/corelib/internal/tracing.hxx</title>
<!-- Node1 -->
<g id="Node000001" class="node">
<title>Node1</title>
<g id="a_Node000001"><a xlink:title=" ">
<polygon fill="#999999" stroke="#666666" points="572.12,-613 444.12,-613 444.12,-583 572.12,-583 572.12,-613"/>
<text text-anchor="start" x="452.12" y="-601" font-family="Helvetica,sans-Serif" font-size="10.00">include/corelib/internal</text>
<text text-anchor="middle" x="508.12" y="-590" font-family="Helvetica,sans-Serif" font-size="10.00">/tracing.hxx</text>
</a>
</g>
</g>
<!-- Node2 -->
<g id="Node000002" class="node">
<title>Node2</title>
<g id="a_Node000002"><a xlink:href="casting_2cast_8hxx.html" target="_top" xlink:title=" ">
<polygon fill="white" stroke="#666666" points="238.12,-283 112.12,-283 112.12,-253 238.12,-253 238.12,-283"/>
<text text-anchor="start" x="120.12" y="-271" font-family="Helvetica,sans-Serif" font-size="10.00">include/corelib/casting</text>
<text text-anchor="middle" x="175.12" y="-260" font-family="Helvetica,sans-Serif" font-size="10.00">/cast.hxx</text>
</a>
</g>
</g>
<!-- Node1&#45;&gt;Node2 -->
<g id="edge1_Node000001_Node000002" class="edge">
<title>Node1&#45;&gt;Node2</title>
<g id="a_edge1_Node000001_Node000002"><a xlink:title=" ">
<path fill="none" stroke="#63b8ff" d="M433.47,-594.04C304.65,-588.25 51.45,-573.6 21.12,-547 -6.36,-522.9 2.12,-503.54 2.12,-467 2.12,-467 2.12,-467 2.12,-399 2.12,-337.01 73.99,-300.92 125.08,-283.1"/>
<polygon fill="#63b8ff" stroke="#63b8ff" points="433.5,-597.54 443.65,-594.49 433.81,-590.55 433.5,-597.54"/>
</a>
</g>
</g>
<!-- Node4 -->
<g id="Node000004" class="node">
<title>Node4</title>
<g id="a_Node000004"><a xlink:href="dyn__cast_8hxx.html" target="_top" xlink:title=" ">
<polygon fill="white" stroke="#666666" points="367.12,-217 241.12,-217 241.12,-187 367.12,-187 367.12,-217"/>
<text text-anchor="start" x="249.12" y="-205" font-family="Helvetica,sans-Serif" font-size="10.00">include/corelib/casting</text>
<text text-anchor="middle" x="304.12" y="-194" font-family="Helvetica,sans-Serif" font-size="10.00">/dyn_cast.hxx</text>
</a>
</g>
</g>
<!-- Node1&#45;&gt;Node4 -->
<g id="edge9_Node000001_Node000004" class="edge">
<title>Node1&#45;&gt;Node4</title>
<g id="a_edge9_Node000001_Node000004"><a xlink:title=" ">
<path fill="none" stroke="#63b8ff" d="M519.27,-573.73C530.48,-548.17 546.12,-505.61 546.12,-467 546.12,-467 546.12,-467 546.12,-333 546.12,-251.8 439.09,-221.11 367.39,-209.66"/>
<polygon fill="#63b8ff" stroke="#63b8ff" points="516.03,-572.41 515.09,-582.97 522.4,-575.3 516.03,-572.41"/>
</a>
</g>
</g>
<!-- Node5 -->
<g id="Node000005" class="node">
<title>Node5</title>
<g id="a_Node000005"><a xlink:href="detail_2casting_2predicates_8hxx.html" target="_top" xlink:title=" ">
<polygon fill="white" stroke="#666666" points="405.12,-151 275.12,-151 275.12,-121 405.12,-121 405.12,-151"/>
<text text-anchor="start" x="283.12" y="-139" font-family="Helvetica,sans-Serif" font-size="10.00">include/corelib/detail</text>
<text text-anchor="middle" x="340.12" y="-128" font-family="Helvetica,sans-Serif" font-size="10.00">/casting/predicates.hxx</text>
</a>
</g>
</g>
<!-- Node1&#45;&gt;Node5 -->
<g id="edge25_Node000001_Node000005" class="edge">
<title>Node1&#45;&gt;Node5</title>
<g id="a_edge25_Node000001_Node000005"><a xlink:title=" ">
<path fill="none" stroke="#63b8ff" d="M530.34,-575.49C552.77,-551.38 584.12,-509.98 584.12,-467 584.12,-467 584.12,-467 584.12,-267 584.12,-185.76 477.47,-155.12 405.19,-143.68"/>
<polygon fill="#63b8ff" stroke="#63b8ff" points="527.54,-573.35 523.13,-582.99 532.59,-578.21 527.54,-573.35"/>
</a>
</g>
</g>
<!-- Node7 -->
<g id="Node000007" class="node">
<title>Node7</title>
<g id="a_Node000007"><a xlink:href="casting_2isa_8hxx.html" target="_top" xlink:title=" ">
<polygon fill="white" stroke="#666666" points="478.12,-349 352.12,-349 352.12,-319 478.12,-319 478.12,-349"/>
<text text-anchor="start" x="360.12" y="-337" font-family="Helvetica,sans-Serif" font-size="10.00">include/corelib/casting</text>
<text text-anchor="middle" x="415.12" y="-326" font-family="Helvetica,sans-Serif" font-size="10.00">/isa.hxx</text>
</a>
</g>
</g>
<!-- Node1&#45;&gt;Node7 -->
<g id="edge10_Node000001_Node000007" class="edge">
<title>Node1&#45;&gt;Node7</title>
<g id="a_edge10_Node000001_Node000007"><a xlink:title=" ">
<path fill="none" stroke="#63b8ff" d="M503.49,-572.89C500.22,-556.92 495.49,-535.56 490.12,-517 472.81,-457.18 468.87,-441.7 443.12,-385 437.44,-372.5 429.75,-358.95 423.86,-349.11"/>
<polygon fill="#63b8ff" stroke="#63b8ff" points="500.11,-573.87 505.5,-583 506.98,-572.5 500.11,-573.87"/>
</a>
</g>
</g>
<!-- Node8 -->
<g id="Node000008" class="node">
<title>Node8</title>
<g id="a_Node000008"><a xlink:href="adapters_8hxx.html" target="_top" xlink:title=" ">
<polygon fill="white" stroke="#666666" points="152.12,-481 30.12,-481 30.12,-451 152.12,-451 152.12,-481"/>
<text text-anchor="start" x="38.12" y="-469" font-family="Helvetica,sans-Serif" font-size="10.00">include/corelib/detail</text>
<text text-anchor="middle" x="91.12" y="-458" font-family="Helvetica,sans-Serif" font-size="10.00">/casting/adapters.hxx</text>
</a>
</g>
</g>
<!-- Node1&#45;&gt;Node8 -->
<g id="edge14_Node000001_Node000008" class="edge">
<title>Node1&#45;&gt;Node8</title>
<g id="a_edge14_Node000001_Node000008"><a xlink:title=" ">
<path fill="none" stroke="#63b8ff" d="M433.89,-594.59C371.6,-590.25 281.45,-578.5 209.12,-547 189.07,-538.27 188.04,-529.53 170.12,-517 151.89,-504.26 130.55,-490.84 114.64,-481.11"/>
<polygon fill="#63b8ff" stroke="#63b8ff" points="433.82,-598.09 444.03,-595.24 434.28,-591.1 433.82,-598.09"/>
</a>
</g>
</g>
<!-- Node9 -->
<g id="Node000009" class="node">
<title>Node9</title>
<g id="a_Node000009"><a xlink:href="detail_2casting_2cast_8hxx.html" target="_top" xlink:title=" ">
<polygon fill="white" stroke="#666666" points="365.62,-415 246.62,-415 246.62,-385 365.62,-385 365.62,-415"/>
<text text-anchor="start" x="254.62" y="-403" font-family="Helvetica,sans-Serif" font-size="10.00">include/corelib/detail</text>
<text text-anchor="middle" x="306.12" y="-392" font-family="Helvetica,sans-Serif" font-size="10.00">/casting/cast.hxx</text>
</a>
</g>
</g>
<!-- Node1&#45;&gt;Node9 -->
<g id="edge20_Node000001_Node000009" class="edge">
<title>Node1&#45;&gt;Node9</title>
<g id="a_edge20_Node000001_Node000009"><a xlink:title=" ">
<path fill="none" stroke="#63b8ff" d="M497.65,-573.37C482.68,-541.86 452.43,-485.99 412.12,-451 393.91,-435.19 369.85,-423.31 349.25,-415.1"/>
<polygon fill="#63b8ff" stroke="#63b8ff" points="494.59,-575.09 501.97,-582.69 500.94,-572.14 494.59,-575.09"/>
</a>
</g>
</g>
<!-- Node10 -->
<g id="Node000010" class="node">
<title>Node10</title>
<g id="a_Node000010"><a xlink:href="forwarding_8hxx.html" target="_top" xlink:title=" ">
<polygon fill="white" stroke="#666666" points="161.62,-547 30.62,-547 30.62,-517 161.62,-517 161.62,-547"/>
<text text-anchor="start" x="38.62" y="-535" font-family="Helvetica,sans-Serif" font-size="10.00">include/corelib/detail</text>
<text text-anchor="middle" x="96.12" y="-524" font-family="Helvetica,sans-Serif" font-size="10.00">/casting/forwarding.hxx</text>
</a>
</g>
</g>
<!-- Node1&#45;&gt;Node10 -->
<g id="edge21_Node000001_Node000010" class="edge">
<title>Node1&#45;&gt;Node10</title>
<g id="a_edge21_Node000001_Node000010"><a xlink:title=" ">
<path fill="none" stroke="#63b8ff" d="M434,-586.35C366.67,-576.56 264.63,-561.41 176.12,-547 171.53,-546.25 166.79,-545.46 162.02,-544.66"/>
<polygon fill="#63b8ff" stroke="#63b8ff" points="433.69,-589.84 444.09,-587.82 434.7,-582.92 433.69,-589.84"/>
</a>
</g>
</g>
<!-- Node11 -->
<g id="Node000011" class="node">
<title>Node11</title>
<g id="a_Node000011"><a xlink:href="detail_2casting_2isa_8hxx.html" target="_top" xlink:title=" ">
<polygon fill="white" stroke="#666666" points="403.62,-481 284.62,-481 284.62,-451 403.62,-451 403.62,-481"/>
<text text-anchor="start" x="292.62" y="-469" font-family="Helvetica,sans-Serif" font-size="10.00">include/corelib/detail</text>
<text text-anchor="middle" x="344.12" y="-458" font-family="Helvetica,sans-Serif" font-size="10.00">/casting/isa.hxx</text>
</a>
</g>
</g>
<!-- Node1&#45;&gt;Node11 -->
<g id="edge23_Node000001_Node000011" class="edge">
<title>Node1&#45;&gt;Node11</title>
<g id="a_edge23_Node000001_Node000011"><a xlink:title=" ">
<path fill="none" stroke="#63b8ff" d="M467.81,-578.1C451.64,-569.65 433.28,-558.9 418.12,-547 392.82,-527.14 368.49,-498.37 355,-481.29"/>
<polygon fill="#63b8ff" stroke="#63b8ff" points="466.54,-581.39 477.04,-582.81 469.71,-575.15 466.54,-581.39"/>
</a>
</g>
</g>
<!-- Node12 -->
<g id="Node000012" class="node">
<title>Node12</title>
<g id="a_Node000012"><a xlink:href="traits_8hxx.html" target="_top" xlink:title=" ">
<polygon fill="white" stroke="#666666" points="337.62,-547 218.62,-547 218.62,-517 337.62,-517 337.62,-547"/>
<text text-anchor="start" x="226.62" y="-535" font-family="Helvetica,sans-Serif" font-size="10.00">include/corelib/detail</text>
<text text-anchor="middle" x="278.12" y="-524" font-family="Helvetica,sans-Serif" font-size="10.00">/casting/traits.hxx</text>
</a>
</g>
</g>
<!-- Node1&#45;&gt;Node12 -->
<g id="edge26_Node000001_Node000012" class="edge">
<title>Node1&#45;&gt;Node12</title>
<g id="a_edge26_Node000001_Node000012"><a xlink:title=" ">
<path fill="none" stroke="#63b8ff" d="M447.94,-580.25C410.78,-569.91 363.65,-556.8 328.48,-547.01"/>
<polygon fill="#63b8ff" stroke="#63b8ff" points="447.07,-583.65 457.64,-582.95 448.95,-576.9 447.07,-583.65"/>
</a>
</g>
</g>
<!-- Node13 -->
<g id="Node000013" class="node">
<title>Node13</title>
<g id="a_Node000013"><a xlink:href="base_8hxx.html" target="_top" xlink:title=" ">
<polygon fill="white" stroke="#666666" points="914.12,-547 772.12,-547 772.12,-517 914.12,-517 914.12,-547"/>
<text text-anchor="start" x="780.12" y="-535" font-family="Helvetica,sans-Serif" font-size="10.00">include/corelib/extensible</text>
<text text-anchor="middle" x="843.12" y="-524" font-family="Helvetica,sans-Serif" font-size="10.00">&#45;rtti/base.hxx</text>
</a>
</g>
</g>
<!-- Node1&#45;&gt;Node13 -->
<g id="edge33_Node000001_Node000013" class="edge">
<title>Node1&#45;&gt;Node13</title>
<g id="a_edge33_Node000001_Node000013"><a xlink:title=" ">
<path fill="none" stroke="#63b8ff" d="M582.26,-582.84C638.77,-572.04 716.11,-557.26 771.89,-546.61"/>
<polygon fill="#63b8ff" stroke="#63b8ff" points="581.48,-579.42 572.31,-584.74 582.79,-586.3 581.48,-579.42"/>
</a>
</g>
</g>
<!-- Node16 -->
<g id="Node000016" class="node">
<title>Node16</title>
<g id="a_Node000016"><a xlink:href="extends_8hxx.html" target="_top" xlink:title=" ">
<polygon fill="white" stroke="#666666" points="754.12,-547 612.12,-547 612.12,-517 754.12,-517 754.12,-547"/>
<text text-anchor="start" x="620.12" y="-535" font-family="Helvetica,sans-Serif" font-size="10.00">include/corelib/extensible</text>
<text text-anchor="middle" x="683.12" y="-524" font-family="Helvetica,sans-Serif" font-size="10.00">&#45;rtti/extends.hxx</text>
</a>
</g>
</g>
<!-- Node1&#45;&gt;Node16 -->
<g id="edge36_Node000001_Node000016" class="edge">
<title>Node1&#45;&gt;Node16</title>
<g id="a_edge36_Node000001_Node000016"><a xlink:title=" ">
<path fill="none" stroke="#63b8ff" d="M556.09,-579.46C584.01,-569.25 618.72,-556.55 644.8,-547.01"/>
<polygon fill="#63b8ff" stroke="#63b8ff" points="554.71,-576.23 546.52,-582.95 557.12,-582.81 554.71,-576.23"/>
</a>
</g>
</g>
<!-- Node17 -->
<g id="Node000017" class="node">
<title>Node17</title>
<g id="a_Node000017"><a xlink:href="auto__release_8hxx.html" target="_top" xlink:title=" ">
<polygon fill="white" stroke="#666666" points="1188.62,-547 1069.62,-547 1069.62,-517 1188.62,-517 1188.62,-547"/>
<text text-anchor="start" x="1077.62" y="-535" font-family="Helvetica,sans-Serif" font-size="10.00">include/corelib/utility</text>
<text text-anchor="middle" x="1129.12" y="-524" font-family="Helvetica,sans-Serif" font-size="10.00">/auto_release.hxx</text>
</a>
</g>
</g>
<!-- Node1&#45;&gt;Node17 -->
<g id="edge38_Node000001_Node000017" class="edge">
<title>Node1&#45;&gt;Node17</title>
<g id="a_edge38_Node000001_Node000017"><a xlink:title=" ">
<path fill="none" stroke="#63b8ff" d="M582.26,-592.96C688.67,-586.57 890.67,-572.17 1061.12,-547 1063.86,-546.6 1066.66,-546.15 1069.48,-545.67"/>
<polygon fill="#63b8ff" stroke="#63b8ff" points="582.03,-589.47 572.26,-593.56 582.45,-596.46 582.03,-589.47"/>
</a>
</g>
</g>
<!-- Node19 -->
<g id="Node000019" class="node">
<title>Node19</title>
<g id="a_Node000019"><a xlink:href="defer_8hxx.html" target="_top" xlink:title=" ">
<polygon fill="white" stroke="#666666" points="1051.62,-547 932.62,-547 932.62,-517 1051.62,-517 1051.62,-547"/>
<text text-anchor="start" x="940.62" y="-535" font-family="Helvetica,sans-Serif" font-size="10.00">include/corelib/utility</text>
<text text-anchor="middle" x="992.12" y="-524" font-family="Helvetica,sans-Serif" font-size="10.00">/defer.hxx</text>
</a>
</g>
</g>
<!-- Node1&#45;&gt;Node19 -->
<g id="edge40_Node000001_Node000019" class="edge">
<title>Node1&#45;&gt;Node19</title>
<g id="a_edge40_Node000001_Node000019"><a xlink:title=" ">
<path fill="none" stroke="#63b8ff" d="M582.45,-589.86C665.69,-581.45 804.48,-566.15 923.12,-547 926.14,-546.51 929.22,-545.99 932.33,-545.44"/>
<polygon fill="#63b8ff" stroke="#63b8ff" points="581.93,-586.4 572.33,-590.88 582.63,-593.36 581.93,-586.4"/>
</a>
</g>
</g>
<!-- Node3 -->
<g id="Node000003" class="node">
<title>Node3</title>
<g id="a_Node000003"><a xlink:href="casting_8hxx.html" target="_top" xlink:title="Convenience header for all casting module components.">
<polygon fill="white" stroke="#666666" points="366.62,-19 219.62,-19 219.62,0 366.62,0 366.62,-19"/>
<text text-anchor="middle" x="293.12" y="-7" font-family="Helvetica,sans-Serif" font-size="10.00">include/corelib/casting.hxx</text>
</a>
</g>
</g>
<!-- Node2&#45;&gt;Node3 -->
<g id="edge2_Node000002_Node000003" class="edge">
<title>Node2&#45;&gt;Node3</title>
<g id="a_edge2_Node000002_Node000003"><a xlink:title=" ">
<path fill="none" stroke="#63b8ff" d="M181.88,-243.17C193.93,-202.73 221.43,-118.85 259.12,-55 266.93,-41.77 278.05,-27.92 285.42,-19.25"/>
<polygon fill="#63b8ff" stroke="#63b8ff" points="178.48,-242.34 179.03,-252.92 185.2,-244.31 178.48,-242.34"/>
</a>
</g>
</g>
<!-- Node2&#45;&gt;Node4 -->
<g id="edge3_Node000002_Node000004" class="edge">
<title>Node2&#45;&gt;Node4</title>
<g id="a_edge3_Node000002_Node000004"><a xlink:title=" ">
<path fill="none" stroke="#63b8ff" d="M212.65,-248.38C232.84,-238.36 257.32,-226.22 275.88,-217.01"/>
<polygon fill="#63b8ff" stroke="#63b8ff" points="210.83,-245.38 203.43,-252.95 213.94,-251.65 210.83,-245.38"/>
</a>
</g>
</g>
<!-- Node2&#45;&gt;Node5 -->
<g id="edge8_Node000002_Node000005" class="edge">
<title>Node2&#45;&gt;Node5</title>
<g id="a_edge8_Node000002_Node000005"><a xlink:title=" ">
<path fill="none" stroke="#63b8ff" d="M187.22,-243.87C197.3,-226.4 213.07,-202.8 232.12,-187 251.12,-171.23 275.91,-159.29 296.95,-151.04"/>
<polygon fill="#63b8ff" stroke="#63b8ff" points="184.02,-242.42 182.21,-252.86 190.13,-245.83 184.02,-242.42"/>
</a>
</g>
</g>
<!-- Node4&#45;&gt;Node3 -->
<g id="edge4_Node000004_Node000003" class="edge">
<title>Node4&#45;&gt;Node3</title>
<g id="a_edge4_Node000004_Node000003"><a xlink:title=" ">
<path fill="none" stroke="#63b8ff" d="M282.66,-179.19C276.03,-171.02 269.56,-161.23 266.12,-151 262.18,-139.32 260,-80.53 267.12,-55 270.92,-41.38 279.93,-27.62 286.28,-19.08"/>
<polygon fill="#63b8ff" stroke="#63b8ff" points="280.04,-181.52 289.24,-186.77 285.33,-176.93 280.04,-181.52"/>
</a>
</g>
</g>
<!-- Node4&#45;&gt;Node5 -->
<g id="edge5_Node000004_Node000005" class="edge">
<title>Node4&#45;&gt;Node5</title>
<g id="a_edge5_Node000004_Node000005"><a xlink:title=" ">
<path fill="none" stroke="#63b8ff" d="M317.08,-177.96C322.12,-169 327.73,-159.03 332.15,-151.16"/>
<polygon fill="#63b8ff" stroke="#63b8ff" points="313.96,-176.36 312.11,-186.8 320.06,-179.8 313.96,-176.36"/>
</a>
</g>
</g>
<!-- Node6 -->
<g id="Node000006" class="node">
<title>Node6</title>
<g id="a_Node000006"><a xlink:href="casting_2predicates_8hxx.html" target="_top" xlink:title=" ">
<polygon fill="white" stroke="#666666" points="402.12,-85 276.12,-85 276.12,-55 402.12,-55 402.12,-85"/>
<text text-anchor="start" x="284.12" y="-73" font-family="Helvetica,sans-Serif" font-size="10.00">include/corelib/casting</text>
<text text-anchor="middle" x="339.12" y="-62" font-family="Helvetica,sans-Serif" font-size="10.00">/predicates.hxx</text>
</a>
</g>
</g>
<!-- Node5&#45;&gt;Node6 -->
<g id="edge6_Node000005_Node000006" class="edge">
<title>Node5&#45;&gt;Node6</title>
<g id="a_edge6_Node000005_Node000006"><a xlink:title=" ">
<path fill="none" stroke="#63b8ff" d="M339.74,-110.54C339.6,-101.96 339.46,-92.61 339.34,-85.16"/>
<polygon fill="#63b8ff" stroke="#63b8ff" points="336.24,-110.85 339.9,-120.8 343.24,-110.74 336.24,-110.85"/>
</a>
</g>
</g>
<!-- Node6&#45;&gt;Node3 -->
<g id="edge7_Node000006_Node000003" class="edge">
<title>Node6&#45;&gt;Node3</title>
<g id="a_edge7_Node000006_Node000003"><a xlink:title=" ">
<path fill="none" stroke="#63b8ff" d="M321.66,-46.8C314.12,-37.21 305.73,-26.54 300.01,-19.27"/>
<polygon fill="#63b8ff" stroke="#63b8ff" points="319.05,-49.14 327.98,-54.84 324.55,-44.81 319.05,-49.14"/>
</a>
</g>
</g>
<!-- Node7&#45;&gt;Node2 -->
<g id="edge12_Node000007_Node000002" class="edge">
<title>Node7&#45;&gt;Node2</title>
<g id="a_edge12_Node000007_Node000002"><a xlink:title=" ">
<path fill="none" stroke="#63b8ff" d="M352.32,-316.25C313.55,-305.91 264.37,-292.8 227.66,-283.01"/>
<polygon fill="#63b8ff" stroke="#63b8ff" points="351.89,-319.76 362.45,-318.95 353.69,-313 351.89,-319.76"/>
</a>
</g>
</g>
<!-- Node7&#45;&gt;Node3 -->
<g id="edge11_Node000007_Node000003" class="edge">
<title>Node7&#45;&gt;Node3</title>
<g id="a_edge11_Node000007_Node000003"><a xlink:title=" ">
<path fill="none" stroke="#63b8ff" d="M420.54,-308.58C425.84,-282.56 433.12,-240.08 433.12,-203 433.12,-203 433.12,-203 433.12,-135 433.12,-98.12 435.96,-82.25 411.12,-55 394.01,-36.23 368.18,-25.34 345.04,-19.03"/>
<polygon fill="#63b8ff" stroke="#63b8ff" points="417.06,-308.16 418.42,-318.66 423.91,-309.6 417.06,-308.16"/>
</a>
</g>
</g>
<!-- Node7&#45;&gt;Node5 -->
<g id="edge13_Node000007_Node000005" class="edge">
<title>Node7&#45;&gt;Node5</title>
<g id="a_edge13_Node000007_Node000005"><a xlink:title=" ">
<path fill="none" stroke="#63b8ff" d="M411.43,-308.81C406.28,-279.06 395.33,-227.54 376.12,-187 369.98,-174.05 360.41,-160.96 352.67,-151.42"/>
<polygon fill="#63b8ff" stroke="#63b8ff" points="407.98,-309.43 413.07,-318.72 414.89,-308.29 407.98,-309.43"/>
</a>
</g>
</g>
<!-- Node8&#45;&gt;Node2 -->
<g id="edge15_Node000008_Node000002" class="edge">
<title>Node8&#45;&gt;Node2</title>
<g id="a_edge15_Node000008_Node000002"><a xlink:title=" ">
<path fill="none" stroke="#63b8ff" d="M101.11,-441.68C118.7,-400.64 154.68,-316.7 169.02,-283.23"/>
<polygon fill="#63b8ff" stroke="#63b8ff" points="97.88,-440.33 97.16,-450.9 104.32,-443.09 97.88,-440.33"/>
</a>
</g>
</g>
<!-- Node8&#45;&gt;Node9 -->
<g id="edge16_Node000008_Node000009" class="edge">
<title>Node8&#45;&gt;Node9</title>
<g id="a_edge16_Node000008_Node000009"><a xlink:title=" ">
<path fill="none" stroke="#63b8ff" d="M148.26,-447.99C182.86,-437.69 226.44,-424.72 259.05,-415.01"/>
<polygon fill="#63b8ff" stroke="#63b8ff" points="146.89,-444.75 138.3,-450.95 148.88,-451.46 146.89,-444.75"/>
</a>
</g>
</g>
<!-- Node9&#45;&gt;Node2 -->
<g id="edge17_Node000009_Node000002" class="edge">
<title>Node9&#45;&gt;Node2</title>
<g id="a_edge17_Node000009_Node000002"><a xlink:title=" ">
<path fill="none" stroke="#63b8ff" d="M284.45,-377.49C257.51,-350.76 212.29,-305.89 189.37,-283.14"/>
<polygon fill="#63b8ff" stroke="#63b8ff" points="282.29,-380.28 291.85,-384.84 287.22,-375.31 282.29,-380.28"/>
</a>
</g>
</g>
<!-- Node9&#45;&gt;Node4 -->
<g id="edge18_Node000009_Node000004" class="edge">
<title>Node9&#45;&gt;Node4</title>
<g id="a_edge18_Node000009_Node000004"><a xlink:title=" ">
<path fill="none" stroke="#63b8ff" d="M305.87,-374.89C305.45,-333.58 304.6,-250.48 304.26,-217.23"/>
<polygon fill="#63b8ff" stroke="#63b8ff" points="302.37,-374.94 305.97,-384.9 309.37,-374.87 302.37,-374.94"/>
</a>
</g>
</g>
<!-- Node9&#45;&gt;Node7 -->
<g id="edge19_Node000009_Node000007" class="edge">
<title>Node9&#45;&gt;Node7</title>
<g id="a_edge19_Node000009_Node000007"><a xlink:title=" ">
<path fill="none" stroke="#63b8ff" d="M339,-379.69C355.82,-369.82 375.93,-358.01 391.25,-349.01"/>
<polygon fill="#63b8ff" stroke="#63b8ff" points="336.89,-376.87 330.04,-384.95 340.43,-382.91 336.89,-376.87"/>
</a>
</g>
</g>
<!-- Node10&#45;&gt;Node8 -->
<g id="edge22_Node000010_Node000008" class="edge">
<title>Node10&#45;&gt;Node8</title>
<g id="a_edge22_Node000010_Node000008"><a xlink:title=" ">
<path fill="none" stroke="#63b8ff" d="M94.23,-506.83C93.55,-498.17 92.81,-488.7 92.23,-481.16"/>
<polygon fill="#63b8ff" stroke="#63b8ff" points="90.74,-507.1 95.01,-516.8 97.72,-506.55 90.74,-507.1"/>
</a>
</g>
</g>
<!-- Node11&#45;&gt;Node9 -->
<g id="edge24_Node000011_Node000009" class="edge">
<title>Node11&#45;&gt;Node9</title>
<g id="a_edge24_Node000011_Node000009"><a xlink:title=" ">
<path fill="none" stroke="#63b8ff" d="M330.44,-441.96C325.12,-433 319.2,-423.03 314.53,-415.16"/>
<polygon fill="#63b8ff" stroke="#63b8ff" points="327.57,-443.98 335.69,-450.8 333.59,-440.41 327.57,-443.98"/>
</a>
</g>
</g>
<!-- Node12&#45;&gt;Node2 -->
<g id="edge27_Node000012_Node000002" class="edge">
<title>Node12&#45;&gt;Node2</title>
<g id="a_edge27_Node000012_Node000002"><a xlink:title=" ">
<path fill="none" stroke="#63b8ff" d="M236.65,-511.57C224.29,-503.78 211.96,-493.61 204.12,-481 163.91,-416.33 169.5,-319.29 173.33,-283.19"/>
<polygon fill="#63b8ff" stroke="#63b8ff" points="235.2,-514.78 245.59,-516.83 238.74,-508.75 235.2,-514.78"/>
</a>
</g>
</g>
<!-- Node12&#45;&gt;Node4 -->
<g id="edge28_Node000012_Node000004" class="edge">
<title>Node12&#45;&gt;Node4</title>
<g id="a_edge28_Node000012_Node000004"><a xlink:title=" ">
<path fill="none" stroke="#63b8ff" d="M267.14,-507.5C257.04,-484.5 242.81,-448.19 237.12,-415 223.94,-338.15 273.27,-250.58 294.67,-217.06"/>
<polygon fill="#63b8ff" stroke="#63b8ff" points="264.02,-509.09 271.31,-516.78 270.4,-506.22 264.02,-509.09"/>
</a>
</g>
</g>
<!-- Node12&#45;&gt;Node7 -->
<g id="edge29_Node000012_Node000007" class="edge">
<title>Node12&#45;&gt;Node7</title>
<g id="a_edge29_Node000012_Node000007"><a xlink:title=" ">
<path fill="none" stroke="#63b8ff" d="M347.51,-521.45C371.96,-514.41 397.09,-502.19 412.12,-481 440.73,-440.68 427.49,-377.07 419.56,-349.05"/>
<polygon fill="#63b8ff" stroke="#63b8ff" points="346.61,-518.07 337.83,-523.99 348.39,-524.84 346.61,-518.07"/>
</a>
</g>
</g>
<!-- Node12&#45;&gt;Node8 -->
<g id="edge30_Node000012_Node000008" class="edge">
<title>Node12&#45;&gt;Node8</title>
<g id="a_edge30_Node000012_Node000008"><a xlink:title=" ">
<path fill="none" stroke="#63b8ff" d="M227.25,-513.59C197.35,-503.36 160.05,-490.59 132.06,-481.01"/>
<polygon fill="#63b8ff" stroke="#63b8ff" points="226.49,-517.03 237.08,-516.95 228.75,-510.41 226.49,-517.03"/>
</a>
</g>
</g>
<!-- Node12&#45;&gt;Node9 -->
<g id="edge31_Node000012_Node000009" class="edge">
<title>Node12&#45;&gt;Node9</title>
<g id="a_edge31_Node000012_Node000009"><a xlink:title=" ">
<path fill="none" stroke="#63b8ff" d="M273.33,-506.62C271.11,-490.52 269.95,-469.14 275.12,-451 278.87,-437.84 287.19,-424.76 294.26,-415.28"/>
<polygon fill="#63b8ff" stroke="#63b8ff" points="269.93,-507.5 274.98,-516.81 276.84,-506.38 269.93,-507.5"/>
</a>
</g>
</g>
<!-- Node12&#45;&gt;Node11 -->
<g id="edge32_Node000012_Node000011" class="edge">
<title>Node12&#45;&gt;Node11</title>
<g id="a_edge32_Node000012_Node000011"><a xlink:title=" ">
<path fill="none" stroke="#63b8ff" d="M300.14,-509.65C309.81,-500.27 320.89,-489.53 329.51,-481.16"/>
<polygon fill="#63b8ff" stroke="#63b8ff" points="297.51,-507.32 292.77,-516.8 302.38,-512.35 297.51,-507.32"/>
</a>
</g>
</g>
<!-- Node14 -->
<g id="Node000014" class="node">
<title>Node14</title>
<g id="a_Node000014"><a xlink:href="extensible-rtti_8hxx.html" target="_top" xlink:title="Convenience header for all extensible RTTI module components.">
<polygon fill="white" stroke="#666666" points="764.12,-481 622.12,-481 622.12,-451 764.12,-451 764.12,-481"/>
<text text-anchor="start" x="630.12" y="-469" font-family="Helvetica,sans-Serif" font-size="10.00">include/corelib/extensible</text>
<text text-anchor="middle" x="693.12" y="-458" font-family="Helvetica,sans-Serif" font-size="10.00">&#45;rtti.hxx</text>
</a>
</g>
</g>
<!-- Node13&#45;&gt;Node14 -->
<g id="edge34_Node000013_Node000014" class="edge">
<title>Node13&#45;&gt;Node14</title>
<g id="a_edge34_Node000013_Node000014"><a xlink:title=" ">
<path fill="none" stroke="#63b8ff" d="M800.74,-512.92C777.03,-502.8 747.92,-490.38 725.96,-481.01"/>
<polygon fill="#63b8ff" stroke="#63b8ff" points="799.63,-516.25 810.2,-516.95 802.38,-509.81 799.63,-516.25"/>
</a>
</g>
</g>
<!-- Node15 -->
<g id="Node000015" class="node">
<title>Node15</title>
<g id="a_Node000015"><a xlink:href="base_8cxx.html" target="_top" xlink:title=" ">
<polygon fill="white" stroke="#666666" points="894.62,-481 791.62,-481 791.62,-451 894.62,-451 894.62,-481"/>
<text text-anchor="start" x="799.62" y="-469" font-family="Helvetica,sans-Serif" font-size="10.00">src/extensible&#45;rtti</text>
<text text-anchor="middle" x="843.12" y="-458" font-family="Helvetica,sans-Serif" font-size="10.00">/base.cxx</text>
</a>
</g>
</g>
<!-- Node13&#45;&gt;Node15 -->
<g id="edge35_Node000013_Node000015" class="edge">
<title>Node13&#45;&gt;Node15</title>
<g id="a_edge35_Node000013_Node000015"><a xlink:title=" ">
<path fill="none" stroke="#63b8ff" d="M843.12,-506.54C843.12,-497.96 843.12,-488.61 843.12,-481.16"/>
<polygon fill="#63b8ff" stroke="#63b8ff" points="839.62,-506.8 843.12,-516.8 846.62,-506.8 839.62,-506.8"/>
</a>
</g>
</g>
<!-- Node16&#45;&gt;Node14 -->
<g id="edge37_Node000016_Node000014" class="edge">
<title>Node16&#45;&gt;Node14</title>
<g id="a_edge37_Node000016_Node000014"><a xlink:title=" ">
<path fill="none" stroke="#63b8ff" d="M686.9,-506.83C688.25,-498.17 689.73,-488.7 690.91,-481.16"/>
<polygon fill="#63b8ff" stroke="#63b8ff" points="683.42,-506.38 685.34,-516.8 690.34,-507.46 683.42,-506.38"/>
</a>
</g>
</g>
<!-- Node18 -->
<g id="Node000018" class="node">
<title>Node18</title>
<g id="a_Node000018"><a xlink:href="utility_8hxx.html" target="_top" xlink:title="Convenience header for all utility module components.">
<polygon fill="white" stroke="#666666" points="1129.62,-475.5 990.62,-475.5 990.62,-456.5 1129.62,-456.5 1129.62,-475.5"/>
<text text-anchor="middle" x="1060.12" y="-463.5" font-family="Helvetica,sans-Serif" font-size="10.00">include/corelib/utility.hxx</text>
</a>
</g>
</g>
<!-- Node17&#45;&gt;Node18 -->
<g id="edge39_Node000017_Node000018" class="edge">
<title>Node17&#45;&gt;Node18</title>
<g id="a_edge39_Node000017_Node000018"><a xlink:title=" ">
<path fill="none" stroke="#63b8ff" d="M1106.4,-509.93C1093.92,-498.35 1079.1,-484.61 1069.65,-475.84"/>
<polygon fill="#63b8ff" stroke="#63b8ff" points="1104.09,-512.56 1113.81,-516.8 1108.85,-507.43 1104.09,-512.56"/>
</a>
</g>
</g>
<!-- Node19&#45;&gt;Node18 -->
<g id="edge41_Node000019_Node000018" class="edge">
<title>Node19&#45;&gt;Node18</title>
<g id="a_edge41_Node000019_Node000018"><a xlink:title=" ">
<path fill="none" stroke="#63b8ff" d="M1014.5,-509.93C1026.81,-498.35 1041.41,-484.61 1050.72,-475.84"/>
<polygon fill="#63b8ff" stroke="#63b8ff" points="1012.09,-507.39 1007.21,-516.8 1016.89,-512.49 1012.09,-507.39"/>
</a>
</g>
</g>
</g>
</svg>
