<?xml version="1.0" encoding="UTF-8" standalone="no"?>
<!DOCTYPE svg PUBLIC "-//W3C//DTD SVG 1.1//EN"
 "http://www.w3.org/Graphics/SVG/1.1/DTD/svg11.dtd">
<!-- Generated by graphviz version 2.43.0 (0)
 -->
<!-- Title: include/corelib/internal/tracing.hxx Pages: 1 -->
<!--zoomable 621 -->

<svg id="main" version="1.1" xmlns="http://www.w3.org/2000/svg" xmlns:xlink="http://www.w3.org/1999/xlink" xml:space="preserve" onload="init(evt)">
<style type="text/css"><![CDATA[
.node, .edge {opacity: 0.7;}
.node.selected, .edge.selected {opacity: 1;}
.edge:hover path { stroke: red; }
.edge:hover polygon { stroke: red; fill: red; }
]]></style>

<defs>
  <circle id="rim" cx="0" cy="0" r="7"/>
  <circle id="rim2" cx="0" cy="0" r="3.5"/>
  <g id="zoomPlus">
    <use xlink:href="#rim" fill="#404040"><set attributeName="fill" to="#808080" begin="zoomplus.mouseover" end="zoomplus.mouseout"/></use>
    <path d="M-4,0h8M0,-4v8" fill="none" stroke="white" stroke-width="1.5" pointer-events="none"/>
  </g>
  <g id="zoomMin">
    <use xlink:href="#rim" fill="#404040"><set attributeName="fill" to="#808080" begin="zoomminus.mouseover" end="zoomminus.mouseout"/></use>
    <path d="M-4,0h8" fill="none" stroke="white" stroke-width="1.5" pointer-events="none"/>
  </g>
  <g id="arrowUp" transform="translate(30 24)">
    <use xlink:href="#rim"/>
    <path pointer-events="none" fill="none" stroke="white" stroke-width="1.5" d="M0,-3.0v7 M-2.5,-0.5L0,-3.0L2.5,-0.5"/>
  </g>
  <g id="arrowRight" transform="rotate(90) translate(36 -43)">
    <use xlink:href="#rim"/>
    <path pointer-events="none" fill="none" stroke="white" stroke-width="1.5" d="M0,-3.0v7 M-2.5,-0.5L0,-3.0L2.5,-0.5"/>
  </g>
  <g id="arrowDown" transform="rotate(180) translate(-30 -48)">
    <use xlink:href="#rim"/>
    <path pointer-events="none" fill="none" stroke="white" stroke-width="1.5" d="M0,-3.0v7 M-2.5,-0.5L0,-3.0L2.5,-0.5"/>
  </g>
  <g id="arrowLeft" transform="rotate(270) translate(-36 17)">
    <use xlink:href="#rim"/>
    <path pointer-events="none" fill="none" stroke="white" stroke-width="1.5" d="M0,-3.0v7 M-2.5,-0.5L0,-3.0L2.5,-0.5"/>
  </g>
  <g id="resetDef">
    <use xlink:href="#rim2" fill="#404040"><set attributeName="fill" to="#808080" begin="reset.mouseover" end="reset.mouseout"/></use>
  </g>
</defs>
<script type="application/ecmascript">
var viewWidth = 1731;
var viewHeight = 621;
var sectionId = 'dynsection-1';
</script>
<script type="application/ecmascript" xlink:href="svg.min.js"/>
<svg id="graph" class="graph">
<g id="viewport">
<title>include/corelib/internal/tracing.hxx</title>
<!-- Node1 -->
<g id="Node000001" class="node">
<title>Node1</title>
<g id="a_Node000001"><a xlink:title=" ">
<polygon fill="#999999" stroke="#666666" points="646,-613 518,-613 518,-583 646,-583 646,-613"/>
<text text-anchor="start" x="526" y="-601" font-family="Helvetica,sans-Serif" font-size="10.00">include/corelib/internal</text>
<text text-anchor="middle" x="582" y="-590" font-family="Helvetica,sans-Serif" font-size="10.00">/tracing.hxx</text>
</a>
</g>
</g>
<!-- Node2 -->
<g id="Node000002" class="node">
<title>Node2</title>
<g id="a_Node000002"><a xlink:href="casting_2cast_8hxx.html" target="_top" xlink:title=" ">
<polygon fill="white" stroke="#666666" points="338,-283 212,-283 212,-253 338,-253 338,-283"/>
<text text-anchor="start" x="220" y="-271" font-family="Helvetica,sans-Serif" font-size="10.00">include/corelib/casting</text>
<text text-anchor="middle" x="275" y="-260" font-family="Helvetica,sans-Serif" font-size="10.00">/cast.hxx</text>
</a>
</g>
</g>
<!-- Node1&#45;&gt;Node2 -->
<g id="edge1_Node000001_Node000002" class="edge">
<title>Node1&#45;&gt;Node2</title>
<g id="a_edge1_Node000001_Node000002"><a xlink:title=" ">
<path fill="none" stroke="#63b8ff" d="M507.49,-596.8C400.39,-595.12 209.79,-586.46 155,-547 118.62,-520.8 108.78,-493.17 124,-451 150.89,-376.46 223.06,-310.87 256.95,-283.1"/>
<polygon fill="#63b8ff" stroke="#63b8ff" points="507.53,-600.3 517.58,-596.94 507.63,-593.3 507.53,-600.3"/>
</a>
</g>
</g>
<!-- Node4 -->
<g id="Node000004" class="node">
<title>Node4</title>
<g id="a_Node000004"><a xlink:href="dyn__cast_8hxx.html" target="_top" xlink:title=" ">
<polygon fill="white" stroke="#666666" points="429,-217 303,-217 303,-187 429,-187 429,-217"/>
<text text-anchor="start" x="311" y="-205" font-family="Helvetica,sans-Serif" font-size="10.00">include/corelib/casting</text>
<text text-anchor="middle" x="366" y="-194" font-family="Helvetica,sans-Serif" font-size="10.00">/dyn_cast.hxx</text>
</a>
</g>
</g>
<!-- Node1&#45;&gt;Node4 -->
<g id="edge9_Node000001_Node000004" class="edge">
<title>Node1&#45;&gt;Node4</title>
<g id="a_edge9_Node000001_Node000004"><a xlink:title=" ">
<path fill="none" stroke="#63b8ff" d="M582,-572.86C582,-546.76 582,-503.93 582,-467 582,-467 582,-467 582,-333 582,-261 492.81,-227.85 429.06,-213.36"/>
<polygon fill="#63b8ff" stroke="#63b8ff" points="578.5,-572.96 582,-582.96 585.5,-572.96 578.5,-572.96"/>
</a>
</g>
</g>
<!-- Node5 -->
<g id="Node000005" class="node">
<title>Node5</title>
<g id="a_Node000005"><a xlink:href="detail_2casting_2predicates_8hxx.html" target="_top" xlink:title=" ">
<polygon fill="white" stroke="#666666" points="247,-151 117,-151 117,-121 247,-121 247,-151"/>
<text text-anchor="start" x="125" y="-139" font-family="Helvetica,sans-Serif" font-size="10.00">include/corelib/detail</text>
<text text-anchor="middle" x="182" y="-128" font-family="Helvetica,sans-Serif" font-size="10.00">/casting/predicates.hxx</text>
</a>
</g>
</g>
<!-- Node1&#45;&gt;Node5 -->
<g id="edge25_Node000001_Node000005" class="edge">
<title>Node1&#45;&gt;Node5</title>
<g id="a_edge25_Node000001_Node000005"><a xlink:title=" ">
<path fill="none" stroke="#63b8ff" d="M507.73,-594.04C368.73,-587.92 79.83,-572.32 42,-547 8.63,-524.66 0,-507.16 0,-467 0,-467 0,-467 0,-267 0,-203.9 73.33,-168.53 126.9,-151.11"/>
<polygon fill="#63b8ff" stroke="#63b8ff" points="507.74,-597.54 517.88,-594.48 508.04,-590.55 507.74,-597.54"/>
</a>
</g>
</g>
<!-- Node7 -->
<g id="Node000007" class="node">
<title>Node7</title>
<g id="a_Node000007"><a xlink:href="casting_2isa_8hxx.html" target="_top" xlink:title=" ">
<polygon fill="white" stroke="#666666" points="154,-349 28,-349 28,-319 154,-319 154,-349"/>
<text text-anchor="start" x="36" y="-337" font-family="Helvetica,sans-Serif" font-size="10.00">include/corelib/casting</text>
<text text-anchor="middle" x="91" y="-326" font-family="Helvetica,sans-Serif" font-size="10.00">/isa.hxx</text>
</a>
</g>
</g>
<!-- Node1&#45;&gt;Node7 -->
<g id="edge10_Node000001_Node000007" class="edge">
<title>Node1&#45;&gt;Node7</title>
<g id="a_edge10_Node000001_Node000007"><a xlink:title=" ">
<path fill="none" stroke="#63b8ff" d="M507.54,-595.27C370.9,-591.31 91.37,-579.32 62,-547 10.29,-490.08 61.17,-386.6 82.54,-349.07"/>
<polygon fill="#63b8ff" stroke="#63b8ff" points="507.82,-598.78 517.92,-595.56 508.02,-591.78 507.82,-598.78"/>
</a>
</g>
</g>
<!-- Node8 -->
<g id="Node000008" class="node">
<title>Node8</title>
<g id="a_Node000008"><a xlink:href="adapters_8hxx.html" target="_top" xlink:title=" ">
<polygon fill="white" stroke="#666666" points="554,-481 432,-481 432,-451 554,-451 554,-481"/>
<text text-anchor="start" x="440" y="-469" font-family="Helvetica,sans-Serif" font-size="10.00">include/corelib/detail</text>
<text text-anchor="middle" x="493" y="-458" font-family="Helvetica,sans-Serif" font-size="10.00">/casting/adapters.hxx</text>
</a>
</g>
</g>
<!-- Node1&#45;&gt;Node8 -->
<g id="edge14_Node000001_Node000008" class="edge">
<title>Node1&#45;&gt;Node8</title>
<g id="a_edge14_Node000001_Node000008"><a xlink:title=" ">
<path fill="none" stroke="#63b8ff" d="M566.56,-574.45C548.19,-547.61 518.06,-503.6 502.68,-481.14"/>
<polygon fill="#63b8ff" stroke="#63b8ff" points="563.77,-576.57 572.31,-582.84 569.54,-572.61 563.77,-576.57"/>
</a>
</g>
</g>
<!-- Node9 -->
<g id="Node000009" class="node">
<title>Node9</title>
<g id="a_Node000009"><a xlink:href="detail_2casting_2cast_8hxx.html" target="_top" xlink:title=" ">
<polygon fill="white" stroke="#666666" points="337.5,-415 218.5,-415 218.5,-385 337.5,-385 337.5,-415"/>
<text text-anchor="start" x="226.5" y="-403" font-family="Helvetica,sans-Serif" font-size="10.00">include/corelib/detail</text>
<text text-anchor="middle" x="278" y="-392" font-family="Helvetica,sans-Serif" font-size="10.00">/casting/cast.hxx</text>
</a>
</g>
</g>
<!-- Node1&#45;&gt;Node9 -->
<g id="edge20_Node000001_Node000009" class="edge">
<title>Node1&#45;&gt;Node9</title>
<g id="a_edge20_Node000001_Node000009"><a xlink:title=" ">
<path fill="none" stroke="#63b8ff" d="M507.51,-591.83C415.11,-584.58 263.45,-569.68 212,-547 170.13,-528.55 152.38,-522.44 133,-481 127.35,-468.92 125.26,-461.86 133,-451 152.32,-423.9 187.35,-411.34 218.13,-405.59"/>
<polygon fill="#63b8ff" stroke="#63b8ff" points="507.41,-595.34 517.65,-592.62 507.95,-588.36 507.41,-595.34"/>
</a>
</g>
</g>
<!-- Node10 -->
<g id="Node000010" class="node">
<title>Node10</title>
<g id="a_Node000010"><a xlink:href="forwarding_8hxx.html" target="_top" xlink:title=" ">
<polygon fill="white" stroke="#666666" points="515.5,-547 384.5,-547 384.5,-517 515.5,-517 515.5,-547"/>
<text text-anchor="start" x="392.5" y="-535" font-family="Helvetica,sans-Serif" font-size="10.00">include/corelib/detail</text>
<text text-anchor="middle" x="450" y="-524" font-family="Helvetica,sans-Serif" font-size="10.00">/casting/forwarding.hxx</text>
</a>
</g>
</g>
<!-- Node1&#45;&gt;Node10 -->
<g id="edge21_Node000001_Node000010" class="edge">
<title>Node1&#45;&gt;Node10</title>
<g id="a_edge21_Node000001_Node000010"><a xlink:title=" ">
<path fill="none" stroke="#63b8ff" d="M543.87,-578.51C523.16,-568.47 497.97,-556.26 478.9,-547.01"/>
<polygon fill="#63b8ff" stroke="#63b8ff" points="542.51,-581.74 553.03,-582.95 545.56,-575.44 542.51,-581.74"/>
</a>
</g>
</g>
<!-- Node11 -->
<g id="Node000011" class="node">
<title>Node11</title>
<g id="a_Node000011"><a xlink:href="detail_2casting_2isa_8hxx.html" target="_top" xlink:title=" ">
<polygon fill="white" stroke="#666666" points="261.5,-481 142.5,-481 142.5,-451 261.5,-451 261.5,-481"/>
<text text-anchor="start" x="150.5" y="-469" font-family="Helvetica,sans-Serif" font-size="10.00">include/corelib/detail</text>
<text text-anchor="middle" x="202" y="-458" font-family="Helvetica,sans-Serif" font-size="10.00">/casting/isa.hxx</text>
</a>
</g>
</g>
<!-- Node1&#45;&gt;Node11 -->
<g id="edge23_Node000001_Node000011" class="edge">
<title>Node1&#45;&gt;Node11</title>
<g id="a_edge23_Node000001_Node000011"><a xlink:title=" ">
<path fill="none" stroke="#63b8ff" d="M507.75,-594.44C419.6,-590 279.31,-578.15 238,-547 216.72,-530.95 207.71,-499.46 204.14,-481.14"/>
<polygon fill="#63b8ff" stroke="#63b8ff" points="507.81,-597.94 517.97,-594.93 508.15,-590.95 507.81,-597.94"/>
</a>
</g>
</g>
<!-- Node12 -->
<g id="Node000012" class="node">
<title>Node12</title>
<g id="a_Node000012"><a xlink:href="traits_8hxx.html" target="_top" xlink:title=" ">
<polygon fill="white" stroke="#666666" points="366.5,-547 247.5,-547 247.5,-517 366.5,-517 366.5,-547"/>
<text text-anchor="start" x="255.5" y="-535" font-family="Helvetica,sans-Serif" font-size="10.00">include/corelib/detail</text>
<text text-anchor="middle" x="307" y="-524" font-family="Helvetica,sans-Serif" font-size="10.00">/casting/traits.hxx</text>
</a>
</g>
</g>
<!-- Node1&#45;&gt;Node12 -->
<g id="edge26_Node000001_Node000012" class="edge">
<title>Node1&#45;&gt;Node12</title>
<g id="a_edge26_Node000001_Node000012"><a xlink:title=" ">
<path fill="none" stroke="#63b8ff" d="M511.7,-580.64C466.86,-570.2 409.37,-556.82 366.74,-546.9"/>
<polygon fill="#63b8ff" stroke="#63b8ff" points="511.12,-584.1 521.65,-582.95 512.7,-577.28 511.12,-584.1"/>
</a>
</g>
</g>
<!-- Node13 -->
<g id="Node000013" class="node">
<title>Node13</title>
<g id="a_Node000013"><a xlink:href="base_8hxx.html" target="_top" xlink:title=" ">
<polygon fill="white" stroke="#666666" points="912,-547 770,-547 770,-517 912,-517 912,-547"/>
<text text-anchor="start" x="778" y="-535" font-family="Helvetica,sans-Serif" font-size="10.00">include/corelib/extensible</text>
<text text-anchor="middle" x="841" y="-524" font-family="Helvetica,sans-Serif" font-size="10.00">&#45;rtti/base.hxx</text>
</a>
</g>
</g>
<!-- Node1&#45;&gt;Node13 -->
<g id="edge33_Node000001_Node000013" class="edge">
<title>Node1&#45;&gt;Node13</title>
<g id="a_edge33_Node000001_Node000013"><a xlink:title=" ">
<path fill="none" stroke="#63b8ff" d="M648.7,-580.52C690.71,-570.14 744.35,-556.88 784.29,-547.01"/>
<polygon fill="#63b8ff" stroke="#63b8ff" points="647.71,-577.16 638.84,-582.95 649.39,-583.95 647.71,-577.16"/>
</a>
</g>
</g>
<!-- Node16 -->
<g id="Node000016" class="node">
<title>Node16</title>
<g id="a_Node000016"><a xlink:href="extends_8hxx.html" target="_top" xlink:title=" ">
<polygon fill="white" stroke="#666666" points="752,-547 610,-547 610,-517 752,-517 752,-547"/>
<text text-anchor="start" x="618" y="-535" font-family="Helvetica,sans-Serif" font-size="10.00">include/corelib/extensible</text>
<text text-anchor="middle" x="681" y="-524" font-family="Helvetica,sans-Serif" font-size="10.00">&#45;rtti/extends.hxx</text>
</a>
</g>
</g>
<!-- Node1&#45;&gt;Node16 -->
<g id="edge36_Node000001_Node000016" class="edge">
<title>Node1&#45;&gt;Node16</title>
<g id="a_edge36_Node000001_Node000016"><a xlink:title=" ">
<path fill="none" stroke="#63b8ff" d="M612.47,-577.3C627.54,-567.56 645.39,-556.02 659.09,-547.16"/>
<polygon fill="#63b8ff" stroke="#63b8ff" points="610.47,-574.43 603.97,-582.8 614.27,-580.31 610.47,-574.43"/>
</a>
</g>
</g>
<!-- Node17 -->
<g id="Node000017" class="node">
<title>Node17</title>
<g id="a_Node000017"><a xlink:href="vector1_8hxx.html" target="_top" xlink:title=" ">
<polygon fill="white" stroke="#666666" points="1314,-547 1198,-547 1198,-517 1314,-517 1314,-547"/>
<text text-anchor="start" x="1206" y="-535" font-family="Helvetica,sans-Serif" font-size="10.00">include/corelib/math</text>
<text text-anchor="middle" x="1256" y="-524" font-family="Helvetica,sans-Serif" font-size="10.00">/vector1.hxx</text>
</a>
</g>
</g>
<!-- Node1&#45;&gt;Node17 -->
<g id="edge38_Node000001_Node000017" class="edge">
<title>Node1&#45;&gt;Node17</title>
<g id="a_edge38_Node000001_Node000017"><a xlink:title=" ">
<path fill="none" stroke="#63b8ff" d="M656.16,-593.85C770.87,-588.32 998.03,-574.71 1189,-547 1191.94,-546.57 1194.94,-546.1 1197.97,-545.58"/>
<polygon fill="#63b8ff" stroke="#63b8ff" points="655.91,-590.36 646.09,-594.33 656.24,-597.35 655.91,-590.36"/>
</a>
</g>
</g>
<!-- Node20 -->
<g id="Node000020" class="node">
<title>Node20</title>
<g id="a_Node000020"><a xlink:href="vector2_8hxx.html" target="_top" xlink:title=" ">
<polygon fill="white" stroke="#666666" points="1448,-547 1332,-547 1332,-517 1448,-517 1448,-547"/>
<text text-anchor="start" x="1340" y="-535" font-family="Helvetica,sans-Serif" font-size="10.00">include/corelib/math</text>
<text text-anchor="middle" x="1390" y="-524" font-family="Helvetica,sans-Serif" font-size="10.00">/vector2.hxx</text>
</a>
</g>
</g>
<!-- Node1&#45;&gt;Node20 -->
<g id="edge41_Node000001_Node000020" class="edge">
<title>Node1&#45;&gt;Node20</title>
<g id="a_edge41_Node000001_Node000020"><a xlink:title=" ">
<path fill="none" stroke="#63b8ff" d="M656.38,-595.39C790.28,-591.73 1080.55,-580.35 1323,-547 1325.94,-546.6 1328.95,-546.14 1331.98,-545.64"/>
<polygon fill="#63b8ff" stroke="#63b8ff" points="656.14,-591.89 646.24,-595.66 656.32,-598.89 656.14,-591.89"/>
</a>
</g>
</g>
<!-- Node21 -->
<g id="Node000021" class="node">
<title>Node21</title>
<g id="a_Node000021"><a xlink:href="vector3_8hxx.html" target="_top" xlink:title=" ">
<polygon fill="white" stroke="#666666" points="1046,-547 930,-547 930,-517 1046,-517 1046,-547"/>
<text text-anchor="start" x="938" y="-535" font-family="Helvetica,sans-Serif" font-size="10.00">include/corelib/math</text>
<text text-anchor="middle" x="988" y="-524" font-family="Helvetica,sans-Serif" font-size="10.00">/vector3.hxx</text>
</a>
</g>
</g>
<!-- Node1&#45;&gt;Node21 -->
<g id="edge43_Node000001_Node000021" class="edge">
<title>Node1&#45;&gt;Node21</title>
<g id="a_edge43_Node000001_Node000021"><a xlink:title=" ">
<path fill="none" stroke="#63b8ff" d="M656.53,-587.31C725.36,-578.05 830.33,-563.14 921,-547 923.92,-546.48 926.92,-545.93 929.94,-545.35"/>
<polygon fill="#63b8ff" stroke="#63b8ff" points="655.67,-583.89 646.23,-588.69 656.6,-590.83 655.67,-583.89"/>
</a>
</g>
</g>
<!-- Node22 -->
<g id="Node000022" class="node">
<title>Node22</title>
<g id="a_Node000022"><a xlink:href="vector4_8hxx.html" target="_top" xlink:title=" ">
<polygon fill="white" stroke="#666666" points="1180,-547 1064,-547 1064,-517 1180,-517 1180,-547"/>
<text text-anchor="start" x="1072" y="-535" font-family="Helvetica,sans-Serif" font-size="10.00">include/corelib/math</text>
<text text-anchor="middle" x="1122" y="-524" font-family="Helvetica,sans-Serif" font-size="10.00">/vector4.hxx</text>
</a>
</g>
</g>
<!-- Node1&#45;&gt;Node22 -->
<g id="edge45_Node000001_Node000022" class="edge">
<title>Node1&#45;&gt;Node22</title>
<g id="a_edge45_Node000001_Node000022"><a xlink:title=" ">
<path fill="none" stroke="#63b8ff" d="M656.35,-591.47C749.77,-583.99 914.84,-568.99 1055,-547 1057.93,-546.54 1060.94,-546.04 1063.96,-545.5"/>
<polygon fill="#63b8ff" stroke="#63b8ff" points="655.84,-588 646.15,-592.28 656.39,-594.98 655.84,-588"/>
</a>
</g>
</g>
<!-- Node23 -->
<g id="Node000023" class="node">
<title>Node23</title>
<g id="a_Node000023"><a xlink:href="auto__release_8hxx.html" target="_top" xlink:title=" ">
<polygon fill="white" stroke="#666666" points="1585.5,-547 1466.5,-547 1466.5,-517 1585.5,-517 1585.5,-547"/>
<text text-anchor="start" x="1474.5" y="-535" font-family="Helvetica,sans-Serif" font-size="10.00">include/corelib/utility</text>
<text text-anchor="middle" x="1526" y="-524" font-family="Helvetica,sans-Serif" font-size="10.00">/auto_release.hxx</text>
</a>
</g>
</g>
<!-- Node1&#45;&gt;Node23 -->
<g id="edge47_Node000001_Node000023" class="edge">
<title>Node1&#45;&gt;Node23</title>
<g id="a_edge47_Node000001_Node000023"><a xlink:title=" ">
<path fill="none" stroke="#63b8ff" d="M656.35,-596.33C807.68,-594.18 1162.16,-585.14 1457,-547 1460.03,-546.61 1463.13,-546.16 1466.25,-545.67"/>
<polygon fill="#63b8ff" stroke="#63b8ff" points="656.19,-592.83 646.24,-596.47 656.29,-599.83 656.19,-592.83"/>
</a>
</g>
</g>
<!-- Node25 -->
<g id="Node000025" class="node">
<title>Node25</title>
<g id="a_Node000025"><a xlink:href="defer_8hxx.html" target="_top" xlink:title=" ">
<polygon fill="white" stroke="#666666" points="1722.5,-547 1603.5,-547 1603.5,-517 1722.5,-517 1722.5,-547"/>
<text text-anchor="start" x="1611.5" y="-535" font-family="Helvetica,sans-Serif" font-size="10.00">include/corelib/utility</text>
<text text-anchor="middle" x="1663" y="-524" font-family="Helvetica,sans-Serif" font-size="10.00">/defer.hxx</text>
</a>
</g>
</g>
<!-- Node1&#45;&gt;Node25 -->
<g id="edge49_Node000001_Node000025" class="edge">
<title>Node1&#45;&gt;Node25</title>
<g id="a_edge49_Node000001_Node000025"><a xlink:title=" ">
<path fill="none" stroke="#63b8ff" d="M656.21,-597.23C824.12,-596.9 1245.74,-591.31 1595,-547 1597.75,-546.65 1600.56,-546.25 1603.38,-545.81"/>
<polygon fill="#63b8ff" stroke="#63b8ff" points="656,-593.73 646,-597.24 656.01,-600.73 656,-593.73"/>
</a>
</g>
</g>
<!-- Node3 -->
<g id="Node000003" class="node">
<title>Node3</title>
<g id="a_Node000003"><a xlink:href="casting_8hxx.html" target="_top" xlink:title="Convenience header for all casting module components.">
<polygon fill="white" stroke="#666666" points="302.5,-19 155.5,-19 155.5,0 302.5,0 302.5,-19"/>
<text text-anchor="middle" x="229" y="-7" font-family="Helvetica,sans-Serif" font-size="10.00">include/corelib/casting.hxx</text>
</a>
</g>
</g>
<!-- Node2&#45;&gt;Node3 -->
<g id="edge2_Node000002_Node000003" class="edge">
<title>Node2&#45;&gt;Node3</title>
<g id="a_edge2_Node000002_Node000003"><a xlink:title=" ">
<path fill="none" stroke="#63b8ff" d="M276.06,-242.81C277.08,-202.72 276.07,-120.46 255,-55 250.67,-41.54 241.78,-27.75 235.61,-19.15"/>
<polygon fill="#63b8ff" stroke="#63b8ff" points="272.55,-242.84 275.73,-252.94 279.55,-243.06 272.55,-242.84"/>
</a>
</g>
</g>
<!-- Node2&#45;&gt;Node4 -->
<g id="edge3_Node000002_Node000004" class="edge">
<title>Node2&#45;&gt;Node4</title>
<g id="a_edge3_Node000002_Node000004"><a xlink:title=" ">
<path fill="none" stroke="#63b8ff" d="M303.4,-247.03C317.17,-237.34 333.38,-225.94 345.86,-217.16"/>
<polygon fill="#63b8ff" stroke="#63b8ff" points="301.36,-244.18 295.2,-252.8 305.39,-249.91 301.36,-244.18"/>
</a>
</g>
</g>
<!-- Node2&#45;&gt;Node5 -->
<g id="edge8_Node000002_Node000005" class="edge">
<title>Node2&#45;&gt;Node5</title>
<g id="a_edge8_Node000002_Node000005"><a xlink:title=" ">
<path fill="none" stroke="#63b8ff" d="M258.87,-244.45C239.67,-217.61 208.18,-173.6 192.12,-151.14"/>
<polygon fill="#63b8ff" stroke="#63b8ff" points="256.21,-246.74 264.87,-252.84 261.9,-242.67 256.21,-246.74"/>
</a>
</g>
</g>
<!-- Node4&#45;&gt;Node3 -->
<g id="edge4_Node000004_Node000003" class="edge">
<title>Node4&#45;&gt;Node3</title>
<g id="a_edge4_Node000004_Node000003"><a xlink:title=" ">
<path fill="none" stroke="#63b8ff" d="M357.41,-177.46C345.45,-146.88 321.52,-92.91 289,-55 276.08,-39.94 257.17,-26.99 244.05,-19"/>
<polygon fill="#63b8ff" stroke="#63b8ff" points="354.17,-178.79 361.01,-186.88 360.71,-176.29 354.17,-178.79"/>
</a>
</g>
</g>
<!-- Node4&#45;&gt;Node5 -->
<g id="edge5_Node000004_Node000005" class="edge">
<title>Node4&#45;&gt;Node5</title>
<g id="a_edge5_Node000004_Node000005"><a xlink:title=" ">
<path fill="none" stroke="#63b8ff" d="M315.95,-183.59C286.53,-173.36 249.83,-160.59 222.29,-151.01"/>
<polygon fill="#63b8ff" stroke="#63b8ff" points="315.03,-186.98 325.62,-186.95 317.33,-180.36 315.03,-186.98"/>
</a>
</g>
</g>
<!-- Node6 -->
<g id="Node000006" class="node">
<title>Node6</title>
<g id="a_Node000006"><a xlink:href="casting_2predicates_8hxx.html" target="_top" xlink:title=" ">
<polygon fill="white" stroke="#666666" points="246,-85 120,-85 120,-55 246,-55 246,-85"/>
<text text-anchor="start" x="128" y="-73" font-family="Helvetica,sans-Serif" font-size="10.00">include/corelib/casting</text>
<text text-anchor="middle" x="183" y="-62" font-family="Helvetica,sans-Serif" font-size="10.00">/predicates.hxx</text>
</a>
</g>
</g>
<!-- Node5&#45;&gt;Node6 -->
<g id="edge6_Node000005_Node000006" class="edge">
<title>Node5&#45;&gt;Node6</title>
<g id="a_edge6_Node000005_Node000006"><a xlink:title=" ">
<path fill="none" stroke="#63b8ff" d="M182.38,-110.54C182.52,-101.96 182.66,-92.61 182.78,-85.16"/>
<polygon fill="#63b8ff" stroke="#63b8ff" points="178.88,-110.74 182.22,-120.8 185.88,-110.85 178.88,-110.74"/>
</a>
</g>
</g>
<!-- Node6&#45;&gt;Node3 -->
<g id="edge7_Node000006_Node000003" class="edge">
<title>Node6&#45;&gt;Node3</title>
<g id="a_edge7_Node000006_Node000003"><a xlink:title=" ">
<path fill="none" stroke="#63b8ff" d="M200.46,-46.8C208,-37.21 216.39,-26.54 222.11,-19.27"/>
<polygon fill="#63b8ff" stroke="#63b8ff" points="197.57,-44.81 194.14,-54.84 203.07,-49.14 197.57,-44.81"/>
</a>
</g>
</g>
<!-- Node7&#45;&gt;Node2 -->
<g id="edge12_Node000007_Node000002" class="edge">
<title>Node7&#45;&gt;Node2</title>
<g id="a_edge12_Node000007_Node000002"><a xlink:title=" ">
<path fill="none" stroke="#63b8ff" d="M141.05,-315.59C170.47,-305.36 207.17,-292.59 234.71,-283.01"/>
<polygon fill="#63b8ff" stroke="#63b8ff" points="139.67,-312.36 131.38,-318.95 141.97,-318.98 139.67,-312.36"/>
</a>
</g>
</g>
<!-- Node7&#45;&gt;Node3 -->
<g id="edge11_Node000007_Node000003" class="edge">
<title>Node7&#45;&gt;Node3</title>
<g id="a_edge11_Node000007_Node000003"><a xlink:title=" ">
<path fill="none" stroke="#63b8ff" d="M90.41,-308.86C89.82,-282.76 89,-239.93 89,-203 89,-203 89,-203 89,-135 89,-98.12 86.16,-82.25 111,-55 128.11,-36.23 153.94,-25.34 177.08,-19.03"/>
<polygon fill="#63b8ff" stroke="#63b8ff" points="86.91,-309.04 90.64,-318.96 93.91,-308.88 86.91,-309.04"/>
</a>
</g>
</g>
<!-- Node7&#45;&gt;Node5 -->
<g id="edge13_Node000007_Node000005" class="edge">
<title>Node7&#45;&gt;Node5</title>
<g id="a_edge13_Node000007_Node000005"><a xlink:title=" ">
<path fill="none" stroke="#63b8ff" d="M101.83,-309.68C120.88,-268.64 159.86,-184.7 175.39,-151.23"/>
<polygon fill="#63b8ff" stroke="#63b8ff" points="98.58,-308.36 97.54,-318.9 104.93,-311.31 98.58,-308.36"/>
</a>
</g>
</g>
<!-- Node8&#45;&gt;Node2 -->
<g id="edge15_Node000008_Node000002" class="edge">
<title>Node8&#45;&gt;Node2</title>
<g id="a_edge15_Node000008_Node000002"><a xlink:title=" ">
<path fill="none" stroke="#63b8ff" d="M472.42,-443.44C444.08,-414.15 390.96,-360.64 342,-319 326.85,-306.12 308.73,-292.7 295.15,-283.02"/>
<polygon fill="#63b8ff" stroke="#63b8ff" points="469.95,-445.92 479.41,-450.69 474.99,-441.06 469.95,-445.92"/>
</a>
</g>
</g>
<!-- Node8&#45;&gt;Node9 -->
<g id="edge16_Node000008_Node000009" class="edge">
<title>Node8&#45;&gt;Node9</title>
<g id="a_edge16_Node000008_Node000009"><a xlink:title=" ">
<path fill="none" stroke="#63b8ff" d="M435.85,-447.99C401.26,-437.69 357.67,-424.72 325.07,-415.01"/>
<polygon fill="#63b8ff" stroke="#63b8ff" points="435.23,-451.46 445.82,-450.95 437.23,-444.75 435.23,-451.46"/>
</a>
</g>
</g>
<!-- Node9&#45;&gt;Node2 -->
<g id="edge17_Node000009_Node000002" class="edge">
<title>Node9&#45;&gt;Node2</title>
<g id="a_edge17_Node000009_Node000002"><a xlink:title=" ">
<path fill="none" stroke="#63b8ff" d="M277.44,-374.68C276.82,-347.7 275.83,-305.11 275.33,-283.14"/>
<polygon fill="#63b8ff" stroke="#63b8ff" points="273.94,-374.92 277.67,-384.84 280.94,-374.76 273.94,-374.92"/>
</a>
</g>
</g>
<!-- Node9&#45;&gt;Node4 -->
<g id="edge18_Node000009_Node000004" class="edge">
<title>Node9&#45;&gt;Node4</title>
<g id="a_edge18_Node000009_Node000004"><a xlink:title=" ">
<path fill="none" stroke="#63b8ff" d="M294.21,-376.49C309.81,-353.87 333.02,-317.51 347,-283 355.95,-260.9 361.31,-233.59 363.95,-217.27"/>
<polygon fill="#63b8ff" stroke="#63b8ff" points="291.31,-374.54 288.45,-384.74 297.05,-378.55 291.31,-374.54"/>
</a>
</g>
</g>
<!-- Node9&#45;&gt;Node7 -->
<g id="edge19_Node000009_Node000007" class="edge">
<title>Node9&#45;&gt;Node7</title>
<g id="a_edge19_Node000009_Node000007"><a xlink:title=" ">
<path fill="none" stroke="#63b8ff" d="M227.13,-381.59C197.23,-371.36 159.93,-358.59 131.94,-349.01"/>
<polygon fill="#63b8ff" stroke="#63b8ff" points="226.37,-385.03 236.96,-384.95 228.63,-378.41 226.37,-385.03"/>
</a>
</g>
</g>
<!-- Node10&#45;&gt;Node8 -->
<g id="edge22_Node000010_Node000008" class="edge">
<title>Node10&#45;&gt;Node8</title>
<g id="a_edge22_Node000010_Node000008"><a xlink:title=" ">
<path fill="none" stroke="#63b8ff" d="M465.29,-508.24C471.36,-499.21 478.14,-489.11 483.48,-481.16"/>
<polygon fill="#63b8ff" stroke="#63b8ff" points="462.21,-506.54 459.54,-516.8 468.03,-510.45 462.21,-506.54"/>
</a>
</g>
</g>
<!-- Node11&#45;&gt;Node9 -->
<g id="edge24_Node000011_Node000009" class="edge">
<title>Node11&#45;&gt;Node9</title>
<g id="a_edge24_Node000011_Node000009"><a xlink:title=" ">
<path fill="none" stroke="#63b8ff" d="M226.7,-444.2C237.98,-434.7 251.05,-423.69 261.18,-415.16"/>
<polygon fill="#63b8ff" stroke="#63b8ff" points="224.26,-441.68 218.87,-450.8 228.77,-447.03 224.26,-441.68"/>
</a>
</g>
</g>
<!-- Node12&#45;&gt;Node2 -->
<g id="edge27_Node000012_Node000002" class="edge">
<title>Node12&#45;&gt;Node2</title>
<g id="a_edge27_Node000012_Node000002"><a xlink:title=" ">
<path fill="none" stroke="#63b8ff" d="M320.9,-507.99C336.53,-479.17 358.21,-428.33 346,-385 334.54,-344.32 304.39,-303.81 287.3,-283.13"/>
<polygon fill="#63b8ff" stroke="#63b8ff" points="317.76,-506.44 315.89,-516.87 323.85,-509.88 317.76,-506.44"/>
</a>
</g>
</g>
<!-- Node12&#45;&gt;Node4 -->
<g id="edge28_Node000012_Node000004" class="edge">
<title>Node12&#45;&gt;Node4</title>
<g id="a_edge28_Node000012_Node000004"><a xlink:title=" ">
<path fill="none" stroke="#63b8ff" d="M335.67,-510.52C364.27,-487.46 404,-447.13 404,-401 404,-401 404,-401 404,-333 404,-289.26 383.94,-240.46 372.97,-217.03"/>
<polygon fill="#63b8ff" stroke="#63b8ff" points="333.31,-507.92 327.57,-516.83 337.61,-513.44 333.31,-507.92"/>
</a>
</g>
</g>
<!-- Node12&#45;&gt;Node7 -->
<g id="edge29_Node000012_Node000007" class="edge">
<title>Node12&#45;&gt;Node7</title>
<g id="a_edge29_Node000012_Node000007"><a xlink:title=" ">
<path fill="none" stroke="#63b8ff" d="M300.15,-506.98C294.31,-489.84 284.54,-467.07 270,-451 248.88,-427.66 235.6,-431.84 209,-415 174.08,-392.89 134.5,-365.58 111.21,-349.27"/>
<polygon fill="#63b8ff" stroke="#63b8ff" points="296.91,-508.35 303.28,-516.82 303.58,-506.23 296.91,-508.35"/>
</a>
</g>
</g>
<!-- Node12&#45;&gt;Node8 -->
<g id="edge30_Node000012_Node000008" class="edge">
<title>Node12&#45;&gt;Node8</title>
<g id="a_edge30_Node000012_Node000008"><a xlink:title=" ">
<path fill="none" stroke="#63b8ff" d="M357.6,-513.59C387.34,-503.36 424.44,-490.59 452.28,-481.01"/>
<polygon fill="#63b8ff" stroke="#63b8ff" points="356.14,-510.39 347.82,-516.95 358.41,-517.01 356.14,-510.39"/>
</a>
</g>
</g>
<!-- Node12&#45;&gt;Node9 -->
<g id="edge31_Node000012_Node000009" class="edge">
<title>Node12&#45;&gt;Node9</title>
<g id="a_edge31_Node000012_Node000009"><a xlink:title=" ">
<path fill="none" stroke="#63b8ff" d="M308.83,-506.68C309.37,-490.61 308.82,-469.23 304,-451 300.6,-438.14 293.47,-424.83 287.54,-415.18"/>
<polygon fill="#63b8ff" stroke="#63b8ff" points="305.32,-506.69 308.32,-516.85 312.32,-507.04 305.32,-506.69"/>
</a>
</g>
</g>
<!-- Node12&#45;&gt;Node11 -->
<g id="edge32_Node000012_Node000011" class="edge">
<title>Node12&#45;&gt;Node11</title>
<g id="a_edge32_Node000012_Node000011"><a xlink:title=" ">
<path fill="none" stroke="#63b8ff" d="M275.33,-511.69C259.12,-501.82 239.75,-490.01 224.99,-481.01"/>
<polygon fill="#63b8ff" stroke="#63b8ff" points="273.6,-514.74 283.96,-516.95 277.24,-508.76 273.6,-514.74"/>
</a>
</g>
</g>
<!-- Node14 -->
<g id="Node000014" class="node">
<title>Node14</title>
<g id="a_Node000014"><a xlink:href="extensible-rtti_8hxx.html" target="_top" xlink:title="Convenience header for all extensible RTTI module components.">
<polygon fill="white" stroke="#666666" points="762,-481 620,-481 620,-451 762,-451 762,-481"/>
<text text-anchor="start" x="628" y="-469" font-family="Helvetica,sans-Serif" font-size="10.00">include/corelib/extensible</text>
<text text-anchor="middle" x="691" y="-458" font-family="Helvetica,sans-Serif" font-size="10.00">&#45;rtti.hxx</text>
</a>
</g>
</g>
<!-- Node13&#45;&gt;Node14 -->
<g id="edge34_Node000013_Node000014" class="edge">
<title>Node13&#45;&gt;Node14</title>
<g id="a_edge34_Node000013_Node000014"><a xlink:title=" ">
<path fill="none" stroke="#63b8ff" d="M798.62,-512.92C774.92,-502.8 745.81,-490.38 723.84,-481.01"/>
<polygon fill="#63b8ff" stroke="#63b8ff" points="797.51,-516.25 808.08,-516.95 800.26,-509.81 797.51,-516.25"/>
</a>
</g>
</g>
<!-- Node15 -->
<g id="Node000015" class="node">
<title>Node15</title>
<g id="a_Node000015"><a xlink:href="base_8cxx.html" target="_top" xlink:title=" ">
<polygon fill="white" stroke="#666666" points="892.5,-481 789.5,-481 789.5,-451 892.5,-451 892.5,-481"/>
<text text-anchor="start" x="797.5" y="-469" font-family="Helvetica,sans-Serif" font-size="10.00">src/extensible&#45;rtti</text>
<text text-anchor="middle" x="841" y="-458" font-family="Helvetica,sans-Serif" font-size="10.00">/base.cxx</text>
</a>
</g>
</g>
<!-- Node13&#45;&gt;Node15 -->
<g id="edge35_Node000013_Node000015" class="edge">
<title>Node13&#45;&gt;Node15</title>
<g id="a_edge35_Node000013_Node000015"><a xlink:title=" ">
<path fill="none" stroke="#63b8ff" d="M841,-506.54C841,-497.96 841,-488.61 841,-481.16"/>
<polygon fill="#63b8ff" stroke="#63b8ff" points="837.5,-506.8 841,-516.8 844.5,-506.8 837.5,-506.8"/>
</a>
</g>
</g>
<!-- Node16&#45;&gt;Node14 -->
<g id="edge37_Node000016_Node000014" class="edge">
<title>Node16&#45;&gt;Node14</title>
<g id="a_edge37_Node000016_Node000014"><a xlink:title=" ">
<path fill="none" stroke="#63b8ff" d="M684.78,-506.83C686.13,-498.17 687.61,-488.7 688.79,-481.16"/>
<polygon fill="#63b8ff" stroke="#63b8ff" points="681.31,-506.38 683.22,-516.8 688.22,-507.46 681.31,-506.38"/>
</a>
</g>
</g>
<!-- Node18 -->
<g id="Node000018" class="node">
<title>Node18</title>
<g id="a_Node000018"><a xlink:href="vector_8hxx.html" target="_top" xlink:title="Convenience header for all vector classes.">
<polygon fill="white" stroke="#666666" points="1247,-481 1131,-481 1131,-451 1247,-451 1247,-481"/>
<text text-anchor="start" x="1139" y="-469" font-family="Helvetica,sans-Serif" font-size="10.00">include/corelib/math</text>
<text text-anchor="middle" x="1189" y="-458" font-family="Helvetica,sans-Serif" font-size="10.00">/vector.hxx</text>
</a>
</g>
</g>
<!-- Node17&#45;&gt;Node18 -->
<g id="edge39_Node000017_Node000018" class="edge">
<title>Node17&#45;&gt;Node18</title>
<g id="a_edge39_Node000017_Node000018"><a xlink:title=" ">
<path fill="none" stroke="#63b8ff" d="M1233.65,-509.65C1223.83,-500.27 1212.58,-489.53 1203.83,-481.16"/>
<polygon fill="#63b8ff" stroke="#63b8ff" points="1231.48,-512.42 1241.13,-516.8 1236.32,-507.36 1231.48,-512.42"/>
</a>
</g>
</g>
<!-- Node19 -->
<g id="Node000019" class="node">
<title>Node19</title>
<g id="a_Node000019"><a xlink:href="math_8hxx.html" target="_top" xlink:title="Convenience header for all math module components.">
<polygon fill="white" stroke="#666666" points="1257.5,-409.5 1120.5,-409.5 1120.5,-390.5 1257.5,-390.5 1257.5,-409.5"/>
<text text-anchor="middle" x="1189" y="-397.5" font-family="Helvetica,sans-Serif" font-size="10.00">include/corelib/math.hxx</text>
</a>
</g>
</g>
<!-- Node18&#45;&gt;Node19 -->
<g id="edge40_Node000018_Node000019" class="edge">
<title>Node18&#45;&gt;Node19</title>
<g id="a_edge40_Node000018_Node000019"><a xlink:title=" ">
<path fill="none" stroke="#63b8ff" d="M1189,-440.6C1189,-429.8 1189,-417.78 1189,-409.84"/>
<polygon fill="#63b8ff" stroke="#63b8ff" points="1185.5,-440.8 1189,-450.8 1192.5,-440.8 1185.5,-440.8"/>
</a>
</g>
</g>
<!-- Node20&#45;&gt;Node18 -->
<g id="edge42_Node000020_Node000018" class="edge">
<title>Node20&#45;&gt;Node18</title>
<g id="a_edge42_Node000020_Node000018"><a xlink:title=" ">
<path fill="none" stroke="#63b8ff" d="M1336.16,-513.86C1303.88,-503.58 1263.36,-490.68 1233.01,-481.01"/>
<polygon fill="#63b8ff" stroke="#63b8ff" points="1335.3,-517.26 1345.89,-516.95 1337.42,-510.59 1335.3,-517.26"/>
</a>
</g>
</g>
<!-- Node21&#45;&gt;Node18 -->
<g id="edge44_Node000021_Node000018" class="edge">
<title>Node21&#45;&gt;Node18</title>
<g id="a_edge44_Node000021_Node000018"><a xlink:title=" ">
<path fill="none" stroke="#63b8ff" d="M1041.84,-513.86C1074.12,-503.58 1114.64,-490.68 1144.99,-481.01"/>
<polygon fill="#63b8ff" stroke="#63b8ff" points="1040.58,-510.59 1032.11,-516.95 1042.7,-517.26 1040.58,-510.59"/>
</a>
</g>
</g>
<!-- Node22&#45;&gt;Node18 -->
<g id="edge46_Node000022_Node000018" class="edge">
<title>Node22&#45;&gt;Node18</title>
<g id="a_edge46_Node000022_Node000018"><a xlink:title=" ">
<path fill="none" stroke="#63b8ff" d="M1144.35,-509.65C1154.17,-500.27 1165.42,-489.53 1174.17,-481.16"/>
<polygon fill="#63b8ff" stroke="#63b8ff" points="1141.68,-507.36 1136.87,-516.8 1146.52,-512.42 1141.68,-507.36"/>
</a>
</g>
</g>
<!-- Node24 -->
<g id="Node000024" class="node">
<title>Node24</title>
<g id="a_Node000024"><a xlink:href="utility_8hxx.html" target="_top" xlink:title="Convenience header for all utility module components.">
<polygon fill="white" stroke="#666666" points="1663.5,-475.5 1524.5,-475.5 1524.5,-456.5 1663.5,-456.5 1663.5,-475.5"/>
<text text-anchor="middle" x="1594" y="-463.5" font-family="Helvetica,sans-Serif" font-size="10.00">include/corelib/utility.hxx</text>
</a>
</g>
</g>
<!-- Node23&#45;&gt;Node24 -->
<g id="edge48_Node000023_Node000024" class="edge">
<title>Node23&#45;&gt;Node24</title>
<g id="a_edge48_Node000023_Node000024"><a xlink:title=" ">
<path fill="none" stroke="#63b8ff" d="M1548.38,-509.93C1560.69,-498.35 1575.29,-484.61 1584.6,-475.84"/>
<polygon fill="#63b8ff" stroke="#63b8ff" points="1545.97,-507.39 1541.09,-516.8 1550.77,-512.49 1545.97,-507.39"/>
</a>
</g>
</g>
<!-- Node25&#45;&gt;Node24 -->
<g id="edge50_Node000025_Node000024" class="edge">
<title>Node25&#45;&gt;Node24</title>
<g id="a_edge50_Node000025_Node000024"><a xlink:title=" ">
<path fill="none" stroke="#63b8ff" d="M1640.29,-509.93C1627.8,-498.35 1612.98,-484.61 1603.54,-475.84"/>
<polygon fill="#63b8ff" stroke="#63b8ff" points="1637.97,-512.56 1647.69,-516.8 1642.74,-507.43 1637.97,-512.56"/>
</a>
</g>
</g>
</g>
</svg>

<g id="navigator" transform="translate(0 0)" fill="#404254">
  <rect fill="#f2f5e9" fill-opacity="0.5" stroke="#606060" stroke-width=".5" x="0" y="0" width="60" height="60"/>
  <use id="zoomplus" xlink:href="#zoomPlus" x="17" y="9" onmousedown="handleZoom(evt,'in')"/>
  <use id="zoomminus" xlink:href="#zoomMin" x="42" y="9" onmousedown="handleZoom(evt,'out')"/>
  <use id="reset" xlink:href="#resetDef" x="30" y="36" onmousedown="handleReset()"/>
   <use id="arrowup" xlink:href="#arrowUp" x="0" y="0" onmousedown="handlePan(0,-1)"/>
  <use id="arrowright" xlink:href="#arrowRight" x="0" y="0" onmousedown="handlePan(1,0)"/>
  <use id="arrowdown" xlink:href="#arrowDown" x="0" y="0" onmousedown="handlePan(0,1)"/>
  <use id="arrowleft" xlink:href="#arrowLeft" x="0" y="0" onmousedown="handlePan(-1,0)"/>
</g>
<svg viewBox="0 0 15 15" width="100%" height="30px" preserveAspectRatio="xMaxYMin meet">
 <g id="arrow_out" transform="scale(0.3 0.3)">
  <a xlink:href="tracing_8hxx__dep__incl_org.svg" target="_base">
   <rect id="button" ry="5" rx="5" y="6" x="6" height="38" width="38"
        fill="#f2f5e9" fill-opacity="0.5" stroke="#606060" stroke-width="1.0"/>
   <path id="arrow"
     d="M 11.500037,31.436501 C 11.940474,20.09759 22.043105,11.32322 32.158766,21.979434 L 37.068811,17.246167 C 37.068811,17.246167 37.088388,32 37.088388,32 L 22.160133,31.978069 C 22.160133,31.978069 26.997745,27.140456 26.997745,27.140456 C 18.528582,18.264221 13.291696,25.230495 11.500037,31.436501 z"
     style="fill:#404040;"/>
  </a>
 </g>
</svg>

<style type='text/css'>
<![CDATA[
[data-mouse-over-selected='false'] { opacity: 0.7; }
[data-mouse-over-selected='true']  { opacity: 1.0; }
]]>
</style>
<script type="application/ecmascript"><![CDATA[
document.addEventListener('DOMContentLoaded', (event) => {
  highlightEdges();
  highlightAdjacentNodes();
});
]]></script>
</svg>
