<?xml version="1.0" encoding="UTF-8" standalone="no"?>
<!DOCTYPE svg PUBLIC "-//W3C//DTD SVG 1.1//EN"
 "http://www.w3.org/Graphics/SVG/1.1/DTD/svg11.dtd">
<!-- Generated by graphviz version 2.43.0 (0)
 -->
<!-- Title: include/corelib/detail/casting/traits.hxx Pages: 1 -->
<!--zoomable 170 -->

<svg id="main" version="1.1" xmlns="http://www.w3.org/2000/svg" xmlns:xlink="http://www.w3.org/1999/xlink" xml:space="preserve" onload="init(evt)">
<style type="text/css"><![CDATA[
.node, .edge {opacity: 0.7;}
.node.selected, .edge.selected {opacity: 1;}
.edge:hover path { stroke: red; }
.edge:hover polygon { stroke: red; fill: red; }
]]></style>

<defs>
  <circle id="rim" cx="0" cy="0" r="7"/>
  <circle id="rim2" cx="0" cy="0" r="3.5"/>
  <g id="zoomPlus">
    <use xlink:href="#rim" fill="#404040"><set attributeName="fill" to="#808080" begin="zoomplus.mouseover" end="zoomplus.mouseout"/></use>
    <path d="M-4,0h8M0,-4v8" fill="none" stroke="white" stroke-width="1.5" pointer-events="none"/>
  </g>
  <g id="zoomMin">
    <use xlink:href="#rim" fill="#404040"><set attributeName="fill" to="#808080" begin="zoomminus.mouseover" end="zoomminus.mouseout"/></use>
    <path d="M-4,0h8" fill="none" stroke="white" stroke-width="1.5" pointer-events="none"/>
  </g>
  <g id="arrowUp" transform="translate(30 24)">
    <use xlink:href="#rim"/>
    <path pointer-events="none" fill="none" stroke="white" stroke-width="1.5" d="M0,-3.0v7 M-2.5,-0.5L0,-3.0L2.5,-0.5"/>
  </g>
  <g id="arrowRight" transform="rotate(90) translate(36 -43)">
    <use xlink:href="#rim"/>
    <path pointer-events="none" fill="none" stroke="white" stroke-width="1.5" d="M0,-3.0v7 M-2.5,-0.5L0,-3.0L2.5,-0.5"/>
  </g>
  <g id="arrowDown" transform="rotate(180) translate(-30 -48)">
    <use xlink:href="#rim"/>
    <path pointer-events="none" fill="none" stroke="white" stroke-width="1.5" d="M0,-3.0v7 M-2.5,-0.5L0,-3.0L2.5,-0.5"/>
  </g>
  <g id="arrowLeft" transform="rotate(270) translate(-36 17)">
    <use xlink:href="#rim"/>
    <path pointer-events="none" fill="none" stroke="white" stroke-width="1.5" d="M0,-3.0v7 M-2.5,-0.5L0,-3.0L2.5,-0.5"/>
  </g>
  <g id="resetDef">
    <use xlink:href="#rim2" fill="#404040"><set attributeName="fill" to="#808080" begin="reset.mouseover" end="reset.mouseout"/></use>
  </g>
</defs>
<script type="application/ecmascript">
var viewWidth = 657;
var viewHeight = 170;
var sectionId = 'dynsection-0';
</script>
<script type="application/ecmascript" xlink:href="svg.min.js"/>
<svg id="graph" class="graph">
<g id="viewport">
<title>include/corelib/detail/casting/traits.hxx</title>
<!-- Node1 -->
<g id="Node000001" class="node">
<title>Node1</title>
<g id="a_Node000001"><a xlink:title=" ">
<polygon fill="#999999" stroke="#666666" points="268,-162 149,-162 149,-132 268,-132 268,-162"/>
<text text-anchor="start" x="157" y="-150" font-family="Helvetica,sans-Serif" font-size="10.00">include/corelib/detail</text>
<text text-anchor="middle" x="208.5" y="-139" font-family="Helvetica,sans-Serif" font-size="10.00">/casting/traits.hxx</text>
</a>
</g>
</g>
<!-- Node2 -->
<g id="Node000002" class="node">
<title>Node2</title>
<g id="a_Node000002"><a xlink:title=" ">
<polygon fill="#e0e0e0" stroke="#999999" points="53,-85 0,-85 0,-66 53,-66 53,-85"/>
<text text-anchor="middle" x="26.5" y="-73" font-family="Helvetica,sans-Serif" font-size="10.00">cstddef</text>
</a>
</g>
</g>
<!-- Node1&#45;&gt;Node2 -->
<g id="edge1_Node000001_Node000002" class="edge">
<title>Node1&#45;&gt;Node2</title>
<g id="a_edge1_Node000001_Node000002"><a xlink:title=" ">
<path fill="none" stroke="#63b8ff" d="M161.06,-131.96C132.12,-122.86 94.64,-110.09 62.5,-96 58.4,-94.2 54.14,-92.11 50.04,-89.97"/>
<polygon fill="#63b8ff" stroke="#63b8ff" points="51.4,-86.73 40.94,-85.03 48.06,-92.88 51.4,-86.73"/>
</a>
</g>
</g>
<!-- Node3 -->
<g id="Node000003" class="node">
<title>Node3</title>
<g id="a_Node000003"><a xlink:title=" ">
<polygon fill="#e0e0e0" stroke="#999999" points="127.5,-85 71.5,-85 71.5,-66 127.5,-66 127.5,-85"/>
<text text-anchor="middle" x="99.5" y="-73" font-family="Helvetica,sans-Serif" font-size="10.00">optional</text>
</a>
</g>
</g>
<!-- Node1&#45;&gt;Node3 -->
<g id="edge2_Node000001_Node000003" class="edge">
<title>Node1&#45;&gt;Node3</title>
<g id="a_edge2_Node000001_Node000003"><a xlink:title=" ">
<path fill="none" stroke="#63b8ff" d="M186.44,-131.94C167.52,-119.87 140.39,-102.57 121.48,-90.52"/>
<polygon fill="#63b8ff" stroke="#63b8ff" points="123.25,-87.49 112.94,-85.07 119.49,-93.4 123.25,-87.49"/>
</a>
</g>
</g>
<!-- Node4 -->
<g id="Node000004" class="node">
<title>Node4</title>
<g id="a_Node000004"><a xlink:title=" ">
<polygon fill="#e0e0e0" stroke="#999999" points="296,-19 227,-19 227,0 296,0 296,-19"/>
<text text-anchor="middle" x="261.5" y="-7" font-family="Helvetica,sans-Serif" font-size="10.00">type_traits</text>
</a>
</g>
</g>
<!-- Node1&#45;&gt;Node4 -->
<g id="edge3_Node000001_Node000004" class="edge">
<title>Node1&#45;&gt;Node4</title>
<g id="a_edge3_Node000001_Node000004"><a xlink:title=" ">
<path fill="none" stroke="#63b8ff" d="M195.82,-132C180.64,-113.46 159.1,-80.18 174.5,-55 184.05,-39.39 200.99,-29.04 217.4,-22.28"/>
<polygon fill="#63b8ff" stroke="#63b8ff" points="218.81,-25.49 226.94,-18.71 216.35,-18.94 218.81,-25.49"/>
</a>
</g>
</g>
<!-- Node5 -->
<g id="Node000005" class="node">
<title>Node5</title>
<g id="a_Node000005"><a xlink:href="tracing_8hxx.html" target="_top" xlink:title=" ">
<polygon fill="white" stroke="#666666" points="648.5,-85 500.5,-85 500.5,-66 648.5,-66 648.5,-85"/>
<text text-anchor="middle" x="574.5" y="-73" font-family="Helvetica,sans-Serif" font-size="10.00">corelib/internal/tracing.hxx</text>
</a>
</g>
</g>
<!-- Node1&#45;&gt;Node5 -->
<g id="edge4_Node000001_Node000005" class="edge">
<title>Node1&#45;&gt;Node5</title>
<g id="a_edge4_Node000001_Node000005"><a xlink:title=" ">
<path fill="none" stroke="#63b8ff" d="M268.09,-136.37C325.28,-126.91 414.02,-111.65 490.5,-96 503.23,-93.4 516.99,-90.32 529.61,-87.38"/>
<polygon fill="#63b8ff" stroke="#63b8ff" points="530.51,-90.77 539.44,-85.07 528.91,-83.95 530.51,-90.77"/>
</a>
</g>
</g>
<!-- Node7 -->
<g id="Node000007" class="node">
<title>Node7</title>
<g id="a_Node000007"><a xlink:href="add__const__past__pointer_8hxx.html" target="_top" xlink:title=" ">
<polygon fill="white" stroke="#666666" points="339,-90.5 184,-90.5 184,-60.5 339,-60.5 339,-90.5"/>
<text text-anchor="start" x="192" y="-78.5" font-family="Helvetica,sans-Serif" font-size="10.00">corelib/type_traits</text>
<text text-anchor="middle" x="261.5" y="-67.5" font-family="Helvetica,sans-Serif" font-size="10.00">/add_const_past_pointer.hxx</text>
</a>
</g>
</g>
<!-- Node1&#45;&gt;Node7 -->
<g id="edge6_Node000001_Node000007" class="edge">
<title>Node1&#45;&gt;Node7</title>
<g id="a_edge6_Node000001_Node000007"><a xlink:title=" ">
<path fill="none" stroke="#63b8ff" d="M219.23,-131.94C226.48,-122.42 236.22,-109.65 244.52,-98.77"/>
<polygon fill="#63b8ff" stroke="#63b8ff" points="247.51,-100.62 250.79,-90.54 241.94,-96.37 247.51,-100.62"/>
</a>
</g>
</g>
<!-- Node8 -->
<g id="Node000008" class="node">
<title>Node8</title>
<g id="a_Node000008"><a xlink:href="add__lvalue__reference__if__not__pointer_8hxx.html" target="_top" xlink:title=" ">
<polygon fill="white" stroke="#666666" points="482,-96 357,-96 357,-55 482,-55 482,-96"/>
<text text-anchor="start" x="365" y="-84" font-family="Helvetica,sans-Serif" font-size="10.00">corelib/type_traits</text>
<text text-anchor="start" x="365" y="-73" font-family="Helvetica,sans-Serif" font-size="10.00">/add_lvalue_reference</text>
<text text-anchor="middle" x="419.5" y="-62" font-family="Helvetica,sans-Serif" font-size="10.00">_if_not_pointer.hxx</text>
</a>
</g>
</g>
<!-- Node1&#45;&gt;Node8 -->
<g id="edge8_Node000001_Node000008" class="edge">
<title>Node1&#45;&gt;Node8</title>
<g id="a_edge8_Node000001_Node000008"><a xlink:title=" ">
<path fill="none" stroke="#63b8ff" d="M251.2,-131.94C279.7,-122.55 317.8,-110 350.55,-99.21"/>
<polygon fill="#63b8ff" stroke="#63b8ff" points="351.67,-102.53 360.08,-96.07 349.48,-95.88 351.67,-102.53"/>
</a>
</g>
</g>
<!-- Node6 -->
<g id="Node000006" class="node">
<title>Node6</title>
<g id="a_Node000006"><a xlink:title=" ">
<polygon fill="#e0e0e0" stroke="#999999" points="626.5,-19 522.5,-19 522.5,0 626.5,0 626.5,-19"/>
<text text-anchor="middle" x="574.5" y="-7" font-family="Helvetica,sans-Serif" font-size="10.00">debug/tracing.hxx</text>
</a>
</g>
</g>
<!-- Node5&#45;&gt;Node6 -->
<g id="edge5_Node000005_Node000006" class="edge">
<title>Node5&#45;&gt;Node6</title>
<g id="a_edge5_Node000005_Node000006"><a xlink:title=" ">
<path fill="none" stroke="#63b8ff" d="M574.5,-65.87C574.5,-56.66 574.5,-41.79 574.5,-29.77"/>
<polygon fill="#63b8ff" stroke="#63b8ff" points="578,-29.41 574.5,-19.41 571,-29.41 578,-29.41"/>
</a>
</g>
</g>
<!-- Node7&#45;&gt;Node4 -->
<g id="edge7_Node000007_Node000004" class="edge">
<title>Node7&#45;&gt;Node4</title>
<g id="a_edge7_Node000007_Node000004"><a xlink:title=" ">
<path fill="none" stroke="#63b8ff" d="M261.5,-60.3C261.5,-51.2 261.5,-39.29 261.5,-29.4"/>
<polygon fill="#63b8ff" stroke="#63b8ff" points="265,-29.34 261.5,-19.34 258,-29.34 265,-29.34"/>
</a>
</g>
</g>
<!-- Node8&#45;&gt;Node4 -->
<g id="edge9_Node000008_Node000004" class="edge">
<title>Node8&#45;&gt;Node4</title>
<g id="a_edge9_Node000008_Node000004"><a xlink:title=" ">
<path fill="none" stroke="#63b8ff" d="M371.24,-54.95C345.46,-44.51 314.52,-31.98 292.07,-22.88"/>
<polygon fill="#63b8ff" stroke="#63b8ff" points="293.29,-19.6 282.71,-19.09 290.67,-26.09 293.29,-19.6"/>
</a>
</g>
</g>
</g>
</svg>

<g id="navigator" transform="translate(0 0)" fill="#404254">
  <rect fill="#f2f5e9" fill-opacity="0.5" stroke="#606060" stroke-width=".5" x="0" y="0" width="60" height="60"/>
  <use id="zoomplus" xlink:href="#zoomPlus" x="17" y="9" onmousedown="handleZoom(evt,'in')"/>
  <use id="zoomminus" xlink:href="#zoomMin" x="42" y="9" onmousedown="handleZoom(evt,'out')"/>
  <use id="reset" xlink:href="#resetDef" x="30" y="36" onmousedown="handleReset()"/>
   <use id="arrowup" xlink:href="#arrowUp" x="0" y="0" onmousedown="handlePan(0,-1)"/>
  <use id="arrowright" xlink:href="#arrowRight" x="0" y="0" onmousedown="handlePan(1,0)"/>
  <use id="arrowdown" xlink:href="#arrowDown" x="0" y="0" onmousedown="handlePan(0,1)"/>
  <use id="arrowleft" xlink:href="#arrowLeft" x="0" y="0" onmousedown="handlePan(-1,0)"/>
</g>
<svg viewBox="0 0 15 15" width="100%" height="30px" preserveAspectRatio="xMaxYMin meet">
 <g id="arrow_out" transform="scale(0.3 0.3)">
  <a xlink:href="traits_8hxx__incl_org.svg" target="_base">
   <rect id="button" ry="5" rx="5" y="6" x="6" height="38" width="38"
        fill="#f2f5e9" fill-opacity="0.5" stroke="#606060" stroke-width="1.0"/>
   <path id="arrow"
     d="M 11.500037,31.436501 C 11.940474,20.09759 22.043105,11.32322 32.158766,21.979434 L 37.068811,17.246167 C 37.068811,17.246167 37.088388,32 37.088388,32 L 22.160133,31.978069 C 22.160133,31.978069 26.997745,27.140456 26.997745,27.140456 C 18.528582,18.264221 13.291696,25.230495 11.500037,31.436501 z"
     style="fill:#404040;"/>
  </a>
 </g>
</svg>

<style type='text/css'>
<![CDATA[
[data-mouse-over-selected='false'] { opacity: 0.7; }
[data-mouse-over-selected='true']  { opacity: 1.0; }
]]>
</style>
<script type="application/ecmascript"><![CDATA[
document.addEventListener('DOMContentLoaded', (event) => {
  highlightEdges();
  highlightAdjacentNodes();
});
]]></script>
</svg>
