<?xml version="1.0" encoding="UTF-8" standalone="no"?>
<!DOCTYPE svg PUBLIC "-//W3C//DTD SVG 1.1//EN"
 "http://www.w3.org/Graphics/SVG/1.1/DTD/svg11.dtd">
<!-- Generated by graphviz version 2.43.0 (0)
 -->
<!-- Title: include/corelib/utility/type_name.hxx Pages: 1 -->
<!--zoomable 555 -->

<svg id="main" version="1.1" xmlns="http://www.w3.org/2000/svg" xmlns:xlink="http://www.w3.org/1999/xlink" xml:space="preserve" onload="init(evt)">
<style type="text/css"><![CDATA[
.node, .edge {opacity: 0.7;}
.node.selected, .edge.selected {opacity: 1;}
.edge:hover path { stroke: red; }
.edge:hover polygon { stroke: red; fill: red; }
]]></style>

<defs>
  <circle id="rim" cx="0" cy="0" r="7"/>
  <circle id="rim2" cx="0" cy="0" r="3.5"/>
  <g id="zoomPlus">
    <use xlink:href="#rim" fill="#404040"><set attributeName="fill" to="#808080" begin="zoomplus.mouseover" end="zoomplus.mouseout"/></use>
    <path d="M-4,0h8M0,-4v8" fill="none" stroke="white" stroke-width="1.5" pointer-events="none"/>
  </g>
  <g id="zoomMin">
    <use xlink:href="#rim" fill="#404040"><set attributeName="fill" to="#808080" begin="zoomminus.mouseover" end="zoomminus.mouseout"/></use>
    <path d="M-4,0h8" fill="none" stroke="white" stroke-width="1.5" pointer-events="none"/>
  </g>
  <g id="arrowUp" transform="translate(30 24)">
    <use xlink:href="#rim"/>
    <path pointer-events="none" fill="none" stroke="white" stroke-width="1.5" d="M0,-3.0v7 M-2.5,-0.5L0,-3.0L2.5,-0.5"/>
  </g>
  <g id="arrowRight" transform="rotate(90) translate(36 -43)">
    <use xlink:href="#rim"/>
    <path pointer-events="none" fill="none" stroke="white" stroke-width="1.5" d="M0,-3.0v7 M-2.5,-0.5L0,-3.0L2.5,-0.5"/>
  </g>
  <g id="arrowDown" transform="rotate(180) translate(-30 -48)">
    <use xlink:href="#rim"/>
    <path pointer-events="none" fill="none" stroke="white" stroke-width="1.5" d="M0,-3.0v7 M-2.5,-0.5L0,-3.0L2.5,-0.5"/>
  </g>
  <g id="arrowLeft" transform="rotate(270) translate(-36 17)">
    <use xlink:href="#rim"/>
    <path pointer-events="none" fill="none" stroke="white" stroke-width="1.5" d="M0,-3.0v7 M-2.5,-0.5L0,-3.0L2.5,-0.5"/>
  </g>
  <g id="resetDef">
    <use xlink:href="#rim2" fill="#404040"><set attributeName="fill" to="#808080" begin="reset.mouseover" end="reset.mouseout"/></use>
  </g>
</defs>
<script type="application/ecmascript">
var viewWidth = 515;
var viewHeight = 555;
var sectionId = 'dynsection-1';
</script>
<script type="application/ecmascript" xlink:href="svg.min.js"/>
<svg id="graph" class="graph">
<g id="viewport">
<title>include/corelib/utility/type_name.hxx</title>
<!-- Node1 -->
<g id="Node000001" class="node">
<title>Node1</title>
<g id="a_Node000001"><a xlink:title=" ">
<polygon fill="#999999" stroke="#666666" points="191.5,-547 72.5,-547 72.5,-517 191.5,-517 191.5,-547"/>
<text text-anchor="start" x="80.5" y="-535" font-family="Helvetica,sans-Serif" font-size="10.00">include/corelib/utility</text>
<text text-anchor="middle" x="132" y="-524" font-family="Helvetica,sans-Serif" font-size="10.00">/type_name.hxx</text>
</a>
</g>
</g>
<!-- Node2 -->
<g id="Node000002" class="node">
<title>Node2</title>
<g id="a_Node000002"><a xlink:href="casting_2cast_8hxx.html" target="_top" xlink:title=" ">
<polygon fill="white" stroke="#666666" points="217,-283 91,-283 91,-253 217,-253 217,-283"/>
<text text-anchor="start" x="99" y="-271" font-family="Helvetica,sans-Serif" font-size="10.00">include/corelib/casting</text>
<text text-anchor="middle" x="154" y="-260" font-family="Helvetica,sans-Serif" font-size="10.00">/cast.hxx</text>
</a>
</g>
</g>
<!-- Node1&#45;&gt;Node2 -->
<g id="edge1_Node000001_Node000002" class="edge">
<title>Node1&#45;&gt;Node2</title>
<g id="a_edge1_Node000001_Node000002"><a xlink:title=" ">
<path fill="none" stroke="#63b8ff" d="M91.97,-511.36C80.5,-503.59 69.38,-493.5 63,-481 56.83,-468.91 57.02,-409.82 66,-385 81.22,-342.93 117.46,-303.58 138.38,-283.3"/>
<polygon fill="#63b8ff" stroke="#63b8ff" points="90.41,-514.51 100.74,-516.84 94.12,-508.57 90.41,-514.51"/>
</a>
</g>
</g>
<!-- Node4 -->
<g id="Node000004" class="node">
<title>Node4</title>
<g id="a_Node000004"><a xlink:href="dyn__cast_8hxx.html" target="_top" xlink:title=" ">
<polygon fill="white" stroke="#666666" points="126,-217 0,-217 0,-187 126,-187 126,-217"/>
<text text-anchor="start" x="8" y="-205" font-family="Helvetica,sans-Serif" font-size="10.00">include/corelib/casting</text>
<text text-anchor="middle" x="63" y="-194" font-family="Helvetica,sans-Serif" font-size="10.00">/dyn_cast.hxx</text>
</a>
</g>
</g>
<!-- Node1&#45;&gt;Node4 -->
<g id="edge9_Node000001_Node000004" class="edge">
<title>Node1&#45;&gt;Node4</title>
<g id="a_edge9_Node000001_Node000004"><a xlink:title=" ">
<path fill="none" stroke="#63b8ff" d="M93.37,-511.8C56.33,-490.35 6,-451.85 6,-401 6,-401 6,-401 6,-333 6,-287.66 35.45,-240.34 52.01,-217.3"/>
<polygon fill="#63b8ff" stroke="#63b8ff" points="92.02,-515.06 102.46,-516.88 95.44,-508.95 92.02,-515.06"/>
</a>
</g>
</g>
<!-- Node7 -->
<g id="Node000007" class="node">
<title>Node7</title>
<g id="a_Node000007"><a xlink:href="detail_2casting_2isa_8hxx.html" target="_top" xlink:title=" ">
<polygon fill="white" stroke="#666666" points="191.5,-481 72.5,-481 72.5,-451 191.5,-451 191.5,-481"/>
<text text-anchor="start" x="80.5" y="-469" font-family="Helvetica,sans-Serif" font-size="10.00">include/corelib/detail</text>
<text text-anchor="middle" x="132" y="-458" font-family="Helvetica,sans-Serif" font-size="10.00">/casting/isa.hxx</text>
</a>
</g>
</g>
<!-- Node1&#45;&gt;Node7 -->
<g id="edge10_Node000001_Node000007" class="edge">
<title>Node1&#45;&gt;Node7</title>
<g id="a_edge10_Node000001_Node000007"><a xlink:title=" ">
<path fill="none" stroke="#63b8ff" d="M132,-506.54C132,-497.96 132,-488.61 132,-481.16"/>
<polygon fill="#63b8ff" stroke="#63b8ff" points="128.5,-506.8 132,-516.8 135.5,-506.8 128.5,-506.8"/>
</a>
</g>
</g>
<!-- Node10 -->
<g id="Node000010" class="node">
<title>Node10</title>
<g id="a_Node000010"><a xlink:href="utility_8hxx.html" target="_top" xlink:title="Convenience header for all utility module components.">
<polygon fill="white" stroke="#666666" points="348.5,-475.5 209.5,-475.5 209.5,-456.5 348.5,-456.5 348.5,-475.5"/>
<text text-anchor="middle" x="279" y="-463.5" font-family="Helvetica,sans-Serif" font-size="10.00">include/corelib/utility.hxx</text>
</a>
</g>
</g>
<!-- Node1&#45;&gt;Node10 -->
<g id="edge18_Node000001_Node000010" class="edge">
<title>Node1&#45;&gt;Node10</title>
<g id="a_edge18_Node000001_Node000010"><a xlink:title=" ">
<path fill="none" stroke="#63b8ff" d="M173.48,-512.94C201.64,-500.68 237.6,-485.02 259.44,-475.52"/>
<polygon fill="#63b8ff" stroke="#63b8ff" points="172.03,-509.75 164.26,-516.95 174.83,-516.17 172.03,-509.75"/>
</a>
</g>
</g>
<!-- Node11 -->
<g id="Node000011" class="node">
<title>Node11</title>
<g id="a_Node000011"><a xlink:href="type__name_8cxx.html" target="_top" xlink:title=" ">
<polygon fill="white" stroke="#666666" points="507,-475.5 367,-475.5 367,-456.5 507,-456.5 507,-475.5"/>
<text text-anchor="middle" x="437" y="-463.5" font-family="Helvetica,sans-Serif" font-size="10.00">src/utility/type_name.cxx</text>
</a>
</g>
</g>
<!-- Node1&#45;&gt;Node11 -->
<g id="edge19_Node000001_Node000011" class="edge">
<title>Node1&#45;&gt;Node11</title>
<g id="a_edge19_Node000001_Node000011"><a xlink:title=" ">
<path fill="none" stroke="#63b8ff" d="M201.33,-516.45C261.43,-503.84 346.35,-486.02 396.15,-475.57"/>
<polygon fill="#63b8ff" stroke="#63b8ff" points="200.6,-513.03 191.53,-518.51 202.04,-519.88 200.6,-513.03"/>
</a>
</g>
</g>
<!-- Node3 -->
<g id="Node000003" class="node">
<title>Node3</title>
<g id="a_Node000003"><a xlink:href="casting_8hxx.html" target="_top" xlink:title="Convenience header for all casting module components.">
<polygon fill="white" stroke="#666666" points="234.5,-19 87.5,-19 87.5,0 234.5,0 234.5,-19"/>
<text text-anchor="middle" x="161" y="-7" font-family="Helvetica,sans-Serif" font-size="10.00">include/corelib/casting.hxx</text>
</a>
</g>
</g>
<!-- Node2&#45;&gt;Node3 -->
<g id="edge2_Node000002_Node000003" class="edge">
<title>Node2&#45;&gt;Node3</title>
<g id="a_edge2_Node000002_Node000003"><a xlink:title=" ">
<path fill="none" stroke="#63b8ff" d="M164.04,-243.56C179.55,-204.06 205.69,-122 187,-55 183.2,-41.38 174.19,-27.62 167.84,-19.08"/>
<polygon fill="#63b8ff" stroke="#63b8ff" points="160.78,-242.29 160.27,-252.87 167.27,-244.91 160.78,-242.29"/>
</a>
</g>
</g>
<!-- Node2&#45;&gt;Node4 -->
<g id="edge3_Node000002_Node000004" class="edge">
<title>Node2&#45;&gt;Node4</title>
<g id="a_edge3_Node000002_Node000004"><a xlink:title=" ">
<path fill="none" stroke="#63b8ff" d="M125.6,-247.03C111.83,-237.34 95.62,-225.94 83.14,-217.16"/>
<polygon fill="#63b8ff" stroke="#63b8ff" points="123.61,-249.91 133.8,-252.8 127.64,-244.18 123.61,-249.91"/>
</a>
</g>
</g>
<!-- Node5 -->
<g id="Node000005" class="node">
<title>Node5</title>
<g id="a_Node000005"><a xlink:href="detail_2casting_2predicates_8hxx.html" target="_top" xlink:title=" ">
<polygon fill="white" stroke="#666666" points="179,-151 49,-151 49,-121 179,-121 179,-151"/>
<text text-anchor="start" x="57" y="-139" font-family="Helvetica,sans-Serif" font-size="10.00">include/corelib/detail</text>
<text text-anchor="middle" x="114" y="-128" font-family="Helvetica,sans-Serif" font-size="10.00">/casting/predicates.hxx</text>
</a>
</g>
</g>
<!-- Node2&#45;&gt;Node5 -->
<g id="edge8_Node000002_Node000005" class="edge">
<title>Node2&#45;&gt;Node5</title>
<g id="a_edge8_Node000002_Node000005"><a xlink:title=" ">
<path fill="none" stroke="#63b8ff" d="M149.34,-242.8C145.99,-226.78 141.01,-205.41 135,-187 130.97,-174.65 125.18,-161.08 120.7,-151.2"/>
<polygon fill="#63b8ff" stroke="#63b8ff" points="145.97,-243.83 151.39,-252.93 152.83,-242.44 145.97,-243.83"/>
</a>
</g>
</g>
<!-- Node4&#45;&gt;Node3 -->
<g id="edge4_Node000004_Node000003" class="edge">
<title>Node4&#45;&gt;Node3</title>
<g id="a_edge4_Node000004_Node000003"><a xlink:title=" ">
<path fill="none" stroke="#63b8ff" d="M50.6,-177.79C35.91,-146.76 16.56,-91.43 43,-55 56.63,-36.22 79.21,-25.36 100.98,-19.08"/>
<polygon fill="#63b8ff" stroke="#63b8ff" points="47.57,-179.55 55.14,-186.96 53.84,-176.44 47.57,-179.55"/>
</a>
</g>
</g>
<!-- Node4&#45;&gt;Node5 -->
<g id="edge5_Node000004_Node000005" class="edge">
<title>Node4&#45;&gt;Node5</title>
<g id="a_edge5_Node000004_Node000005"><a xlink:title=" ">
<path fill="none" stroke="#63b8ff" d="M80.68,-178.81C87.99,-169.64 96.25,-159.28 102.71,-151.16"/>
<polygon fill="#63b8ff" stroke="#63b8ff" points="77.81,-176.79 74.32,-186.8 83.29,-181.16 77.81,-176.79"/>
</a>
</g>
</g>
<!-- Node6 -->
<g id="Node000006" class="node">
<title>Node6</title>
<g id="a_Node000006"><a xlink:href="casting_2predicates_8hxx.html" target="_top" xlink:title=" ">
<polygon fill="white" stroke="#666666" points="178,-85 52,-85 52,-55 178,-55 178,-85"/>
<text text-anchor="start" x="60" y="-73" font-family="Helvetica,sans-Serif" font-size="10.00">include/corelib/casting</text>
<text text-anchor="middle" x="115" y="-62" font-family="Helvetica,sans-Serif" font-size="10.00">/predicates.hxx</text>
</a>
</g>
</g>
<!-- Node5&#45;&gt;Node6 -->
<g id="edge6_Node000005_Node000006" class="edge">
<title>Node5&#45;&gt;Node6</title>
<g id="a_edge6_Node000005_Node000006"><a xlink:title=" ">
<path fill="none" stroke="#63b8ff" d="M114.38,-110.54C114.52,-101.96 114.66,-92.61 114.78,-85.16"/>
<polygon fill="#63b8ff" stroke="#63b8ff" points="110.88,-110.74 114.22,-120.8 117.88,-110.85 110.88,-110.74"/>
</a>
</g>
</g>
<!-- Node6&#45;&gt;Node3 -->
<g id="edge7_Node000006_Node000003" class="edge">
<title>Node6&#45;&gt;Node3</title>
<g id="a_edge7_Node000006_Node000003"><a xlink:title=" ">
<path fill="none" stroke="#63b8ff" d="M132.46,-46.8C140,-37.21 148.39,-26.54 154.11,-19.27"/>
<polygon fill="#63b8ff" stroke="#63b8ff" points="129.57,-44.81 126.14,-54.84 135.07,-49.14 129.57,-44.81"/>
</a>
</g>
</g>
<!-- Node8 -->
<g id="Node000008" class="node">
<title>Node8</title>
<g id="a_Node000008"><a xlink:href="detail_2casting_2cast_8hxx.html" target="_top" xlink:title=" ">
<polygon fill="white" stroke="#666666" points="194.5,-415 75.5,-415 75.5,-385 194.5,-385 194.5,-415"/>
<text text-anchor="start" x="83.5" y="-403" font-family="Helvetica,sans-Serif" font-size="10.00">include/corelib/detail</text>
<text text-anchor="middle" x="135" y="-392" font-family="Helvetica,sans-Serif" font-size="10.00">/casting/cast.hxx</text>
</a>
</g>
</g>
<!-- Node7&#45;&gt;Node8 -->
<g id="edge11_Node000007_Node000008" class="edge">
<title>Node7&#45;&gt;Node8</title>
<g id="a_edge11_Node000007_Node000008"><a xlink:title=" ">
<path fill="none" stroke="#63b8ff" d="M133.15,-440.54C133.55,-431.96 133.99,-422.61 134.34,-415.16"/>
<polygon fill="#63b8ff" stroke="#63b8ff" points="129.64,-440.64 132.67,-450.8 136.63,-440.97 129.64,-440.64"/>
</a>
</g>
</g>
<!-- Node8&#45;&gt;Node2 -->
<g id="edge12_Node000008_Node000002" class="edge">
<title>Node8&#45;&gt;Node2</title>
<g id="a_edge12_Node000008_Node000002"><a xlink:title=" ">
<path fill="none" stroke="#63b8ff" d="M138.55,-374.68C142.5,-347.7 148.72,-305.11 151.93,-283.14"/>
<polygon fill="#63b8ff" stroke="#63b8ff" points="135.05,-374.44 137.07,-384.84 141.98,-375.45 135.05,-374.44"/>
</a>
</g>
</g>
<!-- Node8&#45;&gt;Node4 -->
<g id="edge13_Node000008_Node000004" class="edge">
<title>Node8&#45;&gt;Node4</title>
<g id="a_edge13_Node000008_Node000004"><a xlink:title=" ">
<path fill="none" stroke="#63b8ff" d="M122.73,-375.73C110.97,-352.69 93.39,-316.16 82,-283 74.26,-260.45 68.53,-233.28 65.48,-217.11"/>
<polygon fill="#63b8ff" stroke="#63b8ff" points="119.67,-377.44 127.37,-384.72 125.89,-374.23 119.67,-377.44"/>
</a>
</g>
</g>
<!-- Node9 -->
<g id="Node000009" class="node">
<title>Node9</title>
<g id="a_Node000009"><a xlink:href="casting_2isa_8hxx.html" target="_top" xlink:title=" ">
<polygon fill="white" stroke="#666666" points="305,-349 179,-349 179,-319 305,-319 305,-349"/>
<text text-anchor="start" x="187" y="-337" font-family="Helvetica,sans-Serif" font-size="10.00">include/corelib/casting</text>
<text text-anchor="middle" x="242" y="-326" font-family="Helvetica,sans-Serif" font-size="10.00">/isa.hxx</text>
</a>
</g>
</g>
<!-- Node8&#45;&gt;Node9 -->
<g id="edge14_Node000008_Node000009" class="edge">
<title>Node8&#45;&gt;Node9</title>
<g id="a_edge14_Node000008_Node000009"><a xlink:title=" ">
<path fill="none" stroke="#63b8ff" d="M167.28,-379.69C183.79,-369.82 203.53,-358.01 218.57,-349.01"/>
<polygon fill="#63b8ff" stroke="#63b8ff" points="165.27,-376.82 158.48,-384.95 168.86,-382.83 165.27,-376.82"/>
</a>
</g>
</g>
<!-- Node9&#45;&gt;Node2 -->
<g id="edge16_Node000009_Node000002" class="edge">
<title>Node9&#45;&gt;Node2</title>
<g id="a_edge16_Node000009_Node000002"><a xlink:title=" ">
<path fill="none" stroke="#63b8ff" d="M214.16,-312.75C200.93,-303.13 185.43,-291.86 173.48,-283.16"/>
<polygon fill="#63b8ff" stroke="#63b8ff" points="212.32,-315.75 222.47,-318.8 216.44,-310.08 212.32,-315.75"/>
</a>
</g>
</g>
<!-- Node9&#45;&gt;Node3 -->
<g id="edge15_Node000009_Node000003" class="edge">
<title>Node9&#45;&gt;Node3</title>
<g id="a_edge15_Node000009_Node000003"><a xlink:title=" ">
<path fill="none" stroke="#63b8ff" d="M254.23,-309.42C266.31,-283.9 283,-241.65 283,-203 283,-203 283,-203 283,-135 283,-76.9 214.38,-35.92 180.06,-19.06"/>
<polygon fill="#63b8ff" stroke="#63b8ff" points="250.96,-308.13 249.71,-318.65 257.25,-311.21 250.96,-308.13"/>
</a>
</g>
</g>
<!-- Node9&#45;&gt;Node5 -->
<g id="edge17_Node000009_Node000005" class="edge">
<title>Node9&#45;&gt;Node5</title>
<g id="a_edge17_Node000009_Node000005"><a xlink:title=" ">
<path fill="none" stroke="#63b8ff" d="M240.74,-308.94C239.05,-292.41 235.11,-270.39 226,-253 203.13,-209.36 158.77,-170.9 133.28,-151.12"/>
<polygon fill="#63b8ff" stroke="#63b8ff" points="237.25,-309.23 241.56,-318.91 244.23,-308.65 237.25,-309.23"/>
</a>
</g>
</g>
</g>
</svg>

<g id="navigator" transform="translate(0 0)" fill="#404254">
  <rect fill="#f2f5e9" fill-opacity="0.5" stroke="#606060" stroke-width=".5" x="0" y="0" width="60" height="60"/>
  <use id="zoomplus" xlink:href="#zoomPlus" x="17" y="9" onmousedown="handleZoom(evt,'in')"/>
  <use id="zoomminus" xlink:href="#zoomMin" x="42" y="9" onmousedown="handleZoom(evt,'out')"/>
  <use id="reset" xlink:href="#resetDef" x="30" y="36" onmousedown="handleReset()"/>
   <use id="arrowup" xlink:href="#arrowUp" x="0" y="0" onmousedown="handlePan(0,-1)"/>
  <use id="arrowright" xlink:href="#arrowRight" x="0" y="0" onmousedown="handlePan(1,0)"/>
  <use id="arrowdown" xlink:href="#arrowDown" x="0" y="0" onmousedown="handlePan(0,1)"/>
  <use id="arrowleft" xlink:href="#arrowLeft" x="0" y="0" onmousedown="handlePan(-1,0)"/>
</g>
<svg viewBox="0 0 15 15" width="100%" height="30px" preserveAspectRatio="xMaxYMin meet">
 <g id="arrow_out" transform="scale(0.3 0.3)">
  <a xlink:href="type__name_8hxx__dep__incl_org.svg" target="_base">
   <rect id="button" ry="5" rx="5" y="6" x="6" height="38" width="38"
        fill="#f2f5e9" fill-opacity="0.5" stroke="#606060" stroke-width="1.0"/>
   <path id="arrow"
     d="M 11.500037,31.436501 C 11.940474,20.09759 22.043105,11.32322 32.158766,21.979434 L 37.068811,17.246167 C 37.068811,17.246167 37.088388,32 37.088388,32 L 22.160133,31.978069 C 22.160133,31.978069 26.997745,27.140456 26.997745,27.140456 C 18.528582,18.264221 13.291696,25.230495 11.500037,31.436501 z"
     style="fill:#404040;"/>
  </a>
 </g>
</svg>

<style type='text/css'>
<![CDATA[
[data-mouse-over-selected='false'] { opacity: 0.7; }
[data-mouse-over-selected='true']  { opacity: 1.0; }
]]>
</style>
<script type="application/ecmascript"><![CDATA[
document.addEventListener('DOMContentLoaded', (event) => {
  highlightEdges();
  highlightAdjacentNodes();
});
]]></script>
</svg>
