<?xml version="1.0" encoding="UTF-8" standalone="no"?>
<!DOCTYPE svg PUBLIC "-//W3C//DTD SVG 1.1//EN"
 "http://www.w3.org/Graphics/SVG/1.1/DTD/svg11.dtd">
<!-- Generated by graphviz version 2.43.0 (0)
 -->
<!-- Title: include/corelib/utility.hxx Pages: 1 -->
<svg width="636pt" height="203pt"
 viewBox="0.00 0.00 636.00 203.00" xmlns="http://www.w3.org/2000/svg" xmlns:xlink="http://www.w3.org/1999/xlink">
<g id="graph0" class="graph" transform="scale(1 1) rotate(0) translate(4 199)">
<title>include/corelib/utility.hxx</title>
<!-- Node1 -->
<g id="Node000001" class="node">
<title>Node1</title>
<g id="a_Node000001"><a xlink:title="Convenience header for all utility module components.">
<polygon fill="#999999" stroke="#666666" points="268,-195 129,-195 129,-176 268,-176 268,-195"/>
<text text-anchor="middle" x="198.5" y="-183" font-family="Helvetica,sans-Serif" font-size="10.00">include/corelib/utility.hxx</text>
</a>
</g>
</g>
<!-- Node2 -->
<g id="Node000002" class="node">
<title>Node2</title>
<g id="a_Node000002"><a xlink:title=" ">
<polygon fill="#e0e0e0" stroke="#999999" points="45,-74 0,-74 0,-55 45,-55 45,-74"/>
<text text-anchor="middle" x="22.5" y="-62" font-family="Helvetica,sans-Serif" font-size="10.00">utility</text>
</a>
</g>
</g>
<!-- Node1&#45;&gt;Node2 -->
<g id="edge1_Node000001_Node000002" class="edge">
<title>Node1&#45;&gt;Node2</title>
<g id="a_edge1_Node000001_Node000002"><a xlink:title=" ">
<path fill="none" stroke="#63b8ff" d="M133.41,-175.94C107.02,-169.67 77.81,-158.81 56.5,-140 39.89,-125.34 30.9,-100.91 26.41,-84.05"/>
<polygon fill="#63b8ff" stroke="#63b8ff" points="29.8,-83.16 24.08,-74.24 22.99,-84.78 29.8,-83.16"/>
</a>
</g>
</g>
<!-- Node3 -->
<g id="Node000003" class="node">
<title>Node3</title>
<g id="a_Node000003"><a xlink:href="auto__release_8hxx.html" target="_top" xlink:title=" ">
<polygon fill="white" stroke="#666666" points="319.5,-140 213.5,-140 213.5,-110 319.5,-110 319.5,-140"/>
<text text-anchor="start" x="221.5" y="-128" font-family="Helvetica,sans-Serif" font-size="10.00">corelib/utility/auto</text>
<text text-anchor="middle" x="266.5" y="-117" font-family="Helvetica,sans-Serif" font-size="10.00">_release.hxx</text>
</a>
</g>
</g>
<!-- Node1&#45;&gt;Node3 -->
<g id="edge2_Node000001_Node000003" class="edge">
<title>Node1&#45;&gt;Node3</title>
<g id="a_edge2_Node000001_Node000003"><a xlink:title=" ">
<path fill="none" stroke="#63b8ff" d="M208.53,-175.87C217.42,-168.22 230.75,-156.76 242.38,-146.75"/>
<polygon fill="#63b8ff" stroke="#63b8ff" points="244.8,-149.29 250.09,-140.11 240.23,-143.98 244.8,-149.29"/>
</a>
</g>
</g>
<!-- Node9 -->
<g id="Node000009" class="node">
<title>Node9</title>
<g id="a_Node000009"><a xlink:href="defer_8hxx.html" target="_top" xlink:title=" ">
<polygon fill="white" stroke="#666666" points="195.5,-134.5 65.5,-134.5 65.5,-115.5 195.5,-115.5 195.5,-134.5"/>
<text text-anchor="middle" x="130.5" y="-122.5" font-family="Helvetica,sans-Serif" font-size="10.00">corelib/utility/defer.hxx</text>
</a>
</g>
</g>
<!-- Node1&#45;&gt;Node9 -->
<g id="edge8_Node000001_Node000009" class="edge">
<title>Node1&#45;&gt;Node9</title>
<g id="a_edge8_Node000001_Node000009"><a xlink:title=" ">
<path fill="none" stroke="#63b8ff" d="M188.47,-175.87C177.92,-166.8 161.11,-152.34 148.31,-141.32"/>
<polygon fill="#63b8ff" stroke="#63b8ff" points="150.44,-138.54 140.57,-134.67 145.87,-143.84 150.44,-138.54"/>
</a>
</g>
</g>
<!-- Node10 -->
<g id="Node000010" class="node">
<title>Node10</title>
<g id="a_Node000010"><a xlink:href="type__name_8hxx.html" target="_top" xlink:title=" ">
<polygon fill="white" stroke="#666666" points="557.5,-140 451.5,-140 451.5,-110 557.5,-110 557.5,-140"/>
<text text-anchor="start" x="459.5" y="-128" font-family="Helvetica,sans-Serif" font-size="10.00">corelib/utility/type</text>
<text text-anchor="middle" x="504.5" y="-117" font-family="Helvetica,sans-Serif" font-size="10.00">_name.hxx</text>
</a>
</g>
</g>
<!-- Node1&#45;&gt;Node10 -->
<g id="edge11_Node000001_Node000010" class="edge">
<title>Node1&#45;&gt;Node10</title>
<g id="a_edge11_Node000001_Node000010"><a xlink:title=" ">
<path fill="none" stroke="#63b8ff" d="M243,-175.99C295.25,-166 382.3,-149.36 441.49,-138.05"/>
<polygon fill="#63b8ff" stroke="#63b8ff" points="442.3,-141.45 451.47,-136.14 440.99,-134.58 442.3,-141.45"/>
</a>
</g>
</g>
<!-- Node4 -->
<g id="Node000004" class="node">
<title>Node4</title>
<g id="a_Node000004"><a xlink:title=" ">
<polygon fill="#e0e0e0" stroke="#999999" points="289.5,-74 229.5,-74 229.5,-55 289.5,-55 289.5,-74"/>
<text text-anchor="middle" x="259.5" y="-62" font-family="Helvetica,sans-Serif" font-size="10.00">concepts</text>
</a>
</g>
</g>
<!-- Node3&#45;&gt;Node4 -->
<g id="edge3_Node000003_Node000004" class="edge">
<title>Node3&#45;&gt;Node4</title>
<g id="a_edge3_Node000003_Node000004"><a xlink:title=" ">
<path fill="none" stroke="#63b8ff" d="M264.81,-109.84C263.89,-102.21 262.76,-92.7 261.77,-84.45"/>
<polygon fill="#63b8ff" stroke="#63b8ff" points="265.21,-83.78 260.55,-74.27 258.26,-84.61 265.21,-83.78"/>
</a>
</g>
</g>
<!-- Node5 -->
<g id="Node000005" class="node">
<title>Node5</title>
<g id="a_Node000005"><a xlink:title=" ">
<polygon fill="#e0e0e0" stroke="#999999" points="373,-74 308,-74 308,-55 373,-55 373,-74"/>
<text text-anchor="middle" x="340.5" y="-62" font-family="Helvetica,sans-Serif" font-size="10.00">functional</text>
</a>
</g>
</g>
<!-- Node3&#45;&gt;Node5 -->
<g id="edge4_Node000003_Node000005" class="edge">
<title>Node3&#45;&gt;Node5</title>
<g id="a_edge4_Node000003_Node000005"><a xlink:title=" ">
<path fill="none" stroke="#63b8ff" d="M284.41,-109.84C295.59,-101 309.98,-89.63 321.38,-80.62"/>
<polygon fill="#63b8ff" stroke="#63b8ff" points="323.74,-83.21 329.41,-74.27 319.4,-77.72 323.74,-83.21"/>
</a>
</g>
</g>
<!-- Node6 -->
<g id="Node000006" class="node">
<title>Node6</title>
<g id="a_Node000006"><a xlink:title=" ">
<polygon fill="#e0e0e0" stroke="#999999" points="449.5,-74 391.5,-74 391.5,-55 449.5,-55 449.5,-74"/>
<text text-anchor="middle" x="420.5" y="-62" font-family="Helvetica,sans-Serif" font-size="10.00">memory</text>
</a>
</g>
</g>
<!-- Node3&#45;&gt;Node6 -->
<g id="edge5_Node000003_Node000006" class="edge">
<title>Node3&#45;&gt;Node6</title>
<g id="a_edge5_Node000003_Node000006"><a xlink:title=" ">
<path fill="none" stroke="#63b8ff" d="M303.39,-109.99C329.2,-100.18 363.35,-87.21 388.1,-77.81"/>
<polygon fill="#63b8ff" stroke="#63b8ff" points="389.65,-80.96 397.76,-74.14 387.17,-74.42 389.65,-80.96"/>
</a>
</g>
</g>
<!-- Node7 -->
<g id="Node000007" class="node">
<title>Node7</title>
<g id="a_Node000007"><a xlink:href="tracing_8hxx.html" target="_top" xlink:title=" ">
<polygon fill="white" stroke="#666666" points="211.5,-74 63.5,-74 63.5,-55 211.5,-55 211.5,-74"/>
<text text-anchor="middle" x="137.5" y="-62" font-family="Helvetica,sans-Serif" font-size="10.00">corelib/internal/tracing.hxx</text>
</a>
</g>
</g>
<!-- Node3&#45;&gt;Node7 -->
<g id="edge6_Node000003_Node000007" class="edge">
<title>Node3&#45;&gt;Node7</title>
<g id="a_edge6_Node000003_Node000007"><a xlink:title=" ">
<path fill="none" stroke="#63b8ff" d="M235.6,-109.99C214.37,-100.36 186.39,-87.67 165.75,-78.31"/>
<polygon fill="#63b8ff" stroke="#63b8ff" points="167.1,-75.08 156.55,-74.14 164.21,-81.46 167.1,-75.08"/>
</a>
</g>
</g>
<!-- Node8 -->
<g id="Node000008" class="node">
<title>Node8</title>
<g id="a_Node000008"><a xlink:title=" ">
<polygon fill="#e0e0e0" stroke="#999999" points="189.5,-19 85.5,-19 85.5,0 189.5,0 189.5,-19"/>
<text text-anchor="middle" x="137.5" y="-7" font-family="Helvetica,sans-Serif" font-size="10.00">debug/tracing.hxx</text>
</a>
</g>
</g>
<!-- Node7&#45;&gt;Node8 -->
<g id="edge7_Node000007_Node000008" class="edge">
<title>Node7&#45;&gt;Node8</title>
<g id="a_edge7_Node000007_Node000008"><a xlink:title=" ">
<path fill="none" stroke="#63b8ff" d="M137.5,-54.75C137.5,-47.8 137.5,-37.85 137.5,-29.13"/>
<polygon fill="#63b8ff" stroke="#63b8ff" points="141,-29.09 137.5,-19.09 134,-29.09 141,-29.09"/>
</a>
</g>
</g>
<!-- Node9&#45;&gt;Node2 -->
<g id="edge9_Node000009_Node000002" class="edge">
<title>Node9&#45;&gt;Node2</title>
<g id="a_edge9_Node000009_Node000002"><a xlink:title=" ">
<path fill="none" stroke="#63b8ff" d="M114.56,-115.37C96.86,-105.78 68.04,-90.17 47.36,-78.97"/>
<polygon fill="#63b8ff" stroke="#63b8ff" points="48.96,-75.85 38.5,-74.17 45.63,-82.01 48.96,-75.85"/>
</a>
</g>
</g>
<!-- Node9&#45;&gt;Node7 -->
<g id="edge10_Node000009_Node000007" class="edge">
<title>Node9&#45;&gt;Node7</title>
<g id="a_edge10_Node000009_Node000007"><a xlink:title=" ">
<path fill="none" stroke="#63b8ff" d="M131.53,-115.37C132.5,-107.25 133.99,-94.81 135.24,-84.39"/>
<polygon fill="#63b8ff" stroke="#63b8ff" points="138.75,-84.51 136.46,-74.17 131.8,-83.68 138.75,-84.51"/>
</a>
</g>
</g>
<!-- Node11 -->
<g id="Node000011" class="node">
<title>Node11</title>
<g id="a_Node000011"><a xlink:title=" ">
<polygon fill="#e0e0e0" stroke="#999999" points="541,-74 468,-74 468,-55 541,-55 541,-74"/>
<text text-anchor="middle" x="504.5" y="-62" font-family="Helvetica,sans-Serif" font-size="10.00">string_view</text>
</a>
</g>
</g>
<!-- Node10&#45;&gt;Node11 -->
<g id="edge12_Node000010_Node000011" class="edge">
<title>Node10&#45;&gt;Node11</title>
<g id="a_edge12_Node000010_Node000011"><a xlink:title=" ">
<path fill="none" stroke="#63b8ff" d="M504.5,-109.84C504.5,-102.21 504.5,-92.7 504.5,-84.45"/>
<polygon fill="#63b8ff" stroke="#63b8ff" points="508,-84.27 504.5,-74.27 501,-84.27 508,-84.27"/>
</a>
</g>
</g>
<!-- Node12 -->
<g id="Node000012" class="node">
<title>Node12</title>
<g id="a_Node000012"><a xlink:title=" ">
<polygon fill="#e0e0e0" stroke="#999999" points="628,-74 559,-74 559,-55 628,-55 628,-74"/>
<text text-anchor="middle" x="593.5" y="-62" font-family="Helvetica,sans-Serif" font-size="10.00">type_traits</text>
</a>
</g>
</g>
<!-- Node10&#45;&gt;Node12 -->
<g id="edge13_Node000010_Node000012" class="edge">
<title>Node10&#45;&gt;Node12</title>
<g id="a_edge13_Node000010_Node000012"><a xlink:title=" ">
<path fill="none" stroke="#63b8ff" d="M526.04,-109.84C539.97,-100.68 558.03,-88.82 571.95,-79.66"/>
<polygon fill="#63b8ff" stroke="#63b8ff" points="573.99,-82.51 580.42,-74.09 570.15,-76.66 573.99,-82.51"/>
</a>
</g>
</g>
</g>
</svg>
