<?xml version="1.0" encoding="UTF-8" standalone="no"?>
<!DOCTYPE svg PUBLIC "-//W3C//DTD SVG 1.1//EN"
 "http://www.w3.org/Graphics/SVG/1.1/DTD/svg11.dtd">
<!-- Generated by graphviz version 2.43.0 (0)
 -->
<!-- Title: include/corelib/math/vector.hxx Pages: 1 -->
<!--zoomable 203 -->

<svg id="main" version="1.1" xmlns="http://www.w3.org/2000/svg" xmlns:xlink="http://www.w3.org/1999/xlink" xml:space="preserve" onload="init(evt)">
<style type="text/css"><![CDATA[
.node, .edge {opacity: 0.7;}
.node.selected, .edge.selected {opacity: 1;}
.edge:hover path { stroke: red; }
.edge:hover polygon { stroke: red; fill: red; }
]]></style>

<defs>
  <circle id="rim" cx="0" cy="0" r="7"/>
  <circle id="rim2" cx="0" cy="0" r="3.5"/>
  <g id="zoomPlus">
    <use xlink:href="#rim" fill="#404040"><set attributeName="fill" to="#808080" begin="zoomplus.mouseover" end="zoomplus.mouseout"/></use>
    <path d="M-4,0h8M0,-4v8" fill="none" stroke="white" stroke-width="1.5" pointer-events="none"/>
  </g>
  <g id="zoomMin">
    <use xlink:href="#rim" fill="#404040"><set attributeName="fill" to="#808080" begin="zoomminus.mouseover" end="zoomminus.mouseout"/></use>
    <path d="M-4,0h8" fill="none" stroke="white" stroke-width="1.5" pointer-events="none"/>
  </g>
  <g id="arrowUp" transform="translate(30 24)">
    <use xlink:href="#rim"/>
    <path pointer-events="none" fill="none" stroke="white" stroke-width="1.5" d="M0,-3.0v7 M-2.5,-0.5L0,-3.0L2.5,-0.5"/>
  </g>
  <g id="arrowRight" transform="rotate(90) translate(36 -43)">
    <use xlink:href="#rim"/>
    <path pointer-events="none" fill="none" stroke="white" stroke-width="1.5" d="M0,-3.0v7 M-2.5,-0.5L0,-3.0L2.5,-0.5"/>
  </g>
  <g id="arrowDown" transform="rotate(180) translate(-30 -48)">
    <use xlink:href="#rim"/>
    <path pointer-events="none" fill="none" stroke="white" stroke-width="1.5" d="M0,-3.0v7 M-2.5,-0.5L0,-3.0L2.5,-0.5"/>
  </g>
  <g id="arrowLeft" transform="rotate(270) translate(-36 17)">
    <use xlink:href="#rim"/>
    <path pointer-events="none" fill="none" stroke="white" stroke-width="1.5" d="M0,-3.0v7 M-2.5,-0.5L0,-3.0L2.5,-0.5"/>
  </g>
  <g id="resetDef">
    <use xlink:href="#rim2" fill="#404040"><set attributeName="fill" to="#808080" begin="reset.mouseover" end="reset.mouseout"/></use>
  </g>
</defs>
<script type="application/ecmascript">
var viewWidth = 618;
var viewHeight = 203;
var sectionId = 'dynsection-0';
</script>
<script type="application/ecmascript" xlink:href="svg.min.js"/>
<svg id="graph" class="graph">
<g id="viewport">
<title>include/corelib/math/vector.hxx</title>
<!-- Node1 -->
<g id="Node000001" class="node">
<title>Node1</title>
<g id="a_Node000001"><a xlink:title="Convenience header for all vector classes.">
<polygon fill="#999999" stroke="#666666" points="362.5,-195 246.5,-195 246.5,-165 362.5,-165 362.5,-195"/>
<text text-anchor="start" x="254.5" y="-183" font-family="Helvetica,sans-Serif" font-size="10.00">include/corelib/math</text>
<text text-anchor="middle" x="304.5" y="-172" font-family="Helvetica,sans-Serif" font-size="10.00">/vector.hxx</text>
</a>
</g>
</g>
<!-- Node2 -->
<g id="Node000002" class="node">
<title>Node2</title>
<g id="a_Node000002"><a xlink:href="vector1_8hxx.html" target="_top" xlink:title=" ">
<polygon fill="white" stroke="#666666" points="453,-129 314,-129 314,-110 453,-110 453,-129"/>
<text text-anchor="middle" x="383.5" y="-117" font-family="Helvetica,sans-Serif" font-size="10.00">corelib/math/vector1.hxx</text>
</a>
</g>
</g>
<!-- Node1&#45;&gt;Node2 -->
<g id="edge1_Node000001_Node000002" class="edge">
<title>Node1&#45;&gt;Node2</title>
<g id="a_edge1_Node000001_Node000002"><a xlink:title=" ">
<path fill="none" stroke="#63b8ff" d="M323.62,-164.84C335.68,-155.91 351.21,-144.41 363.44,-135.35"/>
<polygon fill="#63b8ff" stroke="#63b8ff" points="365.71,-138.03 371.66,-129.27 361.54,-132.4 365.71,-138.03"/>
</a>
</g>
</g>
<!-- Node7 -->
<g id="Node000007" class="node">
<title>Node7</title>
<g id="a_Node000007"><a xlink:href="vector2_8hxx.html" target="_top" xlink:title=" ">
<polygon fill="white" stroke="#666666" points="610,-129 471,-129 471,-110 610,-110 610,-129"/>
<text text-anchor="middle" x="540.5" y="-117" font-family="Helvetica,sans-Serif" font-size="10.00">corelib/math/vector2.hxx</text>
</a>
</g>
</g>
<!-- Node1&#45;&gt;Node7 -->
<g id="edge6_Node000001_Node000007" class="edge">
<title>Node1&#45;&gt;Node7</title>
<g id="a_edge6_Node000001_Node000007"><a xlink:title=" ">
<path fill="none" stroke="#63b8ff" d="M361.03,-164.99C402.46,-154.72 457.93,-140.97 496.17,-131.49"/>
<polygon fill="#63b8ff" stroke="#63b8ff" points="497.13,-134.86 505.99,-129.05 495.44,-128.06 497.13,-134.86"/>
</a>
</g>
</g>
<!-- Node8 -->
<g id="Node000008" class="node">
<title>Node8</title>
<g id="a_Node000008"><a xlink:href="vector3_8hxx.html" target="_top" xlink:title=" ">
<polygon fill="white" stroke="#666666" points="139,-129 0,-129 0,-110 139,-110 139,-129"/>
<text text-anchor="middle" x="69.5" y="-117" font-family="Helvetica,sans-Serif" font-size="10.00">corelib/math/vector3.hxx</text>
</a>
</g>
</g>
<!-- Node1&#45;&gt;Node8 -->
<g id="edge10_Node000001_Node000008" class="edge">
<title>Node1&#45;&gt;Node8</title>
<g id="a_edge10_Node000001_Node000008"><a xlink:title=" ">
<path fill="none" stroke="#63b8ff" d="M248.21,-164.99C206.95,-154.72 151.72,-140.97 113.64,-131.49"/>
<polygon fill="#63b8ff" stroke="#63b8ff" points="114.41,-128.07 103.86,-129.05 112.72,-134.87 114.41,-128.07"/>
</a>
</g>
</g>
<!-- Node9 -->
<g id="Node000009" class="node">
<title>Node9</title>
<g id="a_Node000009"><a xlink:href="vector4_8hxx.html" target="_top" xlink:title=" ">
<polygon fill="white" stroke="#666666" points="296,-129 157,-129 157,-110 296,-110 296,-129"/>
<text text-anchor="middle" x="226.5" y="-117" font-family="Helvetica,sans-Serif" font-size="10.00">corelib/math/vector4.hxx</text>
</a>
</g>
</g>
<!-- Node1&#45;&gt;Node9 -->
<g id="edge14_Node000001_Node000009" class="edge">
<title>Node1&#45;&gt;Node9</title>
<g id="a_edge14_Node000001_Node000009"><a xlink:title=" ">
<path fill="none" stroke="#63b8ff" d="M285.62,-164.84C273.72,-155.91 258.38,-144.41 246.3,-135.35"/>
<polygon fill="#63b8ff" stroke="#63b8ff" points="248.29,-132.47 238.19,-129.27 244.09,-138.07 248.29,-132.47"/>
</a>
</g>
</g>
<!-- Node3 -->
<g id="Node000003" class="node">
<title>Node3</title>
<g id="a_Node000003"><a xlink:title=" ">
<polygon fill="#e0e0e0" stroke="#999999" points="211,-74 164,-74 164,-55 211,-55 211,-74"/>
<text text-anchor="middle" x="187.5" y="-62" font-family="Helvetica,sans-Serif" font-size="10.00">cmath</text>
</a>
</g>
</g>
<!-- Node2&#45;&gt;Node3 -->
<g id="edge2_Node000002_Node000003" class="edge">
<title>Node2&#45;&gt;Node3</title>
<g id="a_edge2_Node000002_Node000003"><a xlink:title=" ">
<path fill="none" stroke="#63b8ff" d="M352.01,-109.98C316.1,-100.28 257.65,-84.47 220.95,-74.54"/>
<polygon fill="#63b8ff" stroke="#63b8ff" points="221.77,-71.14 211.21,-71.91 219.95,-77.9 221.77,-71.14"/>
</a>
</g>
</g>
<!-- Node4 -->
<g id="Node000004" class="node">
<title>Node4</title>
<g id="a_Node000004"><a xlink:title=" ">
<polygon fill="#e0e0e0" stroke="#999999" points="330,-74 229,-74 229,-55 330,-55 330,-74"/>
<text text-anchor="middle" x="279.5" y="-62" font-family="Helvetica,sans-Serif" font-size="10.00">debug/assert.hxx</text>
</a>
</g>
</g>
<!-- Node2&#45;&gt;Node4 -->
<g id="edge3_Node000002_Node000004" class="edge">
<title>Node2&#45;&gt;Node4</title>
<g id="a_edge3_Node000002_Node000004"><a xlink:title=" ">
<path fill="none" stroke="#63b8ff" d="M366.79,-109.98C350.29,-101.57 324.8,-88.59 305.62,-78.81"/>
<polygon fill="#63b8ff" stroke="#63b8ff" points="307.01,-75.59 296.51,-74.17 303.83,-81.83 307.01,-75.59"/>
</a>
</g>
</g>
<!-- Node5 -->
<g id="Node000005" class="node">
<title>Node5</title>
<g id="a_Node000005"><a xlink:href="tracing_8hxx.html" target="_top" xlink:title=" ">
<polygon fill="white" stroke="#666666" points="496.5,-74 348.5,-74 348.5,-55 496.5,-55 496.5,-74"/>
<text text-anchor="middle" x="422.5" y="-62" font-family="Helvetica,sans-Serif" font-size="10.00">corelib/internal/tracing.hxx</text>
</a>
</g>
</g>
<!-- Node2&#45;&gt;Node5 -->
<g id="edge4_Node000002_Node000005" class="edge">
<title>Node2&#45;&gt;Node5</title>
<g id="a_edge4_Node000002_Node000005"><a xlink:title=" ">
<path fill="none" stroke="#63b8ff" d="M389.94,-109.75C395.39,-102.34 403.36,-91.5 410.06,-82.41"/>
<polygon fill="#63b8ff" stroke="#63b8ff" points="413.07,-84.22 416.18,-74.09 407.43,-80.07 413.07,-84.22"/>
</a>
</g>
</g>
<!-- Node6 -->
<g id="Node000006" class="node">
<title>Node6</title>
<g id="a_Node000006"><a xlink:title=" ">
<polygon fill="#e0e0e0" stroke="#999999" points="474.5,-19 370.5,-19 370.5,0 474.5,0 474.5,-19"/>
<text text-anchor="middle" x="422.5" y="-7" font-family="Helvetica,sans-Serif" font-size="10.00">debug/tracing.hxx</text>
</a>
</g>
</g>
<!-- Node5&#45;&gt;Node6 -->
<g id="edge5_Node000005_Node000006" class="edge">
<title>Node5&#45;&gt;Node6</title>
<g id="a_edge5_Node000005_Node000006"><a xlink:title=" ">
<path fill="none" stroke="#63b8ff" d="M422.5,-54.75C422.5,-47.8 422.5,-37.85 422.5,-29.13"/>
<polygon fill="#63b8ff" stroke="#63b8ff" points="426,-29.09 422.5,-19.09 419,-29.09 426,-29.09"/>
</a>
</g>
</g>
<!-- Node7&#45;&gt;Node3 -->
<g id="edge7_Node000007_Node000003" class="edge">
<title>Node7&#45;&gt;Node3</title>
<g id="a_edge7_Node000007_Node000003"><a xlink:title=" ">
<path fill="none" stroke="#63b8ff" d="M472.61,-109.98C397.89,-100.46 281.47,-85.12 221.41,-73.92"/>
<polygon fill="#63b8ff" stroke="#63b8ff" points="221.7,-70.42 211.22,-71.95 220.37,-77.29 221.7,-70.42"/>
</a>
</g>
</g>
<!-- Node7&#45;&gt;Node4 -->
<g id="edge8_Node000007_Node000004" class="edge">
<title>Node7&#45;&gt;Node4</title>
<g id="a_edge8_Node000007_Node000004"><a xlink:title=" ">
<path fill="none" stroke="#63b8ff" d="M498.57,-109.98C453.23,-100.78 380.89,-86.09 331.85,-76.13"/>
<polygon fill="#63b8ff" stroke="#63b8ff" points="332.26,-72.64 321.76,-74.08 330.87,-79.5 332.26,-72.64"/>
</a>
</g>
</g>
<!-- Node7&#45;&gt;Node5 -->
<g id="edge9_Node000007_Node000005" class="edge">
<title>Node7&#45;&gt;Node5</title>
<g id="a_edge9_Node000007_Node000005"><a xlink:title=" ">
<path fill="none" stroke="#63b8ff" d="M521.54,-109.98C502.47,-101.42 472.84,-88.11 450.95,-78.28"/>
<polygon fill="#63b8ff" stroke="#63b8ff" points="452.36,-75.07 441.8,-74.17 449.49,-81.46 452.36,-75.07"/>
</a>
</g>
</g>
<!-- Node8&#45;&gt;Node3 -->
<g id="edge11_Node000008_Node000003" class="edge">
<title>Node8&#45;&gt;Node3</title>
<g id="a_edge11_Node000008_Node000003"><a xlink:title=" ">
<path fill="none" stroke="#63b8ff" d="M88.46,-109.98C107.53,-101.42 137.16,-88.11 159.05,-78.28"/>
<polygon fill="#63b8ff" stroke="#63b8ff" points="160.51,-81.46 168.2,-74.17 157.64,-75.07 160.51,-81.46"/>
</a>
</g>
</g>
<!-- Node8&#45;&gt;Node4 -->
<g id="edge12_Node000008_Node000004" class="edge">
<title>Node8&#45;&gt;Node4</title>
<g id="a_edge12_Node000008_Node000004"><a xlink:title=" ">
<path fill="none" stroke="#63b8ff" d="M103.24,-109.98C139.18,-100.91 196.22,-86.52 235.63,-76.57"/>
<polygon fill="#63b8ff" stroke="#63b8ff" points="236.66,-79.92 245.5,-74.08 234.94,-73.14 236.66,-79.92"/>
</a>
</g>
</g>
<!-- Node8&#45;&gt;Node5 -->
<g id="edge13_Node000008_Node000005" class="edge">
<title>Node8&#45;&gt;Node5</title>
<g id="a_edge13_Node000008_Node000005"><a xlink:title=" ">
<path fill="none" stroke="#63b8ff" d="M126.22,-109.98C188.78,-100.59 289.36,-85.49 355.7,-75.53"/>
<polygon fill="#63b8ff" stroke="#63b8ff" points="356.26,-78.98 365.63,-74.04 355.22,-72.06 356.26,-78.98"/>
</a>
</g>
</g>
<!-- Node9&#45;&gt;Node3 -->
<g id="edge15_Node000009_Node000003" class="edge">
<title>Node9&#45;&gt;Node3</title>
<g id="a_edge15_Node000009_Node000003"><a xlink:title=" ">
<path fill="none" stroke="#63b8ff" d="M220.06,-109.75C214.61,-102.34 206.64,-91.5 199.94,-82.41"/>
<polygon fill="#63b8ff" stroke="#63b8ff" points="202.57,-80.07 193.82,-74.09 196.93,-84.22 202.57,-80.07"/>
</a>
</g>
</g>
<!-- Node9&#45;&gt;Node4 -->
<g id="edge16_Node000009_Node000004" class="edge">
<title>Node9&#45;&gt;Node4</title>
<g id="a_edge16_Node000009_Node000004"><a xlink:title=" ">
<path fill="none" stroke="#63b8ff" d="M235.25,-109.75C242.97,-102.03 254.4,-90.6 263.72,-81.28"/>
<polygon fill="#63b8ff" stroke="#63b8ff" points="266.31,-83.64 270.91,-74.09 261.36,-78.69 266.31,-83.64"/>
</a>
</g>
</g>
<!-- Node9&#45;&gt;Node5 -->
<g id="edge17_Node000009_Node000005" class="edge">
<title>Node9&#45;&gt;Node5</title>
<g id="a_edge17_Node000009_Node000005"><a xlink:title=" ">
<path fill="none" stroke="#63b8ff" d="M257.99,-109.98C291.32,-100.97 344.1,-86.7 380.85,-76.76"/>
<polygon fill="#63b8ff" stroke="#63b8ff" points="382.02,-80.07 390.76,-74.08 380.2,-73.31 382.02,-80.07"/>
</a>
</g>
</g>
</g>
</svg>

<g id="navigator" transform="translate(0 0)" fill="#404254">
  <rect fill="#f2f5e9" fill-opacity="0.5" stroke="#606060" stroke-width=".5" x="0" y="0" width="60" height="60"/>
  <use id="zoomplus" xlink:href="#zoomPlus" x="17" y="9" onmousedown="handleZoom(evt,'in')"/>
  <use id="zoomminus" xlink:href="#zoomMin" x="42" y="9" onmousedown="handleZoom(evt,'out')"/>
  <use id="reset" xlink:href="#resetDef" x="30" y="36" onmousedown="handleReset()"/>
   <use id="arrowup" xlink:href="#arrowUp" x="0" y="0" onmousedown="handlePan(0,-1)"/>
  <use id="arrowright" xlink:href="#arrowRight" x="0" y="0" onmousedown="handlePan(1,0)"/>
  <use id="arrowdown" xlink:href="#arrowDown" x="0" y="0" onmousedown="handlePan(0,1)"/>
  <use id="arrowleft" xlink:href="#arrowLeft" x="0" y="0" onmousedown="handlePan(-1,0)"/>
</g>
<svg viewBox="0 0 15 15" width="100%" height="30px" preserveAspectRatio="xMaxYMin meet">
 <g id="arrow_out" transform="scale(0.3 0.3)">
  <a xlink:href="vector_8hxx__incl_org.svg" target="_base">
   <rect id="button" ry="5" rx="5" y="6" x="6" height="38" width="38"
        fill="#f2f5e9" fill-opacity="0.5" stroke="#606060" stroke-width="1.0"/>
   <path id="arrow"
     d="M 11.500037,31.436501 C 11.940474,20.09759 22.043105,11.32322 32.158766,21.979434 L 37.068811,17.246167 C 37.068811,17.246167 37.088388,32 37.088388,32 L 22.160133,31.978069 C 22.160133,31.978069 26.997745,27.140456 26.997745,27.140456 C 18.528582,18.264221 13.291696,25.230495 11.500037,31.436501 z"
     style="fill:#404040;"/>
  </a>
 </g>
</svg>

<style type='text/css'>
<![CDATA[
[data-mouse-over-selected='false'] { opacity: 0.7; }
[data-mouse-over-selected='true']  { opacity: 1.0; }
]]>
</style>
<script type="application/ecmascript"><![CDATA[
document.addEventListener('DOMContentLoaded', (event) => {
  highlightEdges();
  highlightAdjacentNodes();
});
]]></script>
</svg>
